<?xml version="1.0" standalone="no"?>
<!DOCTYPE svg PUBLIC "-//W3C//DTD SVG 1.1//EN" "http://www.w3.org/Graphics/SVG/1.1/DTD/svg11.dtd" >
<svg xmlns="http://www.w3.org/2000/svg" xmlns:xlink="http://www.w3.org/1999/xlink" version="1.1">
<metadata>
Created by FontForge 20190801 at Thu Sep 26 21:12:24 2013
 By Jimmy Wärting
Copyright 2013 Adobe Systems Incorporated. All rights reserved.
</metadata>
<defs>
<font id="LavaHeavy" horiz-adv-x="562" >
  <font-face 
    font-family="Lava Heavy"
    font-weight="900"
    font-stretch="normal"
    units-per-em="1000"
    panose-1="2 0 0 0 0 0 0 0 0 0"
    ascent="744"
    descent="-256"
    x-height="500"
    cap-height="693"
    bbox="-164 -284 1191 1082"
    underline-thickness="0"
    underline-position="0"
    stemh="55"
    stemv="191"
    unicode-range="U+000D-FB02"
  />
<missing-glyph horiz-adv-x="712" 
d="M305 402h27v-27h-27v27zM380 552h27v-27h-27v27zM305 552h27v-27h-27v27zM230 552h27v-27h-27v27zM80 27h27v-27h-27v27zM155 27h27v-27h-27v27zM230 27h27v-27h-27v27zM305 27h27v-27h-27v27zM380 27h27v-27h-27v27zM80 102h27v-27h-27v27zM80 177h27v-27h-27v27z
M80 252h27v-27h-27v27zM80 327h27v-27h-27v27zM80 402h27v-27h-27v27zM80 477h27v-27h-27v27zM80 552h27v-27h-27v27zM80 627h27v-27h-27v27zM80 702h27v-27h-27v27zM155 702h27v-27h-27v27zM230 702h27v-27h-27v27zM305 702h27v-27h-27v27zM380 702h27v-27h-27v27zM455 702
h27v-27h-27v27zM530 702h27v-27h-27v27zM530 27h27v-27h-27v27zM455 27h27v-27h-27v27zM605 27h27v-27h-27v27zM605 702h27v-27h-27v27zM305 327h27v-27h-27v27zM305 177h27v-27h-27v27zM380 402h27v-27h-27v27zM455 402h27v-27h-27v27zM455 477h27v-27h-27v27zM455 552h27
v-27h-27v27zM605 627h27v-27h-27v27zM605 552h27v-27h-27v27zM605 402h27v-27h-27v27zM605 327h27v-27h-27v27zM605 177h27v-27h-27v27zM605 102h27v-27h-27v27zM605 252h27v-27h-27v27zM605 477h27v-27h-27v27z" />
    <glyph glyph-name=".notdef" horiz-adv-x="712" 
d="M305 402h27v-27h-27v27zM380 552h27v-27h-27v27zM305 552h27v-27h-27v27zM230 552h27v-27h-27v27zM80 27h27v-27h-27v27zM155 27h27v-27h-27v27zM230 27h27v-27h-27v27zM305 27h27v-27h-27v27zM380 27h27v-27h-27v27zM80 102h27v-27h-27v27zM80 177h27v-27h-27v27z
M80 252h27v-27h-27v27zM80 327h27v-27h-27v27zM80 402h27v-27h-27v27zM80 477h27v-27h-27v27zM80 552h27v-27h-27v27zM80 627h27v-27h-27v27zM80 702h27v-27h-27v27zM155 702h27v-27h-27v27zM230 702h27v-27h-27v27zM305 702h27v-27h-27v27zM380 702h27v-27h-27v27zM455 702
h27v-27h-27v27zM530 702h27v-27h-27v27zM530 27h27v-27h-27v27zM455 27h27v-27h-27v27zM605 27h27v-27h-27v27zM605 702h27v-27h-27v27zM305 327h27v-27h-27v27zM305 177h27v-27h-27v27zM380 402h27v-27h-27v27zM455 402h27v-27h-27v27zM455 477h27v-27h-27v27zM455 552h27
v-27h-27v27zM605 627h27v-27h-27v27zM605 552h27v-27h-27v27zM605 402h27v-27h-27v27zM605 327h27v-27h-27v27zM605 177h27v-27h-27v27zM605 102h27v-27h-27v27zM605 252h27v-27h-27v27zM605 477h27v-27h-27v27z" />
    <glyph glyph-name="uni000D" unicode="&#xd;" horiz-adv-x="240" 
 />
    <glyph glyph-name="space" unicode=" " horiz-adv-x="240" 
 />
    <glyph glyph-name="C" unicode="C" horiz-adv-x="690" 
d="M416 659c-120 0 -163 -145 -163 -297c0 -199 43 -326 164 -326c88 0 154 85 180 183h48v-163c-57 -45 -131 -71 -231 -71c-216 0 -379 125 -379 353c0 232 166 371 393 371c81 0 154 -18 217 -54v-189h-48c-39 137 -104 193 -181 193z" />
    <glyph glyph-name="D" unicode="D" horiz-adv-x="808" 
d="M302 638v-583h52c176 0 199 138 199 292c0 169 -36 291 -195 291h-56zM42 38c13 1 24 3 33 8c15 8 23 24 23 48v505c0 24 -9 38 -24 47c-9 5 -20 8 -32 9v38h350c220 0 379 -99 379 -326c0 -234 -182 -367 -390 -367h-339v38z" />
    <glyph glyph-name="E" unicode="E" horiz-adv-x="669" 
d="M42 38c15 1 29 4 38 11c16 12 18 29 18 58v479c0 32 -4 47 -21 58c-8 5 -12 8 -35 11v38h563v-177h-46c-24 96 -70 122 -156 122h-101v-259h70c28 0 46 9 58 25c11 16 15 37 18 64h47v-232h-47c-3 23 -6 45 -17 61c-11 17 -28 28 -59 28h-70v-270h124
c97 0 132 39 169 153l42 -4l-20 -204h-575v38z" />
    <glyph glyph-name="F" unicode="F" horiz-adv-x="621" 
d="M302 638v-269h83c28 0 46 9 58 25c11 16 15 37 18 64h47v-232h-47c-3 23 -6 45 -17 62s-28 28 -59 28h-83v-215c0 -27 10 -41 27 -50c11 -7 28 -11 49 -13v-38h-336v38c13 1 24 3 33 8c15 8 23 24 23 48v492c0 32 -4 47 -21 58c-8 5 -12 8 -35 11v38h563v-177h-46
c-24 96 -70 122 -156 122h-101z" />
    <glyph glyph-name="G" unicode="G" horiz-adv-x="743" 
d="M675 63c-55 -45 -163 -78 -261 -78c-216 0 -379 125 -379 353c0 232 176 371 403 371c83 0 173 -18 237 -54v-179h-40c-32 131 -111 188 -199 188c-154 0 -183 -151 -183 -302c0 -199 32 -332 172 -332c15 0 30 3 46 10v192c0 24 -9 38 -24 47c-9 5 -20 8 -32 9v38h300
v-38c-14 -2 -24 -9 -31 -20c-6 -11 -9 -23 -9 -36v-169z" />
    <glyph glyph-name="H" unicode="H" horiz-adv-x="859" 
d="M557 599c0 24 -9 38 -24 47c-9 5 -20 8 -32 9v38h316v-38c-13 -1 -24 -3 -33 -8c-15 -8 -23 -24 -23 -48v-505c0 -24 9 -38 24 -47c9 -5 20 -8 32 -9v-38h-316v38c13 1 24 3 33 8c15 8 23 24 23 48v244h-255v-244c0 -24 9 -38 24 -47c9 -5 20 -8 32 -9v-38h-316v38
c13 1 24 3 33 8c15 8 23 24 23 48v505c0 24 -9 38 -24 47c-9 5 -20 8 -32 9v38h316v-38c-13 -1 -24 -3 -33 -8c-15 -8 -23 -24 -23 -48v-212h255v212z" />
    <glyph glyph-name="I" unicode="I" horiz-adv-x="400" 
d="M302 94c0 -24 9 -38 24 -47c9 -5 20 -8 32 -9v-38h-316v38c13 1 24 3 33 8c15 8 23 24 23 48v505c0 24 -9 38 -24 47c-9 5 -20 8 -32 9v38h316v-38c-13 -1 -24 -3 -33 -8c-15 -8 -23 -24 -23 -48v-505z" />
    <glyph glyph-name="J" unicode="J" horiz-adv-x="389" 
d="M297 104c0 -147 -119 -328 -303 -328c-115 0 -148 40 -148 91c0 36 22 75 73 75c97 0 53 -121 110 -121c53 0 64 95 64 250v528c0 24 -9 38 -24 47c-9 5 -20 8 -32 9v38h316v-38c-13 -1 -24 -3 -33 -8c-15 -8 -23 -24 -23 -48v-495z" />
    <glyph glyph-name="K" unicode="K" horiz-adv-x="760" 
d="M302 94c0 -23 9 -40 24 -47c10 -5 21 -8 32 -9v-38h-316v38c13 1 24 3 33 8c15 8 23 24 23 48v505c0 23 -9 40 -24 47c-10 5 -21 8 -32 9v38h316v-38c-13 -1 -24 -3 -33 -8c-15 -8 -23 -24 -23 -48v-505zM325 326l177 201c23 25 39 46 39 69c0 31 -19 55 -75 58v39h290
v-39c-51 -7 -98 -30 -142 -77l-136 -144l184 -305c31 -53 67 -82 108 -89l-3 -39h-259l-183 319v7z" />
    <glyph glyph-name="L" unicode="L" horiz-adv-x="614" 
d="M42 38c19 1 32 5 41 13c10 10 15 29 15 56v492c0 24 -9 38 -24 47c-9 5 -20 8 -32 9v38h316v-38c-13 -1 -24 -3 -33 -8c-15 -8 -23 -24 -23 -48v-544h57c114 0 160 62 197 177l42 -4l-16 -228h-540v38z" />
    <glyph glyph-name="M" unicode="M" horiz-adv-x="940" 
d="M478 342l170 351h250v-38c-13 -1 -24 -3 -33 -8c-15 -8 -23 -24 -23 -48v-505c0 -24 9 -38 24 -47c9 -5 20 -8 32 -9v-38h-316v38c13 1 24 3 33 8c15 8 23 24 23 48v429l-201 -406h-47l-205 406v-391c0 -39 12 -61 32 -74c17 -11 38 -18 64 -21v-37h-261v37
c21 3 40 8 57 17c23 12 39 35 39 78v408c0 35 -7 62 -21 81c-15 20 -39 32 -70 36v36h278z" />
    <glyph glyph-name="N" unicode="N" horiz-adv-x="803" 
d="M563 -4l-378 508v-372c0 -39 12 -61 32 -74c17 -11 38 -18 64 -21v-37h-261v37c21 3 40 8 57 17c23 12 39 35 39 78v408c0 69 -27 108 -91 117v36h275l328 -427v295c0 39 -12 61 -32 74c-17 11 -38 18 -64 21v37h261v-37c-21 -3 -40 -8 -57 -17c-23 -12 -39 -35 -39 -78
v-565h-134z" />
    <glyph glyph-name="O" unicode="O" horiz-adv-x="816" 
d="M781 352c0 -222 -161 -367 -381 -367c-205 0 -365 127 -365 356c0 235 167 368 377 368c213 0 369 -138 369 -357zM563 339c0 182 -21 325 -156 325c-139 0 -154 -147 -154 -310c0 -197 23 -322 151 -322c146 0 159 161 159 307z" />
    <glyph glyph-name="P" unicode="P" horiz-adv-x="682" 
d="M302 273v-179c0 -24 9 -38 24 -47c9 -5 20 -8 32 -9v-38h-316v38c13 1 24 3 33 8c15 8 23 24 23 48v505c0 24 -9 38 -24 47c-9 5 -20 8 -32 9v38h383c121 0 243 -57 243 -197c0 -144 -127 -223 -257 -223h-109zM302 638v-310h45c92 0 121 67 121 158
c0 87 -28 152 -105 152h-61z" />
    <glyph glyph-name="Q" unicode="Q" horiz-adv-x="816" 
d="M781 352c0 -167 -90 -290 -229 -341c-12 -5 -24 -8 -37 -11c8 -24 16 -44 25 -61c37 -75 72 -89 118 -89c16 0 57 4 73 7v-39c-35 -19 -108 -44 -199 -44c-114 0 -159 54 -189 148c-7 21 -15 45 -22 70c-22 4 -44 9 -65 16c-131 48 -221 160 -221 333
c0 235 167 368 377 368c213 0 369 -138 369 -357zM563 339c0 182 -21 325 -156 325c-139 0 -154 -147 -154 -310c0 -197 23 -322 151 -322c146 0 159 161 159 307z" />
    <glyph glyph-name="R" unicode="R" horiz-adv-x="752" 
d="M668 510c0 -86 -68 -145 -151 -180h5l152 -213c39 -53 62 -72 98 -77l-3 -40h-254l-191 298h-22v-204c0 -24 9 -38 24 -47c9 -5 20 -8 32 -9v-38h-316v38c13 1 24 3 33 8c15 8 23 24 23 48v505c0 24 -9 38 -24 47c-9 5 -20 8 -32 9v38h383c121 0 243 -43 243 -183z
M302 638v-285h45c93 0 121 52 121 143c0 88 -28 142 -105 142h-61z" />
    <glyph glyph-name="S" unicode="S" horiz-adv-x="630" 
d="M286 -15c-80 0 -170 16 -238 55v187h46c45 -139 114 -192 207 -192c72 0 115 30 115 97c0 32 -10 86 -105 115l-59 18c-101 32 -199 75 -199 208c0 136 106 238 294 235c75 -1 146 -16 214 -55v-179h-51c-33 129 -88 184 -173 184c-75 0 -113 -40 -113 -95
c0 -48 30 -91 91 -110l80 -24c140 -43 198 -111 198 -211c0 -152 -132 -233 -307 -233z" />
    <glyph glyph-name="T" unicode="T" horiz-adv-x="704" 
d="M453 648v-554c0 -24 9 -38 24 -47c9 -5 20 -8 32 -9v-38h-316v38c13 1 24 3 33 8c15 8 23 24 23 48v554h-19c-96 0 -152 -76 -176 -172h-36v217h668v-217h-36c-24 96 -80 172 -176 172h-21z" />
    <glyph glyph-name="U" unicode="U" horiz-adv-x="776" 
d="M290 246c0 -119 43 -187 160 -187c99 0 160 73 160 181v329c-3 35 -13 54 -32 66c-17 11 -38 18 -64 21v37h261v-37c-20 -3 -40 -8 -57 -17c-23 -12 -38 -33 -39 -72v-318c0 -152 -118 -263 -281 -263c-155 0 -312 79 -312 248v365c0 24 -9 38 -24 47c-9 5 -20 8 -32 9
v38h316v-38c-13 -1 -24 -3 -33 -8c-15 -8 -23 -24 -23 -48v-353z" />
    <glyph glyph-name="V" unicode="V" horiz-adv-x="717" 
d="M272 604c0 -7 1 -13 4 -20l150 -390l159 386c4 9 6 17 6 24c0 33 -37 44 -85 51v38h229v-38c-36 -4 -62 -25 -77 -56l-263 -608h-84l-244 608c-12 35 -37 53 -72 56v38h339v-38c-39 -5 -62 -23 -62 -51z" />
    <glyph glyph-name="W" unicode="W" horiz-adv-x="1055" 
d="M642 693l157 -482l120 361c3 10 5 18 5 24c1 37 -31 56 -82 59v38h229v-38c-36 -4 -63 -19 -84 -76l-213 -585h-91l-161 469l-164 -470h-94l-190 606c-11 36 -39 53 -72 56v38h339v-38c-40 -3 -63 -19 -63 -50c0 -7 1 -13 3 -19l101 -367l157 474h103z" />
    <glyph glyph-name="X" unicode="X" horiz-adv-x="707" 
d="M-1 693h366v-41c-36 0 -61 -15 -61 -40c0 -10 4 -20 11 -31l89 -136l91 116c14 18 21 34 21 48c0 25 -23 40 -60 43v41h239v-41c-35 -7 -66 -29 -102 -69l-154 -190l195 -296c19 -29 47 -49 76 -56v-41h-376v41c56 5 88 18 88 42c0 8 -4 18 -12 29l-107 161l-106 -144
c-12 -15 -18 -29 -18 -41c0 -25 20 -41 61 -47v-41h-238v41c40 11 74 43 105 75l162 210l-178 270c-25 39 -59 53 -92 56v41z" />
    <glyph glyph-name="Y" unicode="Y" horiz-adv-x="702" 
d="M294 595c0 -9 3 -19 8 -30l115 -222l114 216c8 16 12 30 12 41c0 35 -33 51 -76 52v41h245v-40c-39 -4 -73 -20 -94 -57l-164 -291v-211c0 -24 9 -38 24 -47c9 -5 20 -8 32 -9v-38h-316v38c13 1 24 3 33 8c15 8 23 24 23 48v200l-168 302c-20 36 -43 49 -86 56v41h376
v-41c-56 -7 -78 -29 -78 -57z" />
    <glyph glyph-name="Z" unicode="Z" horiz-adv-x="664" 
d="M629 222l-14 -222h-592l-5 17l371 626h-130c-92 0 -140 -34 -175 -141l-39 2l12 189h562l7 -17l-371 -626h109c140 0 171 43 227 176z" />
    <glyph glyph-name="a" unicode="a" horiz-adv-x="573" 
d="M502 108c0 -49 10 -62 49 -62c5 -1 11 0 18 0l1 -23c-27 -15 -79 -38 -146 -38c-93 0 -113 41 -113 99v11c-32 -56 -85 -109 -164 -109c-76 0 -120 47 -120 119c0 96 79 127 180 148l104 21v18c0 59 -22 98 -97 98c-41 0 -100 -9 -168 -25v71c85 47 181 79 262 79
c141 0 194 -79 194 -211v-196zM259 109c16 0 33 3 52 10v115l-52 -13c-35 -9 -61 -24 -61 -60c0 -39 30 -52 61 -52z" />
    <glyph glyph-name="b" unicode="b" horiz-adv-x="638" 
d="M255 421c48 69 96 94 160 94c123 0 191 -93 191 -233c0 -207 -165 -294 -342 -294c-68 0 -136 13 -200 36v615c0 35 -5 43 -46 43c-15 0 -15 -1 -24 -1v35c46 16 135 43 196 43c52 0 65 -19 65 -64v-274zM298 409c-15 0 -27 -2 -43 -9v-353c9 -3 19 -4 32 -4
c88 0 124 100 124 202c0 100 -33 164 -113 164z" />
    <glyph glyph-name="c" unicode="c" horiz-adv-x="535" 
d="M501 76c-49 -48 -118 -91 -223 -91c-156 0 -248 95 -248 244c0 157 102 286 299 286c124 0 184 -50 184 -115c0 -47 -25 -85 -76 -85c-121 0 -51 143 -143 143c-51 0 -80 -84 -80 -176c0 -99 31 -175 143 -175c37 0 91 7 142 26z" />
    <glyph glyph-name="d" unicode="d" horiz-adv-x="663" 
d="M391 639c0 27 -2 36 -21 41c-12 3 -26 2 -49 1v35c46 16 135 43 196 43c52 0 65 -19 65 -64v-587c0 -56 15 -65 67 -62l1 -23c-27 -15 -79 -38 -147 -38c-92 0 -112 42 -112 99v6c-32 -56 -77 -105 -160 -105c-124 0 -200 111 -200 244c0 192 156 286 304 286
c19 0 37 -2 56 -5v129zM339 104c19 0 33 2 52 9v333c-18 7 -35 11 -51 11c-73 0 -118 -61 -118 -181c0 -99 31 -172 117 -172z" />
    <glyph glyph-name="e" unicode="e" 
d="M513 75c-50 -47 -123 -90 -234 -90c-156 0 -248 83 -248 242c0 160 96 288 292 288c139 0 213 -61 213 -182c0 -11 -1 -22 -2 -33l-32 -41h-287c3 -88 30 -152 142 -152c47 0 107 10 154 26zM290 457c-47 0 -72 -66 -75 -150h130c2 14 3 29 3 44c0 64 -19 106 -58 106z
" />
    <glyph glyph-name="f" unicode="f" horiz-adv-x="414" 
d="M10 481h90c24 139 151 278 300 278c66 0 120 -24 120 -76c0 -36 -19 -72 -68 -72c-65 0 -68 82 -111 82c-34 0 -55 -34 -55 -150v-62h126v-48h-126v-340c0 -24 9 -38 24 -47c9 -5 20 -8 32 -9v-37h-303v37c13 1 24 3 33 8c15 8 23 24 23 48v340h-85v48z" />
    <glyph glyph-name="g" unicode="g" horiz-adv-x="600" 
d="M284 195c-36 0 -68 3 -96 9c-7 -9 -7 -16 -7 -23c0 -24 21 -36 78 -36h77c138 0 236 -40 236 -156c0 -119 -103 -215 -322 -215c-151 0 -239 44 -239 116c0 45 35 78 131 105c-63 16 -87 49 -87 93c0 57 42 95 107 122c-80 23 -123 72 -123 140c0 93 82 165 244 165
c78 0 139 -15 182 -45c56 29 34 106 102 106c36 0 53 -21 53 -45c0 -55 -59 -79 -126 -87c19 -23 29 -51 29 -82c0 -100 -94 -167 -239 -167zM250 -17c-31 0 -55 2 -78 5c-10 -14 -15 -32 -15 -55c0 -59 37 -104 129 -104c88 0 134 43 134 96c0 43 -31 58 -100 58h-70z
M335 354c0 68 -16 108 -60 108c-48 0 -53 -46 -53 -103c0 -59 8 -111 61 -111c49 0 52 50 52 106z" />
    <glyph glyph-name="h" unicode="h" horiz-adv-x="690" 
d="M77 639c0 31 -4 40 -33 43c-9 0 -21 0 -37 -1v35c46 16 136 43 194 43c55 0 67 -17 67 -64v-281c53 59 119 101 195 101c112 0 154 -58 154 -183v-239c0 -24 9 -38 24 -47c9 -5 20 -8 32 -9v-37h-303v37c13 1 24 3 33 8c15 8 23 24 23 48v184c0 77 -12 130 -89 130
c-23 0 -42 -3 -69 -14v-300c0 -24 9 -38 24 -47c9 -5 20 -8 32 -9v-37h-303v37c13 1 24 3 33 8c15 8 23 24 23 48v546z" />
    <glyph glyph-name="i" unicode="i" horiz-adv-x="356" 
d="M279 93c0 -24 9 -38 24 -47c9 -5 20 -8 32 -9v-37h-303v37c13 1 24 3 33 8c15 8 23 24 23 48v302c0 31 -4 42 -37 43c-9 0 -20 0 -33 -1v35c46 16 136 43 194 43c55 0 67 -17 67 -64v-358zM84 676c0 63 42 83 91 83s91 -20 91 -83s-42 -83 -91 -83s-91 20 -91 83z" />
    <glyph glyph-name="j" unicode="j" horiz-adv-x="334" 
d="M82 395c0 35 -5 43 -46 43c-7 0 -15 0 -24 -1v35c46 16 136 43 194 43c55 0 67 -17 67 -64v-257c0 -200 -135 -420 -282 -420c-64 0 -90 40 -90 76s26 67 69 67c78 0 32 -91 70 -91c26 0 42 57 42 123v446zM85 676c0 63 42 83 91 83s91 -20 91 -83s-42 -83 -91 -83
s-91 20 -91 83z" />
    <glyph glyph-name="k" unicode="k" horiz-adv-x="634" 
d="M77 639c0 32 -4 42 -39 43c-9 0 -19 0 -31 -1v35c46 16 136 43 194 43c55 0 67 -17 67 -64v-429l89 71c33 27 49 56 49 79c0 27 -21 47 -58 48v36h265v-36c-40 -7 -76 -29 -115 -60l-84 -66l140 -208c29 -45 36 -62 80 -96l-9 -34h-203l-154 245v-152c0 -24 9 -38 24 -47
c9 -5 20 -8 32 -9v-37h-303v37c13 1 24 3 33 8c15 8 23 24 23 48v546z" />
    <glyph glyph-name="l" unicode="l" horiz-adv-x="351" 
d="M80 639c0 31 -3 40 -34 43c-9 0 -21 0 -36 -1v35c46 16 136 43 194 43c55 0 67 -17 67 -64v-602c0 -24 9 -38 24 -47c9 -5 20 -8 32 -9v-37h-303v37c13 1 24 3 33 8c15 8 23 24 23 48v546z" />
    <glyph glyph-name="m" unicode="m" horiz-adv-x="1047" 
d="M279 93c0 -24 9 -38 24 -47c9 -5 20 -8 32 -9v-37h-303v37c13 1 24 3 33 8c15 8 23 24 23 48v302c0 33 -5 43 -42 43c-8 0 -17 0 -28 -1v35c46 16 136 43 194 43c55 0 67 -17 67 -64v-37c53 59 119 101 195 101c85 0 130 -34 146 -106c56 60 120 106 200 106
c112 0 154 -58 154 -183v-239c0 -24 9 -38 24 -47c9 -5 20 -8 32 -9v-37h-303v37c13 1 24 3 33 8c15 8 23 24 23 48v184c0 77 -12 130 -89 130c-24 0 -44 -3 -71 -15c3 -19 5 -37 5 -60v-239c0 -24 9 -38 24 -47c9 -5 20 -8 32 -9v-37h-303v37c13 1 24 3 33 8
c15 8 23 24 23 48v184c0 77 -12 130 -89 130c-23 0 -42 -3 -69 -14v-300z" />
    <glyph glyph-name="n" unicode="n" horiz-adv-x="701" 
d="M279 93c0 -24 9 -38 24 -47c9 -5 20 -8 32 -9v-37h-303v37c13 1 24 3 33 8c15 8 23 24 23 48v302c0 32 -4 42 -37 43c-9 0 -20 0 -33 -1v35c46 16 136 43 194 43c55 0 67 -17 67 -64v-37c53 59 119 101 195 101c112 0 154 -58 154 -183v-239c0 -24 9 -38 24 -47
c9 -5 20 -8 32 -9v-37h-303v37c13 1 24 3 33 8c15 8 23 24 23 48v184c0 77 -12 130 -89 130c-23 0 -42 -3 -69 -14v-300z" />
    <glyph glyph-name="o" unicode="o" horiz-adv-x="627" 
d="M597 275c0 -163 -108 -290 -301 -290c-151 0 -267 79 -267 244c0 176 131 286 310 286c157 0 258 -84 258 -240zM397 241c0 131 -24 216 -90 216c-61 0 -78 -73 -78 -189c0 -130 20 -225 88 -225c56 0 80 67 80 198z" />
    <glyph glyph-name="p" unicode="p" horiz-adv-x="656" 
d="M82 395c0 33 -4 43 -43 43c-7 0 -16 0 -27 -1v35c46 16 135 43 196 43c52 0 65 -19 65 -64v-27c59 77 123 91 168 91c130 0 183 -109 183 -232c0 -204 -148 -294 -351 -297v-110c0 -29 15 -50 54 -50h34v-43h-335v37c13 1 24 3 33 8c15 8 23 24 23 48v519zM320 409
c-15 0 -31 -2 -47 -7v-355c9 -3 19 -4 32 -4c88 0 124 102 124 202c0 96 -33 164 -109 164z" />
    <glyph glyph-name="q" unicode="q" horiz-adv-x="639" 
d="M288 -180h36c35 0 56 19 56 56v202c-35 -52 -87 -93 -156 -93c-112 0 -193 108 -193 245c0 192 156 285 304 285c48 0 91 -10 130 -26l78 26h28v-639c0 -24 9 -38 24 -47c7 -4 17 -8 32 -9v-37h-339v37zM334 96c15 0 31 3 46 9v346c-13 4 -27 6 -40 6
c-71 0 -114 -54 -114 -186c0 -99 35 -175 108 -175z" />
    <glyph glyph-name="r" unicode="r" horiz-adv-x="524" 
d="M279 93c0 -29 22 -50 65 -50h22v-43h-334v37c13 1 24 3 33 8c15 8 23 24 23 48v302c0 35 -4 44 -47 43c-7 0 -14 0 -23 -1v35c46 16 136 43 194 43c55 0 67 -17 67 -64v-27c47 61 97 91 150 91c51 0 91 -32 91 -88c0 -55 -36 -89 -83 -89c-64 0 -58 70 -115 70
c-7 0 -20 -1 -43 -13v-302z" />
    <glyph glyph-name="s" unicode="s" horiz-adv-x="512" 
d="M215 -15c-59 0 -124 12 -176 35l-3 144l41 5c36 -79 87 -130 156 -130c48 0 75 28 75 61c0 35 -32 50 -75 61l-45 12c-68 18 -144 66 -144 158c0 109 105 184 246 184c56 0 116 -11 164 -38l10 -128l-48 -3c-44 88 -90 115 -139 115c-43 0 -65 -27 -65 -59
c0 -39 29 -56 68 -67l55 -14c67 -16 146 -52 146 -148c0 -132 -145 -188 -266 -188z" />
    <glyph glyph-name="t" unicode="t" horiz-adv-x="440" 
d="M5 481h87v116l166 62h25v-178h138v-48h-138v-240c0 -83 22 -107 94 -107c15 0 35 3 54 7v-53c-26 -18 -93 -55 -186 -55c-85 0 -153 42 -153 130v318h-87v48z" />
    <glyph glyph-name="u" unicode="u" horiz-adv-x="679" 
d="M408 395c0 32 -3 42 -38 43c-9 0 -19 0 -32 -1v35c46 16 136 43 194 43c55 0 67 -17 67 -64v-343c0 -56 15 -65 67 -62l1 -23c-27 -15 -79 -38 -146 -38c-90 0 -113 38 -113 93c-52 -58 -100 -93 -181 -93c-107 0 -150 59 -150 183v227c0 35 -5 43 -46 43
c-7 0 -15 0 -24 -1v35c46 16 136 43 194 43c55 0 67 -17 67 -64v-236c0 -68 17 -113 92 -113c15 0 29 1 48 8v285z" />
    <glyph glyph-name="v" unicode="v" horiz-adv-x="595" 
d="M598 461c-35 -8 -61 -37 -76 -72l-184 -397h-85l-187 415c-15 36 -40 50 -67 54v39h324v-39c-39 0 -63 -20 -51 -48l98 -235l76 191c23 57 -2 85 -51 92v39h203v-39z" />
    <glyph glyph-name="w" unicode="w" horiz-adv-x="885" 
d="M554 500l120 -325l71 194c19 61 -2 85 -51 92v39h200v-39c-35 -8 -61 -35 -76 -72l-174 -397h-87l-114 292l-109 -292h-117l-142 415c-13 35 -40 50 -67 54v39h324v-39c-39 0 -59 -17 -51 -48l71 -238l111 325h91z" />
    <glyph glyph-name="x" unicode="x" horiz-adv-x="603" 
d="M519 93c23 -32 48 -50 77 -54v-39h-314v39c39 0 48 24 31 48l-77 105l-51 -65c-39 -51 -23 -84 18 -88v-39h-199v39c35 8 74 33 106 72l101 116l-130 180c-23 32 -40 50 -67 54v39h314v-39c-39 0 -57 -25 -41 -48l83 -115l49 74c25 39 14 80 -27 89v39h199v-39
c-35 -8 -69 -37 -96 -72l-98 -128z" />
    <glyph glyph-name="y" unicode="y" horiz-adv-x="595" 
d="M598 461c-35 -8 -61 -37 -76 -72l-127 -274l-2 -4l-52 -113c-29 -64 -94 -224 -228 -224c-57 0 -79 23 -79 56c0 39 23 67 76 67c89 0 125 7 160 58l-17 37l-5 10l-25 56l-157 349c-15 36 -40 50 -67 54v39h324v-39c-39 0 -63 -20 -51 -48l98 -236l76 192
c23 57 -2 85 -51 92v39h203v-39z" />
    <glyph glyph-name="z" unicode="z" horiz-adv-x="536" 
d="M64 500h427l17 -28l-262 -417h83c68 0 124 47 145 115l34 -4l-22 -166h-452l-15 26l262 419h-74c-83 0 -118 -52 -139 -108l-37 5z" />
    <glyph glyph-name="zero" unicode="0" horiz-adv-x="699" 
d="M655 313c0 -195 -159 -328 -324 -328c-130 0 -286 89 -286 295c0 207 159 317 315 317c140 0 295 -89 295 -284zM448 261c0 125 -11 292 -108 292c-77 0 -89 -115 -89 -229c0 -140 18 -293 104 -293c90 0 93 163 93 230z" />
    <glyph glyph-name="one" unicode="1" horiz-adv-x="496" 
d="M364 105c-1 -31 8 -43 27 -50c10 -3 76 -6 99 -9v-46h-443v46c12 0 90 5 99 9c20 7 27 21 27 50v353h-136v36c74 11 248 78 299 102h28v-491z" />
    <glyph glyph-name="two" unicode="2" horiz-adv-x="584" 
d="M511 0h-472l-7 35c204 186 279 253 279 344c0 64 -36 101 -107 101c-64 0 -106 -29 -146 -77l-20 23c69 116 177 170 281 170c128 0 191 -83 191 -163c0 -128 -162 -205 -324 -290h372l3 -10z" />
    <glyph glyph-name="three" unicode="3" horiz-adv-x="591" 
d="M171 204c100 65 164 108 164 179c0 69 -65 97 -124 97c-60 0 -118 -26 -155 -69l-22 26c71 99 158 159 274 159c135 0 217 -83 217 -160c0 -81 -89 -141 -216 -175c157 -11 254 -93 254 -194c0 -155 -218 -226 -349 -226c-79 0 -183 25 -183 97c0 35 23 63 66 63
c85 0 50 -115 148 -115c61 0 119 46 119 137c0 59 -25 131 -184 150z" />
    <glyph glyph-name="four" unicode="4" horiz-adv-x="656" 
d="M319 36h-312v82l398 478h105v-443h140l3 -10l-40 -107h-103v-177h-191v177zM319 153v265l-221 -265h221z" />
    <glyph glyph-name="five" unicode="5" horiz-adv-x="583" 
d="M149 426l-19 -135c235 35 403 -39 403 -194c0 -171 -201 -256 -334 -256c-78 0 -180 28 -180 96c0 31 21 64 64 64c81 0 52 -114 156 -114c69 0 106 49 106 132c0 107 -61 174 -281 158l66 404h415l3 -10l-46 -145h-353z" />
    <glyph glyph-name="six" unicode="6" horiz-adv-x="643" 
d="M592 664c-240 -13 -328 -117 -352 -284c47 51 105 73 164 73c106 0 207 -80 207 -209c0 -161 -137 -260 -305 -260c-175 0 -268 105 -268 296c0 241 160 429 461 429c23 0 53 -1 84 -5zM233 273c0 -128 22 -242 97 -242c53 0 83 57 83 152c0 116 -48 181 -125 181
c-15 0 -33 -2 -52 -7c-2 -27 -3 -55 -3 -84z" />
    <glyph glyph-name="seven" unicode="7" horiz-adv-x="527" 
d="M53 -144l-3 12l366 557h-386l-3 10l48 146h455l7 -18l-361 -707h-123z" />
    <glyph glyph-name="eight" unicode="8" horiz-adv-x="662" 
d="M608 538c0 -71 -63 -111 -166 -144c93 -43 179 -93 179 -195c0 -121 -118 -214 -301 -214c-140 0 -281 55 -281 172c0 62 38 125 160 154c-80 40 -143 95 -143 188c0 143 153 209 289 209c139 0 263 -70 263 -170zM245 290c-4 1 -8 2 -11 5c-21 -23 -32 -61 -32 -108
c0 -73 30 -156 114 -156c68 0 118 53 118 106c0 81 -109 116 -189 153zM224 570c0 -77 90 -118 182 -160c15 31 24 70 24 109c0 71 -28 138 -106 138c-57 0 -100 -35 -100 -87z" />
    <glyph glyph-name="nine" unicode="9" horiz-adv-x="643" 
d="M51 -83c239 13 328 116 352 283c-47 -51 -107 -72 -164 -72c-106 0 -207 80 -207 209c0 161 137 260 305 260c175 0 268 -105 268 -296c0 -241 -160 -429 -461 -429c-23 0 -53 1 -84 5zM410 308c0 128 -22 242 -97 242c-53 0 -83 -57 -83 -152c0 -116 48 -181 125 -181
c15 0 32 2 51 7c3 27 4 53 4 84z" />
    <glyph glyph-name="Aacute" unicode="&#xc1;" horiz-adv-x="715" 
d="M391 240h-214l-55 -146c-9 -24 2 -42 29 -49c9 -3 34 -4 57 -7v-38h-224v38c15 1 26 6 37 11c19 8 31 20 40 45l249 612h107l230 -612c9 -27 19 -37 38 -46c11 -5 19 -9 34 -10v-38h-339v38c19 1 33 5 43 10c20 11 27 26 20 46zM197 293h175l-84 238zM548 862l-176 -129
h-42l-4 10l72 130h146z" />
    <glyph glyph-name="Acircumflex" unicode="&#xc2;" horiz-adv-x="715" 
d="M391 240h-214l-55 -146c-9 -24 2 -42 29 -49c9 -3 34 -4 57 -7v-38h-224v38c15 1 26 6 37 11c19 8 31 20 40 45l249 612h107l230 -612c9 -27 19 -37 38 -46c11 -5 19 -9 34 -10v-38h-339v38c19 1 33 5 43 10c20 11 27 26 20 46zM197 293h175l-84 238zM341 877h66
l125 -138l-4 -10h-72l-101 65l-90 -65h-46l-4 10z" />
    <glyph glyph-name="Adieresis" unicode="&#xc4;" horiz-adv-x="715" 
d="M391 240h-214l-55 -146c-9 -24 2 -42 29 -49c9 -3 34 -4 57 -7v-38h-224v38c15 1 26 6 37 11c19 8 31 20 40 45l249 612h107l230 -612c9 -27 19 -37 38 -46c11 -5 19 -9 34 -10v-38h-339v38c19 1 33 5 43 10c20 11 27 26 20 46zM197 293h175l-84 238zM180 817
c0 57 39 76 84 76s84 -19 84 -76c0 -59 -39 -77 -84 -77s-84 18 -84 77zM383 817c0 57 39 76 84 76s84 -19 84 -76c0 -59 -39 -77 -84 -77s-84 18 -84 77z" />
    <glyph glyph-name="Aring" unicode="&#xc5;" horiz-adv-x="715" 
d="M391 240h-214l-55 -146c-9 -24 2 -42 29 -49c9 -3 34 -4 57 -7v-38h-224v38c15 1 26 6 37 11c19 8 31 20 40 45l249 612h107l230 -612c9 -27 19 -37 38 -46c11 -5 19 -9 34 -10v-38h-339v38c19 1 33 5 43 10c20 11 27 26 20 46zM197 293h175l-84 238zM475 818
c0 -56 -43 -94 -108 -94s-108 38 -108 93c0 56 45 94 109 94c61 0 107 -37 107 -93zM412 817c0 35 -21 50 -46 50c-21 0 -43 -12 -43 -49c0 -35 21 -50 45 -50c23 0 44 13 44 49z" />
    <glyph glyph-name="Agrave" unicode="&#xc0;" horiz-adv-x="715" 
d="M391 240h-214l-55 -146c-9 -24 2 -42 29 -49c9 -3 34 -4 57 -7v-38h-224v38c15 1 26 6 37 11c19 8 31 20 40 45l249 612h107l230 -612c9 -27 19 -37 38 -46c11 -5 19 -9 34 -10v-38h-339v38c19 1 33 5 43 10c20 11 27 26 20 46zM197 293h175l-84 238zM167 873h146
l72 -130l-4 -10h-42l-176 129z" />
    <glyph glyph-name="Atilde" unicode="&#xc3;" horiz-adv-x="715" 
d="M391 240h-214l-55 -146c-9 -24 2 -42 29 -49c9 -3 34 -4 57 -7v-38h-224v38c15 1 26 6 37 11c19 8 31 20 40 45l249 612h107l230 -612c9 -27 19 -37 38 -46c11 -5 19 -9 34 -10v-38h-339v38c19 1 33 5 43 10c20 11 27 26 20 46zM197 293h175l-84 238zM530 857
c-7 -69 -36 -116 -100 -116c-53 0 -101 29 -128 29c-15 0 -35 -6 -42 -33h-49c4 64 33 114 101 114c42 0 88 -26 127 -26c20 0 36 8 40 32h51z" />
    <glyph glyph-name="Abreve" unicode="&#x102;" horiz-adv-x="715" 
d="M391 240h-214l-55 -146c-9 -24 2 -42 29 -49c9 -3 34 -4 57 -7v-38h-224v38c15 1 26 6 37 11c19 8 31 20 40 45l249 612h107l230 -612c9 -27 19 -37 38 -46c11 -5 19 -9 34 -10v-38h-339v38c19 1 33 5 43 10c20 11 27 26 20 46zM197 293h175l-84 238zM516 872
c-21 -88 -78 -126 -153 -126c-64 0 -132 35 -143 126h64c12 -31 51 -50 92 -50c44 0 89 21 100 50h40z" />
    <glyph glyph-name="Amacron" unicode="&#x100;" horiz-adv-x="715" 
d="M391 240h-214l-55 -146c-9 -24 2 -42 29 -49c9 -3 34 -4 57 -7v-38h-224v38c15 1 26 6 37 11c19 8 31 20 40 45l249 612h107l230 -612c9 -27 19 -37 38 -46c11 -5 19 -9 34 -10v-38h-339v38c19 1 33 5 43 10c20 11 27 26 20 46zM197 293h175l-84 238zM226 829h272v-71
h-272v71z" />
    <glyph glyph-name="Aogonek" unicode="&#x104;" horiz-adv-x="715" 
d="M391 240h-214l-55 -146c-9 -24 2 -42 29 -49c9 -3 34 -4 57 -7v-38h-224v38c15 1 26 6 37 11c19 8 31 20 40 45l249 612h107l230 -612c9 -27 19 -37 38 -46c11 -5 19 -9 34 -10v-38h-339v38c19 1 33 5 43 10c20 11 27 26 20 46zM197 293h175l-84 238zM697 -217
c-25 -5 -49 -8 -70 -8c-84 0 -122 44 -122 95c0 56 67 116 157 142l11 2c-41 -31 -56 -70 -56 -111c0 -37 12 -69 49 -69c7 0 19 1 31 4v-55z" />
    <glyph glyph-name="Aringacute" unicode="&#x1fa;" horiz-adv-x="715" 
d="M391 240h-214l-55 -146c-9 -24 2 -42 29 -49c9 -3 34 -4 57 -7v-38h-224v38c15 1 26 6 37 11c19 8 31 20 40 45l249 612h107l230 -612c9 -27 19 -37 38 -46c11 -5 19 -9 34 -10v-38h-339v38c19 1 33 5 43 10c20 11 27 26 20 46zM197 293h175l-84 238zM564 1071l-176 -129
h-42l-4 10l72 130h146zM473 823c0 -56 -43 -94 -108 -94s-108 38 -108 93c0 56 45 94 109 94c61 0 107 -37 107 -93zM400 822c0 35 -11 48 -36 48c-21 0 -34 -10 -34 -47c0 -35 12 -48 36 -48c23 0 34 11 34 47z" />
    <glyph glyph-name="Ccedilla" unicode="&#xc7;" horiz-adv-x="690" 
d="M416 659c-120 0 -163 -145 -163 -297c0 -199 43 -326 164 -326c88 0 154 85 180 183h48v-163c-57 -45 -131 -71 -231 -71c-216 0 -379 125 -379 353c0 232 166 371 393 371c81 0 154 -18 217 -54v-189h-48c-39 137 -104 193 -181 193zM545 -139c0 -56 -48 -87 -136 -87
c-31 0 -55 3 -79 10v67c12 -4 46 -15 73 -15c20 0 36 6 36 26c0 23 -19 27 -38 27c-11 0 -20 -1 -27 -2v121h58v-66c52 0 113 -23 113 -81z" />
    <glyph glyph-name="Cacute" unicode="&#x106;" horiz-adv-x="690" 
d="M416 659c-120 0 -163 -145 -163 -297c0 -199 43 -326 164 -326c88 0 154 85 180 183h48v-163c-57 -45 -131 -71 -231 -71c-216 0 -379 125 -379 353c0 232 166 371 393 371c81 0 154 -18 217 -54v-189h-48c-39 137 -104 193 -181 193zM597 862l-176 -129h-42l-4 10
l72 130h146z" />
    <glyph glyph-name="Ccaron" unicode="&#x10c;" horiz-adv-x="690" 
d="M416 659c-120 0 -163 -145 -163 -297c0 -199 43 -326 164 -326c88 0 154 85 180 183h48v-163c-57 -45 -131 -71 -231 -71c-216 0 -379 125 -379 353c0 232 166 371 393 371c81 0 154 -18 217 -54v-189h-48c-39 137 -104 193 -181 193zM450 729h-66l-125 138l4 10h72
l101 -65l90 65h46l4 -10z" />
    <glyph glyph-name="Ccircumflex" unicode="&#x108;" horiz-adv-x="690" 
d="M416 659c-120 0 -163 -145 -163 -297c0 -199 43 -326 164 -326c88 0 154 85 180 183h48v-163c-57 -45 -131 -71 -231 -71c-216 0 -379 125 -379 353c0 232 166 371 393 371c81 0 154 -18 217 -54v-189h-48c-39 137 -104 193 -181 193zM393 877h66l125 -138l-4 -10h-72
l-101 65l-90 -65h-46l-4 10z" />
    <glyph glyph-name="Cdotaccent" unicode="&#x10a;" horiz-adv-x="690" 
d="M416 659c-120 0 -163 -145 -163 -297c0 -199 43 -326 164 -326c88 0 154 85 180 183h48v-163c-57 -45 -131 -71 -231 -71c-216 0 -379 125 -379 353c0 232 166 371 393 371c81 0 154 -18 217 -54v-189h-48c-39 137 -104 193 -181 193zM339 820c0 63 42 83 91 83
s91 -20 91 -83s-42 -83 -91 -83s-91 20 -91 83z" />
    <glyph glyph-name="Dcaron" unicode="&#x10e;" horiz-adv-x="808" 
d="M302 638v-583h52c176 0 199 138 199 292c0 169 -36 291 -195 291h-56zM42 38c13 1 24 3 33 8c15 8 23 24 23 48v505c0 24 -9 38 -24 47c-9 5 -20 8 -32 9v38h350c220 0 379 -99 379 -326c0 -234 -182 -367 -390 -367h-339v38zM415 729h-66l-125 138l4 10h72l101 -65
l90 65h46l4 -10z" />
    <glyph glyph-name="Dcroat" unicode="&#x110;" horiz-adv-x="810" 
d="M41 385h59v214c0 24 -9 38 -24 47c-9 5 -20 8 -32 9v38h350c220 0 379 -99 379 -326c0 -234 -182 -367 -390 -367h-339v38c13 1 24 3 33 8c15 8 23 24 23 48v226h-59v65zM304 638v-253h109v-65h-109v-265h52c176 0 199 138 199 292c0 169 -36 291 -195 291h-56z" />
    <glyph glyph-name="Eacute" unicode="&#xc9;" horiz-adv-x="669" 
d="M42 38c15 1 29 4 38 11c16 12 18 29 18 58v479c0 32 -4 47 -21 58c-8 5 -12 8 -35 11v38h563v-177h-46c-24 96 -70 122 -156 122h-101v-259h70c28 0 46 9 58 25c11 16 15 37 18 64h47v-232h-47c-3 23 -6 45 -17 61c-11 17 -28 28 -59 28h-70v-270h124
c97 0 132 39 169 153l42 -4l-20 -204h-575v38zM520 862l-176 -129h-42l-4 10l72 130h146z" />
    <glyph glyph-name="Ecircumflex" unicode="&#xca;" horiz-adv-x="669" 
d="M42 38c15 1 29 4 38 11c16 12 18 29 18 58v479c0 32 -4 47 -21 58c-8 5 -12 8 -35 11v38h563v-177h-46c-24 96 -70 122 -156 122h-101v-259h70c28 0 46 9 58 25c11 16 15 37 18 64h47v-232h-47c-3 23 -6 45 -17 61c-11 17 -28 28 -59 28h-70v-270h124
c97 0 132 39 169 153l42 -4l-20 -204h-575v38zM350 877h66l125 -138l-4 -10h-72l-101 65l-90 -65h-46l-4 10z" />
    <glyph glyph-name="Edieresis" unicode="&#xcb;" horiz-adv-x="669" 
d="M42 38c15 1 29 4 38 11c16 12 18 29 18 58v479c0 32 -4 47 -21 58c-8 5 -12 8 -35 11v38h563v-177h-46c-24 96 -70 122 -156 122h-101v-259h70c28 0 46 9 58 25c11 16 15 37 18 64h47v-232h-47c-3 23 -6 45 -17 61c-11 17 -28 28 -59 28h-70v-270h124
c97 0 132 39 169 153l42 -4l-20 -204h-575v38zM192 817c0 57 39 76 84 76s84 -19 84 -76c0 -59 -39 -77 -84 -77s-84 18 -84 77zM395 817c0 57 39 76 84 76s84 -19 84 -76c0 -59 -39 -77 -84 -77s-84 18 -84 77z" />
    <glyph glyph-name="Egrave" unicode="&#xc8;" horiz-adv-x="669" 
d="M42 38c15 1 29 4 38 11c16 12 18 29 18 58v479c0 32 -4 47 -21 58c-8 5 -12 8 -35 11v38h563v-177h-46c-24 96 -70 122 -156 122h-101v-259h70c28 0 46 9 58 25c11 16 15 37 18 64h47v-232h-47c-3 23 -6 45 -17 61c-11 17 -28 28 -59 28h-70v-270h124
c97 0 132 39 169 153l42 -4l-20 -204h-575v38zM195 873h146l72 -130l-4 -10h-42l-176 129z" />
    <glyph glyph-name="Ebreve" unicode="&#x114;" horiz-adv-x="669" 
d="M42 38c15 1 29 4 38 11c16 12 18 29 18 58v479c0 32 -4 47 -21 58c-8 5 -12 8 -35 11v38h563v-177h-46c-24 96 -70 122 -156 122h-101v-259h70c28 0 46 9 58 25c11 16 15 37 18 64h47v-232h-47c-3 23 -6 45 -17 61c-11 17 -28 28 -59 28h-70v-270h124
c97 0 132 39 169 153l42 -4l-20 -204h-575v38zM522 872c-21 -88 -78 -126 -153 -126c-64 0 -132 35 -143 126h64c12 -31 51 -50 92 -50c44 0 89 21 100 50h40z" />
    <glyph glyph-name="Ecaron" unicode="&#x11a;" horiz-adv-x="669" 
d="M42 38c15 1 29 4 38 11c16 12 18 29 18 58v479c0 32 -4 47 -21 58c-8 5 -12 8 -35 11v38h563v-177h-46c-24 96 -70 122 -156 122h-101v-259h70c28 0 46 9 58 25c11 16 15 37 18 64h47v-232h-47c-3 23 -6 45 -17 61c-11 17 -28 28 -59 28h-70v-270h124
c97 0 132 39 169 153l42 -4l-20 -204h-575v38zM386 729h-66l-125 138l4 10h72l101 -65l90 65h46l4 -10z" />
    <glyph glyph-name="Edotaccent" unicode="&#x116;" horiz-adv-x="669" 
d="M42 38c15 1 29 4 38 11c16 12 18 29 18 58v479c0 32 -4 47 -21 58c-8 5 -12 8 -35 11v38h563v-177h-46c-24 96 -70 122 -156 122h-101v-259h70c28 0 46 9 58 25c11 16 15 37 18 64h47v-232h-47c-3 23 -6 45 -17 61c-11 17 -28 28 -59 28h-70v-270h124
c97 0 132 39 169 153l42 -4l-20 -204h-575v38zM276 820c0 63 42 83 91 83s91 -20 91 -83s-42 -83 -91 -83s-91 20 -91 83z" />
    <glyph glyph-name="Emacron" unicode="&#x112;" horiz-adv-x="669" 
d="M42 38c15 1 29 4 38 11c16 12 18 29 18 58v479c0 32 -4 47 -21 58c-8 5 -12 8 -35 11v38h563v-177h-46c-24 96 -70 122 -156 122h-101v-259h70c28 0 46 9 58 25c11 16 15 37 18 64h47v-232h-47c-3 23 -6 45 -17 61c-11 17 -28 28 -59 28h-70v-270h124
c97 0 132 39 169 153l42 -4l-20 -204h-575v38zM236 829h272v-71h-272v71z" />
    <glyph glyph-name="Eogonek" unicode="&#x118;" horiz-adv-x="669" 
d="M42 38c15 1 29 4 38 11c16 12 18 29 18 58v479c0 32 -4 47 -21 58c-8 5 -12 8 -35 11v38h563v-177h-46c-24 96 -70 122 -156 122h-101v-259h70c28 0 46 9 58 25c11 16 15 37 18 64h47v-232h-47c-3 23 -6 45 -17 61c-11 17 -28 28 -59 28h-70v-270h124
c97 0 132 39 169 153l42 -4l-20 -204h-575v38zM611 -217c-25 -5 -49 -8 -70 -8c-84 0 -122 44 -122 95c0 56 67 116 157 142l11 2c-41 -31 -56 -70 -56 -111c0 -37 12 -69 49 -69c7 0 19 1 31 4v-55z" />
    <glyph glyph-name="uni0228" unicode="&#x228;" horiz-adv-x="669" 
d="M42 38c15 1 29 4 38 11c16 12 18 29 18 58v479c0 32 -4 47 -21 58c-8 5 -12 8 -35 11v38h563v-177h-46c-24 96 -70 122 -156 122h-101v-259h70c28 0 46 9 58 25c11 16 15 37 18 64h47v-232h-47c-3 23 -6 45 -17 61c-11 17 -28 28 -59 28h-70v-270h124
c97 0 132 39 169 153l42 -4l-20 -204h-575v38zM486 -139c0 -56 -48 -87 -136 -87c-31 0 -55 3 -79 10v67c12 -4 46 -15 73 -15c20 0 36 6 36 26c0 23 -19 27 -38 27c-11 0 -20 -1 -27 -2v121h58v-66c52 0 113 -23 113 -81z" />
    <glyph glyph-name="Gbreve" unicode="&#x11e;" horiz-adv-x="743" 
d="M675 63c-55 -45 -163 -78 -261 -78c-216 0 -379 125 -379 353c0 232 176 371 403 371c83 0 173 -18 237 -54v-179h-40c-32 131 -111 188 -199 188c-154 0 -183 -151 -183 -302c0 -199 32 -332 172 -332c15 0 30 3 46 10v192c0 24 -9 38 -24 47c-9 5 -20 8 -32 9v38h300
v-38c-14 -2 -24 -9 -31 -20c-6 -11 -9 -23 -9 -36v-169zM589 872c-21 -88 -78 -126 -153 -126c-64 0 -132 35 -143 126h64c12 -31 51 -50 92 -50c44 0 89 21 100 50h40z" />
    <glyph glyph-name="Gcommaaccent" unicode="&#x122;" horiz-adv-x="743" 
d="M675 63c-55 -45 -163 -78 -261 -78c-216 0 -379 125 -379 353c0 232 176 371 403 371c83 0 173 -18 237 -54v-179h-40c-32 131 -111 188 -199 188c-154 0 -183 -151 -183 -302c0 -199 32 -332 172 -332c15 0 30 3 46 10v192c0 24 -9 38 -24 47c-9 5 -20 8 -32 9v38h300
v-38c-14 -2 -24 -9 -31 -20c-6 -11 -9 -23 -9 -36v-169zM476 -135c0 -72 -71 -120 -124 -149l-23 29c35 24 66 52 66 79c-27 0 -55 17 -55 50c0 49 33 65 66 65c47 0 70 -30 70 -74z" />
    <glyph glyph-name="Gcircumflex" unicode="&#x11c;" horiz-adv-x="743" 
d="M675 63c-55 -45 -163 -78 -261 -78c-216 0 -379 125 -379 353c0 232 176 371 403 371c83 0 173 -18 237 -54v-179h-40c-32 131 -111 188 -199 188c-154 0 -183 -151 -183 -302c0 -199 32 -332 172 -332c15 0 30 3 46 10v192c0 24 -9 38 -24 47c-9 5 -20 8 -32 9v38h300
v-38c-14 -2 -24 -9 -31 -20c-6 -11 -9 -23 -9 -36v-169zM405 877h66l125 -138l-4 -10h-72l-101 65l-90 -65h-46l-4 10z" />
    <glyph glyph-name="Gdotaccent" unicode="&#x120;" horiz-adv-x="743" 
d="M675 63c-55 -45 -163 -78 -261 -78c-216 0 -379 125 -379 353c0 232 176 371 403 371c83 0 173 -18 237 -54v-179h-40c-32 131 -111 188 -199 188c-154 0 -183 -151 -183 -302c0 -199 32 -332 172 -332c15 0 30 3 46 10v192c0 24 -9 38 -24 47c-9 5 -20 8 -32 9v38h300
v-38c-14 -2 -24 -9 -31 -20c-6 -11 -9 -23 -9 -36v-169zM345 820c0 63 42 83 91 83s91 -20 91 -83s-42 -83 -91 -83s-91 20 -91 83z" />
    <glyph glyph-name="Gcaron" unicode="&#x1e6;" horiz-adv-x="743" 
d="M465 729h-66l-125 138l4 10h72l101 -65l90 65h46l4 -10zM675 63c-55 -45 -163 -78 -261 -78c-216 0 -379 125 -379 353c0 232 176 371 403 371c83 0 173 -18 237 -54v-179h-40c-32 131 -111 188 -199 188c-154 0 -183 -151 -183 -302c0 -199 32 -332 172 -332
c15 0 30 3 46 10v192c0 24 -9 38 -24 47c-9 5 -20 8 -32 9v38h300v-38c-14 -2 -24 -9 -31 -20c-6 -11 -9 -23 -9 -36v-169z" />
    <glyph glyph-name="uni01F4" unicode="&#x1f4;" horiz-adv-x="743" 
d="M607 862l-176 -129h-42l-4 10l72 130h146zM675 63c-55 -45 -163 -78 -261 -78c-216 0 -379 125 -379 353c0 232 176 371 403 371c83 0 173 -18 237 -54v-179h-40c-32 131 -111 188 -199 188c-154 0 -183 -151 -183 -302c0 -199 32 -332 172 -332c15 0 30 3 46 10v192
c0 24 -9 38 -24 47c-9 5 -20 8 -32 9v38h300v-38c-14 -2 -24 -9 -31 -20c-6 -11 -9 -23 -9 -36v-169z" />
    <glyph glyph-name="Hbar" unicode="&#x126;" horiz-adv-x="861" 
d="M558 599c0 24 -9 38 -24 47c-9 5 -20 8 -32 9v38h316v-38c-13 -1 -24 -3 -33 -8c-15 -8 -23 -24 -23 -48v-56h49v-50h-49v-399c0 -24 9 -38 24 -47c9 -5 20 -8 32 -9v-38h-316v38c13 1 24 3 33 8c15 8 23 24 23 48v244h-255v-244c0 -24 9 -38 24 -47c9 -5 20 -8 32 -9
v-38h-316v38c13 1 24 3 33 8c15 8 23 24 23 48v399h-52v50h52v56c0 24 -9 38 -24 47c-9 5 -20 8 -32 9v38h316v-38c-13 -1 -24 -3 -33 -8c-15 -8 -23 -24 -23 -48v-56h255v56zM303 387h255v106h-255v-106z" />
    <glyph glyph-name="Hcircumflex" unicode="&#x124;" horiz-adv-x="859" 
d="M557 599c0 24 -9 38 -24 47c-9 5 -20 8 -32 9v38h316v-38c-13 -1 -24 -3 -33 -8c-15 -8 -23 -24 -23 -48v-505c0 -24 9 -38 24 -47c9 -5 20 -8 32 -9v-38h-316v38c13 1 24 3 33 8c15 8 23 24 23 48v244h-255v-244c0 -24 9 -38 24 -47c9 -5 20 -8 32 -9v-38h-316v38
c13 1 24 3 33 8c15 8 23 24 23 48v505c0 24 -9 38 -24 47c-9 5 -20 8 -32 9v38h316v-38c-13 -1 -24 -3 -33 -8c-15 -8 -23 -24 -23 -48v-212h255v212zM415 877h66l125 -138l-4 -10h-72l-101 65l-90 -65h-46l-4 10z" />
    <glyph glyph-name="uni021E" unicode="&#x21e;" horiz-adv-x="859" 
d="M557 599c0 24 -9 38 -24 47c-9 5 -20 8 -32 9v38h316v-38c-13 -1 -24 -3 -33 -8c-15 -8 -23 -24 -23 -48v-505c0 -24 9 -38 24 -47c9 -5 20 -8 32 -9v-38h-316v38c13 1 24 3 33 8c15 8 23 24 23 48v244h-255v-244c0 -24 9 -38 24 -47c9 -5 20 -8 32 -9v-38h-316v38
c13 1 24 3 33 8c15 8 23 24 23 48v505c0 24 -9 38 -24 47c-9 5 -20 8 -32 9v38h316v-38c-13 -1 -24 -3 -33 -8c-15 -8 -23 -24 -23 -48v-212h255v212zM464 729h-66l-125 138l4 10h72l101 -65l90 65h46l4 -10z" />
    <glyph glyph-name="Iacute" unicode="&#xcd;" horiz-adv-x="400" 
d="M302 94c0 -24 9 -38 24 -47c9 -5 20 -8 32 -9v-38h-316v38c13 1 24 3 33 8c15 8 23 24 23 48v505c0 24 -9 38 -24 47c-9 5 -20 8 -32 9v38h316v-38c-13 -1 -24 -3 -33 -8c-15 -8 -23 -24 -23 -48v-505zM379 862l-176 -129h-42l-4 10l72 130h146z" />
    <glyph glyph-name="Icircumflex" unicode="&#xce;" horiz-adv-x="400" 
d="M302 94c0 -24 9 -38 24 -47c9 -5 20 -8 32 -9v-38h-316v38c13 1 24 3 33 8c15 8 23 24 23 48v505c0 24 -9 38 -24 47c-9 5 -20 8 -32 9v38h316v-38c-13 -1 -24 -3 -33 -8c-15 -8 -23 -24 -23 -48v-505zM189 877h66l125 -138l-4 -10h-72l-101 65l-90 -65h-46l-4 10z" />
    <glyph glyph-name="Idieresis" unicode="&#xcf;" horiz-adv-x="400" 
d="M302 94c0 -24 9 -38 24 -47c9 -5 20 -8 32 -9v-38h-316v38c13 1 24 3 33 8c15 8 23 24 23 48v505c0 24 -9 38 -24 47c-9 5 -20 8 -32 9v38h316v-38c-13 -1 -24 -3 -33 -8c-15 -8 -23 -24 -23 -48v-505zM18 817c0 57 39 76 84 76s84 -19 84 -76c0 -59 -39 -77 -84 -77
s-84 18 -84 77zM221 817c0 57 39 76 84 76s84 -19 84 -76c0 -59 -39 -77 -84 -77s-84 18 -84 77z" />
    <glyph glyph-name="Igrave" unicode="&#xcc;" horiz-adv-x="400" 
d="M302 94c0 -24 9 -38 24 -47c9 -5 20 -8 32 -9v-38h-316v38c13 1 24 3 33 8c15 8 23 24 23 48v505c0 24 -9 38 -24 47c-9 5 -20 8 -32 9v38h316v-38c-13 -1 -24 -3 -33 -8c-15 -8 -23 -24 -23 -48v-505zM26 873h146l72 -130l-4 -10h-42l-176 129z" />
    <glyph glyph-name="Ibreve" unicode="&#x12c;" horiz-adv-x="400" 
d="M302 94c0 -24 9 -38 24 -47c9 -5 20 -8 32 -9v-38h-316v38c13 1 24 3 33 8c15 8 23 24 23 48v505c0 24 -9 38 -24 47c-9 5 -20 8 -32 9v38h316v-38c-13 -1 -24 -3 -33 -8c-15 -8 -23 -24 -23 -48v-505zM348 872c-21 -88 -78 -126 -153 -126c-64 0 -132 35 -143 126h64
c12 -31 51 -50 92 -50c44 0 89 21 100 50h40z" />
    <glyph glyph-name="Idotaccent" unicode="&#x130;" horiz-adv-x="400" 
d="M302 94c0 -24 9 -38 24 -47c9 -5 20 -8 32 -9v-38h-316v38c13 1 24 3 33 8c15 8 23 24 23 48v505c0 24 -9 38 -24 47c-9 5 -20 8 -32 9v38h316v-38c-13 -1 -24 -3 -33 -8c-15 -8 -23 -24 -23 -48v-505zM110 820c0 63 42 83 91 83s91 -20 91 -83s-42 -83 -91 -83
s-91 20 -91 83z" />
    <glyph glyph-name="Imacron" unicode="&#x12a;" horiz-adv-x="400" 
d="M302 94c0 -24 9 -38 24 -47c9 -5 20 -8 32 -9v-38h-316v38c13 1 24 3 33 8c15 8 23 24 23 48v505c0 24 -9 38 -24 47c-9 5 -20 8 -32 9v38h316v-38c-13 -1 -24 -3 -33 -8c-15 -8 -23 -24 -23 -48v-505zM66 829h272v-71h-272v71z" />
    <glyph glyph-name="Iogonek" unicode="&#x12e;" horiz-adv-x="400" 
d="M302 94c0 -24 9 -38 24 -47c9 -5 20 -8 32 -9v-38h-316v38c13 1 24 3 33 8c15 8 23 24 23 48v505c0 24 -9 38 -24 47c-9 5 -20 8 -32 9v38h316v-38c-13 -1 -24 -3 -33 -8c-15 -8 -23 -24 -23 -48v-505zM294 -217c-25 -5 -49 -8 -70 -8c-84 0 -122 44 -122 95
c0 56 67 116 157 142l11 2c-41 -31 -56 -70 -56 -111c0 -37 12 -69 49 -69c7 0 19 1 31 4v-55z" />
    <glyph glyph-name="Jcircumflex" unicode="&#x134;" horiz-adv-x="389" 
d="M297 104c0 -147 -119 -328 -303 -328c-115 0 -148 40 -148 91c0 36 22 75 73 75c97 0 53 -121 110 -121c53 0 64 95 64 250v528c0 24 -9 38 -24 47c-9 5 -20 8 -32 9v38h316v-38c-13 -1 -24 -3 -33 -8c-15 -8 -23 -24 -23 -48v-495zM182 877h66l125 -138l-4 -10h-72
l-101 65l-90 -65h-46l-4 10z" />
    <glyph glyph-name="uni1E32" unicode="&#x1e32;" horiz-adv-x="760" 
d="M326 -158c0 60 44 90 90 90s90 -30 90 -90s-44 -90 -90 -90s-90 30 -90 90zM302 94c0 -23 9 -40 24 -47c10 -5 21 -8 32 -9v-38h-316v38c13 1 24 3 33 8c15 8 23 24 23 48v505c0 23 -9 40 -24 47c-10 5 -21 8 -32 9v38h316v-38c-13 -1 -24 -3 -33 -8
c-15 -8 -23 -24 -23 -48v-505zM325 326l177 201c23 25 39 46 39 69c0 31 -19 55 -75 58v39h290v-39c-51 -7 -98 -30 -142 -77l-136 -144l184 -305c31 -53 67 -82 108 -89l-3 -39h-259l-183 319v7z" />
    <glyph glyph-name="Lacute" unicode="&#x139;" horiz-adv-x="614" 
d="M42 38c19 1 32 5 41 13c10 10 15 29 15 56v492c0 24 -9 38 -24 47c-9 5 -20 8 -32 9v38h316v-38c-13 -1 -24 -3 -33 -8c-15 -8 -23 -24 -23 -48v-544h57c114 0 160 62 197 177l42 -4l-16 -228h-540v38zM357 862l-176 -129h-42l-4 10l72 130h146z" />
    <glyph glyph-name="Lcaron" unicode="&#x13d;" horiz-adv-x="614" 
d="M42 38c19 1 32 5 41 13c10 10 15 29 15 56v492c0 24 -9 38 -24 47c-9 5 -20 8 -32 9v38h316v-38c-13 -1 -24 -3 -33 -8c-15 -8 -23 -24 -23 -48v-544h57c114 0 160 62 197 177l42 -4l-16 -228h-540v38zM527 733c-5 -65 -51 -167 -81 -210h-51l-4 10c15 47 28 128 28 211
h104z" />
    <glyph glyph-name="Lcommaaccent" unicode="&#x13b;" horiz-adv-x="614" 
d="M42 38c19 1 32 5 41 13c10 10 15 29 15 56v492c0 24 -9 38 -24 47c-9 5 -20 8 -32 9v38h316v-38c-13 -1 -24 -3 -33 -8c-15 -8 -23 -24 -23 -48v-544h57c114 0 160 62 197 177l42 -4l-16 -228h-540v38zM387 -135c0 -72 -71 -120 -124 -149l-23 29c35 24 66 52 66 79
c-27 0 -55 17 -55 50c0 49 33 65 66 65c47 0 70 -30 70 -74z" />
    <glyph glyph-name="Ldot" unicode="&#x13f;" horiz-adv-x="614" 
d="M42 38c19 1 32 5 41 13c10 10 15 29 15 56v492c0 24 -9 38 -24 47c-9 5 -20 8 -32 9v38h316v-38c-13 -1 -24 -3 -33 -8c-15 -8 -23 -24 -23 -48v-544h57c114 0 160 62 197 177l42 -4l-16 -228h-540v38zM388 382c0 59 40 87 87 87s88 -28 88 -87s-43 -88 -88 -88
c-47 0 -87 28 -87 88z" />
    <glyph glyph-name="Lslash" unicode="&#x141;" horiz-adv-x="616" 
d="M44 38c19 1 32 5 41 13c10 10 15 29 15 56v134l-63 -28v62l63 28v296c0 24 -9 38 -24 47c-9 5 -20 8 -32 9v38h316v-38c-13 -1 -24 -3 -33 -8c-15 -8 -23 -24 -23 -48v-206l120 54v-62l-120 -54v-276h57c114 0 160 62 197 177l42 -4l-16 -228h-540v38z" />
    <glyph glyph-name="Ntilde" unicode="&#xd1;" horiz-adv-x="803" 
d="M563 -4l-378 508v-372c0 -39 12 -61 32 -74c17 -11 38 -18 64 -21v-37h-261v37c21 3 40 8 57 17c23 12 39 35 39 78v408c0 69 -27 108 -91 117v36h275l328 -427v295c0 39 -12 61 -32 74c-17 11 -38 18 -64 21v37h261v-37c-21 -3 -40 -8 -57 -17c-23 -12 -39 -35 -39 -78
v-565h-134zM574 857c-7 -69 -36 -116 -100 -116c-53 0 -101 29 -128 29c-15 0 -35 -6 -42 -33h-49c4 64 33 114 101 114c42 0 88 -26 127 -26c20 0 36 8 40 32h51z" />
    <glyph glyph-name="Nacute" unicode="&#x143;" horiz-adv-x="803" 
d="M563 -4l-378 508v-372c0 -39 12 -61 32 -74c17 -11 38 -18 64 -21v-37h-261v37c21 3 40 8 57 17c23 12 39 35 39 78v408c0 69 -27 108 -91 117v36h275l328 -427v295c0 39 -12 61 -32 74c-17 11 -38 18 -64 21v37h261v-37c-21 -3 -40 -8 -57 -17c-23 -12 -39 -35 -39 -78
v-565h-134zM583 862l-176 -129h-42l-4 10l72 130h146z" />
    <glyph glyph-name="Ncaron" unicode="&#x147;" horiz-adv-x="803" 
d="M563 -4l-378 508v-372c0 -39 12 -61 32 -74c17 -11 38 -18 64 -21v-37h-261v37c21 3 40 8 57 17c23 12 39 35 39 78v408c0 69 -27 108 -91 117v36h275l328 -427v295c0 39 -12 61 -32 74c-17 11 -38 18 -64 21v37h261v-37c-21 -3 -40 -8 -57 -17c-23 -12 -39 -35 -39 -78
v-565h-134zM436 729h-66l-125 138l4 10h72l101 -65l90 65h46l4 -10z" />
    <glyph glyph-name="Ncommaaccent" unicode="&#x145;" horiz-adv-x="803" 
d="M563 -4l-378 508v-372c0 -39 12 -61 32 -74c17 -11 38 -18 64 -21v-37h-261v37c21 3 40 8 57 17c23 12 39 35 39 78v408c0 69 -27 108 -91 117v36h275l328 -427v295c0 39 -12 61 -32 74c-17 11 -38 18 -64 21v37h261v-37c-21 -3 -40 -8 -57 -17c-23 -12 -39 -35 -39 -78
v-565h-134zM461 -135c0 -72 -71 -120 -124 -149l-23 29c35 24 66 52 66 79c-27 0 -55 17 -55 50c0 49 33 65 66 65c47 0 70 -30 70 -74z" />
    <glyph glyph-name="Eng" unicode="&#x14a;" horiz-adv-x="802" 
d="M562 -176c49 0 61 61 64 172h-63l-378 508v-372c0 -39 12 -61 32 -74c17 -11 38 -18 64 -21v-37h-261v37c21 3 40 8 57 17c23 12 39 35 39 78v408c0 69 -27 108 -91 117v36h275l327 -426v294c0 39 -12 61 -32 74c-17 11 -38 18 -64 21v37h261v-37c-21 -3 -40 -8 -57 -17
c-23 -12 -39 -35 -39 -78v-542c0 -120 -23 -245 -169 -245c-53 0 -92 25 -92 60c0 29 17 49 45 49c49 0 37 -59 82 -59z" />
    <glyph glyph-name="Ograve" unicode="&#xd2;" horiz-adv-x="816" 
d="M781 352c0 -222 -161 -367 -381 -367c-205 0 -365 127 -365 356c0 235 167 368 377 368c213 0 369 -138 369 -357zM563 339c0 182 -21 325 -156 325c-139 0 -154 -147 -154 -310c0 -197 23 -322 151 -322c146 0 159 161 159 307zM216 873h146l72 -130l-4 -10h-42
l-176 129z" />
    <glyph glyph-name="Odieresis" unicode="&#xd6;" horiz-adv-x="816" 
d="M781 352c0 -222 -161 -367 -381 -367c-205 0 -365 127 -365 356c0 235 167 368 377 368c213 0 369 -138 369 -357zM563 339c0 182 -21 325 -156 325c-139 0 -154 -147 -154 -310c0 -197 23 -322 151 -322c146 0 159 161 159 307zM228 817c0 57 39 76 84 76s84 -19 84 -76
c0 -59 -39 -77 -84 -77s-84 18 -84 77zM431 817c0 57 39 76 84 76s84 -19 84 -76c0 -59 -39 -77 -84 -77s-84 18 -84 77z" />
    <glyph glyph-name="Otilde" unicode="&#xd5;" horiz-adv-x="816" 
d="M781 352c0 -222 -161 -367 -381 -367c-205 0 -365 127 -365 356c0 235 167 368 377 368c213 0 369 -138 369 -357zM563 339c0 182 -21 325 -156 325c-139 0 -154 -147 -154 -310c0 -197 23 -322 151 -322c146 0 159 161 159 307zM567 857c-7 -69 -36 -116 -100 -116
c-53 0 -101 29 -128 29c-15 0 -35 -6 -42 -33h-49c4 64 33 114 101 114c42 0 88 -26 127 -26c20 0 36 8 40 32h51z" />
    <glyph glyph-name="Obreve" unicode="&#x14e;" horiz-adv-x="816" 
d="M781 352c0 -222 -161 -367 -381 -367c-205 0 -365 127 -365 356c0 235 167 368 377 368c213 0 369 -138 369 -357zM563 339c0 182 -21 325 -156 325c-139 0 -154 -147 -154 -310c0 -197 23 -322 151 -322c146 0 159 161 159 307zM553 872c-21 -88 -78 -126 -153 -126
c-64 0 -132 35 -143 126h64c12 -31 51 -50 92 -50c44 0 89 21 100 50h40z" />
    <glyph glyph-name="Oacute" unicode="&#xd3;" horiz-adv-x="816" 
d="M781 352c0 -222 -161 -367 -381 -367c-205 0 -365 127 -365 356c0 235 167 368 377 368c213 0 369 -138 369 -357zM563 339c0 182 -21 325 -156 325c-139 0 -154 -147 -154 -310c0 -197 23 -322 151 -322c146 0 159 161 159 307zM588 862l-176 -129h-42l-4 10l72 130h146
z" />
    <glyph glyph-name="Ocircumflex" unicode="&#xd4;" horiz-adv-x="816" 
d="M781 352c0 -222 -161 -367 -381 -367c-205 0 -365 127 -365 356c0 235 167 368 377 368c213 0 369 -138 369 -357zM563 339c0 182 -21 325 -156 325c-139 0 -154 -147 -154 -310c0 -197 23 -322 151 -322c146 0 159 161 159 307zM392 877h66l125 -138l-4 -10h-72l-101 65
l-90 -65h-46l-4 10z" />
    <glyph glyph-name="Ohungarumlaut" unicode="&#x150;" horiz-adv-x="816" 
d="M781 352c0 -222 -161 -367 -381 -367c-205 0 -365 127 -365 356c0 235 167 368 377 368c213 0 369 -138 369 -357zM563 339c0 182 -21 325 -156 325c-139 0 -154 -147 -154 -310c0 -197 23 -322 151 -322c146 0 159 161 159 307zM487 862l-166 -129h-32l-4 10l72 130h126
zM675 862l-196 -129h-42l-4 10l102 130h136z" />
    <glyph glyph-name="Omacron" unicode="&#x14c;" horiz-adv-x="816" 
d="M781 352c0 -222 -161 -367 -381 -367c-205 0 -365 127 -365 356c0 235 167 368 377 368c213 0 369 -138 369 -357zM563 339c0 182 -21 325 -156 325c-139 0 -154 -147 -154 -310c0 -197 23 -322 151 -322c146 0 159 161 159 307zM272 829h272v-71h-272v71z" />
    <glyph glyph-name="Oslash" unicode="&#xd8;" horiz-adv-x="813" 
d="M780 352c0 -222 -161 -367 -381 -367c-92 0 -174 25 -238 74l-70 -74h-62l98 104c-59 60 -93 144 -93 252c0 235 167 368 377 368c92 0 172 -26 236 -73l69 73h64l-98 -103c61 -63 98 -147 98 -254zM562 339c0 48 -2 93 -6 134l-291 -305c19 -88 57 -136 138 -136
c146 0 159 161 159 307zM252 354c0 -47 1 -90 5 -129l290 305c-19 83 -58 134 -141 134c-139 0 -154 -147 -154 -310z" />
    <glyph glyph-name="Racute" unicode="&#x154;" horiz-adv-x="752" 
d="M668 510c0 -86 -68 -145 -151 -180h5l152 -213c39 -53 62 -72 98 -77l-3 -40h-254l-191 298h-22v-204c0 -24 9 -38 24 -47c9 -5 20 -8 32 -9v-38h-316v38c13 1 24 3 33 8c15 8 23 24 23 48v505c0 24 -9 38 -24 47c-9 5 -20 8 -32 9v38h383c121 0 243 -43 243 -183z
M302 638v-285h45c93 0 121 52 121 143c0 88 -28 142 -105 142h-61zM531 862l-176 -129h-42l-4 10l72 130h146z" />
    <glyph glyph-name="Rcaron" unicode="&#x158;" horiz-adv-x="752" 
d="M668 510c0 -86 -68 -145 -151 -180h5l152 -213c39 -53 62 -72 98 -77l-3 -40h-254l-191 298h-22v-204c0 -24 9 -38 24 -47c9 -5 20 -8 32 -9v-38h-316v38c13 1 24 3 33 8c15 8 23 24 23 48v505c0 24 -9 38 -24 47c-9 5 -20 8 -32 9v38h383c121 0 243 -43 243 -183z
M302 638v-285h45c93 0 121 52 121 143c0 88 -28 142 -105 142h-61zM390 729h-66l-125 138l4 10h72l101 -65l90 65h46l4 -10z" />
    <glyph glyph-name="Rcommaaccent" unicode="&#x156;" horiz-adv-x="752" 
d="M668 510c0 -86 -68 -145 -151 -180h5l152 -213c39 -53 62 -72 98 -77l-3 -40h-254l-191 298h-22v-204c0 -24 9 -38 24 -47c9 -5 20 -8 32 -9v-38h-316v38c13 1 24 3 33 8c15 8 23 24 23 48v505c0 24 -9 38 -24 47c-9 5 -20 8 -32 9v38h383c121 0 243 -43 243 -183z
M302 638v-285h45c93 0 121 52 121 143c0 88 -28 142 -105 142h-61zM458 -135c0 -72 -71 -120 -124 -149l-23 29c35 24 66 52 66 79c-27 0 -55 17 -55 50c0 49 33 65 66 65c47 0 70 -30 70 -74z" />
    <glyph glyph-name="Sacute" unicode="&#x15a;" horiz-adv-x="630" 
d="M286 -15c-80 0 -170 16 -238 55v187h46c45 -139 114 -192 207 -192c72 0 115 30 115 97c0 32 -10 86 -105 115l-59 18c-101 32 -199 75 -199 208c0 136 106 238 294 235c75 -1 146 -16 214 -55v-179h-51c-33 129 -88 184 -173 184c-75 0 -113 -40 -113 -95
c0 -48 30 -91 91 -110l80 -24c140 -43 198 -111 198 -211c0 -152 -132 -233 -307 -233zM496 862l-176 -129h-42l-4 10l72 130h146z" />
    <glyph glyph-name="Scedilla" unicode="&#x15e;" horiz-adv-x="630" 
d="M286 -15c-80 0 -170 16 -238 55v187h46c45 -139 114 -192 207 -192c72 0 115 30 115 97c0 32 -10 86 -105 115l-59 18c-101 32 -199 75 -199 208c0 136 106 238 294 235c75 -1 146 -16 214 -55v-179h-51c-33 129 -88 184 -173 184c-75 0 -113 -40 -113 -95
c0 -48 30 -91 91 -110l80 -24c140 -43 198 -111 198 -211c0 -152 -132 -233 -307 -233zM436 -139c0 -56 -48 -87 -136 -87c-31 0 -55 3 -79 10v67c12 -4 46 -15 73 -15c20 0 36 6 36 26c0 23 -19 27 -38 27c-11 0 -20 -1 -27 -2v121h58v-66c52 0 113 -23 113 -81z" />
    <glyph glyph-name="Scaron" unicode="&#x160;" horiz-adv-x="630" 
d="M286 -15c-80 0 -170 16 -238 55v187h46c45 -139 114 -192 207 -192c72 0 115 30 115 97c0 32 -10 86 -105 115l-59 18c-101 32 -199 75 -199 208c0 136 106 238 294 235c75 -1 146 -16 214 -55v-179h-51c-33 129 -88 184 -173 184c-75 0 -113 -40 -113 -95
c0 -48 30 -91 91 -110l80 -24c140 -43 198 -111 198 -211c0 -152 -132 -233 -307 -233zM355 729h-66l-125 138l4 10h72l101 -65l90 65h46l4 -10z" />
    <glyph glyph-name="Scircumflex" unicode="&#x15c;" horiz-adv-x="630" 
d="M286 -15c-80 0 -170 16 -238 55v187h46c45 -139 114 -192 207 -192c72 0 115 30 115 97c0 32 -10 86 -105 115l-59 18c-101 32 -199 75 -199 208c0 136 106 238 294 235c75 -1 146 -16 214 -55v-179h-51c-33 129 -88 184 -173 184c-75 0 -113 -40 -113 -95
c0 -48 30 -91 91 -110l80 -24c140 -43 198 -111 198 -211c0 -152 -132 -233 -307 -233zM310 877h66l125 -138l-4 -10h-72l-101 65l-90 -65h-46l-4 10z" />
    <glyph glyph-name="Scommaaccent" unicode="&#x218;" horiz-adv-x="630" 
d="M286 -15c-80 0 -170 16 -238 55v187h46c45 -139 114 -192 207 -192c72 0 115 30 115 97c0 32 -10 86 -105 115l-59 18c-101 32 -199 75 -199 208c0 136 106 238 294 235c75 -1 146 -16 214 -55v-179h-51c-33 129 -88 184 -173 184c-75 0 -113 -40 -113 -95
c0 -48 30 -91 91 -110l80 -24c140 -43 198 -111 198 -211c0 -152 -132 -233 -307 -233zM371 -135c0 -72 -71 -120 -124 -149l-23 29c35 24 66 52 66 79c-27 0 -55 17 -55 50c0 49 33 65 66 65c47 0 70 -30 70 -74z" />
    <glyph glyph-name="Tbar" unicode="&#x166;" horiz-adv-x="704" 
d="M453 648v-274h103v-50h-103v-230c0 -24 9 -38 24 -47c9 -5 20 -8 32 -9v-38h-316v38c13 1 24 3 33 8c15 8 23 24 23 48v230h-100v50h100v274h-19c-96 0 -152 -76 -176 -172h-36v217h668v-217h-36c-24 96 -80 172 -176 172h-21z" />
    <glyph glyph-name="Tcaron" unicode="&#x164;" horiz-adv-x="704" 
d="M453 648v-554c0 -24 9 -38 24 -47c9 -5 20 -8 32 -9v-38h-316v38c13 1 24 3 33 8c15 8 23 24 23 48v554h-19c-96 0 -152 -76 -176 -172h-36v217h668v-217h-36c-24 96 -80 172 -176 172h-21zM378 729h-66l-125 138l4 10h72l101 -65l90 65h46l4 -10z" />
    <glyph glyph-name="Tcommaaccent" unicode="&#x162;" horiz-adv-x="704" 
d="M453 648v-554c0 -24 9 -38 24 -47c9 -5 20 -8 32 -9v-38h-316v38c13 1 24 3 33 8c15 8 23 24 23 48v554h-19c-96 0 -152 -76 -176 -172h-36v217h668v-217h-36c-24 96 -80 172 -176 172h-21zM418 -135c0 -72 -71 -120 -124 -149l-23 29c35 24 66 52 66 79
c-27 0 -55 17 -55 50c0 49 33 65 66 65c47 0 70 -30 70 -74z" />
    <glyph glyph-name="uni021A" unicode="&#x21a;" horiz-adv-x="704" 
d="M453 648v-554c0 -24 9 -38 24 -47c9 -5 20 -8 32 -9v-38h-316v38c13 1 24 3 33 8c15 8 23 24 23 48v554h-19c-96 0 -152 -76 -176 -172h-36v217h668v-217h-36c-24 96 -80 172 -176 172h-21zM418 -135c0 -72 -71 -120 -124 -149l-23 29c35 24 66 52 66 79
c-27 0 -55 17 -55 50c0 49 33 65 66 65c47 0 70 -30 70 -74z" />
    <glyph glyph-name="Uacute" unicode="&#xda;" horiz-adv-x="776" 
d="M290 246c0 -119 43 -187 160 -187c99 0 160 73 160 181v329c-3 35 -13 54 -32 66c-17 11 -38 18 -64 21v37h261v-37c-20 -3 -40 -8 -57 -17c-23 -12 -38 -33 -39 -72v-318c0 -152 -118 -263 -281 -263c-155 0 -312 79 -312 248v365c0 24 -9 38 -24 47c-9 5 -20 8 -32 9
v38h316v-38c-13 -1 -24 -3 -33 -8c-15 -8 -23 -24 -23 -48v-353zM587 862l-176 -129h-42l-4 10l72 130h146z" />
    <glyph glyph-name="Ucircumflex" unicode="&#xdb;" horiz-adv-x="776" 
d="M290 246c0 -119 43 -187 160 -187c99 0 160 73 160 181v329c-3 35 -13 54 -32 66c-17 11 -38 18 -64 21v37h261v-37c-20 -3 -40 -8 -57 -17c-23 -12 -38 -33 -39 -72v-318c0 -152 -118 -263 -281 -263c-155 0 -312 79 -312 248v365c0 24 -9 38 -24 47c-9 5 -20 8 -32 9
v38h316v-38c-13 -1 -24 -3 -33 -8c-15 -8 -23 -24 -23 -48v-353zM401 877h66l125 -138l-4 -10h-72l-101 65l-90 -65h-46l-4 10z" />
    <glyph glyph-name="Ugrave" unicode="&#xd9;" horiz-adv-x="776" 
d="M290 246c0 -119 43 -187 160 -187c99 0 160 73 160 181v329c-3 35 -13 54 -32 66c-17 11 -38 18 -64 21v37h261v-37c-20 -3 -40 -8 -57 -17c-23 -12 -38 -33 -39 -72v-318c0 -152 -118 -263 -281 -263c-155 0 -312 79 -312 248v365c0 24 -9 38 -24 47c-9 5 -20 8 -32 9
v38h316v-38c-13 -1 -24 -3 -33 -8c-15 -8 -23 -24 -23 -48v-353zM241 873h146l72 -130l-4 -10h-42l-176 129z" />
    <glyph glyph-name="Udieresis" unicode="&#xdc;" horiz-adv-x="776" 
d="M290 246c0 -119 43 -187 160 -187c99 0 160 73 160 181v329c-3 35 -13 54 -32 66c-17 11 -38 18 -64 21v37h261v-37c-20 -3 -40 -8 -57 -17c-23 -12 -38 -33 -39 -72v-318c0 -152 -118 -263 -281 -263c-155 0 -312 79 -312 248v365c0 24 -9 38 -24 47c-9 5 -20 8 -32 9
v38h316v-38c-13 -1 -24 -3 -33 -8c-15 -8 -23 -24 -23 -48v-353zM236 817c0 57 39 76 84 76s84 -19 84 -76c0 -59 -39 -77 -84 -77s-84 18 -84 77zM439 817c0 57 39 76 84 76s84 -19 84 -76c0 -59 -39 -77 -84 -77s-84 18 -84 77z" />
    <glyph glyph-name="Ubreve" unicode="&#x16c;" horiz-adv-x="776" 
d="M290 246c0 -119 43 -187 160 -187c99 0 160 73 160 181v329c-3 35 -13 54 -32 66c-17 11 -38 18 -64 21v37h261v-37c-20 -3 -40 -8 -57 -17c-23 -12 -38 -33 -39 -72v-318c0 -152 -118 -263 -281 -263c-155 0 -312 79 -312 248v365c0 24 -9 38 -24 47c-9 5 -20 8 -32 9
v38h316v-38c-13 -1 -24 -3 -33 -8c-15 -8 -23 -24 -23 -48v-353zM572 872c-21 -88 -78 -126 -153 -126c-64 0 -132 35 -143 126h64c12 -31 51 -50 92 -50c44 0 89 21 100 50h40z" />
    <glyph glyph-name="Uhungarumlaut" unicode="&#x170;" horiz-adv-x="776" 
d="M290 246c0 -119 43 -187 160 -187c99 0 160 73 160 181v329c-3 35 -13 54 -32 66c-17 11 -38 18 -64 21v37h261v-37c-20 -3 -40 -8 -57 -17c-23 -12 -38 -33 -39 -72v-318c0 -152 -118 -263 -281 -263c-155 0 -312 79 -312 248v365c0 24 -9 38 -24 47c-9 5 -20 8 -32 9
v38h316v-38c-13 -1 -24 -3 -33 -8c-15 -8 -23 -24 -23 -48v-353zM488 862l-166 -129h-32l-4 10l72 130h126zM676 862l-196 -129h-42l-4 10l102 130h136z" />
    <glyph glyph-name="Umacron" unicode="&#x16a;" horiz-adv-x="776" 
d="M290 246c0 -119 43 -187 160 -187c99 0 160 73 160 181v329c-3 35 -13 54 -32 66c-17 11 -38 18 -64 21v37h261v-37c-20 -3 -40 -8 -57 -17c-23 -12 -38 -33 -39 -72v-318c0 -152 -118 -263 -281 -263c-155 0 -312 79 -312 248v365c0 24 -9 38 -24 47c-9 5 -20 8 -32 9
v38h316v-38c-13 -1 -24 -3 -33 -8c-15 -8 -23 -24 -23 -48v-353zM283 829h272v-71h-272v71z" />
    <glyph glyph-name="Uogonek" unicode="&#x172;" horiz-adv-x="776" 
d="M290 246c0 -119 43 -187 160 -187c99 0 160 73 160 181v329c-3 35 -13 54 -32 66c-17 11 -38 18 -64 21v37h261v-37c-20 -3 -40 -8 -57 -17c-23 -12 -38 -33 -39 -72v-318c0 -152 -118 -263 -281 -263c-155 0 -312 79 -312 248v365c0 24 -9 38 -24 47c-9 5 -20 8 -32 9
v38h316v-38c-13 -1 -24 -3 -33 -8c-15 -8 -23 -24 -23 -48v-353zM545 -217c-25 -5 -49 -8 -70 -8c-84 0 -122 44 -122 95c0 56 67 116 157 142l11 2c-41 -31 -56 -70 -56 -111c0 -37 12 -69 49 -69c7 0 19 1 31 4v-55z" />
    <glyph glyph-name="Uring" unicode="&#x16e;" horiz-adv-x="776" 
d="M290 246c0 -119 43 -187 160 -187c99 0 160 73 160 181v329c-3 35 -13 54 -32 66c-17 11 -38 18 -64 21v37h261v-37c-20 -3 -40 -8 -57 -17c-23 -12 -38 -33 -39 -72v-318c0 -152 -118 -263 -281 -263c-155 0 -312 79 -312 248v365c0 24 -9 38 -24 47c-9 5 -20 8 -32 9
v38h316v-38c-13 -1 -24 -3 -33 -8c-15 -8 -23 -24 -23 -48v-353zM535 818c0 -56 -43 -94 -108 -94s-108 38 -108 93c0 56 45 94 109 94c61 0 107 -37 107 -93zM472 817c0 35 -21 50 -46 50c-21 0 -43 -12 -43 -49c0 -35 21 -50 45 -50c23 0 44 13 44 49z" />
    <glyph glyph-name="Ydieresis" unicode="&#x178;" horiz-adv-x="702" 
d="M294 595c0 -9 3 -19 8 -30l115 -222l114 216c8 16 12 30 12 41c0 35 -33 51 -76 52v41h245v-40c-39 -4 -73 -20 -94 -57l-164 -291v-211c0 -24 9 -38 24 -47c9 -5 20 -8 32 -9v-38h-316v38c13 1 24 3 33 8c15 8 23 24 23 48v200l-168 302c-20 36 -43 49 -86 56v41h376
v-41c-56 -7 -78 -29 -78 -57zM201 817c0 57 39 76 84 76s84 -19 84 -76c0 -59 -39 -77 -84 -77s-84 18 -84 77zM404 817c0 57 39 76 84 76s84 -19 84 -76c0 -59 -39 -77 -84 -77s-84 18 -84 77z" />
    <glyph glyph-name="Ycircumflex" unicode="&#x176;" horiz-adv-x="702" 
d="M294 595c0 -9 3 -19 8 -30l115 -222l114 216c8 16 12 30 12 41c0 35 -33 51 -76 52v41h245v-40c-39 -4 -73 -20 -94 -57l-164 -291v-211c0 -24 9 -38 24 -47c9 -5 20 -8 32 -9v-38h-316v38c13 1 24 3 33 8c15 8 23 24 23 48v200l-168 302c-20 36 -43 49 -86 56v41h376
v-41c-56 -7 -78 -29 -78 -57zM359 877h66l125 -138l-4 -10h-72l-101 65l-90 -65h-46l-4 10z" />
    <glyph glyph-name="Ygrave" unicode="&#x1ef2;" horiz-adv-x="702" 
d="M294 595c0 -9 3 -19 8 -30l115 -222l114 216c8 16 12 30 12 41c0 35 -33 51 -76 52v41h245v-40c-39 -4 -73 -20 -94 -57l-164 -291v-211c0 -24 9 -38 24 -47c9 -5 20 -8 32 -9v-38h-316v38c13 1 24 3 33 8c15 8 23 24 23 48v200l-168 302c-20 36 -43 49 -86 56v41h376
v-41c-56 -7 -78 -29 -78 -57zM212 873h146l72 -130l-4 -10h-42l-176 129z" />
    <glyph glyph-name="Yacute" unicode="&#xdd;" horiz-adv-x="702" 
d="M294 595c0 -9 3 -19 8 -30l115 -222l114 216c8 16 12 30 12 41c0 35 -33 51 -76 52v41h245v-40c-39 -4 -73 -20 -94 -57l-164 -291v-211c0 -24 9 -38 24 -47c9 -5 20 -8 32 -9v-38h-316v38c13 1 24 3 33 8c15 8 23 24 23 48v200l-168 302c-20 36 -43 49 -86 56v41h376
v-41c-56 -7 -78 -29 -78 -57zM569 862l-176 -129h-42l-4 10l72 130h146z" />
    <glyph glyph-name="uni0232" unicode="&#x232;" horiz-adv-x="702" 
d="M294 595c0 -9 3 -19 8 -30l115 -222l114 216c8 16 12 30 12 41c0 35 -33 51 -76 52v41h245v-40c-39 -4 -73 -20 -94 -57l-164 -291v-211c0 -24 9 -38 24 -47c9 -5 20 -8 32 -9v-38h-316v38c13 1 24 3 33 8c15 8 23 24 23 48v200l-168 302c-20 36 -43 49 -86 56v41h376
v-41c-56 -7 -78 -29 -78 -57zM250 829h272v-71h-272v71z" />
    <glyph glyph-name="Zacute" unicode="&#x179;" horiz-adv-x="664" 
d="M629 222l-14 -222h-592l-5 17l371 626h-130c-92 0 -140 -34 -175 -141l-39 2l12 189h562l7 -17l-371 -626h109c140 0 171 43 227 176zM516 862l-176 -129h-42l-4 10l72 130h146z" />
    <glyph glyph-name="Zcaron" unicode="&#x17d;" horiz-adv-x="664" 
d="M629 222l-14 -222h-592l-5 17l371 626h-130c-92 0 -140 -34 -175 -141l-39 2l12 189h562l7 -17l-371 -626h109c140 0 171 43 227 176zM379 729h-66l-125 138l4 10h72l101 -65l90 65h46l4 -10z" />
    <glyph glyph-name="Zdotaccent" unicode="&#x17b;" horiz-adv-x="664" 
d="M629 222l-14 -222h-592l-5 17l371 626h-130c-92 0 -140 -34 -175 -141l-39 2l12 189h562l7 -17l-371 -626h109c140 0 171 43 227 176zM259 820c0 63 42 83 91 83s91 -20 91 -83s-42 -83 -91 -83s-91 20 -91 83z" />
    <glyph glyph-name="uni018F" unicode="&#x18f;" horiz-adv-x="787" 
d="M64 588c67 64 172 121 327 121c228 0 360 -124 360 -338c0 -227 -150 -386 -373 -386c-216 0 -352 150 -352 347v42h503c-19 168 -96 242 -205 242c-72 0 -161 -31 -241 -91zM534 293c0 11 0 20 -1 31h-291c5 -176 33 -287 145 -287c134 0 147 168 147 256z" />
    <glyph glyph-name="Thorn" unicode="&#xde;" horiz-adv-x="688" 
d="M302 573h123c121 0 243 -57 243 -197c0 -144 -127 -223 -257 -223h-109v-59c0 -24 9 -38 24 -47c9 -5 20 -8 32 -9v-38h-316v38c13 1 24 3 33 8c15 8 23 24 23 48v505c0 24 -9 38 -24 47c-9 5 -20 8 -32 9v38h316v-38c-13 -1 -24 -3 -33 -8c-15 -8 -23 -24 -23 -48v-26z
M302 518v-310h45c92 0 121 67 121 158c0 87 -28 152 -105 152h-61z" />
    <glyph glyph-name="AE" unicode="&#xc6;" horiz-adv-x="1007" 
d="M640 638v-259h70c28 0 46 9 58 25c11 16 15 37 18 64h47v-232h-47c-3 23 -6 45 -17 61c-11 17 -28 28 -59 28h-70v-270h124c97 0 132 39 169 153l42 -4l-20 -204h-575v38c15 1 29 4 38 11c16 12 18 29 18 58v133h-234l-74 -140c-15 -27 -4 -48 23 -55c9 -3 34 -4 57 -7
v-38h-227v38c13 1 25 4 37 11c19 11 27 22 40 45l300 548c-27 1 -51 2 -78 5v46h663v-177h-46c-24 96 -70 122 -156 122h-101zM436 638c-5 0 -12 0 -21 1l-185 -346h206v345z" />
    <glyph glyph-name="OE" unicode="&#x152;" horiz-adv-x="1093" 
d="M518 0c-37 -10 -77 -15 -118 -15c-205 0 -365 127 -365 356c0 235 167 368 377 368c43 0 82 -5 119 -16h498v-177h-46c-24 96 -70 122 -156 122h-101v-259h70c28 0 46 9 58 25c11 16 15 37 18 64h47v-232h-47c-3 23 -6 45 -17 61c-11 17 -28 28 -59 28h-70v-270h124
c97 0 132 39 169 153l42 -4l-20 -204h-523zM419 32c39 0 75 8 103 32v559c-29 27 -59 41 -106 41c-148 0 -163 -137 -163 -310c0 -219 25 -322 166 -322z" />
    <glyph glyph-name="aacute" unicode="&#xe1;" horiz-adv-x="573" 
d="M502 108c0 -49 10 -62 49 -62c5 -1 11 0 18 0l1 -23c-27 -15 -79 -38 -146 -38c-93 0 -113 41 -113 99v11c-32 -56 -85 -109 -164 -109c-76 0 -120 47 -120 119c0 96 79 127 180 148l104 21v18c0 59 -22 98 -97 98c-41 0 -100 -9 -168 -25v71c85 47 181 79 262 79
c141 0 194 -79 194 -211v-196zM259 109c16 0 33 3 52 10v115l-52 -13c-35 -9 -61 -24 -61 -60c0 -39 30 -52 61 -52zM464 733l-182 -167h-32l-4 10l66 168h148z" />
    <glyph glyph-name="agrave" unicode="&#xe0;" horiz-adv-x="573" 
d="M502 108c0 -49 10 -62 49 -62c5 -1 11 0 18 0l1 -23c-27 -15 -79 -38 -146 -38c-93 0 -113 41 -113 99v11c-32 -56 -85 -109 -164 -109c-76 0 -120 47 -120 119c0 96 79 127 180 148l104 21v18c0 59 -22 98 -97 98c-41 0 -100 -9 -168 -25v71c85 47 181 79 262 79
c141 0 194 -79 194 -211v-196zM259 109c16 0 33 3 52 10v115l-52 -13c-35 -9 -61 -24 -61 -60c0 -39 30 -52 61 -52zM105 744h148l76 -168l-4 -10h-42l-182 167z" />
    <glyph glyph-name="acircumflex" unicode="&#xe2;" horiz-adv-x="573" 
d="M502 108c0 -49 10 -62 49 -62c5 -1 11 0 18 0l1 -23c-27 -15 -79 -38 -146 -38c-93 0 -113 41 -113 99v11c-32 -56 -85 -109 -164 -109c-76 0 -120 47 -120 119c0 96 79 127 180 148l104 21v18c0 59 -22 98 -97 98c-41 0 -100 -9 -168 -25v71c85 47 181 79 262 79
c141 0 194 -79 194 -211v-196zM259 109c16 0 33 3 52 10v115l-52 -13c-35 -9 -61 -24 -61 -60c0 -39 30 -52 61 -52zM427 578l-4 -12h-80l-87 87l-79 -87h-44l-4 12l108 166h77z" />
    <glyph glyph-name="adieresis" unicode="&#xe4;" horiz-adv-x="573" 
d="M502 108c0 -49 10 -62 49 -62c5 -1 11 0 18 0l1 -23c-27 -15 -79 -38 -146 -38c-93 0 -113 41 -113 99v11c-32 -56 -85 -109 -164 -109c-76 0 -120 47 -120 119c0 96 79 127 180 148l104 21v18c0 59 -22 98 -97 98c-41 0 -100 -9 -168 -25v71c85 47 181 79 262 79
c141 0 194 -79 194 -211v-196zM259 109c16 0 33 3 52 10v115l-52 -13c-35 -9 -61 -24 -61 -60c0 -39 30 -52 61 -52zM101 670c0 57 39 76 84 76s84 -19 84 -76c0 -59 -39 -77 -84 -77s-84 18 -84 77zM304 670c0 57 39 76 84 76s84 -19 84 -76c0 -59 -39 -77 -84 -77
s-84 18 -84 77z" />
    <glyph glyph-name="atilde" unicode="&#xe3;" horiz-adv-x="573" 
d="M502 108c0 -49 10 -62 49 -62c5 -1 11 0 18 0l1 -23c-27 -15 -79 -38 -146 -38c-93 0 -113 41 -113 99v11c-32 -56 -85 -109 -164 -109c-76 0 -120 47 -120 119c0 96 79 127 180 148l104 21v18c0 59 -22 98 -97 98c-41 0 -100 -9 -168 -25v71c85 47 181 79 262 79
c141 0 194 -79 194 -211v-196zM259 109c16 0 33 3 52 10v115l-52 -13c-35 -9 -61 -24 -61 -60c0 -39 30 -52 61 -52zM430 719c0 -89 -36 -126 -89 -126s-101 29 -128 29c-15 0 -35 -6 -42 -33h-37c0 67 26 126 82 126c43 0 95 -28 134 -28c20 0 36 8 40 32h40z" />
    <glyph glyph-name="aring" unicode="&#xe5;" horiz-adv-x="573" 
d="M502 108c0 -49 10 -62 49 -62c5 -1 11 0 18 0l1 -23c-27 -15 -79 -38 -146 -38c-93 0 -113 41 -113 99v11c-32 -56 -85 -109 -164 -109c-76 0 -120 47 -120 119c0 96 79 127 180 148l104 21v18c0 59 -22 98 -97 98c-41 0 -100 -9 -168 -25v71c85 47 181 79 262 79
c141 0 194 -79 194 -211v-196zM259 109c16 0 33 3 52 10v115l-52 -13c-35 -9 -61 -24 -61 -60c0 -39 30 -52 61 -52zM390 666c0 -56 -43 -94 -108 -94s-108 38 -108 93c0 56 45 94 109 94c61 0 107 -37 107 -93zM327 665c0 35 -21 50 -46 50c-21 0 -43 -12 -43 -49
c0 -35 21 -50 45 -50c23 0 44 13 44 49z" />
    <glyph glyph-name="abreve" unicode="&#x103;" horiz-adv-x="573" 
d="M502 108c0 -49 10 -62 49 -62c5 -1 11 0 18 0l1 -23c-27 -15 -79 -38 -146 -38c-93 0 -113 41 -113 99v11c-32 -56 -85 -109 -164 -109c-76 0 -120 47 -120 119c0 96 79 127 180 148l104 21v18c0 59 -22 98 -97 98c-41 0 -100 -9 -168 -25v71c85 47 181 79 262 79
c141 0 194 -79 194 -211v-196zM259 109c16 0 33 3 52 10v115l-52 -13c-35 -9 -61 -24 -61 -60c0 -39 30 -52 61 -52zM435 731c-19 -91 -66 -146 -153 -146c-77 0 -134 49 -143 146h64c12 -43 51 -70 92 -70c44 0 85 27 100 70h40z" />
    <glyph glyph-name="amacron" unicode="&#x101;" horiz-adv-x="573" 
d="M502 108c0 -49 10 -62 49 -62c5 -1 11 0 18 0l1 -23c-27 -15 -79 -38 -146 -38c-93 0 -113 41 -113 99v11c-32 -56 -85 -109 -164 -109c-76 0 -120 47 -120 119c0 96 79 127 180 148l104 21v18c0 59 -22 98 -97 98c-41 0 -100 -9 -168 -25v71c85 47 181 79 262 79
c141 0 194 -79 194 -211v-196zM259 109c16 0 33 3 52 10v115l-52 -13c-35 -9 -61 -24 -61 -60c0 -39 30 -52 61 -52zM161 694h272v-70h-272v70z" />
    <glyph glyph-name="aogonek" unicode="&#x105;" horiz-adv-x="574" 
d="M502 108c0 -49 10 -62 49 -62c5 -1 11 0 18 0l1 -23c-27 -15 -79 -38 -146 -38c-93 0 -113 41 -113 99v11c-32 -56 -85 -109 -164 -109c-76 0 -120 47 -120 119c0 96 79 127 180 148l104 21v18c0 59 -22 98 -97 98c-41 0 -100 -9 -168 -25v71c85 47 181 79 262 79
c141 0 194 -79 194 -211v-196zM259 109c16 0 33 3 52 10v115l-52 -13c-35 -9 -61 -24 -61 -60c0 -39 30 -52 61 -52zM571 -217c-25 -5 -49 -8 -70 -8c-84 0 -122 44 -122 95c0 56 67 116 157 142l11 2c-41 -31 -56 -70 -56 -111c0 -37 12 -69 49 -69c7 0 19 1 31 4v-55z" />
    <glyph glyph-name="ccedilla" unicode="&#xe7;" horiz-adv-x="535" 
d="M501 76c-49 -48 -118 -91 -223 -91c-156 0 -248 95 -248 244c0 157 102 286 299 286c124 0 184 -50 184 -115c0 -47 -25 -85 -76 -85c-121 0 -51 143 -143 143c-51 0 -80 -84 -80 -176c0 -99 31 -175 143 -175c37 0 91 7 142 26zM417 -139c0 -56 -48 -87 -136 -87
c-31 0 -55 3 -79 10v67c12 -4 46 -15 73 -15c20 0 36 6 36 26c0 23 -19 27 -38 27c-11 0 -20 -1 -27 -2v121h58v-66c52 0 113 -23 113 -81z" />
    <glyph glyph-name="cacute" unicode="&#x107;" horiz-adv-x="535" 
d="M501 76c-49 -48 -118 -91 -223 -91c-156 0 -248 95 -248 244c0 157 102 286 299 286c124 0 184 -50 184 -115c0 -47 -25 -85 -76 -85c-121 0 -51 143 -143 143c-51 0 -80 -84 -80 -176c0 -99 31 -175 143 -175c37 0 91 7 142 26zM455 733l-182 -167h-32l-4 10l66 168h148
z" />
    <glyph glyph-name="ccaron" unicode="&#x10d;" horiz-adv-x="535" 
d="M501 76c-49 -48 -118 -91 -223 -91c-156 0 -248 95 -248 244c0 157 102 286 299 286c124 0 184 -50 184 -115c0 -47 -25 -85 -76 -85c-121 0 -51 143 -143 143c-51 0 -80 -84 -80 -176c0 -99 31 -175 143 -175c37 0 91 7 142 26zM330 566h-78l-112 168l4 10h80l87 -87
l79 87h44l4 -10z" />
    <glyph glyph-name="ccircumflex" unicode="&#x109;" horiz-adv-x="535" 
d="M501 76c-49 -48 -118 -91 -223 -91c-156 0 -248 95 -248 244c0 157 102 286 299 286c124 0 184 -50 184 -115c0 -47 -25 -85 -76 -85c-121 0 -51 143 -143 143c-51 0 -80 -84 -80 -176c0 -99 31 -175 143 -175c37 0 91 7 142 26zM446 578l-4 -12h-80l-87 87l-79 -87h-44
l-4 12l108 166h77z" />
    <glyph glyph-name="cdotaccent" unicode="&#x10b;" horiz-adv-x="535" 
d="M501 76c-49 -48 -118 -91 -223 -91c-156 0 -248 95 -248 244c0 157 102 286 299 286c124 0 184 -50 184 -115c0 -47 -25 -85 -76 -85c-121 0 -51 143 -143 143c-51 0 -80 -84 -80 -176c0 -99 31 -175 143 -175c37 0 91 7 142 26zM211 676c0 63 42 83 91 83s91 -20 91 -83
s-42 -83 -91 -83s-91 20 -91 83z" />
    <glyph glyph-name="dcaron" unicode="&#x10f;" horiz-adv-x="663" 
d="M391 639c0 27 -2 36 -21 41c-12 3 -26 2 -49 1v35c46 16 135 43 196 43c52 0 65 -19 65 -64v-587c0 -56 15 -65 67 -62l1 -23c-27 -15 -79 -38 -147 -38c-92 0 -112 42 -112 99v6c-32 -56 -77 -105 -160 -105c-124 0 -200 111 -200 244c0 192 156 286 304 286
c19 0 37 -2 56 -5v129zM339 104c19 0 33 2 52 9v333c-18 7 -35 11 -51 11c-73 0 -118 -61 -118 -181c0 -99 31 -172 117 -172zM755 733c-5 -65 -51 -167 -81 -210h-51l-4 10c15 47 28 128 28 211h104z" />
    <glyph glyph-name="dcroat" unicode="&#x111;" horiz-adv-x="663" 
d="M391 639c0 27 -2 36 -21 41c-12 3 -26 2 -49 1v35c46 16 135 43 196 43c52 0 65 -19 65 -64v-62h75v-50h-75v-475c0 -56 15 -65 67 -62l1 -23c-27 -15 -79 -38 -147 -38c-92 0 -112 42 -112 99v6c-32 -56 -77 -105 -160 -105c-124 0 -200 111 -200 244
c0 192 156 286 304 286c19 0 37 -2 56 -5v73h-166v50h166v6zM339 104c19 0 33 2 52 9v333c-18 7 -35 11 -51 11c-73 0 -118 -61 -118 -181c0 -99 31 -172 117 -172z" />
    <glyph glyph-name="eacute" unicode="&#xe9;" 
d="M513 75c-50 -47 -123 -90 -234 -90c-156 0 -248 83 -248 242c0 160 96 288 292 288c139 0 213 -61 213 -182c0 -11 -1 -22 -2 -33l-32 -41h-287c3 -88 30 -152 142 -152c47 0 107 10 154 26zM290 457c-47 0 -72 -66 -75 -150h130c2 14 3 29 3 44c0 64 -19 106 -58 106z
M451 733l-182 -167h-32l-4 10l66 168h148z" />
    <glyph glyph-name="egrave" unicode="&#xe8;" 
d="M513 75c-50 -47 -123 -90 -234 -90c-156 0 -248 83 -248 242c0 160 96 288 292 288c139 0 213 -61 213 -182c0 -11 -1 -22 -2 -33l-32 -41h-287c3 -88 30 -152 142 -152c47 0 107 10 154 26zM290 457c-47 0 -72 -66 -75 -150h130c2 14 3 29 3 44c0 64 -19 106 -58 106z
M120 744h148l76 -168l-4 -10h-42l-182 167z" />
    <glyph glyph-name="ecircumflex" unicode="&#xea;" 
d="M513 75c-50 -47 -123 -90 -234 -90c-156 0 -248 83 -248 242c0 160 96 288 292 288c139 0 213 -61 213 -182c0 -11 -1 -22 -2 -33l-32 -41h-287c3 -88 30 -152 142 -152c47 0 107 10 154 26zM290 457c-47 0 -72 -66 -75 -150h130c2 14 3 29 3 44c0 64 -19 106 -58 106z
M446 578l-4 -12h-80l-87 87l-79 -87h-44l-4 12l108 166h77z" />
    <glyph glyph-name="edieresis" unicode="&#xeb;" 
d="M513 75c-50 -47 -123 -90 -234 -90c-156 0 -248 83 -248 242c0 160 96 288 292 288c139 0 213 -61 213 -182c0 -11 -1 -22 -2 -33l-32 -41h-287c3 -88 30 -152 142 -152c47 0 107 10 154 26zM290 457c-47 0 -72 -66 -75 -150h130c2 14 3 29 3 44c0 64 -19 106 -58 106z
M121 670c0 57 39 76 84 76s84 -19 84 -76c0 -59 -39 -77 -84 -77s-84 18 -84 77zM324 670c0 57 39 76 84 76s84 -19 84 -76c0 -59 -39 -77 -84 -77s-84 18 -84 77z" />
    <glyph glyph-name="ebreve" unicode="&#x115;" 
d="M513 75c-50 -47 -123 -90 -234 -90c-156 0 -248 83 -248 242c0 160 96 288 292 288c139 0 213 -61 213 -182c0 -11 -1 -22 -2 -33l-32 -41h-287c3 -88 30 -152 142 -152c47 0 107 10 154 26zM290 457c-47 0 -72 -66 -75 -150h130c2 14 3 29 3 44c0 64 -19 106 -58 106z
M446 731c-19 -91 -66 -146 -153 -146c-77 0 -134 49 -143 146h64c12 -43 51 -70 92 -70c44 0 85 27 100 70h40z" />
    <glyph glyph-name="ecaron" unicode="&#x11b;" 
d="M513 75c-50 -47 -123 -90 -234 -90c-156 0 -248 83 -248 242c0 160 96 288 292 288c139 0 213 -61 213 -182c0 -11 -1 -22 -2 -33l-32 -41h-287c3 -88 30 -152 142 -152c47 0 107 10 154 26zM290 457c-47 0 -72 -66 -75 -150h130c2 14 3 29 3 44c0 64 -19 106 -58 106z
M348 566h-78l-112 168l4 10h80l87 -87l79 87h44l4 -10z" />
    <glyph glyph-name="edotaccent" unicode="&#x117;" 
d="M513 75c-50 -47 -123 -90 -234 -90c-156 0 -248 83 -248 242c0 160 96 288 292 288c139 0 213 -61 213 -182c0 -11 -1 -22 -2 -33l-32 -41h-287c3 -88 30 -152 142 -152c47 0 107 10 154 26zM290 457c-47 0 -72 -66 -75 -150h130c2 14 3 29 3 44c0 64 -19 106 -58 106z
M200 676c0 63 42 83 91 83s91 -20 91 -83s-42 -83 -91 -83s-91 20 -91 83z" />
    <glyph glyph-name="emacron" unicode="&#x113;" 
d="M513 75c-50 -47 -123 -90 -234 -90c-156 0 -248 83 -248 242c0 160 96 288 292 288c139 0 213 -61 213 -182c0 -11 -1 -22 -2 -33l-32 -41h-287c3 -88 30 -152 142 -152c47 0 107 10 154 26zM290 457c-47 0 -72 -66 -75 -150h130c2 14 3 29 3 44c0 64 -19 106 -58 106z
M164 694h272v-70h-272v70z" />
    <glyph glyph-name="uni1EBD" unicode="&#x1ebd;" 
d="M513 75c-50 -47 -123 -90 -234 -90c-156 0 -248 83 -248 242c0 160 96 288 292 288c139 0 213 -61 213 -182c0 -11 -1 -22 -2 -33l-32 -41h-287c3 -88 30 -152 142 -152c47 0 107 10 154 26zM290 457c-47 0 -72 -66 -75 -150h130c2 14 3 29 3 44c0 64 -19 106 -58 106z
M444 719c0 -89 -36 -126 -89 -126s-101 29 -128 29c-15 0 -35 -6 -42 -33h-37c0 67 26 126 82 126c43 0 95 -28 134 -28c20 0 36 8 40 32h40z" />
    <glyph glyph-name="eogonek" unicode="&#x119;" 
d="M513 75c-50 -47 -123 -90 -234 -90c-156 0 -248 83 -248 242c0 160 96 288 292 288c139 0 213 -61 213 -182c0 -11 -1 -22 -2 -33l-32 -41h-287c3 -88 30 -152 142 -152c47 0 107 10 154 26zM290 457c-47 0 -72 -66 -75 -150h130c2 14 3 29 3 44c0 64 -19 106 -58 106z
M429 -217c-25 -5 -49 -8 -70 -8c-84 0 -122 44 -122 95c0 56 67 116 157 142l11 2c-41 -31 -56 -70 -56 -111c0 -37 12 -69 49 -69c7 0 19 1 31 4v-55z" />
    <glyph glyph-name="uni0229" unicode="&#x229;" 
d="M513 75c-50 -47 -123 -90 -234 -90c-156 0 -248 83 -248 242c0 160 96 288 292 288c139 0 213 -61 213 -182c0 -11 -1 -22 -2 -33l-32 -41h-287c3 -88 30 -152 142 -152c47 0 107 10 154 26zM290 457c-47 0 -72 -66 -75 -150h130c2 14 3 29 3 44c0 64 -19 106 -58 106z
M431 -139c0 -56 -48 -87 -136 -87c-31 0 -55 3 -79 10v67c12 -4 46 -15 73 -15c20 0 36 6 36 26c0 23 -19 27 -38 27c-11 0 -20 -1 -27 -2v121h58v-66c52 0 113 -23 113 -81z" />
    <glyph glyph-name="gbreve" unicode="&#x11f;" horiz-adv-x="600" 
d="M284 195c-36 0 -68 3 -96 9c-7 -9 -7 -16 -7 -23c0 -24 21 -36 78 -36h77c138 0 236 -40 236 -156c0 -119 -103 -215 -322 -215c-151 0 -239 44 -239 116c0 45 35 78 131 105c-63 16 -87 49 -87 93c0 57 42 95 107 122c-80 23 -123 72 -123 140c0 93 82 165 244 165
c78 0 139 -15 182 -45c56 29 34 106 102 106c36 0 53 -21 53 -45c0 -55 -59 -79 -126 -87c19 -23 29 -51 29 -82c0 -100 -94 -167 -239 -167zM250 -17c-31 0 -55 2 -78 5c-10 -14 -15 -32 -15 -55c0 -59 37 -104 129 -104c88 0 134 43 134 96c0 43 -31 58 -100 58h-70z
M335 354c0 68 -16 108 -60 108c-48 0 -53 -46 -53 -103c0 -59 8 -111 61 -111c49 0 52 50 52 106zM430 731c-19 -91 -66 -146 -153 -146c-77 0 -134 49 -143 146h64c12 -43 51 -70 92 -70c44 0 85 27 100 70h40z" />
    <glyph glyph-name="gcircumflex" unicode="&#x11d;" horiz-adv-x="600" 
d="M284 195c-36 0 -68 3 -96 9c-7 -9 -7 -16 -7 -23c0 -24 21 -36 78 -36h77c138 0 236 -40 236 -156c0 -119 -103 -215 -322 -215c-151 0 -239 44 -239 116c0 45 35 78 131 105c-63 16 -87 49 -87 93c0 57 42 95 107 122c-80 23 -123 72 -123 140c0 93 82 165 244 165
c78 0 139 -15 182 -45c56 29 34 106 102 106c36 0 53 -21 53 -45c0 -55 -59 -79 -126 -87c19 -23 29 -51 29 -82c0 -100 -94 -167 -239 -167zM250 -17c-31 0 -55 2 -78 5c-10 -14 -15 -32 -15 -55c0 -59 37 -104 129 -104c88 0 134 43 134 96c0 43 -31 58 -100 58h-70z
M335 354c0 68 -16 108 -60 108c-48 0 -53 -46 -53 -103c0 -59 8 -111 61 -111c49 0 52 50 52 106zM427 578l-4 -12h-80l-87 87l-79 -87h-44l-4 12l108 166h77z" />
    <glyph glyph-name="gcommaaccent" unicode="&#x123;" horiz-adv-x="600" 
d="M284 195c-36 0 -68 3 -96 9c-7 -9 -7 -16 -7 -23c0 -24 21 -36 78 -36h77c138 0 236 -40 236 -156c0 -119 -103 -215 -322 -215c-151 0 -239 44 -239 116c0 45 35 78 131 105c-63 16 -87 49 -87 93c0 57 42 95 107 122c-80 23 -123 72 -123 140c0 93 82 165 244 165
c78 0 139 -15 182 -45c56 29 34 106 102 106c36 0 53 -21 53 -45c0 -55 -59 -79 -126 -87c19 -23 29 -51 29 -82c0 -100 -94 -167 -239 -167zM250 -17c-31 0 -55 2 -78 5c-10 -14 -15 -32 -15 -55c0 -59 37 -104 129 -104c88 0 134 43 134 96c0 43 -31 58 -100 58h-70z
M335 354c0 68 -16 108 -60 108c-48 0 -53 -46 -53 -103c0 -59 8 -111 61 -111c49 0 52 50 52 106zM209 635c0 72 71 120 124 149l23 -29c-35 -24 -66 -52 -66 -79c27 0 55 -17 55 -50c0 -49 -33 -65 -66 -65c-47 0 -70 30 -70 74z" />
    <glyph glyph-name="gdotaccent" unicode="&#x121;" horiz-adv-x="600" 
d="M284 195c-36 0 -68 3 -96 9c-7 -9 -7 -16 -7 -23c0 -24 21 -36 78 -36h77c138 0 236 -40 236 -156c0 -119 -103 -215 -322 -215c-151 0 -239 44 -239 116c0 45 35 78 131 105c-63 16 -87 49 -87 93c0 57 42 95 107 122c-80 23 -123 72 -123 140c0 93 82 165 244 165
c78 0 139 -15 182 -45c56 29 34 106 102 106c36 0 53 -21 53 -45c0 -55 -59 -79 -126 -87c19 -23 29 -51 29 -82c0 -100 -94 -167 -239 -167zM250 -17c-31 0 -55 2 -78 5c-10 -14 -15 -32 -15 -55c0 -59 37 -104 129 -104c88 0 134 43 134 96c0 43 -31 58 -100 58h-70z
M335 354c0 68 -16 108 -60 108c-48 0 -53 -46 -53 -103c0 -59 8 -111 61 -111c49 0 52 50 52 106zM181 676c0 63 42 83 91 83s91 -20 91 -83s-42 -83 -91 -83s-91 20 -91 83z" />
    <glyph glyph-name="gcaron" unicode="&#x1e7;" horiz-adv-x="600" 
d="M309 566h-78l-112 168l4 10h80l87 -87l79 87h44l4 -10zM284 195c-36 0 -68 3 -96 9c-7 -9 -7 -16 -7 -23c0 -24 21 -36 78 -36h77c138 0 236 -40 236 -156c0 -119 -103 -215 -322 -215c-151 0 -239 44 -239 116c0 45 35 78 131 105c-63 16 -87 49 -87 93
c0 57 42 95 107 122c-80 23 -123 72 -123 140c0 93 82 165 244 165c78 0 139 -15 182 -45c56 29 34 106 102 106c36 0 53 -21 53 -45c0 -55 -59 -79 -126 -87c19 -23 29 -51 29 -82c0 -100 -94 -167 -239 -167zM250 -17c-31 0 -55 2 -78 5c-10 -14 -15 -32 -15 -55
c0 -59 37 -104 129 -104c88 0 134 43 134 96c0 43 -31 58 -100 58h-70zM335 354c0 68 -16 108 -60 108c-48 0 -53 -46 -53 -103c0 -59 8 -111 61 -111c49 0 52 50 52 106z" />
    <glyph glyph-name="uni01F5" unicode="&#x1f5;" horiz-adv-x="600" 
d="M466 733l-182 -167h-32l-4 10l66 168h148zM284 195c-36 0 -68 3 -96 9c-7 -9 -7 -16 -7 -23c0 -24 21 -36 78 -36h77c138 0 236 -40 236 -156c0 -119 -103 -215 -322 -215c-151 0 -239 44 -239 116c0 45 35 78 131 105c-63 16 -87 49 -87 93c0 57 42 95 107 122
c-80 23 -123 72 -123 140c0 93 82 165 244 165c78 0 139 -15 182 -45c56 29 34 106 102 106c36 0 53 -21 53 -45c0 -55 -59 -79 -126 -87c19 -23 29 -51 29 -82c0 -100 -94 -167 -239 -167zM250 -17c-31 0 -55 2 -78 5c-10 -14 -15 -32 -15 -55c0 -59 37 -104 129 -104
c88 0 134 43 134 96c0 43 -31 58 -100 58h-70zM335 354c0 68 -16 108 -60 108c-48 0 -53 -46 -53 -103c0 -59 8 -111 61 -111c49 0 52 50 52 106z" />
    <glyph glyph-name="hbar" unicode="&#x127;" horiz-adv-x="690" 
d="M5 623h72v16c0 31 -4 40 -33 43h-16c-6 0 -13 0 -21 -1v35c46 16 136 43 194 43c55 0 67 -17 67 -64v-72h169v-50h-169v-159c53 59 119 101 195 101c112 0 154 -58 154 -183v-239c0 -24 9 -38 24 -47c9 -5 20 -8 32 -9v-37h-303v37c13 1 24 3 33 8c15 8 23 24 23 48v184
c0 77 -12 130 -89 130c-23 0 -42 -3 -69 -14v-300c0 -24 9 -38 24 -47c9 -5 20 -8 32 -9v-37h-303v37c13 1 24 3 33 8c15 8 23 24 23 48v480h-72v50z" />
    <glyph glyph-name="iacute" unicode="&#xed;" horiz-adv-x="356" 
d="M279 93c0 -24 9 -38 24 -47c9 -5 20 -8 32 -9v-37h-303v37c13 1 24 3 33 8c15 8 23 24 23 48v302c0 33 -5 43 -42 43c-8 0 -17 0 -28 -1v35c46 16 136 43 194 43c55 0 67 -17 67 -64v-358zM353 733l-182 -167h-32l-4 10l66 168h148z" />
    <glyph glyph-name="igrave" unicode="&#xec;" horiz-adv-x="356" 
d="M279 93c0 -24 9 -38 24 -47c9 -5 20 -8 32 -9v-37h-303v37c13 1 24 3 33 8c15 8 23 24 23 48v302c0 33 -5 43 -42 43c-8 0 -17 0 -28 -1v35c46 16 136 43 194 43c55 0 67 -17 67 -64v-358zM-4 744h148l76 -168l-4 -10h-42l-182 167z" />
    <glyph glyph-name="icircumflex" unicode="&#xee;" horiz-adv-x="356" 
d="M279 93c0 -24 9 -38 24 -47c9 -5 20 -8 32 -9v-37h-303v37c13 1 24 3 33 8c15 8 23 24 23 48v302c0 33 -5 43 -42 43c-8 0 -17 0 -28 -1v35c46 16 136 43 194 43c55 0 67 -17 67 -64v-358zM331 578l-4 -12h-80l-87 87l-79 -87h-44l-4 12l108 166h77z" />
    <glyph glyph-name="idieresis" unicode="&#xef;" horiz-adv-x="356" 
d="M279 93c0 -24 9 -38 24 -47c9 -5 20 -8 32 -9v-37h-303v37c13 1 24 3 33 8c15 8 23 24 23 48v302c0 33 -5 43 -42 43c-8 0 -17 0 -28 -1v35c46 16 136 43 194 43c55 0 67 -17 67 -64v-358zM-16 670c0 57 39 76 84 76s84 -19 84 -76c0 -59 -39 -77 -84 -77s-84 18 -84 77z
M187 670c0 57 39 76 84 76s84 -19 84 -76c0 -59 -39 -77 -84 -77s-84 18 -84 77z" />
    <glyph glyph-name="ibreve" unicode="&#x12d;" horiz-adv-x="356" 
d="M279 93c0 -24 9 -38 24 -47c9 -5 20 -8 32 -9v-37h-303v37c13 1 24 3 33 8c15 8 23 24 23 48v302c0 33 -5 43 -42 43c-8 0 -17 0 -28 -1v35c46 16 136 43 194 43c55 0 67 -17 67 -64v-358zM331 731c-19 -91 -66 -146 -153 -146c-77 0 -134 49 -143 146h64
c12 -43 51 -70 92 -70c44 0 85 27 100 70h40z" />
    <glyph glyph-name="dotlessi" unicode="&#x131;" horiz-adv-x="356" 
d="M279 93c0 -24 9 -38 24 -47c9 -5 20 -8 32 -9v-37h-303v37c13 1 24 3 33 8c15 8 23 24 23 48v302c0 33 -5 43 -42 43c-8 0 -17 0 -28 -1v35c46 16 136 43 194 43c55 0 67 -17 67 -64v-358z" />
    <glyph glyph-name="imacron" unicode="&#x12b;" horiz-adv-x="356" 
d="M279 93c0 -24 9 -38 24 -47c9 -5 20 -8 32 -9v-37h-303v37c13 1 24 3 33 8c15 8 23 24 23 48v302c0 33 -5 43 -42 43c-8 0 -17 0 -28 -1v35c46 16 136 43 194 43c55 0 67 -17 67 -64v-358zM37 694h272v-70h-272v70z" />
    <glyph glyph-name="iogonek" unicode="&#x12f;" horiz-adv-x="356" 
d="M84 676c0 63 42 83 91 83s91 -20 91 -83s-42 -83 -91 -83s-91 20 -91 83zM279 93c0 -24 9 -38 24 -47c9 -5 20 -8 32 -9v-37h-303v37c13 1 24 3 33 8c15 8 23 24 23 48v302c0 33 -5 43 -42 43c-8 0 -17 0 -28 -1v35c46 16 136 43 194 43c55 0 67 -17 67 -64v-358z
M246 -217c-25 -5 -49 -8 -70 -8c-84 0 -122 44 -122 95c0 56 67 116 157 142l11 2c-41 -31 -56 -70 -56 -111c0 -37 12 -69 49 -69c7 0 19 1 31 4v-55z" />
    <glyph glyph-name="itilde" unicode="&#x129;" horiz-adv-x="356" 
d="M279 93c0 -24 9 -38 24 -47c9 -5 20 -8 32 -9v-37h-303v37c13 1 24 3 33 8c15 8 23 24 23 48v302c0 33 -5 43 -42 43c-8 0 -17 0 -28 -1v35c46 16 136 43 194 43c55 0 67 -17 67 -64v-358zM303 719c0 -89 -36 -126 -89 -126s-101 29 -128 29c-15 0 -35 -6 -42 -33h-37
c0 67 26 126 82 126c43 0 95 -28 134 -28c20 0 36 8 40 32h40z" />
    <glyph glyph-name="kcommaaccent" unicode="&#x137;" horiz-adv-x="634" 
d="M77 639c0 32 -4 42 -39 43c-9 0 -19 0 -31 -1v35c46 16 136 43 194 43c55 0 67 -17 67 -64v-429l89 71c33 27 49 56 49 79c0 27 -21 47 -58 48v36h265v-36c-40 -7 -76 -29 -115 -60l-84 -66l140 -208c29 -45 36 -62 80 -96l-9 -34h-203l-154 245v-152c0 -24 9 -38 24 -47
c9 -5 20 -8 32 -9v-37h-303v37c13 1 24 3 33 8c15 8 23 24 23 48v546zM405 -135c0 -72 -71 -120 -124 -149l-23 29c35 24 66 52 66 79c-27 0 -55 17 -55 50c0 49 33 65 66 65c47 0 70 -30 70 -74z" />
    <glyph glyph-name="lacute" unicode="&#x13a;" horiz-adv-x="351" 
d="M80 639c0 31 -3 40 -34 43c-9 0 -21 0 -36 -1v35c46 16 136 43 194 43c55 0 67 -17 67 -64v-602c0 -24 9 -38 24 -47c9 -5 20 -8 32 -9v-37h-303v37c13 1 24 3 33 8c15 8 23 24 23 48v546zM326 922l-176 -129h-42l-4 10l72 130h146z" />
    <glyph glyph-name="lcaron" unicode="&#x13e;" horiz-adv-x="351" 
d="M80 639c0 31 -3 40 -34 43c-9 0 -21 0 -36 -1v35c46 16 136 43 194 43c55 0 67 -17 67 -64v-602c0 -24 9 -38 24 -47c9 -5 20 -8 32 -9v-37h-303v37c13 1 24 3 33 8c15 8 23 24 23 48v546zM435 733c-5 -65 -51 -167 -81 -210h-51l-4 10c15 47 28 128 28 211h104z" />
    <glyph glyph-name="lcommaaccent" unicode="&#x13c;" horiz-adv-x="351" 
d="M80 639c0 31 -3 40 -34 43c-9 0 -21 0 -36 -1v35c46 16 136 43 194 43c55 0 67 -17 67 -64v-602c0 -24 9 -38 24 -47c9 -5 20 -8 32 -9v-37h-303v37c13 1 24 3 33 8c15 8 23 24 23 48v546zM246 -135c0 -72 -71 -120 -124 -149l-23 29c35 24 66 52 66 79
c-27 0 -55 17 -55 50c0 49 33 65 66 65c47 0 70 -30 70 -74z" />
    <glyph glyph-name="ldot" unicode="&#x140;" horiz-adv-x="420" 
d="M80 639c0 31 -3 40 -34 43c-9 0 -21 0 -36 -1v35c46 16 136 43 194 43c55 0 67 -17 67 -64v-602c0 -24 9 -38 24 -47c9 -5 20 -8 32 -9v-37h-303v37c13 1 24 3 33 8c15 8 23 24 23 48v546zM297 345c0 59 40 87 87 87s88 -28 88 -87s-43 -88 -88 -88c-47 0 -87 28 -87 88z
" />
    <glyph glyph-name="lslash" unicode="&#x142;" horiz-adv-x="357" 
d="M83 294l-63 -30v62l63 30v283c0 31 -3 40 -34 43h-16c-6 0 -13 0 -20 -1v35c46 16 136 43 194 43c55 0 67 -17 67 -64v-246l68 33v-62l-68 -33v-294c0 -24 9 -38 24 -47c9 -5 20 -8 32 -9v-37h-303v37c13 1 24 3 33 8c15 8 23 24 23 48v201z" />
    <glyph glyph-name="ntilde" unicode="&#xf1;" horiz-adv-x="701" 
d="M279 93c0 -24 9 -38 24 -47c9 -5 20 -8 32 -9v-37h-303v37c13 1 24 3 33 8c15 8 23 24 23 48v302c0 32 -4 42 -37 43c-9 0 -20 0 -33 -1v35c46 16 136 43 194 43c55 0 67 -17 67 -64v-37c53 59 119 101 195 101c112 0 154 -58 154 -183v-239c0 -24 9 -38 24 -47
c9 -5 20 -8 32 -9v-37h-303v37c13 1 24 3 33 8c15 8 23 24 23 48v184c0 77 -12 130 -89 130c-23 0 -42 -3 -69 -14v-300zM507 719c0 -89 -36 -126 -89 -126s-101 29 -128 29c-15 0 -35 -6 -42 -33h-37c0 67 26 126 82 126c43 0 95 -28 134 -28c20 0 36 8 40 32h40z" />
    <glyph glyph-name="nacute" unicode="&#x144;" horiz-adv-x="701" 
d="M279 93c0 -24 9 -38 24 -47c9 -5 20 -8 32 -9v-37h-303v37c13 1 24 3 33 8c15 8 23 24 23 48v302c0 32 -4 42 -37 43c-9 0 -20 0 -33 -1v35c46 16 136 43 194 43c55 0 67 -17 67 -64v-37c53 59 119 101 195 101c112 0 154 -58 154 -183v-239c0 -24 9 -38 24 -47
c9 -5 20 -8 32 -9v-37h-303v37c13 1 24 3 33 8c15 8 23 24 23 48v184c0 77 -12 130 -89 130c-23 0 -42 -3 -69 -14v-300zM522 733l-182 -167h-32l-4 10l66 168h148z" />
    <glyph glyph-name="ncaron" unicode="&#x148;" horiz-adv-x="701" 
d="M279 93c0 -24 9 -38 24 -47c9 -5 20 -8 32 -9v-37h-303v37c13 1 24 3 33 8c15 8 23 24 23 48v302c0 32 -4 42 -37 43c-9 0 -20 0 -33 -1v35c46 16 136 43 194 43c55 0 67 -17 67 -64v-37c53 59 119 101 195 101c112 0 154 -58 154 -183v-239c0 -24 9 -38 24 -47
c9 -5 20 -8 32 -9v-37h-303v37c13 1 24 3 33 8c15 8 23 24 23 48v184c0 77 -12 130 -89 130c-23 0 -42 -3 -69 -14v-300zM406 566h-78l-112 168l4 10h80l87 -87l79 87h44l4 -10z" />
    <glyph glyph-name="ncommaaccent" unicode="&#x146;" horiz-adv-x="701" 
d="M279 93c0 -24 9 -38 24 -47c9 -5 20 -8 32 -9v-37h-303v37c13 1 24 3 33 8c15 8 23 24 23 48v302c0 32 -4 42 -37 43c-9 0 -20 0 -33 -1v35c46 16 136 43 194 43c55 0 67 -17 67 -64v-37c53 59 119 101 195 101c112 0 154 -58 154 -183v-239c0 -24 9 -38 24 -47
c9 -5 20 -8 32 -9v-37h-303v37c13 1 24 3 33 8c15 8 23 24 23 48v184c0 77 -12 130 -89 130c-23 0 -42 -3 -69 -14v-300zM422 -135c0 -72 -71 -120 -124 -149l-23 29c35 24 66 52 66 79c-27 0 -55 17 -55 50c0 49 33 65 66 65c47 0 70 -30 70 -74z" />
    <glyph glyph-name="oacute" unicode="&#xf3;" horiz-adv-x="627" 
d="M597 275c0 -163 -108 -290 -301 -290c-151 0 -267 79 -267 244c0 176 131 286 310 286c157 0 258 -84 258 -240zM397 241c0 131 -24 216 -90 216c-61 0 -78 -73 -78 -189c0 -130 20 -225 88 -225c56 0 80 67 80 198zM469 733l-182 -167h-32l-4 10l66 168h148z" />
    <glyph glyph-name="ograve" unicode="&#xf2;" horiz-adv-x="627" 
d="M597 275c0 -163 -108 -290 -301 -290c-151 0 -267 79 -267 244c0 176 131 286 310 286c157 0 258 -84 258 -240zM397 241c0 131 -24 216 -90 216c-61 0 -78 -73 -78 -189c0 -130 20 -225 88 -225c56 0 80 67 80 198zM141 744h148l76 -168l-4 -10h-42l-182 167z" />
    <glyph glyph-name="ocircumflex" unicode="&#xf4;" horiz-adv-x="627" 
d="M597 275c0 -163 -108 -290 -301 -290c-151 0 -267 79 -267 244c0 176 131 286 310 286c157 0 258 -84 258 -240zM397 241c0 131 -24 216 -90 216c-61 0 -78 -73 -78 -189c0 -130 20 -225 88 -225c56 0 80 67 80 198zM462 578l-4 -12h-80l-87 87l-79 -87h-44l-4 12
l108 166h77z" />
    <glyph glyph-name="odieresis" unicode="&#xf6;" horiz-adv-x="627" 
d="M597 275c0 -163 -108 -290 -301 -290c-151 0 -267 79 -267 244c0 176 131 286 310 286c157 0 258 -84 258 -240zM397 241c0 131 -24 216 -90 216c-61 0 -78 -73 -78 -189c0 -130 20 -225 88 -225c56 0 80 67 80 198zM129 670c0 57 39 76 84 76s84 -19 84 -76
c0 -59 -39 -77 -84 -77s-84 18 -84 77zM332 670c0 57 39 76 84 76s84 -19 84 -76c0 -59 -39 -77 -84 -77s-84 18 -84 77z" />
    <glyph glyph-name="otilde" unicode="&#xf5;" horiz-adv-x="627" 
d="M597 275c0 -163 -108 -290 -301 -290c-151 0 -267 79 -267 244c0 176 131 286 310 286c157 0 258 -84 258 -240zM397 241c0 131 -24 216 -90 216c-61 0 -78 -73 -78 -189c0 -130 20 -225 88 -225c56 0 80 67 80 198zM461 719c0 -89 -36 -126 -89 -126s-101 29 -128 29
c-15 0 -35 -6 -42 -33h-37c0 67 26 126 82 126c43 0 95 -28 134 -28c20 0 36 8 40 32h40z" />
    <glyph glyph-name="obreve" unicode="&#x14f;" horiz-adv-x="627" 
d="M597 275c0 -163 -108 -290 -301 -290c-151 0 -267 79 -267 244c0 176 131 286 310 286c157 0 258 -84 258 -240zM397 241c0 131 -24 216 -90 216c-61 0 -78 -73 -78 -189c0 -130 20 -225 88 -225c56 0 80 67 80 198zM453 731c-19 -91 -66 -146 -153 -146
c-77 0 -134 49 -143 146h64c12 -43 51 -70 92 -70c44 0 85 27 100 70h40z" />
    <glyph glyph-name="ohungarumlaut" unicode="&#x151;" horiz-adv-x="627" 
d="M597 275c0 -163 -108 -290 -301 -290c-151 0 -267 79 -267 244c0 176 131 286 310 286c157 0 258 -84 258 -240zM397 241c0 131 -24 216 -90 216c-61 0 -78 -73 -78 -189c0 -130 20 -225 88 -225c56 0 80 67 80 198zM379 733l-139 -174h-32l-4 10l33 175h138zM567 733
l-167 -174h-32l-4 10l61 175h138z" />
    <glyph glyph-name="oslash" unicode="&#xf8;" horiz-adv-x="625" 
d="M597 275c0 -163 -108 -290 -301 -290c-53 0 -100 10 -142 29l-42 -49h-58l61 72c-53 40 -86 103 -86 192c0 176 131 286 310 286c60 0 111 -12 153 -37l46 54h60l-69 -81c43 -40 68 -99 68 -176zM229 268c0 -35 1 -65 4 -93l155 181c-12 64 -38 101 -81 101
c-61 0 -78 -73 -78 -189zM397 241c0 19 -1 36 -2 55l-152 -178c13 -47 35 -75 74 -75c56 0 80 67 80 198z" />
    <glyph glyph-name="racute" unicode="&#x155;" horiz-adv-x="524" 
d="M279 93c0 -29 22 -50 65 -50h22v-43h-334v37c13 1 24 3 33 8c15 8 23 24 23 48v302c0 35 -4 44 -47 43c-7 0 -14 0 -23 -1v35c46 16 136 43 194 43c55 0 67 -17 67 -64v-27c47 61 97 91 150 91c51 0 91 -32 91 -88c0 -55 -36 -89 -83 -89c-64 0 -58 70 -115 70
c-7 0 -20 -1 -43 -13v-302zM459 733l-182 -167h-32l-4 10l66 168h148z" />
    <glyph glyph-name="rcaron" unicode="&#x159;" horiz-adv-x="524" 
d="M279 93c0 -29 22 -50 65 -50h22v-43h-334v37c13 1 24 3 33 8c15 8 23 24 23 48v302c0 35 -4 44 -47 43c-7 0 -14 0 -23 -1v35c46 16 136 43 194 43c55 0 67 -17 67 -64v-27c47 61 97 91 150 91c51 0 91 -32 91 -88c0 -55 -36 -89 -83 -89c-64 0 -58 70 -115 70
c-7 0 -20 -1 -43 -13v-302zM330 566h-78l-112 168l4 10h80l87 -87l79 87h44l4 -10z" />
    <glyph glyph-name="rcommaaccent" unicode="&#x157;" horiz-adv-x="524" 
d="M279 93c0 -29 22 -50 65 -50h22v-43h-334v37c13 1 24 3 33 8c15 8 23 24 23 48v302c0 35 -4 44 -47 43c-7 0 -14 0 -23 -1v35c46 16 136 43 194 43c55 0 67 -17 67 -64v-27c47 61 97 91 150 91c51 0 91 -32 91 -88c0 -55 -36 -89 -83 -89c-64 0 -58 70 -115 70
c-7 0 -20 -1 -43 -13v-302zM257 -135c0 -72 -71 -120 -124 -149l-23 29c35 24 66 52 66 79c-27 0 -55 17 -55 50c0 49 33 65 66 65c47 0 70 -30 70 -74z" />
    <glyph glyph-name="sacute" unicode="&#x15b;" horiz-adv-x="512" 
d="M215 -15c-59 0 -124 12 -176 35l-3 144l41 5c36 -79 87 -130 156 -130c48 0 75 28 75 61c0 35 -32 50 -75 61l-45 12c-68 18 -144 66 -144 158c0 109 105 184 246 184c56 0 116 -11 164 -38l10 -128l-48 -3c-44 88 -90 115 -139 115c-43 0 -65 -27 -65 -59
c0 -39 29 -56 68 -67l55 -14c67 -16 146 -52 146 -148c0 -132 -145 -188 -266 -188zM434 733l-182 -167h-32l-4 10l66 168h148z" />
    <glyph glyph-name="scedilla" unicode="&#x15f;" horiz-adv-x="512" 
d="M215 -15c-59 0 -124 12 -176 35l-3 144l41 5c36 -79 87 -130 156 -130c48 0 75 28 75 61c0 35 -32 50 -75 61l-45 12c-68 18 -144 66 -144 158c0 109 105 184 246 184c56 0 116 -11 164 -38l10 -128l-48 -3c-44 88 -90 115 -139 115c-43 0 -65 -27 -65 -59
c0 -39 29 -56 68 -67l55 -14c67 -16 146 -52 146 -148c0 -132 -145 -188 -266 -188zM374 -139c0 -56 -48 -87 -136 -87c-31 0 -55 3 -79 10v67c12 -4 46 -15 73 -15c20 0 36 6 36 26c0 23 -19 27 -38 27c-11 0 -20 -1 -27 -2v121h58v-66c52 0 113 -23 113 -81z" />
    <glyph glyph-name="scaron" unicode="&#x161;" horiz-adv-x="512" 
d="M215 -15c-59 0 -124 12 -176 35l-3 144l41 5c36 -79 87 -130 156 -130c48 0 75 28 75 61c0 35 -32 50 -75 61l-45 12c-68 18 -144 66 -144 158c0 109 105 184 246 184c56 0 116 -11 164 -38l10 -128l-48 -3c-44 88 -90 115 -139 115c-43 0 -65 -27 -65 -59
c0 -39 29 -56 68 -67l55 -14c67 -16 146 -52 146 -148c0 -132 -145 -188 -266 -188zM289 566h-78l-112 168l4 10h80l87 -87l79 87h44l4 -10z" />
    <glyph glyph-name="scircumflex" unicode="&#x15d;" horiz-adv-x="512" 
d="M215 -15c-59 0 -124 12 -176 35l-3 144l41 5c36 -79 87 -130 156 -130c48 0 75 28 75 61c0 35 -32 50 -75 61l-45 12c-68 18 -144 66 -144 158c0 109 105 184 246 184c56 0 116 -11 164 -38l10 -128l-48 -3c-44 88 -90 115 -139 115c-43 0 -65 -27 -65 -59
c0 -39 29 -56 68 -67l55 -14c67 -16 146 -52 146 -148c0 -132 -145 -188 -266 -188zM420 578l-4 -12h-80l-87 87l-79 -87h-44l-4 12l108 166h77z" />
    <glyph glyph-name="germandbls" unicode="&#xdf;" horiz-adv-x="744" 
d="M10 481h89c21 139 133 278 342 278c137 0 233 -59 233 -146c0 -117 -167 -147 -167 -202c0 -28 43 -45 78 -64l32 -16c52 -27 107 -58 107 -146c0 -105 -106 -200 -237 -200c-79 0 -131 31 -131 72c0 20 15 50 51 50c55 0 53 -68 109 -68c36 0 67 23 67 51
c0 45 -49 74 -97 98l-27 14c-43 23 -82 52 -82 103c0 97 122 170 122 274c0 67 -41 109 -104 109c-51 0 -109 -29 -109 -145v-543h-247v37c13 1 24 3 33 8c15 8 23 24 23 48v340h-85v48z" />
    <glyph glyph-name="tbar" unicode="&#x167;" horiz-adv-x="441" 
d="M6 481h87v116l166 62h25v-178h138v-48h-138v-128h92v-50h-92v-62c0 -83 22 -107 94 -107c15 0 35 3 54 7v-53c-26 -18 -93 -55 -186 -55c-85 0 -153 42 -153 130v140h-69v50h69v128h-87v48z" />
    <glyph glyph-name="tcaron" unicode="&#x165;" horiz-adv-x="440" 
d="M5 481h87v116l166 62h25v-178h138v-48h-138v-240c0 -83 22 -107 94 -107c15 0 35 3 54 7v-53c-26 -18 -93 -55 -186 -55c-85 0 -153 42 -153 130v318h-87v48zM481 776c-5 -65 -51 -167 -81 -210h-51l-4 10c15 47 28 128 28 211h104z" />
    <glyph glyph-name="uni021B" unicode="&#x21b;" horiz-adv-x="440" 
d="M5 481h87v116l166 62h25v-178h138v-48h-138v-240c0 -83 22 -107 94 -107c15 0 35 3 54 7v-53c-26 -18 -93 -55 -186 -55c-85 0 -153 42 -153 130v318h-87v48zM314 -135c0 -72 -71 -120 -124 -149l-23 29c35 24 66 52 66 79c-27 0 -55 17 -55 50c0 49 33 65 66 65
c47 0 70 -30 70 -74z" />
    <glyph glyph-name="uacute" unicode="&#xfa;" horiz-adv-x="679" 
d="M408 395c0 32 -3 42 -38 43c-9 0 -19 0 -32 -1v35c46 16 136 43 194 43c55 0 67 -17 67 -64v-343c0 -56 15 -65 67 -62l1 -23c-27 -15 -79 -38 -146 -38c-90 0 -113 38 -113 93c-52 -58 -100 -93 -181 -93c-107 0 -150 59 -150 183v227c0 35 -5 43 -46 43
c-7 0 -15 0 -24 -1v35c46 16 136 43 194 43c55 0 67 -17 67 -64v-236c0 -68 17 -113 92 -113c15 0 29 1 48 8v285zM507 733l-182 -167h-32l-4 10l66 168h148z" />
    <glyph glyph-name="ugrave" unicode="&#xf9;" horiz-adv-x="679" 
d="M408 395c0 32 -3 42 -38 43c-9 0 -19 0 -32 -1v35c46 16 136 43 194 43c55 0 67 -17 67 -64v-343c0 -56 15 -65 67 -62l1 -23c-27 -15 -79 -38 -146 -38c-90 0 -113 38 -113 93c-52 -58 -100 -93 -181 -93c-107 0 -150 59 -150 183v227c0 35 -5 43 -46 43
c-7 0 -15 0 -24 -1v35c46 16 136 43 194 43c55 0 67 -17 67 -64v-236c0 -68 17 -113 92 -113c15 0 29 1 48 8v285zM141 744h148l76 -168l-4 -10h-42l-182 167z" />
    <glyph glyph-name="ucircumflex" unicode="&#xfb;" horiz-adv-x="679" 
d="M408 395c0 32 -3 42 -38 43c-9 0 -19 0 -32 -1v35c46 16 136 43 194 43c55 0 67 -17 67 -64v-343c0 -56 15 -65 67 -62l1 -23c-27 -15 -79 -38 -146 -38c-90 0 -113 38 -113 93c-52 -58 -100 -93 -181 -93c-107 0 -150 59 -150 183v227c0 35 -5 43 -46 43
c-7 0 -15 0 -24 -1v35c46 16 136 43 194 43c55 0 67 -17 67 -64v-236c0 -68 17 -113 92 -113c15 0 29 1 48 8v285zM491 578l-4 -12h-80l-87 87l-79 -87h-44l-4 12l108 166h77z" />
    <glyph glyph-name="udieresis" unicode="&#xfc;" horiz-adv-x="679" 
d="M408 395c0 32 -3 42 -38 43c-9 0 -19 0 -32 -1v35c46 16 136 43 194 43c55 0 67 -17 67 -64v-343c0 -56 15 -65 67 -62l1 -23c-27 -15 -79 -38 -146 -38c-90 0 -113 38 -113 93c-52 -58 -100 -93 -181 -93c-107 0 -150 59 -150 183v227c0 35 -5 43 -46 43
c-7 0 -15 0 -24 -1v35c46 16 136 43 194 43c55 0 67 -17 67 -64v-236c0 -68 17 -113 92 -113c15 0 29 1 48 8v285zM149 670c0 57 39 76 84 76s84 -19 84 -76c0 -59 -39 -77 -84 -77s-84 18 -84 77zM352 670c0 57 39 76 84 76s84 -19 84 -76c0 -59 -39 -77 -84 -77
s-84 18 -84 77z" />
    <glyph glyph-name="uhungarumlaut" unicode="&#x171;" horiz-adv-x="679" 
d="M408 395c0 32 -3 42 -38 43c-9 0 -19 0 -32 -1v35c46 16 136 43 194 43c55 0 67 -17 67 -64v-343c0 -56 15 -65 67 -62l1 -23c-27 -15 -79 -38 -146 -38c-90 0 -113 38 -113 93c-52 -58 -100 -93 -181 -93c-107 0 -150 59 -150 183v227c0 35 -5 43 -46 43
c-7 0 -15 0 -24 -1v35c46 16 136 43 194 43c55 0 67 -17 67 -64v-236c0 -68 17 -113 92 -113c15 0 29 1 48 8v285zM385 733l-139 -174h-32l-4 10l33 175h138zM573 733l-167 -174h-32l-4 10l61 175h138z" />
    <glyph glyph-name="uogonek" unicode="&#x173;" horiz-adv-x="679" 
d="M408 395c0 32 -3 42 -38 43c-9 0 -19 0 -32 -1v35c46 16 136 43 194 43c55 0 67 -17 67 -64v-343c0 -56 15 -65 67 -62l1 -23c-27 -15 -79 -38 -146 -38c-90 0 -113 38 -113 93c-52 -58 -100 -93 -181 -93c-107 0 -150 59 -150 183v227c0 35 -5 43 -46 43
c-7 0 -15 0 -24 -1v35c46 16 136 43 194 43c55 0 67 -17 67 -64v-236c0 -68 17 -113 92 -113c15 0 29 1 48 8v285zM656 -217c-25 -5 -49 -8 -70 -8c-84 0 -122 44 -122 95c0 56 67 116 157 142l11 2c-41 -31 -56 -70 -56 -111c0 -37 12 -69 49 -69c7 0 19 1 31 4v-55z" />
    <glyph glyph-name="uring" unicode="&#x16f;" horiz-adv-x="679" 
d="M408 395c0 32 -3 42 -38 43c-9 0 -19 0 -32 -1v35c46 16 136 43 194 43c55 0 67 -17 67 -64v-343c0 -56 15 -65 67 -62l1 -23c-27 -15 -79 -38 -146 -38c-90 0 -113 38 -113 93c-52 -58 -100 -93 -181 -93c-107 0 -150 59 -150 183v227c0 35 -5 43 -46 43
c-7 0 -15 0 -24 -1v35c46 16 136 43 194 43c55 0 67 -17 67 -64v-236c0 -68 17 -113 92 -113c15 0 29 1 48 8v285zM428 666c0 -56 -43 -94 -108 -94s-108 38 -108 93c0 56 45 94 109 94c61 0 107 -37 107 -93zM365 665c0 35 -21 50 -46 50c-21 0 -43 -12 -43 -49
c0 -35 21 -50 45 -50c23 0 44 13 44 49z" />
    <glyph glyph-name="ydieresis" unicode="&#xff;" horiz-adv-x="595" 
d="M598 461c-35 -8 -61 -37 -76 -72l-127 -274l-2 -4l-52 -113c-29 -64 -94 -224 -228 -224c-57 0 -79 23 -79 56c0 39 23 67 76 67c89 0 125 7 160 58l-17 37l-5 10l-25 56l-157 349c-15 36 -40 50 -67 54v39h324v-39c-39 0 -63 -20 -51 -48l98 -236l76 192
c23 57 -2 85 -51 92v39h203v-39zM135 670c0 57 39 76 84 76s84 -19 84 -76c0 -59 -39 -77 -84 -77s-84 18 -84 77zM338 670c0 57 39 76 84 76s84 -19 84 -76c0 -59 -39 -77 -84 -77s-84 18 -84 77z" />
    <glyph glyph-name="ygrave" unicode="&#x1ef3;" horiz-adv-x="595" 
d="M598 461c-35 -8 -61 -37 -76 -72l-127 -274l-2 -4l-52 -113c-29 -64 -94 -224 -228 -224c-57 0 -79 23 -79 56c0 39 23 67 76 67c89 0 125 7 160 58l-17 37l-5 10l-25 56l-157 349c-15 36 -40 50 -67 54v39h324v-39c-39 0 -63 -20 -51 -48l98 -236l76 192
c23 57 -2 85 -51 92v39h203v-39zM164 744h148l76 -168l-4 -10h-42l-182 167z" />
    <glyph glyph-name="yacute" unicode="&#xfd;" horiz-adv-x="595" 
d="M598 461c-35 -8 -61 -37 -76 -72l-127 -274l-2 -4l-52 -113c-29 -64 -94 -224 -228 -224c-57 0 -79 23 -79 56c0 39 23 67 76 67c89 0 125 7 160 58l-17 37l-5 10l-25 56l-157 349c-15 36 -40 50 -67 54v39h324v-39c-39 0 -63 -20 -51 -48l98 -236l76 192
c23 57 -2 85 -51 92v39h203v-39zM516 733l-182 -167h-32l-4 10l66 168h148z" />
    <glyph glyph-name="zacute" unicode="&#x17a;" horiz-adv-x="536" 
d="M64 500h427l17 -28l-262 -417h83c68 0 124 47 145 115l34 -4l-22 -166h-452l-15 26l262 419h-74c-83 0 -118 -52 -139 -108l-37 5zM454 733l-182 -167h-32l-4 10l66 168h148z" />
    <glyph glyph-name="zcaron" unicode="&#x17e;" horiz-adv-x="536" 
d="M64 500h427l17 -28l-262 -417h83c68 0 124 47 145 115l34 -4l-22 -166h-452l-15 26l262 419h-74c-83 0 -118 -52 -139 -108l-37 5zM325 566h-78l-112 168l4 10h80l87 -87l79 87h44l4 -10z" />
    <glyph glyph-name="zdotaccent" unicode="&#x17c;" horiz-adv-x="536" 
d="M64 500h427l17 -28l-262 -417h83c68 0 124 47 145 115l34 -4l-22 -166h-452l-15 26l262 419h-74c-83 0 -118 -52 -139 -108l-37 5zM199 676c0 63 42 83 91 83s91 -20 91 -83s-42 -83 -91 -83s-91 20 -91 83z" />
    <glyph glyph-name="thorn" unicode="&#xfe;" horiz-adv-x="641" 
d="M67 639c0 32 -4 42 -39 43c-8 0 -19 0 -31 -1v35c46 16 136 43 194 43c55 0 67 -17 67 -64v-271c59 77 123 91 168 91c130 0 183 -109 183 -232c0 -204 -148 -294 -351 -297v-110c0 -29 15 -50 54 -50h34v-43h-335v37c13 1 24 3 33 8c15 8 23 24 23 48v763zM305 409
c-15 0 -31 -2 -47 -7v-355c9 -3 19 -4 32 -4c88 0 124 102 124 202c0 96 -33 164 -109 164z" />
    <glyph glyph-name="afii10846" unicode="&#x4d9;" 
d="M49 425c50 47 123 90 234 90c156 0 248 -83 248 -242c0 -160 -96 -288 -292 -288c-139 0 -213 61 -213 182c0 11 1 22 2 33l32 41h287c-5 88 -30 152 -142 152c-47 0 -107 -10 -154 -26zM272 43c48 0 71 65 74 150h-130c-3 -15 -2 -29 -2 -44c0 -64 19 -106 58 -106z" />
    <glyph glyph-name="eth" unicode="&#xf0;" horiz-adv-x="637" 
d="M184 588l77 65c-24 19 -52 32 -85 47l27 57c44 -12 86 -27 125 -46l81 69l32 -38l-66 -57c134 -80 222 -214 222 -381c0 -180 -100 -319 -303 -319c-184 0 -264 114 -264 242c0 135 89 288 282 288c21 0 39 -2 55 -6c-15 41 -37 79 -68 111l-82 -70zM397 281
c0 63 -3 123 -16 180c-10 3 -23 4 -38 4c-91 0 -113 -82 -113 -215s21 -207 84 -207c64 0 83 77 83 238z" />
    <glyph glyph-name="uni01DD" unicode="&#x1dd;" 
d="M49 425c50 47 123 90 234 90c156 0 248 -83 248 -242c0 -160 -96 -288 -292 -288c-139 0 -213 61 -213 182c0 11 1 22 2 33l32 41h287c-5 88 -30 152 -142 152c-47 0 -107 -10 -154 -26zM272 43c48 0 71 65 74 150h-130c-3 -15 -2 -29 -2 -44c0 -64 19 -106 58 -106z" />
    <glyph glyph-name="uni0259" unicode="&#x259;" 
d="M49 425c50 47 123 90 234 90c156 0 248 -83 248 -242c0 -160 -96 -288 -292 -288c-139 0 -213 61 -213 182c0 11 1 22 2 33l32 41h287c-5 88 -30 152 -142 152c-47 0 -107 -10 -154 -26zM272 43c48 0 71 65 74 150h-130c-3 -15 -2 -29 -2 -44c0 -64 19 -106 58 -106z" />
    <glyph glyph-name="ae" unicode="&#xe6;" horiz-adv-x="842" 
d="M793 75c-50 -47 -123 -90 -234 -90c-109 0 -187 40 -224 120c-37 -58 -104 -119 -188 -119c-76 0 -120 47 -120 119c0 96 79 127 180 148l104 21v17c0 59 -22 99 -97 99c-41 0 -100 -9 -168 -25v71c85 47 181 79 262 79c60 0 102 -14 130 -41c43 27 97 41 165 41
c151 0 226 -71 211 -215l-32 -41h-287c3 -88 30 -152 142 -152c47 0 107 10 154 26zM570 457c-47 0 -72 -66 -75 -150h130c11 85 -8 150 -55 150zM327 126c-11 28 -16 62 -16 101v7l-52 -13c-35 -9 -61 -24 -61 -60c0 -39 30 -52 61 -52c27 0 49 8 68 17z" />
    <glyph glyph-name="oe" unicode="&#x153;" horiz-adv-x="927" 
d="M878 75c-50 -47 -123 -90 -234 -90c-83 0 -145 22 -188 67c-43 -40 -96 -67 -160 -67c-151 0 -267 79 -267 244c0 176 131 286 310 286c59 0 108 -27 147 -67c48 43 114 67 202 67c139 0 213 -61 213 -182c0 -11 -1 -22 -2 -33l-32 -41h-287c3 -88 30 -152 142 -152
c47 0 107 10 154 26zM317 43c49 0 75 54 79 161v38c0 5 0 9 1 14c-3 122 -26 201 -90 201c-61 0 -78 -73 -78 -189c0 -130 20 -225 88 -225zM655 457c-47 0 -72 -66 -75 -150h130c2 14 3 29 3 44c0 64 -19 106 -58 106z" />
    <glyph glyph-name="comma" unicode="," horiz-adv-x="299" 
d="M249 62c0 -103 -99 -200 -166 -235l-27 32c51 35 88 71 92 136c-44 0 -100 22 -100 91c0 61 49 90 98 90c68 0 103 -41 103 -114z" />
    <glyph glyph-name="period" unicode="." horiz-adv-x="298" 
d="M250 84c0 -67 -53 -91 -101 -91s-101 24 -101 91s53 92 101 92s101 -25 101 -92z" />
    <glyph glyph-name="colon" unicode=":" horiz-adv-x="338" 
d="M270 84c0 -67 -53 -91 -101 -91s-101 24 -101 91s53 92 101 92s101 -25 101 -92zM270 421c0 -67 -53 -91 -101 -91s-101 24 -101 91s53 92 101 92s101 -25 101 -92z" />
    <glyph glyph-name="semicolon" unicode=";" horiz-adv-x="338" 
d="M269 62c0 -103 -99 -200 -166 -235l-27 32c51 35 88 71 92 136c-44 0 -100 22 -100 91c0 61 49 90 98 90c68 0 103 -41 103 -114zM270 422c0 -67 -53 -91 -101 -91s-101 24 -101 91s53 92 101 92s101 -25 101 -92z" />
    <glyph glyph-name="question" unicode="?" horiz-adv-x="459" 
d="M195 237c-15 31 -21 53 -21 78c0 99 97 100 97 189c0 52 -36 86 -95 86c-47 0 -83 -19 -130 -55l-16 14c47 95 117 160 220 160c110 0 177 -65 177 -150c0 -143 -192 -172 -192 -282c0 -20 6 -33 7 -40h-47zM317 84c0 -67 -53 -91 -101 -91s-101 24 -101 91s53 92 101 92
s101 -25 101 -92z" />
    <glyph glyph-name="questiondown" unicode="&#xbf;" horiz-adv-x="453" 
d="M261 271c15 -31 21 -53 21 -78c0 -99 -97 -100 -97 -189c0 -52 36 -86 95 -86c47 0 83 19 130 55l16 -14c-47 -95 -117 -160 -220 -160c-110 0 -177 65 -177 150c0 143 192 172 192 282c0 20 -6 33 -7 40h47zM139 424c0 67 53 91 101 91s101 -24 101 -91
s-53 -92 -101 -92s-101 25 -101 92z" />
    <glyph glyph-name="exclam" unicode="!" horiz-adv-x="338" 
d="M272 693v-104l-70 -353h-64l-70 353v104h204zM269 84c0 -67 -53 -91 -101 -91s-101 24 -101 91s53 92 101 92s101 -25 101 -92z" />
    <glyph glyph-name="exclamdown" unicode="&#xa1;" horiz-adv-x="316" 
d="M56 -185v104l70 353h64l70 -353v-104h-204zM59 424c0 67 53 91 101 91s101 -24 101 -91s-53 -92 -101 -92s-101 25 -101 92z" />
    <glyph glyph-name="hyphen" unicode="-" horiz-adv-x="407" 
d="M349 213h-291v94h291v-94z" />
    <glyph glyph-name="hyphen" unicode="&#xad;" horiz-adv-x="407" 
d="M349 213h-291v94h291v-94z" />
    <glyph glyph-name="endash" unicode="&#x2013;" horiz-adv-x="659" 
d="M591 238h-523v61h523v-61z" />
    <glyph glyph-name="emdash" unicode="&#x2014;" horiz-adv-x="873" 
d="M805 238h-737v61h737v-61z" />
    <glyph glyph-name="underscore" unicode="_" horiz-adv-x="639" 
d="M581 -217h-523v61h523v-61z" />
    <glyph glyph-name="at" unicode="@" horiz-adv-x="851" 
d="M589 71c-68 0 -94 27 -99 66c-35 -39 -72 -64 -119 -64c-115 0 -160 71 -160 191c0 132 95 208 193 208c44 0 76 -8 103 -20l113 20h12v-289c0 -35 16 -48 40 -48c62 0 89 116 89 222c0 196 -123 298 -291 298c-228 0 -368 -185 -368 -410c0 -206 118 -352 346 -352
c60 0 180 10 262 58v-48c-65 -41 -189 -60 -275 -60c-252 0 -396 173 -396 402c0 264 188 462 438 462c200 0 340 -126 340 -343c0 -141 -49 -293 -228 -293zM440 156c15 0 25 -1 49 10v233c-17 8 -34 13 -57 13c-45 0 -71 -38 -71 -122c0 -88 34 -134 79 -134z" />
    <glyph glyph-name="ampersand" unicode="&#x26;" horiz-adv-x="796" 
d="M780 24c-24 -16 -105 -37 -167 -37c-60 0 -97 24 -144 68c-53 -39 -123 -70 -211 -70c-140 0 -223 66 -223 175c0 71 51 128 167 171c-68 69 -89 126 -89 179c0 115 98 199 237 199c99 0 214 -43 214 -151c0 -84 -79 -137 -182 -161l171 -179c56 137 93 187 150 187
c43 0 81 -24 81 -68c0 -40 -28 -71 -76 -71c-62 0 -91 -41 -110 -68l-10 -16l30 -31c48 -48 94 -95 121 -95c17 0 26 1 38 4zM369 65c28 0 53 6 74 17l-216 224c-9 -23 -13 -49 -13 -74c0 -84 47 -167 155 -167zM275 564c0 -43 24 -78 71 -129l14 -15c44 41 57 78 57 129
c0 55 -24 104 -69 104c-44 0 -73 -32 -73 -89z" />
    <glyph glyph-name="slash" unicode="/" horiz-adv-x="455" 
d="M433 744l-338 -961h-73l336 961h75z" />
    <glyph glyph-name="backslash" unicode="\" horiz-adv-x="424" 
d="M104 744l296 -961h-78l-298 961h80z" />
    <glyph glyph-name="bar" unicode="|" horiz-adv-x="251" 
d="M167 744v-961h-83v961h83z" />
    <glyph glyph-name="parenleft" unicode="(" horiz-adv-x="348" 
d="M35 277c0 222 66 397 285 483l19 -38c-148 -74 -193 -215 -193 -442c0 -228 44 -368 193 -442l-19 -38c-224 67 -285 262 -285 477z" />
    <glyph glyph-name="parenright" unicode=")" horiz-adv-x="348" 
d="M313 277c0 -215 -61 -410 -285 -477l-19 38c148 75 193 213 193 442c0 228 -45 367 -193 442l19 38c219 -86 285 -261 285 -483z" />
    <glyph glyph-name="bracketleft" unicode="[" horiz-adv-x="334" 
d="M314 -194h-230v953h230v-55h-131v-843h131v-55z" />
    <glyph glyph-name="bracketright" unicode="]" horiz-adv-x="334" 
d="M20 -139h132v843h-132v55h230v-953h-230v55z" />
    <glyph glyph-name="braceleft" unicode="{" horiz-adv-x="353" 
d="M333 -194c-135 0 -218 30 -218 171v149c0 99 -43 120 -104 125v63c67 8 104 31 104 125v150c0 143 96 170 218 170v-55c-87 0 -119 -19 -119 -101v-124c0 -116 -27 -174 -114 -194v-5c103 -26 114 -84 114 -194v-124c0 -84 44 -101 119 -101v-55z" />
    <glyph glyph-name="braceright" unicode="}" horiz-adv-x="353" 
d="M20 -139c76 0 120 17 120 101v124c0 110 9 167 113 194v5c-86 19 -113 80 -113 194v124c0 82 -33 101 -120 101v55c122 0 218 -27 218 -170v-150c0 -94 37 -117 104 -125v-63c-61 -5 -104 -26 -104 -125v-149c0 -141 -83 -171 -218 -171v55z" />
    <glyph glyph-name="asciicircum" unicode="^" horiz-adv-x="643" 
d="M90 313l202 380h60l201 -380h-90l-140 279l-144 -279h-89z" />
    <glyph glyph-name="section" unicode="&#xa7;" horiz-adv-x="591" 
d="M264 -168c-111 0 -228 38 -228 108c0 35 27 60 66 60c82 0 70 -125 178 -125c52 0 95 30 95 75c0 39 -31 73 -95 92l-53 15c-90 26 -179 79 -179 191c0 72 36 130 100 166c-48 29 -82 70 -82 141c0 116 98 203 261 203c96 0 215 -31 215 -103c0 -43 -23 -56 -52 -56
c-79 0 -82 116 -177 116c-52 0 -92 -34 -92 -83c0 -39 25 -68 81 -84l72 -20c123 -35 177 -100 177 -188c0 -77 -42 -132 -106 -165c59 -33 88 -81 88 -142c0 -131 -120 -201 -269 -201zM245 374c-5 1 -11 2 -17 5c-17 -18 -25 -39 -25 -64c0 -39 25 -68 81 -84l72 -20
l11 -4c16 16 27 39 27 60c0 39 -32 73 -96 92z" />
    <glyph glyph-name="bullet" unicode="&#x2022;" horiz-adv-x="393" 
d="M327 268c-3 -75 -60 -131 -131 -131c-72 0 -131 58 -131 131c0 72 59 130 131 130c76 0 134 -59 131 -130z" />
    <glyph glyph-name="numbersign" unicode="#" horiz-adv-x="653" 
d="M102 481h129l55 212h59l-55 -212h142l55 212h59l-55 -212h130l-15 -60h-130l-41 -160h129l-15 -60h-130l-51 -201h-60l52 201h-142l-51 -201h-60l52 201h-129l15 60h129l42 160h-129zM234 261h141l42 160h-142z" />
    <glyph glyph-name="percent" unicode="%" horiz-adv-x="814" 
d="M714 693l-549 -693h-68l547 693h70zM386 546c0 -110 -77 -167 -182 -167c-90 0 -170 50 -170 159c0 116 77 165 177 165c105 0 175 -54 175 -157zM265 543c0 84 -15 120 -58 120c-41 0 -52 -34 -52 -121c0 -92 14 -122 50 -122c47 0 60 43 60 123zM781 152
c0 -110 -77 -167 -182 -167c-90 0 -170 50 -170 159c0 116 77 165 177 165c105 0 175 -54 175 -157zM660 149c0 84 -15 120 -58 120c-41 0 -52 -34 -52 -121c0 -92 14 -122 50 -122c47 0 60 43 60 123z" />
    <glyph glyph-name="perthousand" unicode="&#x2030;" horiz-adv-x="1195" 
d="M717 693l-549 -693h-68l547 693h70zM389 546c0 -110 -77 -167 -182 -167c-90 0 -170 50 -170 159c0 116 77 165 177 165c105 0 175 -54 175 -157zM268 543c0 84 -15 120 -58 120c-41 0 -52 -34 -52 -121c0 -92 14 -122 50 -122c47 0 60 43 60 123zM784 152
c0 -110 -77 -167 -182 -167c-90 0 -170 50 -170 159c0 116 77 165 177 165c105 0 175 -54 175 -157zM663 149c0 84 -15 120 -58 120c-41 0 -52 -34 -52 -121c0 -92 14 -122 50 -122c47 0 60 43 60 123zM1164 152c0 -110 -77 -167 -182 -167c-90 0 -170 50 -170 159
c0 116 77 165 177 165c105 0 175 -54 175 -157zM1043 149c0 84 -15 120 -58 120c-41 0 -52 -34 -52 -121c0 -92 14 -122 50 -122c47 0 60 43 60 123z" />
    <glyph glyph-name="dagger" unicode="&#x2020;" horiz-adv-x="415" 
d="M383 410h-139v-627h-73v627h-139v71h139v263h73v-263h139v-71z" />
    <glyph glyph-name="quotesingle" unicode="'" horiz-adv-x="223" 
d="M188 744l-60 -283h-70l12 283h118z" />
    <glyph glyph-name="quotedbl" unicode="&#x22;" horiz-adv-x="413" 
d="M188 744l-60 -283h-70l12 283h118zM378 744l-60 -283h-70l12 283h118z" />
    <glyph glyph-name="quotedblleft" unicode="&#x201c;" horiz-adv-x="480" 
d="M36 550c0 114 98 206 161 240l27 -32c-51 -35 -88 -71 -92 -136c43 0 92 -31 92 -90c0 -47 -40 -85 -91 -85c-52 0 -97 38 -97 103zM247 550c0 114 98 206 161 240l27 -32c-51 -35 -88 -71 -92 -136c43 0 92 -31 92 -90c0 -47 -40 -85 -91 -85c-52 0 -97 38 -97 103z" />
    <glyph glyph-name="quotedblright" unicode="&#x201d;" horiz-adv-x="480" 
d="M237 677c0 -114 -98 -206 -161 -240l-27 32c51 35 88 71 92 136c-43 0 -92 31 -92 90c0 47 40 85 91 85c52 0 97 -38 97 -103zM448 677c0 -114 -98 -206 -161 -240l-27 32c51 35 88 71 92 136c-43 0 -92 31 -92 90c0 47 40 85 91 85c52 0 97 -38 97 -103z" />
    <glyph glyph-name="quoteleft" unicode="&#x2018;" horiz-adv-x="268" 
d="M36 550c0 114 98 206 161 240l27 -32c-51 -35 -88 -71 -92 -136c43 0 92 -31 92 -90c0 -47 -40 -85 -91 -85c-52 0 -97 38 -97 103z" />
    <glyph glyph-name="quoteright" unicode="&#x2019;" horiz-adv-x="269" 
d="M237 677c0 -114 -98 -206 -161 -240l-27 32c51 35 88 71 92 136c-43 0 -92 31 -92 90c0 47 40 85 91 85c52 0 97 -38 97 -103z" />
    <glyph glyph-name="guilsinglleft" unicode="&#x2039;" horiz-adv-x="310" 
d="M221 67l-179 189v20l180 185l40 -28l-90 -163l90 -176z" />
    <glyph glyph-name="guilsinglright" unicode="&#x203a;" horiz-adv-x="310" 
d="M48 94l90 176l-90 163l40 28l180 -185v-20l-179 -189z" />
    <glyph glyph-name="guillemotleft" unicode="&#xab;" horiz-adv-x="510" 
d="M221 67l-179 189v20l180 185l40 -28l-90 -163l90 -176zM421 67l-179 189v20l180 185l40 -28l-90 -163l90 -176z" />
    <glyph glyph-name="guillemotright" unicode="&#xbb;" horiz-adv-x="510" 
d="M248 94l90 176l-90 163l40 28l180 -185v-20l-179 -189zM48 94l90 176l-90 163l40 28l180 -185v-20l-179 -189z" />
    <glyph glyph-name="asterisk" unicode="*" horiz-adv-x="422" 
d="M374 458l-115 23l-36 -113h-24l-36 113l-115 -23l-10 19l79 88l-79 88l10 17l117 -24l36 113h20l37 -113l116 24l10 -17l-80 -89l80 -87z" />
    <glyph glyph-name="periodcentered" unicode="&#xb7;" horiz-adv-x="280" 
d="M53 345c0 59 40 87 87 87s88 -28 88 -87s-43 -88 -88 -88c-47 0 -87 28 -87 88z" />
    <glyph glyph-name="fi" unicode="&#xfb01;" horiz-adv-x="710" 
d="M10 481h86c11 146 110 278 332 278c91 0 162 -23 162 -84c0 -41 -32 -74 -75 -74c-72 0 -90 88 -157 88c-47 0 -72 -43 -72 -126v-82h111c48 16 118 34 169 34c53 0 66 -19 66 -64v-358c0 -33 21 -53 56 -56v-37h-303v37c33 3 56 19 56 56v302c0 20 -6 38 -37 38h-118
v-340c0 -33 21 -53 56 -56v-37h-303v37c33 3 56 19 56 56v340h-85v48z" />
    <glyph glyph-name="fl" unicode="&#xfb02;" horiz-adv-x="711" 
d="M440 639c0 17 -2 27 -6 32c-20 7 -37 8 -49 8c-50 0 -99 -24 -99 -136v-62h126v-48h-126v-340c0 -35 19 -54 56 -56v-37h-303v37c36 3 56 16 56 56v340h-85v48h86c8 144 82 278 262 278c32 0 68 -5 103 -16c36 9 72 16 103 16c55 0 67 -17 67 -64v-602
c0 -35 23 -53 56 -56v-37h-303v37c33 3 56 19 56 56v546z" />
    <glyph glyph-name="plus" unicode="+" horiz-adv-x="520" 
d="M294 491v-194h193v-65h-193v-195h-69v195h-192v65h192v194h69z" />
    <glyph glyph-name="less" unicode="&#x3c;" horiz-adv-x="458" 
d="M410 5l-380 232v60l380 231v-75l-304 -185l304 -184v-79z" />
    <glyph glyph-name="equal" unicode="=" horiz-adv-x="570" 
d="M512 142h-454v65h454v-65zM512 322h-454v65h454v-65z" />
    <glyph glyph-name="greater" unicode="&#x3e;" horiz-adv-x="458" 
d="M48 84l304 184l-304 185v75l380 -231v-60l-380 -232v79z" />
    <glyph glyph-name="uni0400" unicode="&#x400;" horiz-adv-x="669" 
d="M42 38c15 1 29 4 38 11c16 12 18 29 18 58v479c0 32 -4 47 -21 58c-8 5 -12 8 -35 11v38h563v-177h-46c-24 96 -70 122 -156 122h-101v-259h70c28 0 46 9 58 25c11 16 15 37 18 64h47v-232h-47c-3 23 -6 45 -17 61c-11 17 -28 28 -59 28h-70v-270h124
c97 0 132 39 169 153l42 -4l-20 -204h-575v38zM195 873h146l72 -130l-4 -10h-42l-176 129z" />
    <glyph glyph-name="afii10023" unicode="&#x401;" horiz-adv-x="669" 
d="M42 38c15 1 29 4 38 11c16 12 18 29 18 58v479c0 32 -4 47 -21 58c-8 5 -12 8 -35 11v38h563v-177h-46c-24 96 -70 122 -156 122h-101v-259h70c28 0 46 9 58 25c11 16 15 37 18 64h47v-232h-47c-3 23 -6 45 -17 61c-11 17 -28 28 -59 28h-70v-270h124
c97 0 132 39 169 153l42 -4l-20 -204h-575v38zM170 817c0 57 39 76 84 76s84 -19 84 -76c0 -59 -39 -77 -84 -77s-84 18 -84 77zM373 817c0 57 39 76 84 76s84 -19 84 -76c0 -59 -39 -77 -84 -77s-84 18 -84 77z" />
    <glyph glyph-name="afii10051" unicode="&#x402;" horiz-adv-x="880" 
d="M864 202c0 -172 -113 -207 -269 -207v38c31 3 65 21 65 149c-1 115 -42 172 -131 172c-31 0 -56 -4 -76 -11v-249c0 -17 4 -31 11 -40s18 -14 35 -16v-38h-306v38c13 1 24 3 33 8c15 8 23 24 23 48v554h-19c-96 0 -152 -76 -176 -172h-36v217h668v-217h-36
c-24 96 -80 172 -176 172h-21v-253c43 15 93 22 157 22c143 0 254 -59 254 -215z" />
    <glyph glyph-name="afii10052" unicode="&#x403;" horiz-adv-x="616" 
d="M302 638v-537c0 -27 10 -41 27 -50c11 -7 28 -11 49 -13v-38h-336v38c13 1 24 3 33 8c15 8 23 24 23 48v492c0 32 -4 47 -21 58c-8 5 -12 8 -35 11v38h563v-177h-46c-24 96 -70 122 -156 122h-101zM519 862l-176 -129h-42l-4 10l72 130h146z" />
    <glyph glyph-name="afii10053" unicode="&#x404;" horiz-adv-x="690" 
d="M426 664c-141 0 -173 -127 -173 -298h245v-49h-245c3 -173 36 -287 164 -287c102 0 160 81 189 188h39v-162c-57 -45 -131 -71 -231 -71c-216 0 -379 125 -379 353c0 232 166 371 393 371c81 0 154 -18 217 -54v-171h-39c-23 108 -84 180 -180 180z" />
    <glyph glyph-name="afii10054" unicode="&#x405;" horiz-adv-x="630" 
d="M286 -15c-80 0 -170 16 -238 55v187h46c45 -139 114 -192 207 -192c72 0 115 30 115 97c0 32 -10 86 -105 115l-59 18c-101 32 -199 75 -199 208c0 136 106 238 294 235c75 -1 146 -16 214 -55v-179h-51c-33 129 -88 184 -173 184c-75 0 -113 -40 -113 -95
c0 -48 30 -91 91 -110l80 -24c140 -43 198 -111 198 -211c0 -152 -132 -233 -307 -233z" />
    <glyph glyph-name="afii10055" unicode="&#x406;" horiz-adv-x="400" 
d="M302 94c0 -24 9 -38 24 -47c9 -5 20 -8 32 -9v-38h-316v38c13 1 24 3 33 8c15 8 23 24 23 48v505c0 24 -9 38 -24 47c-9 5 -20 8 -32 9v38h316v-38c-13 -1 -24 -3 -33 -8c-15 -8 -23 -24 -23 -48v-505z" />
    <glyph glyph-name="afii10056" unicode="&#x407;" horiz-adv-x="400" 
d="M302 94c0 -24 9 -38 24 -47c9 -5 20 -8 32 -9v-38h-316v38c13 1 24 3 33 8c15 8 23 24 23 48v505c0 24 -9 38 -24 47c-9 5 -20 8 -32 9v38h316v-38c-13 -1 -24 -3 -33 -8c-15 -8 -23 -24 -23 -48v-505zM18 817c0 57 39 76 84 76s84 -19 84 -76c0 -59 -39 -77 -84 -77
s-84 18 -84 77zM221 817c0 57 39 76 84 76s84 -19 84 -76c0 -59 -39 -77 -84 -77s-84 18 -84 77z" />
    <glyph glyph-name="afii10057" unicode="&#x408;" horiz-adv-x="389" 
d="M297 104c0 -147 -119 -328 -303 -328c-115 0 -148 40 -148 91c0 36 22 75 73 75c97 0 53 -121 110 -121c53 0 64 95 64 250v528c0 24 -9 38 -24 47c-9 5 -20 8 -32 9v38h316v-38c-13 -1 -24 -3 -33 -8c-15 -8 -23 -24 -23 -48v-495z" />
    <glyph glyph-name="afii10058" unicode="&#x409;" horiz-adv-x="1012" 
d="M687 655c-12 -1 -23 -4 -32 -9c-15 -9 -24 -23 -24 -47v-179h123c121 0 243 -57 243 -197c0 -144 -127 -223 -257 -223h-369v38c12 1 23 4 32 9c15 9 24 23 24 47v550h-179c-8 -477 -28 -654 -177 -654c-51 0 -76 36 -76 71c0 51 24 77 75 92c95 27 119 142 124 446
c0 24 -9 38 -24 47c-9 5 -20 8 -32 9v38h549v-38zM631 365v-310h45c92 0 121 67 121 158c0 87 -28 152 -105 152h-61z" />
    <glyph glyph-name="afii10059" unicode="&#x40a;" horiz-adv-x="1122" 
d="M537 338h-235v-244c0 -24 9 -38 24 -47c9 -5 20 -8 32 -9v-38h-316v38c13 1 24 3 33 8c15 8 23 24 23 48v505c0 24 -9 38 -24 47c-9 5 -20 8 -32 9v38h316v-38c-13 -1 -24 -3 -33 -8c-15 -8 -23 -24 -23 -48v-212h235v212c0 24 -8 40 -23 48c-9 5 -20 7 -33 8v38h316v-38
c-12 -1 -23 -4 -32 -9c-15 -9 -24 -23 -24 -47v-179h123c121 0 243 -57 243 -197c0 -144 -127 -223 -257 -223h-369v38c12 1 23 4 32 9c15 9 24 23 24 47v244zM741 365v-310h45c92 0 121 67 121 158c0 87 -28 152 -105 152h-61z" />
    <glyph glyph-name="afii10060" unicode="&#x40b;" horiz-adv-x="902" 
d="M844 94c0 -24 9 -38 24 -47c9 -5 20 -8 32 -9v-38h-305v38c15 2 27 7 35 16c7 9 11 23 11 40l-1 96c-1 107 -30 154 -111 154c-31 0 -56 -4 -76 -11v-239c0 -17 4 -31 11 -40s18 -14 35 -16v-38h-306v38c13 1 24 3 33 8c15 8 23 24 23 48v554h-19
c-96 0 -152 -76 -176 -172h-36v217h668v-217h-36c-24 96 -80 172 -176 172h-21v-253c43 15 93 22 157 22c134 0 234 -60 234 -228v-95z" />
    <glyph glyph-name="afii10061" unicode="&#x40c;" horiz-adv-x="760" 
d="M302 94c0 -23 9 -40 24 -47c10 -5 21 -8 32 -9v-38h-316v38c13 1 24 3 33 8c15 8 23 24 23 48v505c0 23 -9 40 -24 47c-10 5 -21 8 -32 9v38h316v-38c-13 -1 -24 -3 -33 -8c-15 -8 -23 -24 -23 -48v-505zM325 326l177 201c23 25 39 46 39 69c0 31 -19 55 -75 58v39h290
v-39c-51 -7 -98 -30 -142 -77l-136 -144l184 -305c31 -53 67 -82 108 -89l-3 -39h-259l-183 319v7zM600 862l-176 -129h-42l-4 10l72 130h146z" />
    <glyph glyph-name="uni040D" unicode="&#x40d;" horiz-adv-x="849" 
d="M275 873h146l72 -130l-4 -10h-42l-176 129zM807 693v-38c-13 -1 -24 -3 -33 -8c-15 -8 -23 -24 -23 -48v-505c0 -24 9 -38 24 -47c9 -5 20 -8 32 -9v-38h-316v38c13 1 24 3 33 8c15 8 23 24 23 48v426l-275 -520h-230v38c13 1 24 3 33 8c15 8 23 24 23 48v505
c0 24 -9 38 -24 47c-9 5 -20 8 -32 9v38h316v-38c-13 -1 -24 -3 -33 -8c-15 -8 -23 -24 -23 -48v-427l275 521h230z" />
    <glyph glyph-name="afii10062" unicode="&#x40e;" horiz-adv-x="675" 
d="M252 125c26 0 47 11 62 33l-245 438c-20 36 -43 49 -86 56v41h376v-41c-56 -7 -78 -29 -78 -57c0 -9 3 -19 8 -30l118 -227l111 221c8 16 12 30 12 41c0 35 -33 51 -76 52v41h245v-40c-39 -4 -74 -20 -94 -57l-201 -387c-78 -142 -114 -224 -214 -224
c-51 0 -77 28 -77 71s28 76 75 76c35 0 41 -7 64 -7zM546 872c-16 -81 -72 -128 -173 -128c-92 0 -152 36 -175 128h120c4 -49 27 -77 62 -77c47 0 60 30 65 77h101z" />
    <glyph glyph-name="afii10145" unicode="&#x40f;" horiz-adv-x="839" 
d="M302 49h235v550c0 24 -8 40 -23 48c-9 5 -20 7 -33 8v38h316v-38c-12 -1 -23 -4 -32 -9c-15 -9 -24 -23 -24 -47v-505c0 -24 8 -40 23 -48c9 -5 20 -7 33 -8v-38h-286c-27 -3 -61 -68 -74 -172h-42c-15 104 -37 169 -64 172h-289v38c12 1 23 4 32 9c15 9 24 23 24 47v505
c0 24 -8 40 -23 48c-9 5 -20 7 -33 8v38h316v-38c-12 -1 -23 -4 -32 -9c-15 -9 -24 -23 -24 -47v-550z" />
    <glyph glyph-name="afii10017" unicode="&#x410;" horiz-adv-x="715" 
d="M391 240h-214l-55 -146c-9 -24 2 -42 29 -49c9 -3 34 -4 57 -7v-38h-224v38c15 1 26 6 37 11c19 8 31 20 40 45l249 612h107l230 -612c9 -27 19 -37 38 -46c11 -5 19 -9 34 -10v-38h-339v38c19 1 33 5 43 10c20 11 27 26 20 46zM197 293h175l-84 238z" />
    <glyph glyph-name="afii10018" unicode="&#x411;" horiz-adv-x="693" 
d="M302 638v-238h109c136 0 257 -47 257 -187c0 -144 -127 -213 -257 -213h-369v38c12 1 23 4 32 9c15 9 24 23 24 47v505c0 24 -8 40 -23 48c-9 5 -20 7 -33 8v38h563v-177h-46c-24 96 -70 122 -156 122h-101zM302 345v-290h35c95 0 131 57 131 148c0 87 -36 142 -131 142
h-35z" />
    <glyph glyph-name="afii10019" unicode="&#x412;" horiz-adv-x="733" 
d="M42 0v38c13 1 24 3 33 8c15 8 23 24 23 48v505c0 23 -9 40 -24 47c-10 5 -21 8 -32 9v38h338c194 0 280 -75 280 -167c0 -73 -65 -138 -173 -159v-4c147 -9 214 -70 214 -162c0 -128 -131 -201 -311 -201h-348zM489 194c0 71 -33 137 -178 137h-9v-277h21
c113 0 166 51 166 140zM302 639v-262c107 0 141 53 141 131c0 95 -48 131 -125 131h-16z" />
    <glyph glyph-name="afii10020" unicode="&#x413;" horiz-adv-x="616" 
d="M302 638v-537c0 -27 10 -41 27 -50c11 -7 28 -11 49 -13v-38h-336v38c13 1 24 3 33 8c15 8 23 24 23 48v492c0 32 -4 47 -21 58c-8 5 -12 8 -35 11v38h563v-177h-46c-24 96 -70 122 -156 122h-101z" />
    <glyph glyph-name="afii10021" unicode="&#x414;" horiz-adv-x="757" 
d="M217 0c-96 0 -152 -76 -176 -172h-36v221h32c92 0 140 230 145 550c0 24 -9 38 -24 47c-9 5 -20 8 -32 9v38h579v-38c-13 -1 -24 -3 -33 -8c-15 -8 -23 -24 -23 -48v-550h90v-221h-36c-24 96 -80 172 -176 172h-310zM243 644c-8 -336 -32 -518 -103 -595h305v595h-202z
" />
    <glyph glyph-name="afii10022" unicode="&#x415;" horiz-adv-x="669" 
d="M42 38c15 1 29 4 38 11c16 12 18 29 18 58v479c0 32 -4 47 -21 58c-8 5 -12 8 -35 11v38h563v-177h-46c-24 96 -70 122 -156 122h-101v-259h70c28 0 46 9 58 25c11 16 15 37 18 64h47v-232h-47c-3 23 -6 45 -17 61c-11 17 -28 28 -59 28h-70v-270h124
c97 0 132 39 169 153l42 -4l-20 -204h-575v38z" />
    <glyph glyph-name="afii10024" unicode="&#x416;" horiz-adv-x="1109" 
d="M653 94c0 -23 9 -40 24 -47c10 -5 21 -8 32 -9v-38h-311v38c13 1 24 3 33 8c15 8 23 24 23 48v505c0 23 -9 40 -24 47c-10 5 -21 8 -32 9v38h311v-38c-13 -1 -24 -3 -33 -8c-15 -8 -23 -24 -23 -48v-505zM676 326l177 201c23 25 39 46 39 69c0 31 -19 55 -75 58v39h290
v-39c-51 -7 -98 -30 -142 -77l-138 -146l183 -303c31 -53 67 -82 108 -89l-3 -39h-256l-183 319v7zM431 319l-183 -319h-255l3 39c43 7 72 38 103 89l181 302l-138 147c-44 47 -91 70 -142 77v39h290v-39c-56 -3 -75 -27 -75 -58c0 -23 16 -44 39 -69l177 -201v-7z" />
    <glyph glyph-name="afii10025" unicode="&#x417;" horiz-adv-x="635" 
d="M234 664c-77 0 -122 -81 -151 -188h-39v162c57 45 131 71 226 71c158 0 294 -43 294 -168c0 -100 -69 -166 -193 -179v-4c140 -3 234 -53 234 -157c0 -141 -128 -216 -317 -216c-120 0 -181 17 -244 54v171h39c24 -106 63 -180 177 -180c84 0 133 58 133 159
c0 99 -66 140 -164 140h-45v48h44c91 0 119 53 119 145c0 80 -29 142 -113 142z" />
    <glyph glyph-name="afii10026" unicode="&#x418;" horiz-adv-x="849" 
d="M807 693v-38c-13 -1 -24 -3 -33 -8c-15 -8 -23 -24 -23 -48v-505c0 -24 9 -38 24 -47c9 -5 20 -8 32 -9v-38h-316v38c13 1 24 3 33 8c15 8 23 24 23 48v426l-275 -520h-230v38c13 1 24 3 33 8c15 8 23 24 23 48v505c0 24 -9 38 -24 47c-9 5 -20 8 -32 9v38h316v-38
c-13 -1 -24 -3 -33 -8c-15 -8 -23 -24 -23 -48v-427l275 521h230z" />
    <glyph glyph-name="afii10027" unicode="&#x419;" horiz-adv-x="849" 
d="M807 693v-38c-13 -1 -24 -3 -33 -8c-15 -8 -23 -24 -23 -48v-505c0 -24 9 -38 24 -47c9 -5 20 -8 32 -9v-38h-316v38c13 1 24 3 33 8c15 8 23 24 23 48v426l-275 -520h-230v38c13 1 24 3 33 8c15 8 23 24 23 48v505c0 24 -9 38 -24 47c-9 5 -20 8 -32 9v38h316v-38
c-13 -1 -24 -3 -33 -8c-15 -8 -23 -24 -23 -48v-427l275 521h230zM623 872c-16 -81 -72 -128 -173 -128c-92 0 -152 36 -175 128h120c4 -49 27 -77 62 -77c47 0 60 30 65 77h101z" />
    <glyph glyph-name="afii10028" unicode="&#x41a;" horiz-adv-x="760" 
d="M302 94c0 -23 9 -40 24 -47c10 -5 21 -8 32 -9v-38h-316v38c13 1 24 3 33 8c15 8 23 24 23 48v505c0 23 -9 40 -24 47c-10 5 -21 8 -32 9v38h316v-38c-13 -1 -24 -3 -33 -8c-15 -8 -23 -24 -23 -48v-505zM325 326l177 201c23 25 39 46 39 69c0 31 -19 55 -75 58v39h290
v-39c-51 -7 -98 -30 -142 -77l-136 -144l184 -305c31 -53 67 -82 108 -89l-3 -39h-259l-183 319v7z" />
    <glyph glyph-name="afii10029" unicode="&#x41b;" horiz-adv-x="749" 
d="M707 655c-13 -1 -24 -3 -33 -8c-15 -8 -23 -24 -23 -48v-505c0 -24 9 -38 24 -47c9 -5 20 -8 32 -9v-38h-316v38c13 1 24 3 33 8c15 8 23 24 23 48v550h-199c-8 -477 -28 -654 -177 -654c-51 0 -76 36 -76 71c0 51 24 77 75 92c95 27 119 142 124 446c0 24 -9 38 -24 47
c-9 5 -20 8 -32 9v38h569v-38z" />
    <glyph glyph-name="afii10030" unicode="&#x41c;" horiz-adv-x="940" 
d="M478 342l170 351h250v-38c-13 -1 -24 -3 -33 -8c-15 -8 -23 -24 -23 -48v-505c0 -24 9 -38 24 -47c9 -5 20 -8 32 -9v-38h-316v38c13 1 24 3 33 8c15 8 23 24 23 48v429l-201 -406h-47l-205 406v-391c0 -39 12 -61 32 -74c17 -11 38 -18 64 -21v-37h-261v37
c21 3 40 8 57 17c23 12 39 35 39 78v408c0 35 -7 62 -21 81c-15 20 -39 32 -70 36v36h278z" />
    <glyph glyph-name="afii10031" unicode="&#x41d;" horiz-adv-x="859" 
d="M557 599c0 24 -9 38 -24 47c-9 5 -20 8 -32 9v38h316v-38c-13 -1 -24 -3 -33 -8c-15 -8 -23 -24 -23 -48v-505c0 -24 9 -38 24 -47c9 -5 20 -8 32 -9v-38h-316v38c13 1 24 3 33 8c15 8 23 24 23 48v244h-255v-244c0 -24 9 -38 24 -47c9 -5 20 -8 32 -9v-38h-316v38
c13 1 24 3 33 8c15 8 23 24 23 48v505c0 24 -9 38 -24 47c-9 5 -20 8 -32 9v38h316v-38c-13 -1 -24 -3 -33 -8c-15 -8 -23 -24 -23 -48v-212h255v212z" />
    <glyph glyph-name="afii10032" unicode="&#x41e;" horiz-adv-x="816" 
d="M781 352c0 -222 -161 -367 -381 -367c-205 0 -365 127 -365 356c0 235 167 368 377 368c213 0 369 -138 369 -357zM563 339c0 182 -21 325 -156 325c-139 0 -154 -147 -154 -310c0 -197 23 -322 151 -322c146 0 159 161 159 307z" />
    <glyph glyph-name="afii10033" unicode="&#x41f;" horiz-adv-x="839" 
d="M42 693h755v-38c-13 -1 -24 -3 -33 -8c-15 -8 -23 -24 -23 -48v-505c0 -24 9 -38 24 -47c9 -5 20 -8 32 -9v-38h-316v38c13 1 24 3 33 8c15 8 23 24 23 48v550h-235v-550c0 -24 9 -38 24 -47c9 -5 20 -8 32 -9v-38h-316v38c13 1 24 3 33 8c15 8 23 24 23 48v505
c0 24 -9 38 -24 47c-9 5 -20 8 -32 9v38z" />
    <glyph glyph-name="afii10034" unicode="&#x420;" horiz-adv-x="679" 
d="M302 273v-179c0 -24 9 -38 24 -47c9 -5 20 -8 32 -9v-38h-316v38c13 1 24 3 33 8c15 8 23 24 23 48v505c0 24 -9 38 -24 47c-9 5 -20 8 -32 9v38h383c121 0 243 -57 243 -197c0 -144 -127 -223 -257 -223h-109zM302 638v-310h45c92 0 121 67 121 158
c0 87 -28 152 -105 152h-61z" />
    <glyph glyph-name="afii10035" unicode="&#x421;" horiz-adv-x="692" 
d="M416 659c-120 0 -163 -145 -163 -297c0 -199 43 -326 164 -326c88 0 154 85 180 183h48v-163c-57 -45 -131 -71 -231 -71c-216 0 -379 125 -379 353c0 232 166 371 393 371c81 0 154 -18 217 -54v-189h-48c-39 137 -104 193 -181 193z" />
    <glyph glyph-name="afii10036" unicode="&#x422;" horiz-adv-x="704" 
d="M453 648v-554c0 -24 9 -38 24 -47c9 -5 20 -8 32 -9v-38h-316v38c13 1 24 3 33 8c15 8 23 24 23 48v554h-19c-96 0 -152 -76 -176 -172h-36v217h668v-217h-36c-24 96 -80 172 -176 172h-21z" />
    <glyph glyph-name="afii10037" unicode="&#x423;" horiz-adv-x="675" 
d="M252 125c26 0 47 11 62 33l-245 438c-20 36 -43 49 -86 56v41h376v-41c-56 -7 -78 -29 -78 -57c0 -9 3 -19 8 -30l118 -227l111 221c8 16 12 30 12 41c0 35 -33 51 -76 52v41h245v-40c-39 -4 -74 -20 -94 -57l-201 -387c-78 -142 -114 -224 -214 -224
c-51 0 -77 28 -77 71s28 76 75 76c35 0 41 -7 64 -7z" />
    <glyph glyph-name="afii10038" unicode="&#x424;" horiz-adv-x="975" 
d="M587 607c255 0 372 -100 372 -252c0 -162 -108 -265 -372 -268v-3c0 -24 9 -38 24 -47c9 -5 20 -8 32 -9v-38h-311v38c13 1 24 3 33 8c15 8 23 24 23 48v3c-255 0 -372 100 -372 252c0 160 108 265 372 268v2c0 24 -9 38 -24 47c-9 5 -20 8 -32 9v38h311v-38
c-13 -1 -24 -3 -33 -8c-15 -8 -23 -24 -23 -48v-2zM232 345c0 -122 43 -210 156 -213v430c-120 -5 -156 -107 -156 -217zM743 349c0 120 -43 210 -156 213v-430c120 3 156 106 156 217z" />
    <glyph glyph-name="afii10039" unicode="&#x425;" horiz-adv-x="707" 
d="M-1 693h366v-41c-36 0 -61 -15 -61 -40c0 -10 4 -20 11 -31l89 -136l91 116c14 18 21 34 21 48c0 25 -23 40 -60 43v41h239v-41c-35 -7 -66 -29 -102 -69l-154 -190l195 -296c19 -29 47 -49 76 -56v-41h-376v41c56 5 88 18 88 42c0 8 -4 18 -12 29l-107 161l-106 -144
c-12 -15 -18 -29 -18 -41c0 -25 20 -41 61 -47v-41h-238v41c40 11 74 43 105 75l162 210l-178 270c-25 39 -59 53 -92 56v41z" />
    <glyph glyph-name="afii10040" unicode="&#x426;" horiz-adv-x="849" 
d="M302 49h235v550c0 24 -8 40 -23 48c-9 5 -20 7 -33 8v38h316v-38c-12 -1 -23 -4 -32 -9c-15 -9 -24 -23 -24 -47v-550h90v-221h-36c-24 94 -78 169 -169 172h-584v38c12 1 23 4 32 9c15 9 24 23 24 47v505c0 24 -8 40 -23 48c-9 5 -20 7 -33 8v38h316v-38
c-12 -1 -23 -4 -32 -9c-15 -9 -24 -23 -24 -47v-550z" />
    <glyph glyph-name="afii10041" unicode="&#x427;" horiz-adv-x="791" 
d="M489 599c0 24 -9 38 -24 47c-9 5 -20 8 -32 9v38h316v-38c-13 -1 -24 -3 -33 -8c-15 -8 -23 -24 -23 -48v-505c0 -24 9 -38 24 -47c9 -5 20 -8 32 -9v-38h-316v38c13 1 24 3 33 8c15 8 23 24 23 48v211c-56 -17 -114 -24 -171 -24c-170 0 -258 60 -258 228v90
c0 24 -9 38 -24 47c-9 5 -20 8 -32 9v38h316v-38c-13 -1 -24 -3 -33 -8c-15 -8 -23 -24 -23 -48v-117c0 -86 27 -143 124 -143c45 0 77 4 101 11v249z" />
    <glyph glyph-name="afii10042" unicode="&#x428;" horiz-adv-x="1199" 
d="M42 38c12 1 23 4 32 9c15 9 24 23 24 47v505c0 24 -8 40 -23 48c-9 5 -20 7 -33 8v38h316v-38c-12 -1 -23 -4 -32 -9c-15 -9 -24 -23 -24 -47v-550h195v550c0 24 -8 40 -23 48c-9 5 -20 7 -33 8v38h316v-38c-12 -1 -23 -4 -32 -9c-15 -9 -24 -23 -24 -47v-550h196v550
c0 24 -9 38 -24 47c-9 5 -20 8 -32 9v38h316v-38c-13 -1 -24 -3 -33 -8c-15 -8 -23 -24 -23 -48v-505c0 -24 9 -38 24 -47c9 -5 20 -8 32 -9v-38h-1115v38z" />
    <glyph glyph-name="afii10043" unicode="&#x429;" horiz-adv-x="1209" 
d="M42 38c12 1 23 4 32 9c15 9 24 23 24 47v505c0 24 -8 40 -23 48c-9 5 -20 7 -33 8v38h316v-38c-12 -1 -23 -4 -32 -9c-15 -9 -24 -23 -24 -47v-550h195v550c0 24 -8 40 -23 48c-9 5 -20 7 -33 8v38h316v-38c-12 -1 -23 -4 -32 -9c-15 -9 -24 -23 -24 -47v-550h196v550
c0 24 -9 38 -24 47c-9 5 -20 8 -32 9v38h316v-38c-13 -1 -24 -3 -33 -8c-15 -8 -23 -24 -23 -48v-550h90v-221h-36c-24 96 -80 172 -176 172h-937v38z" />
    <glyph glyph-name="afii10044" unicode="&#x42a;" horiz-adv-x="821" 
d="M440 420h123c121 0 243 -57 243 -197c0 -144 -127 -223 -257 -223h-369v38c12 1 23 4 32 9c15 9 24 23 24 47v554h-6c-96 0 -152 -76 -176 -172h-36v217h478v-38c-12 -1 -23 -4 -32 -9c-15 -9 -24 -23 -24 -47v-179zM440 365v-310h45c92 0 121 67 121 158
c0 87 -28 152 -105 152h-61z" />
    <glyph glyph-name="afii10045" unicode="&#x42b;" horiz-adv-x="1028" 
d="M302 420h123c121 0 243 -57 243 -197c0 -144 -127 -223 -257 -223h-369v38c12 1 23 4 32 9c15 9 24 23 24 47v505c0 24 -8 40 -23 48c-9 5 -20 7 -33 8v38h316v-38c-12 -1 -23 -4 -32 -9c-15 -9 -24 -23 -24 -47v-179zM302 365v-310h45c92 0 121 67 121 158
c0 87 -28 152 -105 152h-61zM930 94c0 -24 9 -38 24 -47c9 -5 20 -8 32 -9v-38h-316v38c13 1 24 3 33 8c15 8 23 24 23 48v505c0 24 -9 38 -24 47c-9 5 -20 8 -32 9v38h316v-38c-13 -1 -24 -3 -33 -8c-15 -8 -23 -24 -23 -48v-505z" />
    <glyph glyph-name="afii10046" unicode="&#x42c;" horiz-adv-x="683" 
d="M302 420h123c121 0 243 -57 243 -197c0 -144 -127 -223 -257 -223h-369v38c12 1 23 4 32 9c15 9 24 23 24 47v505c0 24 -8 40 -23 48c-9 5 -20 7 -33 8v38h316v-38c-12 -1 -23 -4 -32 -9c-15 -9 -24 -23 -24 -47v-179zM302 365v-310h45c92 0 121 67 121 158
c0 87 -28 152 -105 152h-61z" />
    <glyph glyph-name="afii10047" unicode="&#x42d;" horiz-adv-x="690" 
d="M264 30c140 0 173 127 173 298h-245v49h244c-5 173 -34 287 -163 287c-102 0 -160 -81 -189 -188h-39v162c57 45 131 71 231 71c216 0 379 -125 379 -353c0 -232 -166 -371 -393 -371c-82 0 -154 18 -217 54v171h39c23 -108 84 -180 180 -180z" />
    <glyph glyph-name="afii10048" unicode="&#x42e;" horiz-adv-x="1152" 
d="M1117 352c0 -222 -161 -367 -371 -367c-194 0 -355 125 -355 353h-89v-244c0 -24 9 -38 24 -47c9 -5 20 -8 32 -9v-38h-316v38c13 1 24 3 33 8c15 8 23 24 23 48v505c0 24 -9 38 -24 47c-9 5 -20 8 -32 9v38h316v-38c-13 -1 -24 -3 -33 -8c-15 -8 -23 -24 -23 -48v-212
h91c21 205 177 322 365 322c203 0 359 -138 359 -357zM899 339c0 182 -20 325 -146 325c-128 0 -144 -147 -144 -310c0 -197 24 -322 141 -322c136 0 149 161 149 307z" />
    <glyph glyph-name="afii10049" unicode="&#x42f;" horiz-adv-x="750" 
d="M448 298h-47l-174 -298h-248l4 40c36 5 63 21 98 77l130 210c-80 25 -129 85 -129 170c0 121 88 196 243 196h383v-38c-12 -1 -23 -4 -32 -9c-15 -9 -24 -23 -24 -47v-505c0 -24 8 -40 23 -48c9 -5 20 -7 33 -8v-38h-316v38c12 1 23 4 32 9c15 9 24 23 24 47v204z
M282 496c0 -92 39 -143 136 -143h30v285h-31c-96 0 -135 -54 -135 -142z" />
    <glyph glyph-name="afii10146" unicode="&#x462;" horiz-adv-x="795" 
d="M418 581h182v-177h-36c-24 92 -57 129 -146 132v-156h123c121 0 243 -37 243 -177c0 -144 -127 -203 -257 -203h-369v38c12 1 23 4 32 9c15 9 24 23 24 47v442h-10c-96 0 -122 -36 -146 -132h-36v177h192v18c0 24 -8 40 -23 48c-9 5 -20 7 -33 8v38h316v-38
c-12 -1 -23 -4 -32 -9c-15 -9 -24 -23 -24 -47v-18zM418 325v-270h45c93 0 121 46 121 138c0 88 -28 132 -105 132h-61z" />
    <glyph glyph-name="afii10147" unicode="&#x472;" horiz-adv-x="816" 
d="M781 352c0 -222 -161 -367 -381 -367c-205 0 -365 127 -365 356c0 235 167 368 377 368c213 0 369 -138 369 -357zM404 32c145 0 159 160 159 306h-310c0 -189 26 -306 151 -306zM407 664c-132 0 -151 -129 -154 -277h309c-5 158 -31 277 -155 277z" />
    <glyph glyph-name="afii10065" unicode="&#x430;" horiz-adv-x="575" 
d="M502 108c0 -49 10 -62 49 -62c5 -1 11 0 18 0l1 -23c-27 -15 -79 -38 -146 -38c-93 0 -113 41 -113 99v11c-32 -56 -85 -109 -164 -109c-76 0 -120 47 -120 119c0 96 79 127 180 148l104 21v18c0 59 -22 98 -97 98c-41 0 -100 -9 -168 -25v71c85 47 181 79 262 79
c141 0 194 -79 194 -211v-196zM259 109c16 0 33 3 52 10v115l-52 -13c-35 -9 -61 -24 -61 -60c0 -39 30 -52 61 -52z" />
    <glyph glyph-name="afii10066" unicode="&#x431;" horiz-adv-x="647" 
d="M234 639c-5 -51 -8 -127 -9 -198c31 33 78 54 146 54c134 0 246 -74 246 -230c0 -150 -105 -280 -297 -280c-166 0 -271 84 -271 292c0 292 132 431 343 442l36 2c95 5 134 12 153 41l20 -7c-24 -125 -69 -192 -162 -201c-105 -11 -172 44 -205 85zM417 231
c0 127 -25 206 -90 206c-61 0 -78 -70 -78 -179c0 -125 20 -215 88 -215c56 0 80 63 80 188z" />
    <glyph glyph-name="afii10067" unicode="&#x432;" horiz-adv-x="628" 
d="M85 407c0 24 -8 40 -23 48c-9 5 -20 7 -33 8v37h330c125 0 222 -30 222 -124c0 -77 -56 -113 -148 -124c103 -7 163 -39 163 -107c0 -108 -86 -145 -238 -145h-329v37c13 1 24 3 33 8c15 8 23 24 23 48v314zM276 231v-185h20c71 0 101 30 101 95c0 53 -27 90 -99 90h-22z
M276 454v-178h10c71 0 96 32 96 91c0 63 -27 87 -99 87h-7z" />
    <glyph glyph-name="afii10068" unicode="&#x433;" horiz-adv-x="495" 
d="M276 451v-358c0 -24 9 -38 24 -47c9 -5 20 -8 32 -9v-37h-303v37c13 1 24 3 33 8c15 8 23 24 23 48v314c0 24 -8 40 -23 48c-9 5 -20 7 -33 8v37h446v-185h-33c-21 80 -55 136 -137 136h-29z" />
    <glyph glyph-name="afii10069" unicode="&#x434;" horiz-adv-x="632" 
d="M585 500v-37c-13 -1 -24 -3 -33 -8c-15 -8 -23 -24 -23 -48v-359h90v-204h-37c-24 109 -72 153 -175 156h-176c-110 0 -158 -44 -185 -156h-37v204h30c79 0 113 196 113 352c0 37 -22 61 -63 61v39h496zM216 452c-4 -223 -28 -348 -79 -404h201v404h-122z" />
    <glyph glyph-name="afii10070" unicode="&#x435;" 
d="M513 75c-50 -47 -123 -90 -234 -90c-156 0 -248 83 -248 242c0 160 96 288 292 288c139 0 213 -61 213 -182c0 -11 -1 -22 -2 -33l-32 -41h-287c3 -88 30 -152 142 -152c47 0 107 10 154 26zM290 457c-47 0 -72 -66 -75 -150h130c2 14 3 29 3 44c0 64 -19 106 -58 106z
" />
    <glyph glyph-name="afii10072" unicode="&#x436;" horiz-adv-x="916" 
d="M364 237l-161 -237h-204l1 34c43 35 56 51 88 96l139 195l-93 79c-39 31 -75 53 -115 60v36h260v-36c-37 -1 -53 -21 -53 -48c0 -23 20 -56 52 -84l86 -76v151c0 17 -4 31 -12 40c-9 10 -22 15 -39 16v37h288v-37c-31 -3 -51 -20 -51 -56v-151l86 76c32 28 52 61 52 84
c0 27 -16 47 -53 48v36h260v-36c-40 -7 -76 -29 -115 -60l-89 -75l141 -199c31 -44 39 -62 84 -96l-9 -34h-200l-157 235v-142c0 -34 17 -53 51 -56v-37h-288v37c34 2 51 21 51 56v144z" />
    <glyph glyph-name="afii10073" unicode="&#x437;" horiz-adv-x="533" 
d="M230 -15c-79 0 -140 12 -192 35l-3 144l41 5c35 -78 74 -130 135 -130c60 0 91 37 91 102c0 53 -21 91 -89 91h-62v48h60c51 0 76 29 76 87c0 63 -20 93 -77 93c-56 0 -92 -47 -127 -130l-41 5l3 144c52 23 115 36 191 36c161 0 250 -44 250 -139
c0 -77 -56 -113 -148 -124c103 -7 163 -39 163 -107c0 -109 -113 -160 -271 -160z" />
    <glyph glyph-name="afii10074" unicode="&#x438;" horiz-adv-x="710" 
d="M434 341l-188 -341h-217v37c13 1 24 3 33 8c15 8 23 24 23 48v314c0 24 -8 40 -23 48c-9 5 -20 7 -33 8v37h303v-37c-12 -1 -23 -4 -32 -9c-15 -9 -24 -23 -24 -47v-252l188 345h217v-37c-13 -1 -24 -3 -33 -8c-15 -8 -23 -24 -23 -48v-314c0 -24 8 -40 23 -48
c9 -5 20 -7 33 -8v-37h-303v37c12 1 23 4 32 9c15 9 24 23 24 47v248z" />
    <glyph glyph-name="afii10075" unicode="&#x439;" horiz-adv-x="710" 
d="M434 341l-188 -341h-217v37c13 1 24 3 33 8c15 8 23 24 23 48v314c0 24 -8 40 -23 48c-9 5 -20 7 -33 8v37h303v-37c-12 -1 -23 -4 -32 -9c-15 -9 -24 -23 -24 -47v-252l188 345h217v-37c-13 -1 -24 -3 -33 -8c-15 -8 -23 -24 -23 -48v-314c0 -24 8 -40 23 -48
c9 -5 20 -7 33 -8v-37h-303v37c12 1 23 4 32 9c15 9 24 23 24 47v248zM545 731c-8 -84 -81 -146 -183 -146c-91 0 -177 49 -185 146h130c3 -56 27 -95 62 -95c47 0 60 42 65 95h111z" />
    <glyph glyph-name="afii10076" unicode="&#x43a;" horiz-adv-x="642" 
d="M85 407c0 24 -8 40 -23 48c-9 5 -20 7 -33 8v37h298v-37c-31 -3 -51 -20 -51 -56v-151l86 76c32 28 52 61 52 84c0 27 -16 47 -53 48v36h260v-36c-40 -7 -76 -29 -115 -60l-86 -73l142 -201c29 -45 36 -62 80 -96l-9 -34h-203l-154 235v-142c0 -24 9 -38 24 -47
c9 -5 20 -8 32 -9v-37h-303v37c13 1 24 3 33 8c15 8 23 24 23 48v314z" />
    <glyph glyph-name="afii10077" unicode="&#x43b;" horiz-adv-x="615" 
d="M339 452h-126c-5 -300 -20 -462 -147 -462c-47 0 -68 32 -68 63c0 45 22 67 67 82c75 21 98 109 98 265c0 37 -22 61 -63 61v39h486v-37c-13 -1 -24 -3 -33 -8c-15 -8 -23 -24 -23 -48v-314c0 -24 8 -40 23 -48c9 -5 20 -7 33 -8v-37h-303v37c12 1 23 4 32 9
c15 9 24 23 24 47v359z" />
    <glyph glyph-name="afii10078" unicode="&#x43c;" horiz-adv-x="807" 
d="M405 243l137 257h236v-37c-13 -1 -24 -3 -33 -8c-15 -8 -23 -24 -23 -48v-314c0 -24 8 -40 23 -48c9 -5 20 -7 33 -8v-37h-303v37c12 1 23 4 32 9c15 9 24 23 24 47v273l-172 -328h-40l-171 325v-257c0 -28 8 -44 23 -53c12 -8 27 -13 46 -15v-38h-195v38
c15 3 29 5 41 12c17 9 28 25 28 56v273c0 25 -5 44 -15 58c-11 15 -28 23 -50 26v37h247z" />
    <glyph glyph-name="afii10079" unicode="&#x43d;" horiz-adv-x="710" 
d="M434 232h-158v-139c0 -24 9 -38 24 -47c9 -5 20 -8 32 -9v-37h-303v37c13 1 24 3 33 8c15 8 23 24 23 48v314c0 24 -8 40 -23 48c-9 5 -20 7 -33 8v37h303v-37c-12 -1 -23 -4 -32 -9c-15 -9 -24 -23 -24 -47v-127h158v127c0 24 -9 38 -24 47c-9 5 -20 8 -32 9v37h303v-37
c-13 -1 -24 -3 -33 -8c-15 -8 -23 -24 -23 -48v-314c0 -24 8 -40 23 -48c9 -5 20 -7 33 -8v-37h-303v37c12 1 23 4 32 9c15 9 24 23 24 47v139z" />
    <glyph glyph-name="afii10080" unicode="&#x43e;" horiz-adv-x="627" 
d="M597 275c0 -163 -108 -290 -301 -290c-151 0 -267 79 -267 244c0 176 131 286 310 286c157 0 258 -84 258 -240zM397 241c0 131 -24 216 -90 216c-61 0 -78 -73 -78 -189c0 -130 20 -225 88 -225c56 0 80 67 80 198z" />
    <glyph glyph-name="afii10081" unicode="&#x43f;" horiz-adv-x="700" 
d="M424 452h-148v-359c0 -24 9 -38 24 -47c9 -5 20 -8 32 -9v-37h-303v37c13 1 24 3 33 8c15 8 23 24 23 48v314c0 24 -8 40 -23 48c-9 5 -20 7 -33 8v37h642v-37c-13 -1 -24 -3 -33 -8c-15 -8 -23 -24 -23 -48v-314c0 -24 8 -40 23 -48c9 -5 20 -7 33 -8v-37h-303v37
c12 1 23 4 32 9c15 9 24 23 24 47v359z" />
    <glyph glyph-name="afii10082" unicode="&#x440;" horiz-adv-x="655" 
d="M82 395c0 33 -4 43 -43 43c-7 0 -16 0 -27 -1v35c46 16 135 43 196 43c52 0 65 -19 65 -64v-27c59 77 123 91 168 91c130 0 183 -109 183 -232c0 -204 -148 -294 -351 -297v-110c0 -29 15 -50 54 -50h34v-43h-335v37c13 1 24 3 33 8c15 8 23 24 23 48v519zM320 409
c-15 0 -31 -2 -47 -7v-355c9 -3 19 -4 32 -4c88 0 124 102 124 202c0 96 -33 164 -109 164z" />
    <glyph glyph-name="afii10083" unicode="&#x441;" horiz-adv-x="536" 
d="M501 76c-49 -48 -118 -91 -223 -91c-156 0 -248 95 -248 244c0 157 102 286 299 286c124 0 184 -50 184 -115c0 -47 -25 -85 -76 -85c-121 0 -51 143 -143 143c-51 0 -80 -84 -80 -176c0 -99 31 -175 143 -175c37 0 91 7 142 26z" />
    <glyph glyph-name="afii10084" unicode="&#x442;" horiz-adv-x="580" 
d="M195 451h-3c-83 0 -114 -56 -135 -136h-36v185h538v-185h-35c-21 80 -53 136 -135 136h-3v-358c0 -24 9 -38 24 -47c9 -5 20 -8 32 -9v-37h-303v37c13 1 24 3 33 8c15 8 23 24 23 48v358z" />
    <glyph glyph-name="afii10085" unicode="&#x443;" horiz-adv-x="595" 
d="M598 461c-35 -8 -61 -37 -76 -72l-127 -274l-2 -4l-52 -113c-29 -64 -94 -224 -228 -224c-57 0 -79 23 -79 56c0 39 23 67 76 67c89 0 125 7 160 58l-17 37l-5 10l-25 56l-157 349c-15 36 -40 50 -67 54v39h324v-39c-39 0 -63 -20 -51 -48l98 -236l76 192
c23 57 -2 85 -51 92v39h203v-39z" />
    <glyph glyph-name="afii10086" unicode="&#x444;" horiz-adv-x="892" 
d="M351 -14c-151 0 -321 47 -321 243c0 164 125 281 321 286v114c0 31 -3 40 -34 43c-9 0 -21 0 -36 -1v35c46 16 136 43 194 43c55 0 67 -17 67 -64v-173c149 -3 320 -49 320 -243c0 -166 -125 -281 -320 -286v-107c0 -24 9 -38 24 -47c9 -5 20 -8 32 -9v-37h-303v37
c13 1 24 3 33 8c15 8 23 24 23 48v110zM230 268c0 -129 33 -214 121 -225v418c-81 -7 -121 -68 -121 -193zM662 230c0 128 -34 217 -120 225v-418c80 7 120 68 120 193z" />
    <glyph glyph-name="afii10087" unicode="&#x445;" horiz-adv-x="603" 
d="M519 93c23 -32 48 -50 77 -54v-39h-314v39c39 0 48 24 31 48l-77 105l-51 -65c-39 -51 -23 -84 18 -88v-39h-199v39c35 8 74 33 106 72l101 116l-130 180c-23 32 -40 50 -67 54v39h314v-39c-39 0 -57 -25 -41 -48l83 -115l49 74c25 39 14 80 -27 89v39h199v-39
c-35 -8 -69 -37 -96 -72l-98 -128z" />
    <glyph glyph-name="afii10088" unicode="&#x446;" horiz-adv-x="718" 
d="M85 407c0 24 -8 40 -23 48c-9 5 -20 7 -33 8v37h303v-37c-12 -1 -23 -4 -32 -9c-15 -9 -24 -23 -24 -47v-359h148v359c3 24 -9 38 -24 47c-9 5 -20 8 -32 9v37h303v-37c-13 -1 -24 -3 -33 -8c-15 -8 -23 -24 -23 -48v-359h90v-204h-37c-27 112 -75 156 -185 156h-454v37
c13 1 24 3 33 8c15 8 23 24 23 48v314z" />
    <glyph glyph-name="afii10089" unicode="&#x447;" horiz-adv-x="678" 
d="M402 249c-27 -30 -90 -86 -189 -86c-96 0 -150 51 -150 175v69c0 24 -9 38 -24 47c-9 5 -20 8 -32 9v37h303v-37c-13 -1 -24 -3 -33 -8c-15 -8 -23 -24 -23 -48v-22c0 -68 19 -123 92 -123c24 0 44 3 56 6v139c0 24 -9 38 -24 47c-9 5 -20 8 -32 9v37h303v-37
c-13 -1 -24 -3 -33 -8c-15 -8 -23 -24 -23 -48v-314c0 -24 8 -40 23 -48c9 -5 20 -7 33 -8v-37h-303v37c12 1 23 4 32 9c15 9 24 23 24 47v156z" />
    <glyph glyph-name="afii10090" unicode="&#x448;" horiz-adv-x="999" 
d="M914 93c0 -24 8 -40 23 -48c9 -5 20 -7 33 -8v-37h-941v37c13 1 24 3 33 8c15 8 23 24 23 48v314c0 24 -8 40 -23 48c-9 5 -20 7 -33 8v37h298v-37c-15 -1 -27 -5 -36 -14c-10 -9 -15 -23 -15 -42v-359h128v359c0 19 -5 33 -15 42c-9 9 -21 13 -36 14v37h293v-37
c-19 -1 -32 -7 -40 -17c-7 -8 -11 -21 -11 -39v-359h128v359c0 19 -5 33 -15 42c-9 9 -21 13 -36 14v37h298v-37c-17 -1 -31 -6 -41 -15s-15 -23 -15 -41v-314z" />
    <glyph glyph-name="afii10091" unicode="&#x449;" horiz-adv-x="1017" 
d="M29 0v37c13 1 24 3 33 8c15 8 23 24 23 48v314c0 24 -8 40 -23 48c-9 5 -20 7 -33 8v37h298v-37c-15 -1 -27 -5 -36 -14c-10 -9 -15 -23 -15 -42v-359h128v359c0 19 -5 33 -15 42c-9 9 -21 13 -36 14v37h293v-37c-19 -1 -32 -7 -40 -17c-7 -8 -11 -21 -11 -39v-359h128
v359c0 19 -5 33 -15 42c-9 9 -21 13 -36 14v37h298v-37c-17 -1 -31 -6 -41 -15s-15 -23 -15 -41v-359h90v-204h-37c-27 112 -75 156 -185 156h-753z" />
    <glyph glyph-name="afii10092" unicode="&#x44a;" horiz-adv-x="725" 
d="M196 451h-5c-82 0 -116 -56 -137 -136h-33v185h422v-37c-12 -1 -23 -4 -32 -9c-15 -9 -24 -23 -24 -47v-87h78c128 0 244 -37 244 -149c0 -129 -117 -171 -269 -171h-300v37c13 1 24 3 33 8c15 8 23 24 23 48v358zM387 272v-224h20c72 0 102 41 102 113
c0 68 -27 111 -100 111h-22z" />
    <glyph glyph-name="afii10093" unicode="&#x44b;" horiz-adv-x="905" 
d="M85 407c0 24 -8 40 -23 48c-9 5 -20 7 -33 8v37h303v-37c-12 -1 -23 -4 -32 -9c-15 -9 -24 -23 -24 -47v-87h68c128 0 244 -37 244 -149c0 -129 -117 -171 -269 -171h-290v37c13 1 24 3 33 8c15 8 23 24 23 48v314zM629 407c0 24 -9 38 -24 47c-9 5 -20 8 -32 9v37h303
v-37c-13 -1 -24 -3 -33 -8c-15 -8 -23 -24 -23 -48v-314c0 -24 8 -40 23 -48c9 -5 20 -7 33 -8v-37h-303v37c12 1 23 4 32 9c15 9 24 23 24 47v314zM276 272v-224h10c72 0 102 41 102 113c0 68 -27 111 -100 111h-12z" />
    <glyph glyph-name="afii10094" unicode="&#x44c;" horiz-adv-x="614" 
d="M85 407c0 24 -8 40 -23 48c-9 5 -20 7 -33 8v37h303v-37c-12 -1 -23 -4 -32 -9c-15 -9 -24 -23 -24 -47v-87h78c128 0 244 -37 244 -149c0 -129 -117 -171 -269 -171h-300v37c13 1 24 3 33 8c15 8 23 24 23 48v314zM276 272v-224h20c72 0 102 41 102 113
c0 68 -27 111 -100 111h-22z" />
    <glyph glyph-name="afii10095" unicode="&#x44d;" horiz-adv-x="545" 
d="M214 460c-56 0 -96 -47 -131 -130l-41 5l3 144c52 23 119 36 195 36c175 0 275 -83 275 -246c0 -171 -117 -284 -301 -284c-59 0 -124 12 -176 35l-3 144l41 5c36 -79 87 -130 139 -130c69 0 97 85 100 193h-179v48h178c-3 111 -24 180 -100 180z" />
    <glyph glyph-name="afii10096" unicode="&#x44e;" horiz-adv-x="916" 
d="M886 263c0 -156 -97 -278 -281 -278c-144 0 -263 79 -266 247h-63v-139c0 -24 9 -38 24 -47c9 -5 20 -8 32 -9v-37h-303v37c13 1 24 3 33 8c15 8 23 24 23 48v314c0 24 -8 40 -23 48c-9 5 -20 7 -33 8v37h303v-37c-12 -1 -23 -4 -32 -9c-15 -9 -24 -23 -24 -47v-127h65
c19 147 132 235 288 235c157 0 257 -92 257 -252zM687 241c0 131 -13 216 -80 216c-61 0 -68 -73 -68 -189c0 -130 10 -225 78 -225c56 0 70 67 70 198z" />
    <glyph glyph-name="afii10097" unicode="&#x44f;" horiz-adv-x="651" 
d="M9 0v34c43 35 56 50 96 105c28 39 52 73 68 94c-67 11 -120 44 -120 123c0 99 91 144 252 144h317v-37c-13 -1 -24 -3 -33 -8c-15 -8 -23 -24 -23 -48v-314c0 -24 8 -40 23 -48c9 -5 20 -7 33 -8v-37h-303v37c12 1 23 4 32 9c15 9 24 23 24 47v359h-20
c-68 0 -102 -32 -102 -96c0 -76 31 -104 100 -104h13v-9l-159 -243h-198z" />
    <glyph glyph-name="uni0450" unicode="&#x450;" 
d="M513 75c-50 -47 -123 -90 -234 -90c-156 0 -248 83 -248 242c0 160 96 288 292 288c139 0 213 -61 213 -182c0 -11 -1 -22 -2 -33l-32 -41h-287c3 -88 30 -152 142 -152c47 0 107 10 154 26zM290 457c-47 0 -72 -66 -75 -150h130c2 14 3 29 3 44c0 64 -19 106 -58 106z
M120 744h148l76 -168l-4 -10h-42l-182 167z" />
    <glyph glyph-name="afii10071" unicode="&#x451;" 
d="M513 75c-50 -47 -123 -90 -234 -90c-156 0 -248 83 -248 242c0 160 96 288 292 288c139 0 213 -61 213 -182c0 -11 -1 -22 -2 -33l-32 -41h-287c3 -88 30 -152 142 -152c47 0 107 10 154 26zM290 457c-47 0 -72 -66 -75 -150h130c2 14 3 29 3 44c0 64 -19 106 -58 106z
M121 670c0 57 39 76 84 76s84 -19 84 -76c0 -59 -39 -77 -84 -77s-84 18 -84 77zM324 670c0 57 39 76 84 76s84 -19 84 -76c0 -59 -39 -77 -84 -77s-84 18 -84 77z" />
    <glyph glyph-name="afii10099" unicode="&#x452;" horiz-adv-x="677" 
d="M0 600h79v39c0 31 -4 40 -33 43c-9 0 -21 0 -37 -1v35c46 16 136 43 194 43c55 0 67 -17 67 -64v-95h163v-50h-163v-166c53 59 119 101 195 101c112 0 154 -58 154 -183v-230c0 -193 -102 -236 -257 -228v38c31 3 62 22 65 170l1 195c0 77 -12 130 -89 130
c-23 0 -42 -3 -69 -14v-270c0 -24 9 -38 24 -47c9 -5 20 -8 32 -9v-37h-303v37c13 1 24 3 33 8c15 8 23 24 23 48v457h-79v50z" />
    <glyph glyph-name="afii10100" unicode="&#x453;" horiz-adv-x="495" 
d="M276 451v-358c0 -24 9 -38 24 -47c9 -5 20 -8 32 -9v-37h-303v37c13 1 24 3 33 8c15 8 23 24 23 48v314c0 24 -8 40 -23 48c-9 5 -20 7 -33 8v37h446v-185h-33c-21 80 -55 136 -137 136h-29zM461 733l-182 -167h-32l-4 10l66 168h148z" />
    <glyph glyph-name="afii10101" unicode="&#x454;" horiz-adv-x="545" 
d="M331 40c56 0 96 47 131 130l41 -5l-3 -144c-52 -23 -119 -36 -195 -36c-175 0 -275 83 -275 246c0 171 117 284 301 284c59 0 124 -12 176 -35l3 -144l-41 -5c-36 79 -87 130 -139 130c-67 0 -97 -78 -100 -181h179v-48h-179c3 -119 21 -192 101 -192z" />
    <glyph glyph-name="afii10102" unicode="&#x455;" horiz-adv-x="512" 
d="M215 -15c-59 0 -124 12 -176 35l-3 144l41 5c36 -79 87 -130 156 -130c48 0 75 28 75 61c0 35 -32 50 -75 61l-45 12c-68 18 -144 66 -144 158c0 109 105 184 246 184c56 0 116 -11 164 -38l10 -128l-48 -3c-44 88 -90 115 -139 115c-43 0 -65 -27 -65 -59
c0 -39 29 -56 68 -67l55 -14c67 -16 146 -52 146 -148c0 -132 -145 -188 -266 -188z" />
    <glyph glyph-name="afii10103" unicode="&#x456;" horiz-adv-x="356" 
d="M279 93c0 -24 9 -38 24 -47c9 -5 20 -8 32 -9v-37h-303v37c13 1 24 3 33 8c15 8 23 24 23 48v302c0 31 -4 42 -37 43c-9 0 -20 0 -33 -1v35c46 16 136 43 194 43c55 0 67 -17 67 -64v-358zM84 676c0 63 42 83 91 83s91 -20 91 -83s-42 -83 -91 -83s-91 20 -91 83z" />
    <glyph glyph-name="afii10104" unicode="&#x457;" horiz-adv-x="356" 
d="M279 93c0 -24 9 -38 24 -47c9 -5 20 -8 32 -9v-37h-303v37c13 1 24 3 33 8c15 8 23 24 23 48v302c0 33 -5 43 -42 43c-8 0 -17 0 -28 -1v35c46 16 136 43 194 43c55 0 67 -17 67 -64v-358zM-16 670c0 57 39 76 84 76s84 -19 84 -76c0 -59 -39 -77 -84 -77s-84 18 -84 77z
M187 670c0 57 39 76 84 76s84 -19 84 -76c0 -59 -39 -77 -84 -77s-84 18 -84 77z" />
    <glyph glyph-name="afii10105" unicode="&#x458;" horiz-adv-x="334" 
d="M82 395c0 35 -5 43 -46 43c-7 0 -15 0 -24 -1v35c46 16 136 43 194 43c55 0 67 -17 67 -64v-257c0 -200 -135 -420 -282 -420c-64 0 -90 40 -90 76s26 67 69 67c78 0 32 -91 70 -91c26 0 42 57 42 123v446zM85 676c0 63 42 83 91 83s91 -20 91 -83s-42 -83 -91 -83
s-91 20 -91 83z" />
    <glyph glyph-name="afii10106" unicode="&#x459;" horiz-adv-x="868" 
d="M339 452h-126c-5 -300 -20 -462 -147 -462c-47 0 -68 32 -68 63c0 45 22 67 67 82c75 21 98 109 98 265c0 37 -22 61 -63 61v39h486v-37c-12 -1 -23 -4 -32 -9c-15 -9 -24 -23 -24 -47v-87h78c128 0 244 -37 244 -149c0 -129 -117 -171 -269 -171h-300v37c13 1 24 3 33 8
c15 8 23 24 23 48v359zM530 272v-224h20c72 0 102 41 102 113c0 68 -27 111 -100 111h-22z" />
    <glyph glyph-name="afii10107" unicode="&#x45a;" horiz-adv-x="963" 
d="M434 232h-158v-139c0 -24 9 -38 24 -47c9 -5 20 -8 32 -9v-37h-303v37c13 1 24 3 33 8c15 8 23 24 23 48v314c0 24 -8 40 -23 48c-9 5 -20 7 -33 8v37h303v-37c-12 -1 -23 -4 -32 -9c-15 -9 -24 -23 -24 -47v-127h158v127c0 24 -8 40 -23 48c-9 5 -20 7 -33 8v37h303v-37
c-12 -1 -23 -4 -32 -9c-15 -9 -24 -23 -24 -47v-87h78c128 0 244 -37 244 -149c0 -129 -117 -171 -269 -171h-300v37c13 1 24 3 33 8c15 8 23 24 23 48v139zM625 272v-224h20c72 0 102 41 102 113c0 68 -27 111 -100 111h-22z" />
    <glyph glyph-name="afii10108" unicode="&#x45b;" horiz-adv-x="687" 
d="M0 600h79v39c0 31 -4 40 -33 43c-9 0 -21 0 -37 -1v35c46 16 136 43 194 43c55 0 67 -17 67 -64v-95h163v-50h-163v-166c53 59 119 101 195 101c112 0 154 -58 154 -183v-209c0 -24 9 -38 24 -47c9 -5 20 -8 32 -9v-37h-303v37c13 1 24 3 33 8c15 8 23 24 23 48v154
c-3 77 -13 130 -89 130c-23 0 -42 -3 -69 -14v-270c0 -24 9 -38 24 -47c9 -5 20 -8 32 -9v-37h-303v37c13 1 24 3 33 8c15 8 23 24 23 48v457h-79v50z" />
    <glyph glyph-name="afii10195" unicode="&#x473;" horiz-adv-x="627" 
d="M597 275c0 -163 -108 -290 -301 -290c-151 0 -267 79 -267 244c0 176 131 286 310 286c157 0 258 -84 258 -240zM317 43c55 0 79 64 80 189h-168c3 -111 28 -189 88 -189zM307 457c-59 0 -77 -68 -78 -177h167c-4 108 -29 177 -89 177z" />
    <glyph glyph-name="uni04E9" unicode="&#x4e9;" horiz-adv-x="627" 
d="M597 275c0 -163 -108 -290 -301 -290c-151 0 -267 79 -267 244c0 176 131 286 310 286c157 0 258 -84 258 -240zM317 43c55 0 79 64 80 189h-168c3 -111 28 -189 88 -189zM307 457c-59 0 -77 -68 -78 -177h167c-4 108 -29 177 -89 177z" />
    <glyph glyph-name="NULL" horiz-adv-x="612" 
d="M303 -15c-151 0 -257 98 -257 364c0 276 110 410 294 410c156 0 230 -84 230 -186c0 -95 -64 -146 -168 -161c94 -11 181 -69 181 -192c0 -159 -103 -235 -280 -235zM311 41c51 0 73 52 73 169c0 111 -21 161 -98 161c-15 0 -28 -1 -40 -2c0 -217 6 -328 65 -328z
M315 704c-64 0 -69 -91 -69 -284c9 1 18 2 27 5c65 15 98 50 98 135c0 75 -5 144 -56 144z" />
    <glyph glyph-name="Alpha" unicode="&#x391;" horiz-adv-x="715" 
d="M391 240h-214l-55 -146c-9 -24 2 -42 29 -49c9 -3 34 -4 57 -7v-38h-224v38c15 1 26 6 37 11c19 8 31 20 40 45l249 612h107l230 -612c9 -27 19 -37 38 -46c11 -5 19 -9 34 -10v-38h-339v38c19 1 33 5 43 10c20 11 27 26 20 46zM197 293h175l-84 238z" />
    <glyph glyph-name="Alphatonos" unicode="&#x386;" horiz-adv-x="715" 
d="M391 240h-214l-55 -146c-9 -24 2 -42 29 -49c9 -3 34 -4 57 -7v-38h-224v38c15 1 26 6 37 11c19 8 31 20 40 45l249 612h107l230 -612c9 -27 19 -37 38 -46c11 -5 19 -9 34 -10v-38h-339v38c19 1 33 5 43 10c20 11 27 26 20 46zM197 293h175l-84 238zM162 683
c-5 -65 -51 -167 -81 -210h-51l-4 10c15 47 28 128 28 211h104z" />
    <glyph glyph-name="Beta" unicode="&#x392;" horiz-adv-x="733" 
d="M42 0v38c13 1 24 3 33 8c15 8 23 24 23 48v505c0 23 -9 40 -24 47c-10 5 -21 8 -32 9v38h338c194 0 280 -75 280 -167c0 -73 -65 -138 -173 -159v-4c147 -9 214 -70 214 -162c0 -128 -131 -201 -311 -201h-348zM489 194c0 71 -33 137 -178 137h-9v-277h21
c113 0 166 51 166 140zM302 639v-262c107 0 141 53 141 131c0 95 -48 131 -125 131h-16z" />
    <glyph glyph-name="Gamma" unicode="&#x393;" horiz-adv-x="616" 
d="M302 638v-537c0 -27 10 -41 27 -50c11 -7 28 -11 49 -13v-38h-336v38c13 1 24 3 33 8c15 8 23 24 23 48v492c0 32 -4 47 -21 58c-8 5 -12 8 -35 11v38h563v-177h-46c-24 96 -70 122 -156 122h-101z" />
    <glyph glyph-name="Delta" unicode="&#x2206;" horiz-adv-x="722" 
d="M688 0h-656l-9 31l277 662h148l249 -662zM126 139h350l-166 449z" />
    <glyph glyph-name="CR" unicode="&#x394;" horiz-adv-x="718" 
d="M687 0h-656l-9 31l277 662h148l249 -662zM125 139h350l-166 449z" />
    <glyph glyph-name="Epsilon" unicode="&#x395;" horiz-adv-x="669" 
d="M42 38c15 1 29 4 38 11c16 12 18 29 18 58v479c0 32 -4 47 -21 58c-8 5 -12 8 -35 11v38h563v-177h-46c-24 96 -70 122 -156 122h-101v-259h70c28 0 46 9 58 25c11 16 15 37 18 64h47v-232h-47c-3 23 -6 45 -17 61c-11 17 -28 28 -59 28h-70v-270h124
c97 0 132 39 169 153l42 -4l-20 -204h-575v38z" />
    <glyph glyph-name="Epsilontonos" unicode="&#x388;" horiz-adv-x="669" 
d="M42 38c15 1 29 4 38 11c16 12 18 29 18 58v479c0 32 -4 47 -21 58c-8 5 -12 8 -35 11v38h563v-177h-46c-24 96 -70 122 -156 122h-101v-259h70c28 0 46 9 58 25c11 16 15 37 18 64h47v-232h-47c-3 23 -6 45 -17 61c-11 17 -28 28 -59 28h-70v-270h124
c97 0 132 39 169 153l42 -4l-20 -204h-575v38zM14 683c-5 -65 -51 -167 -81 -210h-51l-4 10c15 47 28 128 28 211h104z" />
    <glyph glyph-name="Zeta" unicode="&#x396;" horiz-adv-x="664" 
d="M629 222l-14 -222h-592l-5 17l371 626h-130c-92 0 -140 -34 -175 -141l-39 2l12 189h562l7 -17l-371 -626h109c140 0 171 43 227 176z" />
    <glyph glyph-name="Eta" unicode="&#x397;" horiz-adv-x="859" 
d="M557 599c0 24 -9 38 -24 47c-9 5 -20 8 -32 9v38h316v-38c-13 -1 -24 -3 -33 -8c-15 -8 -23 -24 -23 -48v-505c0 -24 9 -38 24 -47c9 -5 20 -8 32 -9v-38h-316v38c13 1 24 3 33 8c15 8 23 24 23 48v244h-255v-244c0 -24 9 -38 24 -47c9 -5 20 -8 32 -9v-38h-316v38
c13 1 24 3 33 8c15 8 23 24 23 48v505c0 24 -9 38 -24 47c-9 5 -20 8 -32 9v38h316v-38c-13 -1 -24 -3 -33 -8c-15 -8 -23 -24 -23 -48v-212h255v212z" />
    <glyph glyph-name="Etatonos" unicode="&#x389;" horiz-adv-x="859" 
d="M557 599c0 24 -9 38 -24 47c-9 5 -20 8 -32 9v38h316v-38c-13 -1 -24 -3 -33 -8c-15 -8 -23 -24 -23 -48v-505c0 -24 9 -38 24 -47c9 -5 20 -8 32 -9v-38h-316v38c13 1 24 3 33 8c15 8 23 24 23 48v244h-255v-244c0 -24 9 -38 24 -47c9 -5 20 -8 32 -9v-38h-316v38
c13 1 24 3 33 8c15 8 23 24 23 48v505c0 24 -9 38 -24 47c-9 5 -20 8 -32 9v38h316v-38c-13 -1 -24 -3 -33 -8c-15 -8 -23 -24 -23 -48v-212h255v212zM2 683c-5 -65 -51 -167 -81 -210h-51l-4 10c15 47 28 128 28 211h104z" />
    <glyph glyph-name="Theta" unicode="&#x398;" horiz-adv-x="816" 
d="M426 377c31 0 43 8 50 27c3 9 3 26 6 49h41v-219h-41c-1 15 -2 38 -6 49c-7 20 -21 27 -50 27h-36c-29 0 -43 -7 -50 -27c-4 -11 -5 -34 -6 -49h-41v219h41c3 -23 3 -40 6 -49c7 -19 19 -27 50 -27h36zM781 352c0 -222 -161 -367 -381 -367c-205 0 -365 127 -365 356
c0 235 167 368 377 368c213 0 369 -138 369 -357zM563 339c0 182 -21 325 -156 325c-139 0 -154 -147 -154 -310c0 -197 23 -322 151 -322c146 0 159 161 159 307z" />
    <glyph glyph-name="Iota" unicode="&#x399;" horiz-adv-x="400" 
d="M302 94c0 -24 9 -38 24 -47c9 -5 20 -8 32 -9v-38h-316v38c13 1 24 3 33 8c15 8 23 24 23 48v505c0 24 -9 38 -24 47c-9 5 -20 8 -32 9v38h316v-38c-13 -1 -24 -3 -33 -8c-15 -8 -23 -24 -23 -48v-505z" />
    <glyph glyph-name="Iotatonos" unicode="&#x38a;" horiz-adv-x="400" 
d="M302 94c0 -24 9 -38 24 -47c9 -5 20 -8 32 -9v-38h-316v38c13 1 24 3 33 8c15 8 23 24 23 48v505c0 24 -9 38 -24 47c-9 5 -20 8 -32 9v38h316v-38c-13 -1 -24 -3 -33 -8c-15 -8 -23 -24 -23 -48v-505zM2 683c-5 -65 -51 -167 -81 -210h-51l-4 10c15 47 28 128 28 211
h104z" />
    <glyph glyph-name="Iotadieresis" unicode="&#x3aa;" horiz-adv-x="400" 
d="M302 94c0 -24 9 -38 24 -47c9 -5 20 -8 32 -9v-38h-316v38c13 1 24 3 33 8c15 8 23 24 23 48v505c0 24 -9 38 -24 47c-9 5 -20 8 -32 9v38h316v-38c-13 -1 -24 -3 -33 -8c-15 -8 -23 -24 -23 -48v-505zM16 817c0 57 39 76 84 76s84 -19 84 -76c0 -59 -39 -77 -84 -77
s-84 18 -84 77zM219 817c0 57 39 76 84 76s84 -19 84 -76c0 -59 -39 -77 -84 -77s-84 18 -84 77z" />
    <glyph glyph-name="Kappa" unicode="&#x39a;" horiz-adv-x="760" 
d="M302 94c0 -23 9 -40 24 -47c10 -5 21 -8 32 -9v-38h-316v38c13 1 24 3 33 8c15 8 23 24 23 48v505c0 23 -9 40 -24 47c-10 5 -21 8 -32 9v38h316v-38c-13 -1 -24 -3 -33 -8c-15 -8 -23 -24 -23 -48v-505zM325 326l177 201c23 25 39 46 39 69c0 31 -19 55 -75 58v39h290
v-39c-51 -7 -98 -30 -142 -77l-136 -144l184 -305c31 -53 67 -82 108 -89l-3 -39h-259l-183 319v7z" />
    <glyph glyph-name="Lambda" unicode="&#x39b;" horiz-adv-x="715" 
d="M288 531l-166 -437c-9 -24 2 -42 29 -49c9 -3 34 -4 57 -7v-38h-224v38c15 1 26 6 37 11c19 8 31 20 40 45l249 612h107l230 -612c9 -27 19 -37 38 -46c11 -5 19 -9 34 -10v-38h-339v38c19 1 33 5 43 10c20 11 27 26 20 46z" />
    <glyph glyph-name="Mu" unicode="&#x39c;" horiz-adv-x="937" 
d="M476 342l170 351h250v-38c-13 -1 -24 -3 -33 -8c-15 -8 -23 -24 -23 -48v-505c0 -24 9 -38 24 -47c9 -5 20 -8 32 -9v-38h-316v38c13 1 24 3 33 8c15 8 23 24 23 48v429l-201 -406h-47l-205 406v-391c0 -39 12 -61 32 -74c17 -11 38 -18 64 -21v-37h-261v37
c21 3 40 8 57 17c23 12 39 35 39 78v408c0 35 -7 62 -21 81c-15 20 -39 32 -70 36v36h278z" />
    <glyph glyph-name="Nu" unicode="&#x39d;" horiz-adv-x="803" 
d="M563 -4l-378 508v-372c0 -39 12 -61 32 -74c17 -11 38 -18 64 -21v-37h-261v37c21 3 40 8 57 17c23 12 39 35 39 78v408c0 69 -27 108 -91 117v36h275l328 -427v295c0 39 -12 61 -32 74c-17 11 -38 18 -64 21v37h261v-37c-21 -3 -40 -8 -57 -17c-23 -12 -39 -35 -39 -78
v-565h-134z" />
    <glyph glyph-name="Xi" unicode="&#x39e;" horiz-adv-x="654" 
d="M597 0h-540l-13 234l32 4c43 -83 70 -94 169 -94h164c99 0 137 21 169 94l32 -4zM248 551c-87 0 -125 -25 -146 -101h-36v243h522v-243h-36c-19 77 -59 101 -146 101h-158zM385 380c31 0 43 8 50 27c3 9 3 26 6 49h41v-222h-41c-1 15 -2 38 -6 49c-7 20 -21 27 -50 27
h-116c-29 0 -43 -7 -50 -27c-4 -11 -5 -34 -6 -49h-41v222h41c3 -23 3 -40 6 -49c7 -19 19 -27 50 -27h116z" />
    <glyph glyph-name="Omicron" unicode="&#x39f;" horiz-adv-x="816" 
d="M781 352c0 -222 -161 -367 -381 -367c-205 0 -365 127 -365 356c0 235 167 368 377 368c213 0 369 -138 369 -357zM563 339c0 182 -21 325 -156 325c-139 0 -154 -147 -154 -310c0 -197 23 -322 151 -322c146 0 159 161 159 307z" />
    <glyph glyph-name="Omicrontonos" unicode="&#x38c;" horiz-adv-x="813" 
d="M779 352c0 -222 -161 -367 -381 -367c-205 0 -365 127 -365 356c0 235 167 368 377 368c213 0 369 -138 369 -357zM561 339c0 182 -21 325 -156 325c-139 0 -154 -147 -154 -310c0 -197 23 -322 151 -322c146 0 159 161 159 307zM69 683c-5 -65 -51 -167 -81 -210h-51
l-4 10c15 47 28 128 28 211h104z" />
    <glyph glyph-name="Rho" unicode="&#x3a1;" horiz-adv-x="679" 
d="M302 273v-179c0 -24 9 -38 24 -47c9 -5 20 -8 32 -9v-38h-316v38c13 1 24 3 33 8c15 8 23 24 23 48v505c0 24 -9 38 -24 47c-9 5 -20 8 -32 9v38h383c121 0 243 -57 243 -197c0 -144 -127 -223 -257 -223h-109zM302 638v-310h45c92 0 121 67 121 158
c0 87 -28 152 -105 152h-61z" />
    <glyph glyph-name="Pi" unicode="&#x3a0;" horiz-adv-x="839" 
d="M42 693h755v-38c-13 -1 -24 -3 -33 -8c-15 -8 -23 -24 -23 -48v-505c0 -24 9 -38 24 -47c9 -5 20 -8 32 -9v-38h-316v38c13 1 24 3 33 8c15 8 23 24 23 48v550h-235v-550c0 -24 9 -38 24 -47c9 -5 20 -8 32 -9v-38h-316v38c13 1 24 3 33 8c15 8 23 24 23 48v505
c0 24 -9 38 -24 47c-9 5 -20 8 -32 9v38z" />
    <glyph glyph-name="Sigma" unicode="&#x3a3;" horiz-adv-x="643" 
d="M244 311l-217 349l17 33h526v-177h-46c-25 96 -73 122 -136 122h-135l146 -248l-211 -246h213c98 0 122 -2 159 113l42 -4l-13 -253h-550l-18 35z" />
    <glyph glyph-name="Tau" unicode="&#x3a4;" horiz-adv-x="704" 
d="M453 648v-554c0 -24 9 -38 24 -47c9 -5 20 -8 32 -9v-38h-316v38c13 1 24 3 33 8c15 8 23 24 23 48v554h-19c-96 0 -152 -76 -176 -172h-36v217h668v-217h-36c-24 96 -80 172 -176 172h-21z" />
    <glyph glyph-name="Upsilon" unicode="&#x3a5;" horiz-adv-x="702" 
d="M294 595c0 -9 3 -19 8 -30l115 -222l114 216c8 16 12 30 12 41c0 35 -33 51 -76 52v41h245v-40c-39 -4 -73 -20 -94 -57l-164 -291v-211c0 -24 9 -38 24 -47c9 -5 20 -8 32 -9v-38h-316v38c13 1 24 3 33 8c15 8 23 24 23 48v200l-168 302c-20 36 -43 49 -86 56v41h376
v-41c-56 -7 -78 -29 -78 -57z" />
    <glyph glyph-name="Upsilondieresis" unicode="&#x3ab;" horiz-adv-x="702" 
d="M294 595c0 -9 3 -19 8 -30l115 -222l114 216c8 16 12 30 12 41c0 35 -33 51 -76 52v41h245v-40c-39 -4 -73 -20 -94 -57l-164 -291v-211c0 -24 9 -38 24 -47c9 -5 20 -8 32 -9v-38h-316v38c13 1 24 3 33 8c15 8 23 24 23 48v200l-168 302c-20 36 -43 49 -86 56v41h376
v-41c-56 -7 -78 -29 -78 -57zM165 817c0 57 39 76 84 76s84 -19 84 -76c0 -59 -39 -77 -84 -77s-84 18 -84 77zM368 817c0 57 39 76 84 76s84 -19 84 -76c0 -59 -39 -77 -84 -77s-84 18 -84 77z" />
    <glyph glyph-name="Upsilontonos" unicode="&#x38e;" horiz-adv-x="702" 
d="M294 595c0 -9 3 -19 8 -30l115 -222l114 216c8 16 12 30 12 41c0 35 -33 51 -76 52v41h245v-40c-39 -4 -73 -20 -94 -57l-164 -291v-211c0 -24 9 -38 24 -47c9 -5 20 -8 32 -9v-38h-316v38c13 1 24 3 33 8c15 8 23 24 23 48v200l-168 302c-20 36 -43 49 -86 56v41h376
v-41c-56 -7 -78 -29 -78 -57zM-28 683c-5 -65 -51 -167 -81 -210h-51l-4 10c15 47 28 128 28 211h104z" />
    <glyph glyph-name="Phi" unicode="&#x3a6;" horiz-adv-x="975" 
d="M587 607c255 0 372 -100 372 -252c0 -162 -108 -265 -372 -268v-3c0 -24 9 -38 24 -47c9 -5 20 -8 32 -9v-38h-311v38c13 1 24 3 33 8c15 8 23 24 23 48v3c-255 0 -372 100 -372 252c0 160 108 265 372 268v2c0 24 -9 38 -24 47c-9 5 -20 8 -32 9v38h311v-38
c-13 -1 -24 -3 -33 -8c-15 -8 -23 -24 -23 -48v-2zM232 345c0 -122 43 -210 156 -213v430c-120 -5 -156 -107 -156 -217zM743 349c0 120 -43 210 -156 213v-430c120 3 156 106 156 217z" />
    <glyph glyph-name="Chi" unicode="&#x3a7;" horiz-adv-x="707" 
d="M-1 693h366v-41c-36 0 -61 -15 -61 -40c0 -10 4 -20 11 -31l89 -136l91 116c14 18 21 34 21 48c0 25 -23 40 -60 43v41h239v-41c-35 -7 -66 -29 -102 -69l-154 -190l195 -296c19 -29 47 -49 76 -56v-41h-376v41c56 5 88 18 88 42c0 8 -4 18 -12 29l-107 161l-106 -144
c-12 -15 -18 -29 -18 -41c0 -25 20 -41 61 -47v-41h-238v41c40 11 74 43 105 75l162 210l-178 270c-25 39 -59 53 -92 56v41z" />
    <glyph glyph-name="Psi" unicode="&#x3a8;" horiz-adv-x="947" 
d="M576 274c88 27 121 90 121 186v233h250v-38c-48 -3 -56 -30 -56 -65v-138c0 -143 -150 -212 -315 -228v-130c0 -24 9 -38 24 -47c9 -5 20 -8 32 -9v-38h-316v38c13 1 24 3 33 8c15 8 23 24 23 48v130c-175 16 -316 82 -316 228v139c0 36 -13 61 -56 64v38h250v-233
c0 -96 34 -159 122 -186v325c0 24 -9 38 -24 47c-9 5 -20 8 -32 9v38h316v-38c-13 -1 -24 -3 -33 -8c-15 -8 -23 -24 -23 -48v-325z" />
    <glyph glyph-name="Omega" unicode="&#x2126;" horiz-adv-x="858" 
d="M801 405c0 -167 -148 -233 -273 -273v-30h116c67 0 108 21 135 99h32v-201h-323v137c67 92 96 155 96 272c0 118 -28 254 -156 254s-154 -135 -154 -260c0 -102 17 -159 97 -266v-137h-324v201h32c20 -75 67 -99 135 -99h112v30c-140 40 -270 106 -270 266
c0 164 136 311 379 311c249 0 366 -155 366 -304z" />
    <glyph glyph-name="_3" unicode="&#x3a9;" horiz-adv-x="858" 
d="M801 405c0 -167 -148 -233 -273 -273v-30h116c67 0 108 21 135 99h32v-201h-323v137c67 92 96 155 96 272c0 118 -28 254 -156 254s-154 -135 -154 -260c0 -102 17 -159 97 -266v-137h-324v201h32c20 -75 67 -99 135 -99h112v30c-140 40 -270 106 -270 266
c0 164 136 311 379 311c249 0 366 -155 366 -304z" />
    <glyph glyph-name="Omegatonos" unicode="&#x38f;" horiz-adv-x="858" 
d="M801 405c0 -167 -148 -233 -273 -273v-30h116c67 0 108 21 135 99h32v-201h-323v137c67 92 96 155 96 272c0 118 -28 254 -156 254s-154 -135 -154 -260c0 -102 17 -159 97 -266v-137h-324v201h32c20 -75 67 -99 135 -99h112v30c-140 40 -270 106 -270 266
c0 164 136 311 379 311c249 0 366 -155 366 -304zM85 683c-5 -65 -51 -167 -81 -210h-51l-4 10c15 47 28 128 28 211h104z" />
    <glyph glyph-name="alpha" unicode="&#x3b1;" horiz-adv-x="650" 
d="M488 -15c-93 0 -113 41 -113 99v37c-41 -91 -99 -136 -176 -136c-112 0 -168 96 -168 233c0 146 115 297 246 297c66 0 119 -19 160 -56l100 56h59l-30 -177v-230c0 -49 10 -62 49 -62c5 -1 11 0 18 0l1 -23c-27 -15 -79 -38 -146 -38zM316 130c21 0 35 -2 59 11v207
c-31 51 -61 84 -90 84c-40 0 -71 -45 -71 -145c0 -92 42 -157 102 -157z" />
    <glyph glyph-name="alphatonos" unicode="&#x3ac;" horiz-adv-x="650" 
d="M488 -15c-93 0 -113 41 -113 99v37c-41 -91 -99 -136 -176 -136c-112 0 -168 96 -168 233c0 146 115 297 246 297c66 0 119 -19 160 -56l100 56h59l-30 -177v-230c0 -49 10 -62 49 -62c5 -1 11 0 18 0l1 -23c-27 -15 -79 -38 -146 -38zM316 130c21 0 35 -2 59 11v207
c-31 51 -61 84 -90 84c-40 0 -71 -45 -71 -145c0 -92 42 -157 102 -157zM463 733l-115 -190h-42l-4 10l39 191h118z" />
    <glyph glyph-name="beta" unicode="&#x3b2;" horiz-adv-x="654" 
d="M379 -15c-45 0 -81 3 -120 16v-218h-191v703c0 156 142 273 290 273c152 0 240 -74 240 -179c0 -89 -57 -140 -174 -171c120 -21 202 -102 202 -214c0 -135 -139 -210 -247 -210zM259 78c27 -17 54 -25 79 -25c53 0 94 39 94 130c0 67 -41 115 -122 142l-18 74
c80 40 115 93 115 178c0 63 -26 116 -74 116c-64 0 -74 -81 -74 -157v-458z" />
    <glyph glyph-name="gamma" unicode="&#x3b3;" horiz-adv-x="590" 
d="M478 515c67 0 82 -38 82 -82c0 -94 -42 -183 -189 -365c8 -49 12 -97 13 -144c2 -47 1 -94 -3 -141h-179c3 115 13 189 29 256l-148 319c-29 64 -41 77 -89 72v39c40 24 103 46 154 46c70 0 95 -35 119 -102l92 -279c75 153 36 241 36 297c0 47 27 84 83 84z" />
    <glyph glyph-name="delta" unicode="&#x3b4;" horiz-adv-x="607" 
d="M72 558c0 91 110 201 257 201c154 0 246 -57 246 -121c0 -55 -30 -79 -73 -79c-103 0 -93 150 -193 150c-61 0 -80 -38 -80 -73c0 -133 350 -133 350 -377c0 -133 -132 -274 -287 -274c-127 0 -264 62 -264 202c0 88 44 156 148 207c-59 41 -104 89 -104 164zM408 156
c0 106 -100 156 -191 212c-16 -44 -23 -88 -23 -129c0 -108 44 -196 119 -196c65 0 95 50 95 113z" />
    <glyph glyph-name="epsilon" unicode="&#x3b5;" horiz-adv-x="547" 
d="M268 -15c-108 0 -238 33 -238 133c0 64 43 114 132 142c-73 19 -116 56 -116 107c0 81 111 148 271 148c92 0 207 -25 207 -88c0 -35 -26 -70 -70 -70c-69 0 -70 90 -142 90c-33 0 -70 -19 -70 -72c0 -37 17 -60 46 -81c16 3 101 14 117 14c4 -9 6 -20 6 -33
c0 -19 -4 -39 -11 -51c-16 0 -119 13 -133 16c-19 -8 -34 -28 -34 -52c0 -49 51 -81 131 -81c37 0 103 10 152 26l1 -58c-56 -52 -142 -90 -249 -90z" />
    <glyph glyph-name="epsilontonos" unicode="&#x3ad;" horiz-adv-x="547" 
d="M268 -15c-108 0 -238 33 -238 133c0 64 43 114 132 142c-73 19 -116 56 -116 107c0 81 111 148 271 148c92 0 207 -25 207 -88c0 -35 -26 -70 -70 -70c-69 0 -70 90 -142 90c-33 0 -70 -19 -70 -72c0 -37 17 -60 46 -81c16 3 101 14 117 14c4 -9 6 -20 6 -33
c0 -19 -4 -39 -11 -51c-16 0 -119 13 -133 16c-19 -8 -34 -28 -34 -52c0 -49 51 -81 131 -81c37 0 103 10 152 26l1 -58c-56 -52 -142 -90 -249 -90zM408 733l-115 -190h-42l-4 10l39 191h118z" />
    <glyph glyph-name="zeta" unicode="&#x3b6;" horiz-adv-x="454" 
d="M69 744h362v-149c-160 -137 -246 -250 -246 -346c0 -67 41 -81 105 -105c82 -29 160 -41 160 -144c0 -83 -57 -158 -100 -217h-73c29 45 58 91 58 127c0 27 -16 51 -63 70c-75 29 -241 57 -241 210c0 132 121 269 277 372h-289v27z" />
    <glyph glyph-name="eta" unicode="&#x3b7;" horiz-adv-x="673" 
d="M82 0v395c0 32 -4 42 -37 43c-9 0 -20 0 -33 -1v35c46 16 136 43 194 43c55 0 67 -17 67 -64v-37c53 59 119 101 195 101c111 0 144 -59 144 -183v-549h-191v494c0 77 -2 130 -79 130c-23 0 -42 -3 -69 -14v-393h-191z" />
    <glyph glyph-name="etatonos" unicode="&#x3ae;" horiz-adv-x="673" 
d="M82 0v395c0 32 -4 42 -37 43c-9 0 -20 0 -33 -1v35c46 16 136 43 194 43c55 0 67 -17 67 -64v-37c53 59 119 101 195 101c111 0 144 -59 144 -183v-549h-191v494c0 77 -2 130 -79 130c-23 0 -42 -3 -69 -14v-393h-191zM461 733l-115 -190h-42l-4 10l39 191h118z" />
    <glyph glyph-name="theta" unicode="&#x3b8;" horiz-adv-x="638" 
d="M604 393c0 -244 -109 -408 -297 -408c-155 0 -271 114 -271 357c0 260 131 417 307 417c160 0 261 -130 261 -366zM236 351c3 -172 24 -308 86 -308c59 0 82 123 82 308h-168zM316 701c-60 0 -80 -141 -80 -296h167c-5 163 -29 296 -87 296z" />
    <glyph glyph-name="iota" unicode="&#x3b9;" horiz-adv-x="346" 
d="M255 500v-382c0 -41 21 -55 56 -59c9 -1 20 -1 31 -1l1 -33c-28 -19 -79 -40 -146 -40c-93 0 -133 40 -133 99v416h191z" />
    <glyph glyph-name="iotadieresis" unicode="&#x3ca;" horiz-adv-x="346" 
d="M255 500v-382c0 -41 21 -55 56 -59c9 -1 20 -1 31 -1l1 -33c-28 -19 -79 -40 -146 -40c-93 0 -133 40 -133 99v416h191zM-21 670c0 57 39 76 84 76s84 -19 84 -76c0 -59 -39 -77 -84 -77s-84 18 -84 77zM182 670c0 57 39 76 84 76s84 -19 84 -76c0 -59 -39 -77 -84 -77
s-84 18 -84 77z" />
    <glyph glyph-name="iotadieresistonos" unicode="&#x390;" horiz-adv-x="346" 
d="M255 500v-382c0 -41 21 -55 56 -59c9 -1 20 -1 31 -1l1 -33c-28 -19 -79 -40 -146 -40c-93 0 -133 40 -133 99v416h191zM272 856l-92 -137h-32l-4 10l6 138h118zM-21 660c0 57 39 76 84 76s84 -19 84 -76c0 -59 -39 -77 -84 -77s-84 18 -84 77zM182 660c0 57 39 76 84 76
s84 -19 84 -76c0 -59 -39 -77 -84 -77s-84 18 -84 77z" />
    <glyph glyph-name="iotatonos" unicode="&#x3af;" horiz-adv-x="346" 
d="M255 500v-382c0 -41 21 -55 56 -59c9 -1 20 -1 31 -1l1 -33c-28 -19 -79 -40 -146 -40c-93 0 -133 40 -133 99v416h191zM278 733l-115 -190h-42l-4 10l39 191h118z" />
    <glyph glyph-name="kappa" unicode="&#x3ba;" horiz-adv-x="658" 
d="M86 0v386c0 35 -16 42 -39 43c-11 1 -23 0 -36 -1v44c46 16 121 43 179 43c55 0 87 -27 87 -74v-441h-191zM282 262l87 111c71 89 120 142 179 142c47 0 76 -26 76 -73c0 -57 -38 -71 -71 -74c-36 -3 -95 16 -130 -19l-7 -7l128 -212c23 -37 53 -59 94 -75v-35
c-19 -19 -67 -35 -115 -35c-68 0 -111 38 -136 82l-105 186v9z" />
    <glyph glyph-name="lambda" unicode="&#x3bb;" horiz-adv-x="554" 
d="M440 198c27 -65 45 -78 80 -78c11 0 19 1 28 2v-117c-19 -11 -39 -16 -67 -16c-56 0 -84 34 -108 121l-48 173l-117 -283h-211l254 544c-29 77 -76 92 -183 92c-53 0 -76 28 -76 67c0 33 22 56 79 56c132 0 205 -149 234 -221z" />
    <glyph glyph-name="mu" unicode="&#xb5;" horiz-adv-x="671" 
d="M590 500v-392c0 -56 15 -65 67 -62l1 -23c-27 -15 -79 -38 -146 -38c-90 0 -113 38 -113 93c-52 -58 -100 -93 -181 -93c-22 0 -42 3 -60 8c56 -51 101 -108 101 -196v-14h-191v717h191v-285c0 -68 17 -113 92 -113c15 0 29 1 48 8v390h191z" />
    <glyph glyph-name="_4" unicode="&#x3bc;" horiz-adv-x="695" 
d="M599 500v-392c0 -56 15 -65 67 -62l1 -23c-27 -15 -79 -38 -146 -38c-90 0 -113 38 -113 93c-52 -58 -100 -93 -181 -93c-22 0 -42 3 -60 8c56 -51 101 -108 101 -196v-14h-191v717h191v-285c0 -68 17 -113 92 -113c15 0 29 1 48 8v390h191z" />
    <glyph glyph-name="nu" unicode="&#x3bd;" horiz-adv-x="585" 
d="M486 515c67 0 82 -38 82 -82c0 -68 -52 -209 -252 -441h-85l-140 366c-27 67 -41 77 -89 72v39c40 24 103 46 154 46c70 0 95 -35 119 -102l91 -279c77 152 37 241 37 297c0 47 27 84 83 84z" />
    <glyph glyph-name="xi" unicode="&#x3be;" horiz-adv-x="459" 
d="M199 307c-8 -16 -12 -41 -12 -56c0 -51 48 -87 104 -107c82 -29 160 -41 160 -144c0 -83 -57 -158 -100 -217h-73c29 45 58 91 58 127c0 27 -16 51 -63 70c-75 29 -241 57 -241 210c0 59 54 114 138 141c-67 23 -95 59 -95 102c0 67 69 106 174 129h-229v27l50 155h362
v-149c-85 -21 -221 -87 -221 -189c0 -17 4 -34 12 -53c47 15 89 23 145 26c1 -9 2 -20 2 -33c0 -21 -2 -44 -7 -63c-57 1 -121 9 -164 24z" />
    <glyph glyph-name="omicron" unicode="&#x3bf;" horiz-adv-x="627" 
d="M597 275c0 -163 -108 -290 -301 -290c-151 0 -267 79 -267 244c0 176 131 286 310 286c157 0 258 -84 258 -240zM397 241c0 131 -24 216 -90 216c-61 0 -78 -73 -78 -189c0 -130 20 -225 88 -225c56 0 80 67 80 198z" />
    <glyph glyph-name="omicrontonos" unicode="&#x3cc;" horiz-adv-x="627" 
d="M597 275c0 -163 -108 -290 -301 -290c-151 0 -267 79 -267 244c0 176 131 286 310 286c157 0 258 -84 258 -240zM397 241c0 131 -24 216 -90 216c-61 0 -78 -73 -78 -189c0 -130 20 -225 88 -225c56 0 80 67 80 198zM437 733l-115 -190h-42l-4 10l39 191h118z" />
    <glyph glyph-name="pi" unicode="&#x3c0;" horiz-adv-x="695" 
d="M128 0v318h-102v30l50 152h573v-182h-91v-208c0 -57 33 -62 85 -59l1 -23c-18 -16 -74 -43 -125 -43c-75 0 -102 42 -102 99v234h-148v-318h-141z" />
    <glyph glyph-name="rho" unicode="&#x3c1;" horiz-adv-x="614" 
d="M42 -217v434c0 162 152 298 314 298c140 0 228 -100 228 -246c0 -176 -129 -284 -321 -284c-11 0 -19 1 -30 1v-203h-191zM233 55c23 -8 45 -13 62 -12c68 3 94 97 94 212c0 112 -23 194 -83 194c-51 0 -73 -62 -73 -158v-236z" />
    <glyph glyph-name="sigma" unicode="&#x3c3;" horiz-adv-x="618" 
d="M453 318c57 -36 84 -87 84 -138c0 -96 -95 -195 -263 -195c-156 0 -244 72 -244 225c0 163 118 290 386 290h199v-30l-47 -152h-115zM433 200c0 39 -7 78 -20 118c-148 0 -203 -36 -203 -135c0 -77 28 -140 103 -140c83 0 120 72 120 157z" />
    <glyph glyph-name="sigma1" unicode="&#x3c2;" horiz-adv-x="537" 
d="M30 229c0 157 102 286 299 286c124 0 184 -50 184 -115c0 -47 -25 -85 -76 -85c-121 0 -51 143 -143 143c-51 0 -91 -61 -91 -152c0 -93 47 -135 130 -159c123 -37 168 -63 168 -151c0 -87 -62 -162 -100 -213h-76c44 56 59 93 59 128c0 37 -29 54 -64 69
c-144 56 -290 61 -290 249z" />
    <glyph glyph-name="tau" unicode="&#x3c4;" horiz-adv-x="525" 
d="M55 500h445v-182h-206v-131c0 -72 43 -89 107 -89c23 0 44 2 79 9v-30c-34 -44 -91 -92 -177 -92c-96 0 -130 57 -130 145v188h-168v30z" />
    <glyph glyph-name="upsilon" unicode="&#x3c5;" horiz-adv-x="600" 
d="M469 193c0 141 -102 151 -102 236c0 48 31 86 84 86c85 0 116 -105 116 -212c0 -157 -66 -318 -261 -318c-148 0 -225 91 -225 259v142c0 35 -17 43 -42 44c-11 0 -21 -1 -33 -2v44c45 16 122 43 177 43c57 0 89 -27 89 -74v-197c0 -184 60 -204 100 -204
c86 0 97 97 97 153z" />
    <glyph glyph-name="upsilondieresis" unicode="&#x3cb;" horiz-adv-x="600" 
d="M469 193c0 141 -102 151 -102 236c0 48 31 86 84 86c85 0 116 -105 116 -212c0 -157 -66 -318 -261 -318c-148 0 -225 91 -225 259v142c0 35 -17 43 -42 44c-11 0 -21 -1 -33 -2v44c45 16 122 43 177 43c57 0 89 -27 89 -74v-197c0 -184 60 -204 100 -204
c86 0 97 97 97 153zM114 670c0 57 39 76 84 76s84 -19 84 -76c0 -59 -39 -77 -84 -77s-84 18 -84 77zM317 670c0 57 39 76 84 76s84 -19 84 -76c0 -59 -39 -77 -84 -77s-84 18 -84 77z" />
    <glyph glyph-name="upsilontonos" unicode="&#x3cd;" horiz-adv-x="600" 
d="M469 193c0 141 -102 151 -102 236c0 48 31 86 84 86c85 0 116 -105 116 -212c0 -157 -66 -318 -261 -318c-148 0 -225 91 -225 259v142c0 35 -17 43 -42 44c-11 0 -21 -1 -33 -2v44c45 16 122 43 177 43c57 0 89 -27 89 -74v-197c0 -184 60 -204 100 -204
c86 0 97 97 97 153zM440 733l-115 -190h-42l-4 10l39 191h118z" />
    <glyph glyph-name="upsilondieresistonos" unicode="&#x3b0;" horiz-adv-x="600" 
d="M469 193c0 141 -102 151 -102 236c0 48 31 86 84 86c85 0 116 -105 116 -212c0 -157 -66 -318 -261 -318c-148 0 -225 91 -225 259v142c0 35 -17 43 -42 44c-11 0 -21 -1 -33 -2v44c45 16 122 43 177 43c57 0 89 -27 89 -74v-197c0 -184 60 -204 100 -204
c86 0 97 97 97 153zM407 856l-92 -137h-32l-4 10l6 138h118zM114 660c0 57 39 76 84 76s84 -19 84 -76c0 -59 -39 -77 -84 -77s-84 18 -84 77zM317 660c0 57 39 76 84 76s84 -19 84 -76c0 -59 -39 -77 -84 -77s-84 18 -84 77z" />
    <glyph glyph-name="phi" unicode="&#x3c6;" horiz-adv-x="892" 
d="M522 744l3 -226c203 -13 337 -75 337 -249c0 -148 -102 -265 -328 -284l3 -202h-181l4 203c-196 13 -330 72 -330 243c0 152 105 268 340 289l4 226h148zM230 268c0 -107 20 -198 131 -230l8 428c-112 -21 -139 -93 -139 -198zM662 230c0 108 -24 204 -136 233l7 -427
c101 21 129 91 129 194z" />
    <glyph glyph-name="chi" unicode="&#x3c7;" horiz-adv-x="566" 
d="M270 291l93 209h203l-220 -394l48 -115c31 -73 68 -99 136 -99c13 0 28 1 44 3v-55c-21 -29 -57 -66 -113 -66c-59 0 -86 45 -142 176l-20 48l-89 -215h-212l219 390l4 9l-50 119c-35 80 -64 104 -125 104c-12 0 -32 0 -44 -3v74c31 23 71 39 114 39c47 0 69 -20 92 -73z
" />
    <glyph glyph-name="psi" unicode="&#x3c8;" horiz-adv-x="818" 
d="M681 193c0 141 -92 151 -92 236c0 48 31 86 84 86c85 0 106 -105 106 -212c0 -130 -68 -265 -243 -305l4 -215h-181l4 204c-210 13 -281 102 -281 257v142c0 32 -13 40 -36 43c-11 1 -24 0 -39 -1v44c47 17 112 43 168 43c57 0 79 -27 79 -74v-197
c0 -125 38 -174 110 -193l13 693h148l11 -700c108 18 145 102 145 149z" />
    <glyph glyph-name="omega" unicode="&#x3c9;" horiz-adv-x="820" 
d="M691 500c51 -51 97 -147 97 -252c0 -153 -90 -257 -233 -257c-83 0 -124 34 -151 93c-21 -51 -72 -93 -165 -93c-115 0 -206 66 -206 231c0 117 41 218 129 278h124c-43 -69 -58 -149 -58 -244c0 -103 21 -171 72 -171s63 45 71 77c-22 52 -31 150 -31 198
c15 8 39 11 64 11c27 0 50 -3 65 -11c0 -51 -7 -127 -31 -198c3 -19 10 -77 70 -77c51 0 83 59 83 175c0 71 -12 165 -41 240h141z" />
    <glyph glyph-name="omegatonos" unicode="&#x3ce;" horiz-adv-x="820" 
d="M691 500c51 -51 97 -147 97 -252c0 -153 -90 -257 -233 -257c-83 0 -124 34 -151 93c-21 -51 -72 -93 -165 -93c-115 0 -206 66 -206 231c0 117 41 218 129 278h124c-43 -69 -58 -149 -58 -244c0 -103 21 -171 72 -171s63 45 71 77c-22 52 -31 150 -31 198
c15 8 39 11 64 11c27 0 50 -3 65 -11c0 -51 -7 -127 -31 -198c3 -19 10 -77 70 -77c51 0 83 59 83 175c0 71 -12 165 -41 240h141zM528 733l-115 -190h-42l-4 10l39 191h118z" />
    <glyph glyph-name="acute" unicode="&#xb4;" horiz-adv-x="427" 
d="M380 733l-182 -167h-32l-4 10l66 168h148z" />
    <glyph glyph-name="grave" unicode="`" horiz-adv-x="427" 
d="M104 744h148l76 -168l-4 -10h-42l-182 167z" />
    <glyph glyph-name="circumflex" unicode="&#x2c6;" horiz-adv-x="502" 
d="M427 578l-4 -12h-80l-87 87l-79 -87h-44l-4 12l108 166h77z" />
    <glyph glyph-name="dieresis" unicode="&#xa8;" horiz-adv-x="477" 
d="M49 670c0 57 39 76 84 76s84 -19 84 -76c0 -59 -39 -77 -84 -77s-84 18 -84 77zM252 670c0 57 39 76 84 76s84 -19 84 -76c0 -59 -39 -77 -84 -77s-84 18 -84 77z" />
    <glyph glyph-name="tilde" unicode="&#x2dc;" horiz-adv-x="467" 
d="M380 719c0 -89 -36 -126 -89 -126s-101 29 -128 29c-15 0 -35 -6 -42 -33h-37c0 67 26 126 82 126c43 0 95 -28 134 -28c20 0 36 8 40 32h40z" />
    <glyph glyph-name="macron" unicode="&#xaf;" horiz-adv-x="316" 
d="M31 694h272v-70h-272v70z" />
    <glyph glyph-name="breve" unicode="&#x2d8;" horiz-adv-x="495" 
d="M402 731c-19 -91 -66 -146 -153 -146c-77 0 -134 49 -143 146h64c12 -43 51 -70 92 -70c44 0 85 27 100 70h40z" />
    <glyph glyph-name="dotaccent" unicode="&#x2d9;" horiz-adv-x="341" 
d="M79 676c0 63 42 83 91 83s91 -20 91 -83s-42 -83 -91 -83s-91 20 -91 83z" />
    <glyph glyph-name="ring" unicode="&#x2da;" horiz-adv-x="408" 
d="M318 666c0 -56 -43 -94 -108 -94s-108 38 -108 93c0 56 45 94 109 94c61 0 107 -37 107 -93zM255 665c0 35 -21 50 -46 50c-21 0 -43 -12 -43 -49c0 -35 21 -50 45 -50c23 0 44 13 44 49z" />
    <glyph glyph-name="cedilla" unicode="&#xb8;" horiz-adv-x="504" 
d="M365 -139c0 -56 -48 -87 -136 -87c-31 0 -55 3 -79 10v67c12 -4 46 -15 73 -15c20 0 36 6 36 26c0 23 -19 27 -38 27c-11 0 -20 -1 -27 -2v121h58v-66c52 0 113 -23 113 -81z" />
    <glyph glyph-name="hungarumlaut" unicode="&#x2dd;" horiz-adv-x="456" 
d="M271 733l-139 -174h-32l-4 10l33 175h138zM459 733l-167 -174h-32l-4 10l61 175h138z" />
    <glyph glyph-name="ogonek" unicode="&#x2db;" horiz-adv-x="585" 
d="M480 -217c-25 -5 -49 -8 -70 -8c-84 0 -122 44 -122 95c0 56 67 116 157 142l11 2c-41 -31 -56 -70 -56 -111c0 -37 12 -69 49 -69c7 0 19 1 31 4v-55z" />
    <glyph glyph-name="caron" unicode="&#x2c7;" horiz-adv-x="502" 
d="M309 566h-78l-112 168l4 10h80l87 -87l79 87h44l4 -10z" />
    <glyph glyph-name="_5" horiz-adv-x="315" 
d="M225 733c-5 -65 -51 -167 -81 -210h-51l-4 10c15 47 28 128 28 211h104z" />
    <glyph glyph-name="_6" horiz-adv-x="372" 
d="M312 862l-176 -129h-42l-4 10l72 130h146z" />
    <glyph glyph-name="_7" horiz-adv-x="392" 
d="M349 872c-21 -88 -78 -126 -153 -126c-64 0 -132 35 -143 126h64c12 -31 51 -50 92 -50c44 0 89 21 100 50h40z" />
    <glyph glyph-name="_8" horiz-adv-x="428" 
d="M241 729h-66l-125 138l4 10h72l101 -65l90 65h46l4 -10z" />
    <glyph glyph-name="_9" horiz-adv-x="428" 
d="M193 877h66l125 -138l-4 -10h-72l-101 65l-90 -65h-46l-4 10z" />
    <glyph glyph-name="_10" horiz-adv-x="433" 
d="M39 817c0 57 39 76 84 76s84 -19 84 -76c0 -59 -39 -77 -84 -77s-84 18 -84 77zM242 817c0 57 39 76 84 76s84 -19 84 -76c0 -59 -39 -77 -84 -77s-84 18 -84 77z" />
    <glyph glyph-name="_11" horiz-adv-x="270" 
d="M44 820c0 63 42 83 91 83s91 -20 91 -83s-42 -83 -91 -83s-91 20 -91 83z" />
    <glyph glyph-name="_12" horiz-adv-x="485" 
d="M262 862l-166 -129h-32l-4 10l72 130h126zM450 862l-196 -129h-42l-4 10l102 130h136z" />
    <glyph glyph-name="_13" horiz-adv-x="372" 
d="M74 873h146l72 -130l-4 -10h-42l-176 129z" />
    <glyph glyph-name="_14" horiz-adv-x="392" 
d="M60 829h272v-71h-272v71z" />
    <glyph glyph-name="_15" horiz-adv-x="470" 
d="M395 857c-7 -69 -36 -116 -100 -116c-53 0 -101 29 -128 29c-15 0 -35 -6 -42 -33h-49c4 64 33 114 101 114c42 0 88 -26 127 -26c20 0 36 8 40 32h51z" />
    <glyph glyph-name="_16" horiz-adv-x="427" 
d="M322 -135c0 -72 -71 -120 -124 -149l-23 29c35 24 66 52 66 79c-27 0 -55 17 -55 50c0 49 33 65 66 65c47 0 70 -30 70 -74z" />
    <glyph glyph-name="_17" horiz-adv-x="408" 
d="M318 815c0 -56 -43 -94 -108 -94s-108 38 -108 93c0 56 45 94 109 94c61 0 107 -37 107 -93zM245 814c0 35 -11 48 -36 48c-21 0 -34 -10 -34 -47c0 -35 12 -48 36 -48c23 0 34 11 34 47z" />
    <glyph glyph-name="_18" horiz-adv-x="588" 
d="M468 872c-16 -81 -72 -128 -173 -128c-92 0 -152 36 -175 128h120c4 -49 27 -77 62 -77c47 0 60 30 65 77h101z" />
    <glyph glyph-name="_19" horiz-adv-x="679" 
d="M520 731c-8 -84 -81 -146 -183 -146c-91 0 -177 49 -185 146h130c3 -56 27 -95 62 -95c47 0 60 42 65 95h111z" />
    <glyph glyph-name="tonos" unicode="&#x384;" horiz-adv-x="427" 
d="M315 733l-115 -190h-42l-4 10l39 191h118z" />
    <glyph glyph-name="dieresistonos" unicode="&#x385;" horiz-adv-x="477" 
d="M342 856l-92 -137h-32l-4 10l6 138h118zM49 660c0 57 39 76 84 76s84 -19 84 -76c0 -59 -39 -77 -84 -77s-84 18 -84 77zM252 660c0 57 39 76 84 76s84 -19 84 -76c0 -59 -39 -77 -84 -77s-84 18 -84 77z" />
    <glyph glyph-name="dotbelowcomb" unicode="&#x323;" horiz-adv-x="500" 
d="M137 -158c0 60 44 90 90 90s90 -30 90 -90s-44 -90 -90 -90s-90 30 -90 90z" />
    <glyph glyph-name="trademark" unicode="&#x2122;" horiz-adv-x="979" 
d="M920 759v-28c-8 -1 -14 -4 -19 -9s-7 -12 -8 -20v-240c0 -7 3 -13 8 -20c5 -5 11 -8 19 -9v-29h-174v29c9 1 16 4 20 8c5 5 8 12 8 21v206l-106 -206h-27l-109 206v-186c0 -15 5 -26 15 -35c9 -7 22 -12 37 -14v-29h-141v29c15 3 27 6 36 13c11 9 16 21 16 36v184
c0 17 -4 32 -11 43c-8 11 -20 19 -39 22v28h158l90 -173l87 173h140zM300 727v-265c0 -12 5 -19 12 -24c4 -2 9 -4 15 -5v-29h-174v29c7 1 11 1 15 4c8 5 12 13 12 25v265h-7c-55 0 -83 -35 -98 -84h-19v116h370v-116h-20c-15 49 -43 84 -98 84h-8z" />
    <glyph glyph-name="registered" unicode="&#xae;" horiz-adv-x="606" 
d="M303 243c-138 0 -254 91 -254 258s116 258 254 258s254 -91 254 -258s-116 -258 -254 -258zM303 294c119 0 197 70 197 207s-78 207 -197 207s-197 -70 -197 -207s78 -207 197 -207zM191 603c0 6 -2 10 -5 13c-3 4 -7 6 -14 7v21h155c47 0 97 -15 97 -69
c0 -31 -26 -52 -57 -65l60 -73c16 -19 23 -27 36 -28l-1 -22h-97l-72 109h-14v-68c0 -5 2 -10 5 -13s7 -6 14 -7v-21h-126v21c7 1 11 3 14 6s5 8 5 14v175zM279 616v-99h15c37 0 46 19 46 52c0 31 -13 47 -40 47h-21z" />
    <glyph glyph-name="copyright" unicode="&#xa9;" horiz-adv-x="688" 
d="M344 -10c-162 0 -298 107 -298 303c0 195 136 302 298 302c161 0 298 -107 298 -302c0 -196 -137 -303 -298 -303zM344 42c147 0 238 78 238 251c0 161 -90 251 -238 251c-139 0 -240 -78 -240 -251s104 -251 240 -251zM490 173c-35 -33 -82 -63 -154 -63
c-108 0 -170 64 -170 168c0 108 69 197 206 197c85 0 126 -35 126 -79c0 -32 -18 -59 -53 -59c-84 0 -34 99 -98 99c-35 0 -54 -58 -54 -122c0 -67 21 -120 98 -120c25 0 62 6 97 18z" />
    <glyph glyph-name="Euro" unicode="&#x20ac;" horiz-adv-x="759" 
d="M35 461h71c47 157 182 248 366 248c107 0 239 -36 239 -120c0 -49 -26 -65 -57 -65c-89 0 -77 140 -184 140c-120 0 -152 -92 -160 -203h197v-50h-200v-49c0 -21 0 -41 1 -60h199v-50h-196c13 -137 57 -222 170 -222c101 0 90 140 179 140c31 0 57 -16 57 -65
c0 -84 -132 -120 -239 -120c-187 0 -343 94 -380 267h-63v50h55c-1 11 -1 23 -1 36c0 25 2 50 5 73h-59v50z" />
    <glyph glyph-name="dollar" unicode="$" horiz-adv-x="624" 
d="M340 827v-119c107 0 237 -36 237 -120c0 -49 -26 -65 -57 -65c-85 0 -91 120 -180 133v-202l50 -15c137 -41 198 -116 198 -220c0 -137 -108 -215 -248 -231v-147h-55v144c-123 0 -252 44 -252 126c0 39 31 69 74 69c86 0 79 -128 178 -144v200l-38 12
c-101 32 -199 92 -199 224c0 123 88 214 237 233v122h55zM411 123c0 37 -23 71 -71 94v-178c41 11 71 41 71 84zM219 562c0 -41 22 -71 66 -90v180c-39 -13 -66 -47 -66 -90z" />
    <glyph glyph-name="cent" unicode="&#xa2;" horiz-adv-x="553" 
d="M329 645v-130h2c124 0 184 -50 184 -115c0 -47 -25 -85 -76 -85c-102 0 -70 101 -110 133v-339c9 -3 19 -2 30 -2c37 0 91 7 142 26l2 -57c-41 -40 -95 -77 -174 -88v-117h-55v114c-152 3 -242 97 -242 244c0 142 81 258 242 282v134h55zM216 282c0 -68 14 -122 58 -153
v323c-37 -21 -58 -93 -58 -170z" />
    <glyph glyph-name="sterling" unicode="&#xa3;" horiz-adv-x="662" 
d="M40 361h76v17c0 212 166 331 330 331c106 0 171 -48 171 -107c0 -41 -32 -71 -83 -71c-107 0 -83 133 -149 133c-51 0 -85 -76 -85 -224c0 -27 -1 -52 -5 -79h197v-50h-207c-13 -52 -37 -105 -84 -165h416l3 -10l-50 -136h-530l-7 35c93 112 91 196 86 276h-79v50z" />
    <glyph glyph-name="yen" unicode="&#xa5;" horiz-adv-x="774" 
d="M130 349h122l-137 247c-23 35 -43 49 -86 56v41h376v-41c-23 -3 -46 -4 -57 -7c-20 -5 -45 -23 -29 -49l128 -247h6l123 233c16 29 8 56 -19 63c-9 3 -34 4 -57 7v41h245v-35c-39 -4 -70 -27 -94 -62l-139 -247h138v-50h-163v-89h163v-50h-163v-66c0 -24 9 -38 24 -47
c9 -5 20 -8 32 -9v-38h-316v38c13 1 24 3 33 8c15 8 23 24 23 48v66h-153v50h153v84l-3 5h-150v50z" />
    <glyph glyph-name="currency" unicode="&#xa4;" horiz-adv-x="495" 
d="M452 111l-42 -42l-92 90c-21 -14 -45 -21 -71 -21c-24 0 -51 8 -71 21l-92 -91l-41 44l89 91c-12 20 -20 46 -20 70c0 25 7 49 20 70l-89 93l43 42l90 -91c17 12 51 21 71 21c25 0 53 -9 70 -20l91 90l44 -42l-91 -93c14 -21 21 -45 21 -70s-9 -53 -21 -70zM326 273
c0 44 -36 81 -79 81c-44 0 -79 -36 -79 -81c0 -44 35 -81 79 -81c43 0 79 37 79 81z" />
    <glyph glyph-name="uni00A0" unicode="&#xa0;" horiz-adv-x="240" 
 />
    <glyph glyph-name="uni03D0" unicode="&#x3d0;" horiz-adv-x="612" 
d="M303 -15c-151 0 -257 98 -257 364c0 276 110 410 294 410c156 0 230 -84 230 -186c0 -95 -64 -146 -168 -161c94 -11 181 -69 181 -192c0 -159 -103 -235 -280 -235zM311 41c51 0 73 52 73 169c0 111 -21 161 -98 161c-15 0 -28 -1 -40 -2c0 -217 6 -328 65 -328z
M315 704c-64 0 -69 -91 -69 -284c9 1 18 2 27 5c65 15 98 50 98 135c0 75 -5 144 -56 144z" />
    <glyph glyph-name="B" unicode="B" horiz-adv-x="733" 
d="M42 0v38c13 1 24 3 33 8c15 8 23 24 23 48v505c0 23 -9 40 -24 47c-10 5 -21 8 -32 9v38h338c194 0 280 -75 280 -167c0 -73 -65 -138 -173 -159v-4c147 -9 214 -70 214 -162c0 -128 -131 -201 -311 -201h-348zM489 194c0 71 -33 137 -178 137h-9v-277h21
c113 0 166 51 166 140zM302 639v-262c107 0 141 53 141 131c0 95 -48 131 -125 131h-16z" />
    <glyph glyph-name="A" unicode="A" horiz-adv-x="715" 
d="M391 240h-214l-55 -146c-9 -24 2 -42 29 -49c9 -3 34 -4 57 -7v-38h-224v38c15 1 26 6 37 11c19 8 31 20 40 45l249 612h107l230 -612c9 -27 19 -37 38 -46c11 -5 19 -9 34 -10v-38h-339v38c19 1 33 5 43 10c20 11 27 26 20 46zM197 293h175l-84 238z" />
    <glyph glyph-name="_20" horiz-adv-x="715" 
 />
    </font>
</defs>
</svg>
