<?xml version="1.0" standalone="no"?>
<!DOCTYPE svg PUBLIC "-//W3C//DTD SVG 1.1//EN" "http://www.w3.org/Graphics/SVG/1.1/DTD/svg11.dtd" >
<svg xmlns="http://www.w3.org/2000/svg" xmlns:xlink="http://www.w3.org/1999/xlink" version="1.1">
<metadata>
Created by FontForge 20190801 at Thu Sep 26 21:12:24 2013
 By Jimmy Wärting
Copyright 2013 Adobe Systems Incorporated. All rights reserved.
</metadata>
<defs>
<font id="Lava-Italic" horiz-adv-x="780" >
  <font-face 
    font-family="Lava"
    font-weight="400"
    font-style="italic"
    font-stretch="normal"
    units-per-em="1000"
    panose-1="2 0 0 0 0 0 0 0 0 0"
    ascent="744"
    descent="-256"
    x-height="494"
    cap-height="693"
    bbox="-190 -235 1160 1050"
    underline-thickness="0"
    underline-position="0"
    stemh="50"
    stemv="103"
    unicode-range="U+000D-FB02"
  />
<missing-glyph horiz-adv-x="712" 
d="M305 402h27v-27h-27v27zM380 552h27v-27h-27v27zM305 552h27v-27h-27v27zM230 552h27v-27h-27v27zM80 27h27v-27h-27v27zM155 27h27v-27h-27v27zM230 27h27v-27h-27v27zM305 27h27v-27h-27v27zM380 27h27v-27h-27v27zM80 102h27v-27h-27v27zM80 177h27v-27h-27v27z
M80 252h27v-27h-27v27zM80 327h27v-27h-27v27zM80 402h27v-27h-27v27zM80 477h27v-27h-27v27zM80 552h27v-27h-27v27zM80 627h27v-27h-27v27zM80 702h27v-27h-27v27zM155 702h27v-27h-27v27zM230 702h27v-27h-27v27zM305 702h27v-27h-27v27zM380 702h27v-27h-27v27zM455 702
h27v-27h-27v27zM530 702h27v-27h-27v27zM530 27h27v-27h-27v27zM455 27h27v-27h-27v27zM605 27h27v-27h-27v27zM605 702h27v-27h-27v27zM305 327h27v-27h-27v27zM305 177h27v-27h-27v27zM380 402h27v-27h-27v27zM455 402h27v-27h-27v27zM455 477h27v-27h-27v27zM455 552h27
v-27h-27v27zM605 627h27v-27h-27v27zM605 552h27v-27h-27v27zM605 402h27v-27h-27v27zM605 327h27v-27h-27v27zM605 177h27v-27h-27v27zM605 102h27v-27h-27v27zM605 252h27v-27h-27v27zM605 477h27v-27h-27v27z" />
    <glyph glyph-name=".notdef" horiz-adv-x="712" 
d="M305 402h27v-27h-27v27zM380 552h27v-27h-27v27zM305 552h27v-27h-27v27zM230 552h27v-27h-27v27zM80 27h27v-27h-27v27zM155 27h27v-27h-27v27zM230 27h27v-27h-27v27zM305 27h27v-27h-27v27zM380 27h27v-27h-27v27zM80 102h27v-27h-27v27zM80 177h27v-27h-27v27z
M80 252h27v-27h-27v27zM80 327h27v-27h-27v27zM80 402h27v-27h-27v27zM80 477h27v-27h-27v27zM80 552h27v-27h-27v27zM80 627h27v-27h-27v27zM80 702h27v-27h-27v27zM155 702h27v-27h-27v27zM230 702h27v-27h-27v27zM305 702h27v-27h-27v27zM380 702h27v-27h-27v27zM455 702
h27v-27h-27v27zM530 702h27v-27h-27v27zM530 27h27v-27h-27v27zM455 27h27v-27h-27v27zM605 27h27v-27h-27v27zM605 702h27v-27h-27v27zM305 327h27v-27h-27v27zM305 177h27v-27h-27v27zM380 402h27v-27h-27v27zM455 402h27v-27h-27v27zM455 477h27v-27h-27v27zM455 552h27
v-27h-27v27zM605 627h27v-27h-27v27zM605 552h27v-27h-27v27zM605 402h27v-27h-27v27zM605 327h27v-27h-27v27zM605 177h27v-27h-27v27zM605 102h27v-27h-27v27zM605 252h27v-27h-27v27zM605 477h27v-27h-27v27z" />
    <glyph glyph-name="uni000D" unicode="&#xd;" horiz-adv-x="268" 
 />
    <glyph glyph-name="space" unicode=" " horiz-adv-x="268" 
 />
    <glyph glyph-name="C" unicode="C" horiz-adv-x="673" 
d="M479 659c-209 0 -318 -266 -318 -441c0 -117 47 -183 156 -183c119 0 185 81 236 174h35l-38 -153c-67 -45 -156 -71 -240 -71c-169 0 -252 105 -252 255c0 227 188 469 445 469c72 0 144 -19 197 -54l-45 -179h-35c-5 108 -28 183 -141 183z" />
    <glyph glyph-name="D" unicode="D" horiz-adv-x="726" 
d="M697 454c0 -223 -176 -454 -432 -454h-284l11 41c24 1 44 2 59 6c19 5 33 21 40 50l124 499c7 28 2 45 -15 50c-11 4 -30 3 -57 6l10 41h296c167 0 248 -86 248 -239zM271 50c208 0 319 232 319 409c0 116 -47 184 -167 184h-102l-148 -593h98z" />
    <glyph glyph-name="E" unicode="E" horiz-adv-x="610" 
d="M-8 41c13 0 49 2 60 6c23 7 32 21 40 50l124 499c7 31 4 43 -15 50c-8 3 -34 3 -57 6l10 41h463l-21 -167h-36c-3 96 -29 117 -117 117h-122l-65 -260h101c31 0 46 8 57 27c5 9 13 36 20 59h41l-55 -222h-41c3 14 9 48 9 59c-1 20 -15 27 -44 27h-100l-71 -283h135
c98 0 131 33 198 148l31 -4l-64 -194h-492z" />
    <glyph glyph-name="F" unicode="F" horiz-adv-x="574" 
d="M216 596c7 31 4 43 -15 50c-8 3 -34 3 -57 6l10 41h483l-41 -167h-36c-3 96 -29 117 -117 117h-122l-69 -280h100c31 0 46 8 57 27c5 9 13 36 20 59h41l-55 -222h-41c3 14 9 48 9 59c-1 20 -15 27 -44 27h-100l-53 -216c-7 -31 -3 -43 14 -50c8 -3 35 -3 58 -6l-11 -41
h-266l11 41c13 0 49 2 60 6c23 7 32 21 40 50z" />
    <glyph glyph-name="G" unicode="G" horiz-adv-x="720" 
d="M559 42c-55 -32 -153 -60 -246 -57c-169 4 -255 102 -255 257c0 231 193 467 453 467c76 0 149 -19 201 -54l-45 -179h-35c-5 103 -26 183 -144 183c-209 0 -323 -258 -323 -438c0 -119 50 -186 170 -186c44 0 90 9 135 29l41 165c9 29 4 46 -14 50c-13 3 -48 3 -68 6
l11 41h252l-11 -41c-12 -1 -24 -2 -36 -6c-23 -7 -32 -19 -40 -50z" />
    <glyph glyph-name="H" unicode="H" 
d="M596 97c-8 -31 -3 -43 14 -50c8 -3 35 -3 58 -6l-11 -41h-266l11 41c13 0 49 2 60 6c23 7 32 21 40 50l59 237h-316l-59 -237c-8 -31 -3 -43 14 -50c8 -3 35 -3 58 -6l-11 -41h-266l11 41c13 0 49 2 60 6c23 7 32 21 40 50l124 499c7 31 4 43 -15 50c-8 3 -34 3 -57 6
l10 41h266l-10 -41c-13 0 -50 -3 -61 -6c-19 -5 -32 -22 -39 -50l-52 -209h316l52 209c7 31 4 43 -15 50c-8 3 -34 3 -57 6l10 41h266l-10 -41c-13 0 -50 -3 -61 -6c-19 -5 -32 -22 -39 -50z" />
    <glyph glyph-name="I" unicode="I" horiz-adv-x="370" 
d="M186 97c-8 -31 -3 -43 14 -50c8 -3 35 -3 58 -6l-11 -41h-266l11 41c13 0 49 2 60 6c23 7 32 21 40 50l124 499c7 31 4 43 -15 50c-8 3 -34 3 -57 6l10 41h266l-10 -41c-13 0 -50 -3 -61 -6c-19 -5 -32 -22 -39 -50z" />
    <glyph glyph-name="J" unicode="J" horiz-adv-x="354" 
d="M209 596c8 31 3 43 -14 50c-9 3 -35 3 -58 6l10 41h266l-10 -41c-13 0 -49 -3 -60 -6c-23 -7 -33 -21 -40 -50l-144 -577c-29 -120 -115 -245 -259 -245c-53 0 -78 22 -78 57c0 31 25 52 53 52c48 0 33 -59 72 -59c60 0 93 92 133 255z" />
    <glyph glyph-name="K" unicode="K" horiz-adv-x="678" 
d="M186 97c-8 -31 -3 -43 14 -50c8 -3 35 -3 58 -6l-11 -41h-266l11 41c13 0 49 2 60 6c23 7 32 21 40 50l124 499c7 31 4 43 -15 50c-8 3 -34 3 -57 6l10 41h266l-10 -41c-13 0 -50 -3 -61 -6c-19 -5 -32 -22 -39 -50zM279 345c96 72 187 174 235 219c16 15 40 42 45 61
c5 18 1 22 -55 27l10 41h254l-10 -41c-50 -4 -100 -29 -151 -75c-42 -37 -132 -128 -232 -220l114 -240c21 -44 49 -69 102 -77l-13 -40h-145l-155 338z" />
    <glyph glyph-name="L" unicode="L" horiz-adv-x="568" 
d="M51 47c23 7 32 21 40 50l124 499c7 31 4 43 -15 50c-8 3 -34 3 -57 6l10 41h266l-10 -41c-13 0 -50 -3 -61 -6c-19 -5 -32 -22 -39 -50l-137 -546h105c98 0 141 44 208 158l31 -4l-64 -204h-471l11 41c15 1 47 2 59 6z" />
    <glyph glyph-name="M" unicode="M" horiz-adv-x="922" 
d="M972 693l-10 -41c-13 0 -50 -3 -61 -6c-19 -5 -32 -22 -39 -50l-124 -499c-8 -31 -3 -43 14 -50c8 -3 35 -3 58 -6l-11 -41h-266l11 41c13 0 49 2 60 6c23 7 32 21 40 50l119 480l-333 -430h-34l-118 429l-111 -444c-9 -39 -3 -61 14 -74c14 -11 34 -18 59 -21l-10 -37
h-256l10 37c21 3 42 8 61 17c27 12 47 35 58 78l116 464c7 31 4 43 -15 50c-8 3 -34 3 -57 6l10 41h184l117 -423l334 423h180z" />
    <glyph glyph-name="N" unicode="N" horiz-adv-x="807" 
d="M581 173l97 388c11 39 4 61 -13 74c-14 11 -34 18 -59 21l9 37h256l-9 -37c-23 -3 -42 -8 -61 -17c-27 -12 -48 -35 -59 -78l-140 -565h-49l-279 562l-105 -426c-11 -39 -4 -61 13 -74c14 -11 34 -18 59 -21l-9 -37h-256l9 37c23 3 42 8 61 17c27 12 48 35 59 78l101 408
c17 69 1 108 -62 117l9 36h160z" />
    <glyph glyph-name="O" unicode="O" 
d="M753 449c0 -224 -192 -464 -445 -464c-164 0 -250 99 -250 256c0 224 189 468 442 468c168 0 253 -105 253 -260zM318 37c220 0 332 253 332 433c0 115 -46 189 -162 189c-221 0 -327 -263 -327 -440c0 -117 45 -182 157 -182z" />
    <glyph glyph-name="P" unicode="P" horiz-adv-x="594" 
d="M216 596c7 29 2 45 -15 50c-13 4 -29 3 -57 6l10 41h303c104 0 163 -49 163 -138c0 -141 -130 -262 -277 -262h-109l-48 -196c-7 -29 -3 -45 14 -50c15 -4 40 -3 68 -6l-11 -41h-276l11 41c19 1 45 2 60 6c19 5 33 21 40 50zM321 643l-74 -300h75c107 0 186 95 186 203
c0 60 -34 97 -95 97h-92z" />
    <glyph glyph-name="Q" unicode="Q" 
d="M753 449c0 -170 -108 -343 -269 -423c-29 -15 -60 -26 -93 -32c1 -26 3 -48 8 -67c18 -73 64 -93 116 -93c19 0 35 1 54 4l-2 -43c-55 -16 -91 -20 -130 -20c-87 0 -127 44 -143 136c-4 22 -7 47 -9 75c-71 4 -125 27 -164 68c-42 46 -63 108 -63 187
c0 224 189 468 442 468c168 0 253 -105 253 -260zM318 37c220 0 332 253 332 433c0 115 -46 189 -162 189c-221 0 -327 -263 -327 -440c0 -117 45 -182 157 -182z" />
    <glyph glyph-name="R" unicode="R" horiz-adv-x="666" 
d="M216 596c7 31 4 43 -15 50c-12 4 -30 3 -57 6l10 41h303c104 0 167 -40 167 -132c0 -114 -101 -210 -222 -232l106 -212c25 -53 55 -70 108 -77l-13 -40h-150l-149 325h-62l-56 -228c-7 -29 -3 -45 14 -50c15 -4 40 -3 68 -6l-11 -41h-276l11 41c17 1 45 2 60 6
c19 5 33 21 40 50zM321 643l-66 -268h75c104 0 181 76 181 174c0 65 -33 94 -98 94h-92z" />
    <glyph glyph-name="S" unicode="S" horiz-adv-x="591" 
d="M204 -15c-68 0 -140 16 -199 55l44 177h26c9 -125 65 -177 153 -177c91 0 177 56 177 141c0 59 -29 86 -93 114l-76 33c-69 31 -105 76 -105 151c0 141 133 229 283 229c67 0 131 -16 187 -55l-44 -179h-35c-1 128 -39 184 -127 184c-83 0 -171 -51 -171 -135
c0 -55 20 -83 83 -110l71 -31c71 -32 130 -73 130 -164c0 -146 -151 -233 -304 -233z" />
    <glyph glyph-name="T" unicode="T" horiz-adv-x="632" 
d="M452 643l-136 -546c-7 -29 -3 -45 14 -50c13 -4 29 -3 58 -6l-11 -41h-266l11 41c19 1 45 2 60 6c19 5 33 21 40 50l136 546h-55c-87 0 -127 -21 -175 -117h-36l41 167h568l-41 -167h-36c-3 96 -29 117 -117 117h-55z" />
    <glyph glyph-name="U" unicode="U" horiz-adv-x="758" 
d="M304 -14c-153 0 -236 73 -193 242l92 368c7 29 2 45 -15 50c-13 4 -41 5 -57 6l10 41h266l-10 -41c-31 -3 -46 -2 -61 -6c-17 -5 -30 -19 -37 -42l-92 -368c-32 -129 2 -198 123 -198c133 0 199 85 228 202l82 329c7 35 0 54 -15 66c-14 11 -34 18 -59 21l9 37h256
l-9 -37c-21 -3 -42 -8 -61 -17c-25 -12 -46 -33 -57 -72l-82 -328c-37 -152 -137 -253 -318 -253z" />
    <glyph glyph-name="V" unicode="V" horiz-adv-x="683" 
d="M273 598c0 -4 1 -11 1 -15l39 -439l273 424c13 19 19 35 19 48c0 25 -26 35 -73 36l10 41h233l-9 -36c-45 -7 -88 -39 -112 -78l-381 -592h-34l-65 609c-3 27 -10 38 -29 45c-11 4 -30 10 -43 11l10 41h271l-10 -41c-73 -5 -100 -13 -100 -54z" />
    <glyph glyph-name="W" unicode="W" horiz-adv-x="1028" 
d="M673 693l24 -533l232 407c12 21 18 37 18 49c0 24 -23 33 -74 36l10 41h233l-9 -37c-45 -7 -82 -30 -109 -74l-344 -595h-34l-39 567l-336 -567h-34l-35 609c-3 27 -10 38 -29 45c-11 4 -30 10 -43 11l10 41h271l-10 -41c-82 -5 -99 -13 -99 -61v-18l13 -414l314 534h70z
" />
    <glyph glyph-name="X" unicode="X" horiz-adv-x="663" 
d="M125 693h272l-10 -41c-55 -3 -77 -8 -77 -35c0 -9 4 -23 11 -42l60 -155l156 163c16 17 24 30 24 40c0 15 -21 25 -63 29l10 41h238l-10 -41c-40 -5 -92 -26 -133 -69l-203 -212l108 -274c15 -37 31 -49 72 -56l-11 -41h-275l11 41c76 7 101 18 101 45c0 7 -3 15 -6 23
l-72 187l-172 -180c-19 -19 -28 -35 -28 -46c0 -19 25 -26 62 -29l-11 -41h-237l11 41c45 5 105 43 137 75l219 229l-96 251c-16 37 -66 53 -98 56z" />
    <glyph glyph-name="Y" unicode="Y" horiz-adv-x="644" 
d="M281 604c0 -9 1 -19 5 -32l65 -227l191 237c12 15 18 27 18 37c0 27 -41 30 -76 33l10 41h241l-9 -35c-40 -4 -76 -27 -109 -62l-254 -305l-47 -194c-8 -31 -3 -43 14 -50c8 -3 35 -3 58 -6l-11 -41h-266l11 41c13 0 49 2 60 6c23 7 32 21 40 50l49 202l-96 297
c-13 35 -31 49 -72 56l10 41h276l-10 -41c-63 -5 -98 -8 -98 -48z" />
    <glyph glyph-name="Z" unicode="Z" horiz-adv-x="612" 
d="M537 212l-67 -212h-491v17l530 626h-154c-91 0 -145 -24 -204 -131l-32 2l56 179h472l3 -17l-532 -626h124c142 0 173 34 263 166z" />
    <glyph glyph-name="a" unicode="a" horiz-adv-x="544" 
d="M389 97c-5 -18 -3 -27 6 -27c14 0 50 27 76 50l16 -30c-65 -76 -122 -105 -153 -105c-35 0 -50 39 -35 84l38 124h-3c-72 -117 -147 -204 -219 -204c-55 0 -98 42 -98 134c0 159 132 372 320 372c29 0 52 -7 75 -18l62 18h15zM150 63c51 0 137 121 204 225l30 122
c-23 17 -51 31 -82 31c-132 0 -189 -203 -189 -305c0 -49 12 -73 37 -73z" />
    <glyph glyph-name="b" unicode="b" horiz-adv-x="520" 
d="M174 663c7 25 1 34 -14 34c-16 0 -43 -13 -71 -28v35c65 45 101 55 133 55c43 0 51 -26 40 -66l-93 -372h1c83 129 139 174 202 174c69 0 102 -55 102 -147c0 -176 -111 -362 -314 -362c-39 0 -97 11 -145 38zM328 411c-39 0 -99 -57 -183 -194l-39 -151
c25 -12 58 -22 93 -22c131 0 185 155 185 271c0 72 -16 96 -56 96z" />
    <glyph glyph-name="c" unicode="c" horiz-adv-x="436" 
d="M379 370c-29 0 -38 19 -47 38c-11 19 -21 38 -57 38c-110 0 -158 -175 -158 -286c0 -62 11 -114 83 -114c48 0 85 21 141 77l14 -33c-52 -63 -111 -106 -194 -106c-107 0 -138 72 -138 159c0 155 111 351 282 351c67 0 121 -27 121 -72c0 -24 -10 -52 -47 -52z" />
    <glyph glyph-name="d" unicode="d" horiz-adv-x="531" 
d="M378 97c-7 -23 0 -29 11 -26c17 4 46 28 71 49l11 -31c-65 -76 -114 -104 -145 -104c-35 0 -48 39 -35 84l35 118h-4c-71 -114 -144 -198 -215 -198c-48 0 -88 39 -88 131c0 160 122 375 310 375c24 0 46 -3 66 -10l44 178c7 25 1 34 -14 34c-17 0 -44 -15 -71 -28v35
c53 39 98 55 133 55c41 0 51 -26 40 -66zM142 63c52 0 136 119 203 223l32 130c-23 13 -51 25 -83 25c-132 0 -189 -203 -189 -305c0 -49 12 -73 37 -73z" />
    <glyph glyph-name="e" unicode="e" horiz-adv-x="460" 
d="M368 91c-52 -63 -120 -106 -203 -106c-106 0 -143 72 -143 158c0 149 113 352 291 352c61 0 125 -21 125 -92c0 -73 -67 -168 -318 -179c-3 -23 -4 -44 -4 -63c0 -62 16 -114 88 -114c48 0 94 21 150 77zM284 447c-86 0 -135 -92 -157 -184c204 21 215 99 215 126
c0 41 -21 58 -58 58z" />
    <glyph glyph-name="f" unicode="f" horiz-adv-x="323" 
d="M67 481h84l2 5c40 155 125 273 264 273c52 0 89 -20 89 -47s-15 -43 -42 -43c-32 0 -54 32 -95 32c-76 0 -95 -61 -122 -165l-14 -55h116l-12 -50h-117l-95 -383c-40 -156 -127 -273 -234 -273c-43 0 -79 21 -79 48c0 23 17 43 44 43s42 -33 83 -33c39 0 65 61 92 165
l108 433h-84z" />
    <glyph glyph-name="g" unicode="g" horiz-adv-x="478" 
d="M201 185c-21 0 -42 3 -61 8c-22 -21 -33 -39 -33 -56c0 -19 17 -32 50 -37l80 -12c93 -15 149 -40 149 -105c0 -108 -151 -209 -304 -209c-103 0 -155 49 -155 116c0 77 72 121 145 153c-31 15 -42 34 -42 58c0 44 44 79 85 103c-35 19 -52 51 -52 96
c0 109 110 195 228 195c46 0 81 -13 106 -39c13 15 19 31 24 47c8 27 23 45 50 45c20 0 34 -10 34 -29c0 -42 -50 -64 -95 -80c11 -19 17 -41 17 -67c0 -109 -106 -187 -226 -187zM127 28c-11 1 -19 2 -28 5c-49 -29 -89 -66 -89 -122c0 -55 38 -82 106 -82
c97 0 184 47 184 124c0 35 -26 54 -90 63zM218 228c72 0 120 73 120 140c0 55 -27 84 -67 84c-70 0 -122 -77 -122 -144c0 -48 20 -80 69 -80z" />
    <glyph glyph-name="h" unicode="h" horiz-adv-x="533" 
d="M386 110c-7 -27 -7 -40 4 -40s34 15 75 50l11 -31c-65 -76 -114 -105 -145 -104c-35 1 -47 37 -35 84l60 239c19 71 20 96 -17 96c-39 0 -113 -77 -201 -228l-46 -176h-81l163 662c7 24 2 33 -11 33c-16 0 -45 -12 -73 -28v35c64 43 107 56 136 56c43 0 47 -31 36 -72
l-101 -405h2c89 156 154 214 218 214c60 0 90 -43 61 -163z" />
    <glyph glyph-name="i" unicode="i" horiz-adv-x="291" 
d="M138 90c-2 -13 1 -20 8 -20c11 0 34 15 75 50l11 -31c-65 -76 -114 -105 -145 -104c-35 1 -47 37 -35 84l81 330c7 24 2 33 -11 33c-16 0 -45 -12 -73 -28v35c64 43 107 56 136 56c43 0 47 -31 36 -72zM184 696c0 31 25 57 56 57s57 -26 57 -57s-26 -56 -57 -56
s-56 25 -56 56z" />
    <glyph glyph-name="j" unicode="j" horiz-adv-x="262" 
d="M123 48c-40 -156 -127 -273 -234 -273c-43 0 -79 24 -79 55c0 23 19 43 46 43c26 0 41 -40 81 -40c39 0 65 61 92 165l100 401c7 24 2 33 -11 33c-16 0 -45 -12 -73 -28v35c64 43 107 56 136 56c43 0 47 -31 36 -72zM183 696c0 31 25 57 56 57s57 -26 57 -57
s-26 -56 -57 -56s-56 25 -56 56z" />
    <glyph glyph-name="k" unicode="k" horiz-adv-x="507" 
d="M10 0l166 663c7 25 1 34 -14 34c-17 0 -44 -15 -71 -28v35c53 39 98 55 133 55c41 0 51 -26 40 -66l-102 -404h3c86 150 150 206 213 206c44 0 82 -22 82 -83c0 -64 -45 -119 -148 -194l117 -203l-10 -30h-70l-115 209v10c92 76 132 142 132 182c0 19 -10 29 -30 29
c-39 0 -110 -82 -198 -233l-48 -182h-80z" />
    <glyph glyph-name="l" unicode="l" horiz-adv-x="267" 
d="M117 97c-5 -23 -1 -29 10 -26c17 3 47 28 72 49l11 -31c-65 -76 -114 -104 -145 -104c-35 0 -46 39 -35 84l148 594c7 25 1 34 -14 34c-17 0 -44 -15 -71 -28v35c53 39 98 55 133 55c41 0 51 -26 40 -66z" />
    <glyph glyph-name="m" unicode="m" horiz-adv-x="815" 
d="M134 399c7 24 2 33 -11 33c-16 0 -45 -12 -73 -28v35c64 43 107 56 136 56c43 0 47 -31 36 -72l-40 -144h2c88 157 156 216 219 216c59 0 88 -43 59 -163l-10 -40c85 148 149 203 212 203c60 0 90 -43 61 -163l-56 -222c-7 -27 -7 -40 4 -40s34 15 75 50l11 -31
c-65 -76 -114 -105 -145 -104c-35 1 -47 37 -35 84l60 239c19 71 20 96 -17 96s-108 -72 -192 -213l-48 -191h-80l76 308c19 71 20 96 -17 96c-39 0 -113 -76 -201 -228l-43 -176h-81z" />
    <glyph glyph-name="n" unicode="n" horiz-adv-x="557" 
d="M134 399c7 24 2 33 -11 33c-16 0 -45 -12 -73 -28v35c64 43 107 56 136 56c43 0 47 -31 36 -72l-46 -158h3c93 168 160 230 227 230c60 0 90 -43 61 -163l-56 -222c-7 -27 -7 -40 4 -40s34 15 75 50l11 -31c-65 -76 -114 -105 -145 -104c-35 1 -47 37 -35 84l60 239
c19 71 20 96 -17 96c-39 0 -116 -81 -208 -240l-39 -164h-81z" />
    <glyph glyph-name="o" unicode="o" horiz-adv-x="510" 
d="M463 325c0 -151 -114 -340 -284 -340c-104 0 -153 69 -153 174c0 160 113 336 281 336c100 0 156 -65 156 -170zM196 34c101 0 171 174 171 300c0 60 -16 111 -77 111c-108 0 -167 -161 -167 -290c0 -64 14 -121 73 -121z" />
    <glyph glyph-name="p" unicode="p" horiz-adv-x="546" 
d="M-73 -167h66l142 566c7 25 1 34 -14 34c-16 0 -43 -13 -71 -28v35c65 45 101 55 133 55c39 0 51 -26 40 -66l-31 -113h2c82 133 144 179 205 179c69 0 101 -55 101 -147c0 -176 -111 -362 -314 -362c-20 0 -45 3 -72 10l-41 -163h136l-12 -50h-282zM355 411
c-40 0 -99 -58 -186 -198l-37 -147c25 -12 58 -22 93 -22c131 0 185 155 185 271c0 72 -15 96 -55 96z" />
    <glyph glyph-name="q" unicode="q" horiz-adv-x="506" 
d="M103 -167h129l87 346h-2c-70 -110 -140 -190 -210 -190c-48 0 -88 39 -88 131c0 160 122 375 310 375c29 0 52 -7 75 -18l59 18h15l-166 -662h73l-12 -50h-282zM142 63c51 0 132 115 199 216l34 132c-23 16 -50 30 -81 30c-132 0 -189 -203 -189 -305
c0 -49 12 -73 37 -73z" />
    <glyph glyph-name="r" unicode="r" horiz-adv-x="407" 
d="M134 400c7 24 2 33 -11 33c-16 0 -45 -12 -73 -28v35c64 43 107 56 136 56c43 0 48 -31 36 -72l-31 -114h3c96 154 136 185 187 185c31 0 48 -10 48 -42c0 -27 -17 -51 -57 -54c-83 -5 -109 -41 -198 -175l-57 -224h-81z" />
    <glyph glyph-name="s" unicode="s" horiz-adv-x="371" 
d="M99 -12c-64 0 -114 17 -114 58c0 27 16 43 44 43c39 0 57 -45 124 -45c25 0 49 9 49 46c0 32 -17 55 -34 79l-70 100c-20 31 -27 59 -27 80c0 72 86 146 186 146c60 0 105 -23 105 -62c0 -25 -18 -41 -45 -41c-35 0 -60 46 -119 46c-39 0 -55 -24 -55 -55
c0 -13 3 -29 20 -54l73 -102c10 -13 43 -54 43 -97c0 -59 -63 -142 -180 -142z" />
    <glyph glyph-name="t" unicode="t" horiz-adv-x="373" 
d="M65 481h96l25 96l79 52h15l-37 -148h138l-13 -50h-138l-67 -271c-6 -25 -9 -45 -9 -60c0 -25 10 -38 31 -38c23 0 58 14 110 41l18 -29c-61 -52 -115 -85 -168 -85c-55 0 -82 27 -82 80c0 15 3 33 8 54l78 308h-97z" />
    <glyph glyph-name="u" unicode="u" horiz-adv-x="556" 
d="M403 96c-7 -23 3 -26 7 -26c16 0 46 26 75 50l11 -31c-65 -76 -115 -104 -144 -104c-44 0 -47 44 -36 84l37 137h-3c-91 -163 -159 -221 -220 -221c-60 0 -90 45 -61 164l63 250c7 27 -3 34 -14 34s-35 -7 -71 -28v35c51 39 102 56 133 55c35 -1 52 -19 40 -66l-65 -256
c-19 -71 -21 -98 16 -98c39 0 114 79 205 236l43 170h81z" />
    <glyph glyph-name="v" unicode="v" horiz-adv-x="488" 
d="M421 495c39 0 49 -26 49 -67c0 -113 -102 -289 -278 -436h-22l-66 420c-2 14 -8 21 -18 21c-15 0 -45 -14 -69 -26v33c13 10 26 19 40 27c24 15 54 28 83 28c39 0 43 -24 50 -77l44 -317c127 109 136 227 136 330c0 39 20 64 51 64z" />
    <glyph glyph-name="w" unicode="w" horiz-adv-x="738" 
d="M669 495c39 0 49 -26 49 -67c0 -113 -92 -289 -268 -436h-22l-44 277c-35 -88 -93 -181 -192 -277h-22l-66 420c-2 14 -8 21 -18 21c-15 0 -45 -14 -69 -26v33c13 10 26 19 40 27c24 15 54 28 83 28c39 0 43 -24 50 -77l43 -307c93 101 125 210 128 307l-10 63h87
l55 -382c128 109 125 229 125 332c0 39 20 64 51 64z" />
    <glyph glyph-name="x" unicode="x" horiz-adv-x="516" 
d="M271 317l90 110c41 51 63 66 90 66c23 0 37 -23 48 -52c4 -12 7 -24 9 -37l-27 -17c-13 10 -27 15 -41 15c-25 0 -47 -15 -72 -46l-80 -95l46 -150c8 -27 22 -38 37 -38c20 0 43 17 63 36l20 -20c-34 -53 -74 -104 -121 -104c-39 0 -57 34 -68 67l-42 131l-108 -128
c-37 -45 -62 -70 -90 -70c-31 0 -45 18 -53 38c-4 8 -6 16 -9 24l22 28c9 -5 21 -6 33 -5c31 3 68 21 95 54l92 113l-55 174c-5 12 -12 21 -23 21c-15 0 -45 -14 -69 -26l-6 33c31 25 69 55 114 55c39 0 59 -24 75 -77z" />
    <glyph glyph-name="y" unicode="y" horiz-adv-x="536" 
d="M308 27c51 88 80 190 97 302c-64 -100 -147 -216 -251 -320h-37l4 403c-2 14 -8 21 -18 21c-15 0 -45 -14 -69 -26v33c13 10 27 19 42 27c25 15 56 28 87 28c39 0 52 -24 49 -77l-11 -290c80 88 176 224 213 284c3 23 4 45 5 69h88l6 -10c-16 -70 -49 -284 -158 -459
c-64 -104 -183 -234 -316 -234c-46 0 -69 16 -69 47c0 35 26 53 63 53c59 0 163 -48 275 149z" />
    <glyph glyph-name="z" unicode="z" horiz-adv-x="478" 
d="M435 481l10 -28l-321 -356c51 -8 148 -24 185 -24c60 0 68 10 97 68l27 -6c-37 -108 -62 -149 -131 -149c-72 0 -198 35 -235 48l-31 -34h-38l-9 26l320 356c-87 0 -134 26 -184 26c-20 0 -35 -6 -54 -53l-25 8c37 104 54 132 103 132c69 0 107 -42 216 -50l33 36h37z
" />
    <glyph glyph-name="zero" unicode="0" horiz-adv-x="634" 
d="M581 378c0 -173 -146 -393 -357 -393c-108 0 -176 57 -176 182c0 172 135 398 348 398c116 0 185 -64 185 -187zM248 43c153 0 229 208 229 334c0 88 -35 132 -105 132c-155 0 -222 -224 -222 -345c0 -87 34 -121 98 -121z" />
    <glyph glyph-name="one" unicode="1" horiz-adv-x="432" 
d="M235 105c-9 -31 -3 -43 14 -50c9 -3 73 -6 97 -9l-12 -46h-333l12 46c13 0 90 5 101 9c23 7 32 21 40 50l88 353h-136l9 36c76 11 149 43 206 68h28z" />
    <glyph glyph-name="two" unicode="2" horiz-adv-x="548" 
d="M407 0h-412l2 35c251 195 378 268 378 376c0 46 -28 69 -85 69c-64 0 -123 -29 -175 -77l-14 23c85 107 170 139 243 139c92 0 138 -49 138 -125c0 -136 -159 -231 -347 -357h320l1 -10z" />
    <glyph glyph-name="three" unicode="3" horiz-adv-x="547" 
d="M175 204c53 29 213 108 213 204c0 57 -52 72 -102 72c-64 0 -127 -26 -174 -69l-16 26c84 92 162 128 241 128c88 0 145 -44 145 -123c0 -99 -93 -160 -173 -211c81 -15 127 -63 127 -142c0 -148 -155 -248 -307 -248c-75 0 -162 24 -162 81c0 32 28 59 64 59
c67 0 20 -95 126 -95c93 0 180 74 180 167c0 57 -32 104 -161 120z" />
    <glyph glyph-name="four" unicode="4" horiz-adv-x="596" 
d="M286 56h-312l15 62l472 438h32l-107 -429h141v-10l-36 -61h-122l-49 -197h-83zM303 127l71 284l-304 -284h233z" />
    <glyph glyph-name="five" unicode="5" horiz-adv-x="566" 
d="M113 -159c-74 0 -172 29 -156 93c7 28 31 47 62 47c69 0 21 -95 127 -95c100 0 186 96 186 199c0 123 -174 125 -262 120l135 344h365l1 -10l-51 -76h-296l-75 -184c183 -3 284 -59 284 -163c0 -156 -166 -275 -320 -275z" />
    <glyph glyph-name="six" unicode="6" horiz-adv-x="586" 
d="M613 666c-189 -16 -340 -131 -418 -284c47 25 103 49 166 49c108 0 158 -62 158 -149c0 -155 -147 -298 -310 -298c-117 0 -166 73 -166 182c0 277 249 502 526 539c15 3 31 3 46 4zM312 367c-48 0 -97 -17 -140 -37c-22 -57 -33 -117 -33 -179c0 -80 34 -120 94 -120
c112 0 183 136 183 239c0 67 -37 97 -104 97z" />
    <glyph glyph-name="seven" unicode="7" horiz-adv-x="520" 
d="M25 -144l-2 10l440 607h-376l-1 10l49 66h415l-2 -35l-446 -658h-77z" />
    <glyph glyph-name="eight" unicode="8" horiz-adv-x="574" 
d="M570 585c0 -104 -94 -168 -188 -211c89 -48 109 -93 109 -145c0 -143 -148 -244 -291 -244c-100 0 -174 39 -174 131c0 117 86 190 190 233c-65 40 -82 84 -82 131c0 136 137 228 271 228c91 0 165 -43 165 -123zM398 186c0 74 -80 109 -141 141
c-75 -43 -139 -103 -139 -200c0 -57 35 -89 106 -89c79 0 174 56 174 148zM229 515c0 -60 55 -93 111 -120c73 43 136 99 136 180c0 51 -35 81 -96 81c-75 0 -151 -58 -151 -141z" />
    <glyph glyph-name="nine" unicode="9" horiz-adv-x="586" 
d="M-32 -117c189 16 339 131 417 284c-47 -27 -104 -49 -165 -49c-108 0 -158 62 -158 149c0 155 147 298 310 298c117 0 166 -73 166 -182c0 -277 -254 -508 -534 -540l-38 -3zM269 182c48 0 98 16 139 36c23 59 34 119 34 180c0 80 -34 120 -94 120
c-112 0 -183 -136 -183 -239c0 -67 37 -97 104 -97z" />
    <glyph glyph-name="Aacute" unicode="&#xc1;" horiz-adv-x="682" 
d="M431 240h-229l-90 -143c-15 -24 -9 -42 16 -49c9 -3 33 -4 56 -7l-11 -41h-232l11 41c15 1 35 7 47 11c23 7 36 20 52 45l386 609h43l57 -609c3 -27 9 -38 28 -45c11 -4 29 -10 44 -11l-11 -41h-266l11 41c23 3 47 4 58 7c21 4 43 20 42 49zM235 293h192l-21 271z
M678 832l-201 -99h-32l-1 10l130 100h102z" />
    <glyph glyph-name="Acircumflex" unicode="&#xc2;" horiz-adv-x="682" 
d="M431 240h-229l-90 -143c-15 -24 -9 -42 16 -49c9 -3 33 -4 56 -7l-11 -41h-232l11 41c15 1 35 7 47 11c23 7 36 20 52 45l386 609h43l57 -609c3 -27 9 -38 28 -45c11 -4 29 -10 44 -11l-11 -41h-266l11 41c23 3 47 4 58 7c21 4 43 20 42 49zM235 293h192l-21 271z
M464 839h42l88 -100l-6 -10h-32l-84 57l-112 -57h-32l-2 10z" />
    <glyph glyph-name="Adieresis" unicode="&#xc4;" horiz-adv-x="682" 
d="M431 240h-229l-90 -143c-15 -24 -9 -42 16 -49c9 -3 33 -4 56 -7l-11 -41h-232l11 41c15 1 35 7 47 11c23 7 36 20 52 45l386 609h43l57 -609c3 -27 9 -38 28 -45c11 -4 29 -10 44 -11l-11 -41h-266l11 41c23 3 47 4 58 7c21 4 43 20 42 49zM235 293h192l-21 271z
M508 779c0 35 30 65 69 65c23 0 40 -11 40 -39c0 -41 -37 -65 -68 -65c-23 0 -41 12 -41 39zM340 778c0 35 29 66 68 66c23 0 41 -11 41 -39c0 -40 -37 -65 -69 -65c-23 0 -40 11 -40 38z" />
    <glyph glyph-name="Aring" unicode="&#xc5;" horiz-adv-x="682" 
d="M431 240h-229l-90 -143c-15 -24 -9 -42 16 -49c9 -3 33 -4 56 -7l-11 -41h-232l11 41c15 1 35 7 47 11c23 7 36 20 52 45l386 609h43l57 -609c3 -27 9 -38 28 -45c11 -4 29 -10 44 -11l-11 -41h-266l11 41c23 3 47 4 58 7c21 4 43 20 42 49zM235 293h192l-21 271z
M598 839c0 -64 -66 -115 -138 -115c-53 0 -85 28 -85 73c0 64 66 114 137 114c51 0 86 -25 86 -72zM472 760c40 0 72 35 72 75c0 27 -14 40 -42 40c-43 0 -73 -32 -73 -73c0 -28 14 -42 43 -42z" />
    <glyph glyph-name="Agrave" unicode="&#xc0;" horiz-adv-x="682" 
d="M431 240h-229l-90 -143c-15 -24 -9 -42 16 -49c9 -3 33 -4 56 -7l-11 -41h-232l11 41c15 1 35 7 47 11c23 7 36 20 52 45l386 609h43l57 -609c3 -27 9 -38 28 -45c11 -4 29 -10 44 -11l-11 -41h-266l11 41c23 3 47 4 58 7c21 4 43 20 42 49zM235 293h192l-21 271z
M253 843h102l130 -100l-1 -10h-32l-201 99z" />
    <glyph glyph-name="Atilde" unicode="&#xc3;" horiz-adv-x="682" 
d="M431 240h-229l-90 -143c-15 -24 -9 -42 16 -49c9 -3 33 -4 56 -7l-11 -41h-232l11 41c15 1 35 7 47 11c23 7 36 20 52 45l386 609h43l57 -609c3 -27 9 -38 28 -45c11 -4 29 -10 44 -11l-11 -41h-266l11 41c23 3 47 4 58 7c21 4 43 20 42 49zM235 293h192l-21 271z
M629 847c-16 -56 -50 -106 -119 -106c-64 0 -89 48 -121 48c-24 0 -39 -21 -54 -52h-31c17 60 55 106 115 106c56 0 79 -48 112 -48c28 0 51 17 66 52h32z" />
    <glyph glyph-name="Abreve" unicode="&#x102;" horiz-adv-x="682" 
d="M431 240h-229l-90 -143c-15 -24 -9 -42 16 -49c9 -3 33 -4 56 -7l-11 -41h-232l11 41c15 1 35 7 47 11c23 7 36 20 52 45l386 609h43l57 -609c3 -27 9 -38 28 -45c11 -4 29 -10 44 -11l-11 -41h-266l11 41c23 3 47 4 58 7c21 4 43 20 42 49zM235 293h192l-21 271z
M604 836c-35 -71 -84 -110 -144 -110c-54 0 -96 36 -88 110h30c9 -44 35 -51 75 -51s67 8 96 51h31z" />
    <glyph glyph-name="Amacron" unicode="&#x100;" horiz-adv-x="682" 
d="M431 240h-229l-90 -143c-15 -24 -9 -42 16 -49c9 -3 33 -4 56 -7l-11 -41h-232l11 41c15 1 35 7 47 11c23 7 36 20 52 45l386 609h43l57 -609c3 -27 9 -38 28 -45c11 -4 29 -10 44 -11l-11 -41h-266l11 41c23 3 47 4 58 7c21 4 43 20 42 49zM235 293h192l-21 271z
M377 844h232l-15 -60h-232z" />
    <glyph glyph-name="Aogonek" unicode="&#x104;" horiz-adv-x="682" 
d="M431 240h-229l-90 -143c-15 -24 -9 -42 16 -49c9 -3 33 -4 56 -7l-11 -41h-232l11 41c15 1 35 7 47 11c23 7 36 20 52 45l386 609h43l57 -609c3 -27 9 -38 28 -45c11 -4 29 -10 44 -11l-11 -41h-266l11 41c23 3 47 4 58 7c21 4 43 20 42 49zM235 293h192l-21 271z
M557 -217c-27 -5 -51 -8 -72 -8c-56 0 -96 19 -96 68c0 55 49 125 172 176l30 -5c-56 -32 -119 -81 -119 -142c0 -39 25 -51 62 -51c11 0 23 1 34 4z" />
    <glyph glyph-name="Aringacute" unicode="&#x1fa;" horiz-adv-x="682" 
d="M431 240h-229l-90 -143c-15 -24 -9 -42 16 -49c9 -3 33 -4 56 -7l-11 -41h-232l11 41c15 1 35 7 47 11c23 7 36 20 52 45l386 609h43l57 -609c3 -27 9 -38 28 -45c11 -4 29 -10 44 -11l-11 -41h-266l11 41c23 3 47 4 58 7c21 4 43 20 42 49zM235 293h192l-21 271z
M717 1039l-201 -99h-32l-1 10l130 100h102zM598 841c0 -64 -66 -115 -138 -115c-53 0 -85 28 -85 73c0 64 66 114 137 114c51 0 86 -25 86 -72zM472 762c40 0 72 35 72 75c0 27 -14 40 -42 40c-43 0 -73 -32 -73 -73c0 -28 14 -42 43 -42z" />
    <glyph glyph-name="Ccedilla" unicode="&#xc7;" horiz-adv-x="673" 
d="M479 659c-209 0 -318 -266 -318 -441c0 -117 47 -183 156 -183c119 0 185 81 236 174h35l-38 -153c-67 -45 -156 -71 -240 -71c-169 0 -252 105 -252 255c0 227 188 469 445 469c72 0 144 -19 197 -54l-45 -179h-35c-5 108 -28 183 -141 183zM414 -126
c0 -69 -79 -100 -146 -100c-23 0 -48 3 -71 10l14 54c24 -9 49 -15 72 -15c31 0 56 12 56 35c0 28 -38 29 -72 29l30 121h48l-16 -66c45 -4 85 -29 85 -68z" />
    <glyph glyph-name="Cacute" unicode="&#x106;" horiz-adv-x="673" 
d="M479 659c-209 0 -318 -266 -318 -441c0 -117 47 -183 156 -183c119 0 185 81 236 174h35l-38 -153c-67 -45 -156 -71 -240 -71c-169 0 -252 105 -252 255c0 227 188 469 445 469c72 0 144 -19 197 -54l-45 -179h-35c-5 108 -28 183 -141 183zM688 832l-201 -99h-32l-1 10
l130 100h102z" />
    <glyph glyph-name="Ccaron" unicode="&#x10c;" horiz-adv-x="673" 
d="M479 659c-209 0 -318 -266 -318 -441c0 -117 47 -183 156 -183c119 0 185 81 236 174h35l-38 -153c-67 -45 -156 -71 -240 -71c-169 0 -252 105 -252 255c0 227 188 469 445 469c72 0 144 -19 197 -54l-45 -179h-35c-5 108 -28 183 -141 183zM526 729h-42l-89 100l7 10
h32l84 -57l112 57h32l1 -10z" />
    <glyph glyph-name="Ccircumflex" unicode="&#x108;" horiz-adv-x="673" 
d="M479 659c-209 0 -318 -266 -318 -441c0 -117 47 -183 156 -183c119 0 185 81 236 174h35l-38 -153c-67 -45 -156 -71 -240 -71c-169 0 -252 105 -252 255c0 227 188 469 445 469c72 0 144 -19 197 -54l-45 -179h-35c-5 108 -28 183 -141 183zM502 839h42l88 -100l-6 -10
h-32l-84 57l-112 -57h-32l-2 10z" />
    <glyph glyph-name="Cdotaccent" unicode="&#x10a;" horiz-adv-x="673" 
d="M479 659c-209 0 -318 -266 -318 -441c0 -117 47 -183 156 -183c119 0 185 81 236 174h35l-38 -153c-67 -45 -156 -71 -240 -71c-169 0 -252 105 -252 255c0 227 188 469 445 469c72 0 144 -19 197 -54l-45 -179h-35c-5 108 -28 183 -141 183zM460 778c0 35 31 69 71 69
c24 0 43 -11 43 -42c0 -41 -36 -68 -71 -68c-24 0 -43 13 -43 41z" />
    <glyph glyph-name="Dcaron" unicode="&#x10e;" horiz-adv-x="726" 
d="M697 454c0 -223 -176 -454 -432 -454h-284l11 41c24 1 44 2 59 6c19 5 33 21 40 50l124 499c7 28 2 45 -15 50c-11 4 -30 3 -57 6l10 41h296c167 0 248 -86 248 -239zM271 50c208 0 319 232 319 409c0 116 -47 184 -167 184h-102l-148 -593h98zM440 729h-42l-89 100l7 10
h32l84 -57l112 57h32l1 -10z" />
    <glyph glyph-name="Dcroat" unicode="&#x110;" horiz-adv-x="728" 
d="M89 385h75l53 211c7 28 2 45 -15 50c-11 4 -30 3 -57 6l10 41h296c167 0 248 -86 248 -239c0 -223 -176 -454 -432 -454h-284l11 41c24 1 44 2 59 6c19 5 33 21 40 50l59 238h-75zM273 50c208 0 319 232 319 409c0 116 -47 184 -167 184h-102l-65 -258h173l-12 -50h-173
l-71 -285h98z" />
    <glyph glyph-name="Eacute" unicode="&#xc9;" horiz-adv-x="610" 
d="M-8 41c13 0 49 2 60 6c23 7 32 21 40 50l124 499c7 31 4 43 -15 50c-8 3 -34 3 -57 6l10 41h463l-21 -167h-36c-3 96 -29 117 -117 117h-122l-65 -260h101c31 0 46 8 57 27c5 9 13 36 20 59h41l-55 -222h-41c3 14 9 48 9 59c-1 20 -15 27 -44 27h-100l-71 -283h135
c98 0 131 33 198 148l31 -4l-64 -194h-492zM607 832l-201 -99h-32l-1 10l130 100h102z" />
    <glyph glyph-name="Ecircumflex" unicode="&#xca;" horiz-adv-x="610" 
d="M-8 41c13 0 49 2 60 6c23 7 32 21 40 50l124 499c7 31 4 43 -15 50c-8 3 -34 3 -57 6l10 41h463l-21 -167h-36c-3 96 -29 117 -117 117h-122l-65 -260h101c31 0 46 8 57 27c5 9 13 36 20 59h41l-55 -222h-41c3 14 9 48 9 59c-1 20 -15 27 -44 27h-100l-71 -283h135
c98 0 131 33 198 148l31 -4l-64 -194h-492zM434 839h42l88 -100l-6 -10h-32l-84 57l-112 -57h-32l-2 10z" />
    <glyph glyph-name="Edieresis" unicode="&#xcb;" horiz-adv-x="610" 
d="M-8 41c13 0 49 2 60 6c23 7 32 21 40 50l124 499c7 31 4 43 -15 50c-8 3 -34 3 -57 6l10 41h463l-21 -167h-36c-3 96 -29 117 -117 117h-122l-65 -260h101c31 0 46 8 57 27c5 9 13 36 20 59h41l-55 -222h-41c3 14 9 48 9 59c-1 20 -15 27 -44 27h-100l-71 -283h135
c98 0 131 33 198 148l31 -4l-64 -194h-492zM472 779c0 35 30 65 69 65c23 0 40 -11 40 -39c0 -41 -37 -65 -68 -65c-23 0 -41 12 -41 39zM304 778c0 35 29 66 68 66c23 0 41 -11 41 -39c0 -40 -37 -65 -69 -65c-23 0 -40 11 -40 38z" />
    <glyph glyph-name="Egrave" unicode="&#xc8;" horiz-adv-x="610" 
d="M-8 41c13 0 49 2 60 6c23 7 32 21 40 50l124 499c7 31 4 43 -15 50c-8 3 -34 3 -57 6l10 41h463l-21 -167h-36c-3 96 -29 117 -117 117h-122l-65 -260h101c31 0 46 8 57 27c5 9 13 36 20 59h41l-55 -222h-41c3 14 9 48 9 59c-1 20 -15 27 -44 27h-100l-71 -283h135
c98 0 131 33 198 148l31 -4l-64 -194h-492zM244 843h102l130 -100l-1 -10h-32l-201 99z" />
    <glyph glyph-name="Ebreve" unicode="&#x114;" horiz-adv-x="610" 
d="M-8 41c13 0 49 2 60 6c23 7 32 21 40 50l124 499c7 31 4 43 -15 50c-8 3 -34 3 -57 6l10 41h463l-21 -167h-36c-3 96 -29 117 -117 117h-122l-65 -260h101c31 0 46 8 57 27c5 9 13 36 20 59h41l-55 -222h-41c3 14 9 48 9 59c-1 20 -15 27 -44 27h-100l-71 -283h135
c98 0 131 33 198 148l31 -4l-64 -194h-492zM570 836c-35 -71 -84 -110 -144 -110c-54 0 -96 36 -88 110h30c9 -44 35 -51 75 -51s67 8 96 51h31z" />
    <glyph glyph-name="Ecaron" unicode="&#x11a;" horiz-adv-x="610" 
d="M-8 41c13 0 49 2 60 6c23 7 32 21 40 50l124 499c7 31 4 43 -15 50c-8 3 -34 3 -57 6l10 41h463l-21 -167h-36c-3 96 -29 117 -117 117h-122l-65 -260h101c31 0 46 8 57 27c5 9 13 36 20 59h41l-55 -222h-41c3 14 9 48 9 59c-1 20 -15 27 -44 27h-100l-71 -283h135
c98 0 131 33 198 148l31 -4l-64 -194h-492zM432 729h-42l-89 100l7 10h32l84 -57l112 57h32l1 -10z" />
    <glyph glyph-name="Edotaccent" unicode="&#x116;" horiz-adv-x="610" 
d="M-8 41c13 0 49 2 60 6c23 7 32 21 40 50l124 499c7 31 4 43 -15 50c-8 3 -34 3 -57 6l10 41h463l-21 -167h-36c-3 96 -29 117 -117 117h-122l-65 -260h101c31 0 46 8 57 27c5 9 13 36 20 59h41l-55 -222h-41c3 14 9 48 9 59c-1 20 -15 27 -44 27h-100l-71 -283h135
c98 0 131 33 198 148l31 -4l-64 -194h-492zM379 778c0 35 31 69 71 69c24 0 43 -11 43 -42c0 -41 -36 -68 -71 -68c-24 0 -43 13 -43 41z" />
    <glyph glyph-name="Emacron" unicode="&#x112;" horiz-adv-x="610" 
d="M-8 41c13 0 49 2 60 6c23 7 32 21 40 50l124 499c7 31 4 43 -15 50c-8 3 -34 3 -57 6l10 41h463l-21 -167h-36c-3 96 -29 117 -117 117h-122l-65 -260h101c31 0 46 8 57 27c5 9 13 36 20 59h41l-55 -222h-41c3 14 9 48 9 59c-1 20 -15 27 -44 27h-100l-71 -283h135
c98 0 131 33 198 148l31 -4l-64 -194h-492zM335 844h232l-15 -60h-232z" />
    <glyph glyph-name="Eogonek" unicode="&#x118;" horiz-adv-x="610" 
d="M-8 41c13 0 49 2 60 6c23 7 32 21 40 50l124 499c7 31 4 43 -15 50c-8 3 -34 3 -57 6l10 41h463l-21 -167h-36c-3 96 -29 117 -117 117h-122l-65 -260h101c31 0 46 8 57 27c5 9 13 36 20 59h41l-55 -222h-41c3 14 9 48 9 59c-1 20 -15 27 -44 27h-100l-71 -283h135
c98 0 131 33 198 148l31 -4l-64 -194h-492zM427 -217c-27 -5 -51 -8 -72 -8c-56 0 -96 19 -96 68c0 55 49 125 172 176l30 -5c-56 -32 -119 -81 -119 -142c0 -39 25 -51 62 -51c11 0 23 1 34 4z" />
    <glyph glyph-name="uni0228" unicode="&#x228;" horiz-adv-x="610" 
d="M-8 41c13 0 49 2 60 6c23 7 32 21 40 50l124 499c7 31 4 43 -15 50c-8 3 -34 3 -57 6l10 41h463l-21 -167h-36c-3 96 -29 117 -117 117h-122l-65 -260h101c31 0 46 8 57 27c5 9 13 36 20 59h41l-55 -222h-41c3 14 9 48 9 59c-1 20 -15 27 -44 27h-100l-71 -283h135
c98 0 131 33 198 148l31 -4l-64 -194h-492zM350 -126c0 -69 -79 -100 -146 -100c-23 0 -48 3 -71 10l14 54c24 -9 49 -15 72 -15c31 0 56 12 56 35c0 28 -38 29 -72 29l30 121h48l-16 -66c45 -4 85 -29 85 -68z" />
    <glyph glyph-name="Gbreve" unicode="&#x11e;" horiz-adv-x="720" 
d="M559 42c-55 -32 -153 -60 -246 -57c-169 4 -255 102 -255 257c0 231 193 467 453 467c76 0 149 -19 201 -54l-45 -179h-35c-5 103 -26 183 -144 183c-209 0 -323 -258 -323 -438c0 -119 50 -186 170 -186c44 0 90 9 135 29l41 165c9 29 4 46 -14 50c-13 3 -48 3 -68 6
l11 41h252l-11 -41c-12 -1 -24 -2 -36 -6c-23 -7 -32 -19 -40 -50zM651 836c-35 -71 -84 -110 -144 -110c-54 0 -96 36 -88 110h30c9 -44 35 -51 75 -51s67 8 96 51h31z" />
    <glyph glyph-name="Gcommaaccent" unicode="&#x122;" horiz-adv-x="720" 
d="M559 42c-55 -32 -153 -60 -246 -57c-169 4 -255 102 -255 257c0 231 193 467 453 467c76 0 149 -19 201 -54l-45 -179h-35c-5 103 -26 183 -144 183c-209 0 -323 -258 -323 -438c0 -119 50 -186 170 -186c44 0 90 9 135 29l41 165c9 29 4 46 -14 50c-13 3 -48 3 -68 6
l11 41h252l-11 -41c-12 -1 -24 -2 -36 -6c-23 -7 -32 -19 -40 -50zM374 -102c0 -60 -73 -109 -131 -133l-12 20c44 23 65 40 80 71c-24 0 -40 12 -40 32c0 25 26 51 62 51c25 0 41 -13 41 -41z" />
    <glyph glyph-name="Gcircumflex" unicode="&#x11c;" horiz-adv-x="720" 
d="M559 42c-55 -32 -153 -60 -246 -57c-169 4 -255 102 -255 257c0 231 193 467 453 467c76 0 149 -19 201 -54l-45 -179h-35c-5 103 -26 183 -144 183c-209 0 -323 -258 -323 -438c0 -119 50 -186 170 -186c44 0 90 9 135 29l41 165c9 29 4 46 -14 50c-13 3 -48 3 -68 6
l11 41h252l-11 -41c-12 -1 -24 -2 -36 -6c-23 -7 -32 -19 -40 -50zM505 839h42l88 -100l-6 -10h-32l-84 57l-112 -57h-32l-2 10z" />
    <glyph glyph-name="Gdotaccent" unicode="&#x120;" horiz-adv-x="720" 
d="M559 42c-55 -32 -153 -60 -246 -57c-169 4 -255 102 -255 257c0 231 193 467 453 467c76 0 149 -19 201 -54l-45 -179h-35c-5 103 -26 183 -144 183c-209 0 -323 -258 -323 -438c0 -119 50 -186 170 -186c44 0 90 9 135 29l41 165c9 29 4 46 -14 50c-13 3 -48 3 -68 6
l11 41h252l-11 -41c-12 -1 -24 -2 -36 -6c-23 -7 -32 -19 -40 -50zM463 778c0 35 31 69 71 69c24 0 43 -11 43 -42c0 -41 -36 -68 -71 -68c-24 0 -43 13 -43 41z" />
    <glyph glyph-name="Gcaron" unicode="&#x1e6;" horiz-adv-x="720" 
d="M530 729h-42l-89 100l7 10h32l84 -57l112 57h32l1 -10zM559 42c-55 -32 -153 -60 -246 -57c-169 4 -255 102 -255 257c0 231 193 467 453 467c76 0 149 -19 201 -54l-45 -179h-35c-5 103 -26 183 -144 183c-209 0 -323 -258 -323 -438c0 -119 50 -186 170 -186
c44 0 90 9 135 29l41 165c9 29 4 46 -14 50c-13 3 -48 3 -68 6l11 41h252l-11 -41c-12 -1 -24 -2 -36 -6c-23 -7 -32 -19 -40 -50z" />
    <glyph glyph-name="uni01F4" unicode="&#x1f4;" horiz-adv-x="720" 
d="M721 832l-201 -99h-32l-1 10l130 100h102zM559 42c-55 -32 -153 -60 -246 -57c-169 4 -255 102 -255 257c0 231 193 467 453 467c76 0 149 -19 201 -54l-45 -179h-35c-5 103 -26 183 -144 183c-209 0 -323 -258 -323 -438c0 -119 50 -186 170 -186c44 0 90 9 135 29
l41 165c9 29 4 46 -14 50c-13 3 -48 3 -68 6l11 41h252l-11 -41c-12 -1 -24 -2 -36 -6c-23 -7 -32 -19 -40 -50z" />
    <glyph glyph-name="Hbar" unicode="&#x126;" 
d="M708 543h79l-13 -50h-79l-98 -396c-8 -31 -3 -43 14 -50c8 -3 35 -3 58 -6l-11 -41h-266l11 41c13 0 49 2 60 6c23 7 32 21 40 50l59 237h-316l-59 -237c-8 -31 -3 -43 14 -50c8 -3 35 -3 58 -6l-11 -41h-266l11 41c13 0 49 2 60 6c23 7 32 21 40 50l98 396h-64l13 50h64
l13 53c7 31 4 43 -15 50c-8 3 -34 3 -57 6l10 41h266l-10 -41c-13 0 -50 -3 -61 -6c-19 -5 -32 -22 -39 -50l-13 -53h316l13 53c7 31 4 43 -15 50c-8 3 -34 3 -57 6l10 41h266l-10 -41c-13 0 -50 -3 -61 -6c-19 -5 -32 -22 -39 -50zM259 387h316l26 106h-316z" />
    <glyph glyph-name="Hcircumflex" unicode="&#x124;" 
d="M596 97c-8 -31 -3 -43 14 -50c8 -3 35 -3 58 -6l-11 -41h-266l11 41c13 0 49 2 60 6c23 7 32 21 40 50l59 237h-316l-59 -237c-8 -31 -3 -43 14 -50c8 -3 35 -3 58 -6l-11 -41h-266l11 41c13 0 49 2 60 6c23 7 32 21 40 50l124 499c7 31 4 43 -15 50c-8 3 -34 3 -57 6
l10 41h266l-10 -41c-13 0 -50 -3 -61 -6c-19 -5 -32 -22 -39 -50l-52 -209h316l52 209c7 31 4 43 -15 50c-8 3 -34 3 -57 6l10 41h266l-10 -41c-13 0 -50 -3 -61 -6c-19 -5 -32 -22 -39 -50zM509 839h42l88 -100l-6 -10h-32l-84 57l-112 -57h-32l-2 10z" />
    <glyph glyph-name="uni021E" unicode="&#x21e;" 
d="M596 97c-8 -31 -3 -43 14 -50c8 -3 35 -3 58 -6l-11 -41h-266l11 41c13 0 49 2 60 6c23 7 32 21 40 50l59 237h-316l-59 -237c-8 -31 -3 -43 14 -50c8 -3 35 -3 58 -6l-11 -41h-266l11 41c13 0 49 2 60 6c23 7 32 21 40 50l124 499c7 31 4 43 -15 50c-8 3 -34 3 -57 6
l10 41h266l-10 -41c-13 0 -50 -3 -61 -6c-19 -5 -32 -22 -39 -50l-52 -209h316l52 209c7 31 4 43 -15 50c-8 3 -34 3 -57 6l10 41h266l-10 -41c-13 0 -50 -3 -61 -6c-19 -5 -32 -22 -39 -50zM520 729h-42l-89 100l7 10h32l84 -57l112 57h32l1 -10z" />
    <glyph glyph-name="Iacute" unicode="&#xcd;" horiz-adv-x="370" 
d="M186 97c-8 -31 -3 -43 14 -50c8 -3 35 -3 58 -6l-11 -41h-266l11 41c13 0 49 2 60 6c23 7 32 21 40 50l124 499c7 31 4 43 -15 50c-8 3 -34 3 -57 6l10 41h266l-10 -41c-13 0 -50 -3 -61 -6c-19 -5 -32 -22 -39 -50zM473 832l-201 -99h-32l-1 10l130 100h102z" />
    <glyph glyph-name="Icircumflex" unicode="&#xce;" horiz-adv-x="370" 
d="M186 97c-8 -31 -3 -43 14 -50c8 -3 35 -3 58 -6l-11 -41h-266l11 41c13 0 49 2 60 6c23 7 32 21 40 50l124 499c7 31 4 43 -15 50c-8 3 -34 3 -57 6l10 41h266l-10 -41c-13 0 -50 -3 -61 -6c-19 -5 -32 -22 -39 -50zM302 839h42l88 -100l-6 -10h-32l-84 57l-112 -57h-32
l-2 10z" />
    <glyph glyph-name="Idieresis" unicode="&#xcf;" horiz-adv-x="370" 
d="M186 97c-8 -31 -3 -43 14 -50c8 -3 35 -3 58 -6l-11 -41h-266l11 41c13 0 49 2 60 6c23 7 32 21 40 50l124 499c7 31 4 43 -15 50c-8 3 -34 3 -57 6l10 41h266l-10 -41c-13 0 -50 -3 -61 -6c-19 -5 -32 -22 -39 -50zM334 779c0 35 30 65 69 65c23 0 40 -11 40 -39
c0 -41 -37 -65 -68 -65c-23 0 -41 12 -41 39zM166 778c0 35 29 66 68 66c23 0 41 -11 41 -39c0 -40 -37 -65 -69 -65c-23 0 -40 11 -40 38z" />
    <glyph glyph-name="Igrave" unicode="&#xcc;" horiz-adv-x="370" 
d="M186 97c-8 -31 -3 -43 14 -50c8 -3 35 -3 58 -6l-11 -41h-266l11 41c13 0 49 2 60 6c23 7 32 21 40 50l124 499c7 31 4 43 -15 50c-8 3 -34 3 -57 6l10 41h266l-10 -41c-13 0 -50 -3 -61 -6c-19 -5 -32 -22 -39 -50zM115 843h102l130 -100l-1 -10h-32l-201 99z" />
    <glyph glyph-name="Ibreve" unicode="&#x12c;" horiz-adv-x="370" 
d="M186 97c-8 -31 -3 -43 14 -50c8 -3 35 -3 58 -6l-11 -41h-266l11 41c13 0 49 2 60 6c23 7 32 21 40 50l124 499c7 31 4 43 -15 50c-8 3 -34 3 -57 6l10 41h266l-10 -41c-13 0 -50 -3 -61 -6c-19 -5 -32 -22 -39 -50zM429 836c-35 -71 -84 -110 -144 -110
c-54 0 -96 36 -88 110h30c9 -44 35 -51 75 -51s67 8 96 51h31z" />
    <glyph glyph-name="Idotaccent" unicode="&#x130;" horiz-adv-x="370" 
d="M186 97c-8 -31 -3 -43 14 -50c8 -3 35 -3 58 -6l-11 -41h-266l11 41c13 0 49 2 60 6c23 7 32 21 40 50l124 499c7 31 4 43 -15 50c-8 3 -34 3 -57 6l10 41h266l-10 -41c-13 0 -50 -3 -61 -6c-19 -5 -32 -22 -39 -50zM248 778c0 35 31 69 71 69c24 0 43 -11 43 -42
c0 -41 -36 -68 -71 -68c-24 0 -43 13 -43 41z" />
    <glyph glyph-name="Imacron" unicode="&#x12a;" horiz-adv-x="370" 
d="M186 97c-8 -31 -3 -43 14 -50c8 -3 35 -3 58 -6l-11 -41h-266l11 41c13 0 49 2 60 6c23 7 32 21 40 50l124 499c7 31 4 43 -15 50c-8 3 -34 3 -57 6l10 41h266l-10 -41c-13 0 -50 -3 -61 -6c-19 -5 -32 -22 -39 -50zM203 844h232l-15 -60h-232z" />
    <glyph glyph-name="Iogonek" unicode="&#x12e;" horiz-adv-x="370" 
d="M186 97c-8 -31 -3 -43 14 -50c8 -3 35 -3 58 -6l-11 -41h-266l11 41c13 0 49 2 60 6c23 7 32 21 40 50l124 499c7 31 4 43 -15 50c-8 3 -34 3 -57 6l10 41h266l-10 -41c-13 0 -50 -3 -61 -6c-19 -5 -32 -22 -39 -50zM154 -217c-27 -5 -51 -8 -72 -8c-56 0 -96 19 -96 68
c0 55 49 125 172 176l30 -5c-56 -32 -119 -81 -119 -142c0 -39 25 -51 62 -51c11 0 23 1 34 4z" />
    <glyph glyph-name="Jcircumflex" unicode="&#x134;" horiz-adv-x="354" 
d="M209 596c8 31 3 43 -14 50c-9 3 -35 3 -58 6l10 41h266l-10 -41c-13 0 -49 -3 -60 -6c-23 -7 -33 -21 -40 -50l-144 -577c-29 -120 -115 -245 -259 -245c-53 0 -78 22 -78 57c0 31 25 52 53 52c48 0 33 -59 72 -59c60 0 93 92 133 255zM290 839h42l88 -100l-6 -10h-32
l-84 57l-112 -57h-32l-2 10z" />
    <glyph glyph-name="uni1E32" unicode="&#x1e32;" horiz-adv-x="678" 
d="M221 -175c0 52 44 80 80 80c27 0 47 -16 47 -48c0 -52 -42 -80 -79 -80c-27 0 -48 16 -48 48zM186 97c-8 -31 -3 -43 14 -50c8 -3 35 -3 58 -6l-11 -41h-266l11 41c13 0 49 2 60 6c23 7 32 21 40 50l124 499c7 31 4 43 -15 50c-8 3 -34 3 -57 6l10 41h266l-10 -41
c-13 0 -50 -3 -61 -6c-19 -5 -32 -22 -39 -50zM279 345c96 72 187 174 235 219c16 15 40 42 45 61c5 18 1 22 -55 27l10 41h254l-10 -41c-50 -4 -100 -29 -151 -75c-42 -37 -132 -128 -232 -220l114 -240c21 -44 49 -69 102 -77l-13 -40h-145l-155 338z" />
    <glyph glyph-name="Lacute" unicode="&#x139;" horiz-adv-x="568" 
d="M51 47c23 7 32 21 40 50l124 499c7 31 4 43 -15 50c-8 3 -34 3 -57 6l10 41h266l-10 -41c-13 0 -50 -3 -61 -6c-19 -5 -32 -22 -39 -50l-137 -546h105c98 0 141 44 208 158l31 -4l-64 -204h-471l11 41c15 1 47 2 59 6zM484 832l-201 -99h-32l-1 10l130 100h102z" />
    <glyph glyph-name="Lcaron" unicode="&#x13d;" horiz-adv-x="569" 
d="M51 47c23 7 32 21 40 50l124 499c7 31 4 43 -15 50c-8 3 -34 3 -57 6l10 41h266l-10 -41c-13 0 -50 -3 -61 -6c-19 -5 -32 -22 -39 -50l-137 -546h105c98 0 141 44 208 158l31 -4l-64 -204h-471l11 41c15 1 47 2 59 6zM571 735c-21 -66 -92 -166 -133 -210h-25l-2 10
c27 47 61 128 81 211h78z" />
    <glyph glyph-name="Lcommaaccent" unicode="&#x13b;" horiz-adv-x="568" 
d="M51 47c23 7 32 21 40 50l124 499c7 31 4 43 -15 50c-8 3 -34 3 -57 6l10 41h266l-10 -41c-13 0 -50 -3 -61 -6c-19 -5 -32 -22 -39 -50l-137 -546h105c98 0 141 44 208 158l31 -4l-64 -204h-471l11 41c15 1 47 2 59 6zM298 -102c0 -60 -73 -109 -131 -133l-12 20
c44 23 65 40 80 71c-24 0 -40 12 -40 32c0 25 26 51 62 51c25 0 41 -13 41 -41z" />
    <glyph glyph-name="Ldot" unicode="&#x13f;" horiz-adv-x="571" 
d="M51 47c23 7 32 21 40 50l124 499c7 31 4 43 -15 50c-8 3 -34 3 -57 6l10 41h266l-10 -41c-13 0 -50 -3 -61 -6c-19 -5 -32 -22 -39 -50l-137 -546h105c98 0 141 44 208 158l31 -4l-64 -204h-471l11 41c15 1 47 2 59 6zM427 376c0 39 34 76 75 76c24 0 45 -13 45 -49
c0 -49 -42 -73 -74 -73c-27 0 -46 15 -46 46z" />
    <glyph glyph-name="Lslash" unicode="&#x141;" horiz-adv-x="570" 
d="M53 47c23 7 32 21 40 50l39 158l-85 -42l16 62l84 41l70 280c7 31 4 43 -15 50c-8 3 -34 3 -57 6l10 41h266l-10 -41c-13 0 -50 -3 -61 -6c-19 -5 -32 -22 -39 -50l-57 -227l159 78l-16 -62l-158 -78l-65 -257h105c98 0 141 44 208 158l31 -4l-64 -204h-471l11 41
c15 1 47 2 59 6z" />
    <glyph glyph-name="Ntilde" unicode="&#xd1;" horiz-adv-x="807" 
d="M581 173l97 388c11 39 4 61 -13 74c-14 11 -34 18 -59 21l9 37h256l-9 -37c-23 -3 -42 -8 -61 -17c-27 -12 -48 -35 -59 -78l-140 -565h-49l-279 562l-105 -426c-11 -39 -4 -61 13 -74c14 -11 34 -18 59 -21l-9 -37h-256l9 37c23 3 42 8 61 17c27 12 48 35 59 78l101 408
c17 69 1 108 -62 117l9 36h160zM686 847c-16 -56 -50 -106 -119 -106c-64 0 -89 48 -121 48c-24 0 -39 -21 -54 -52h-31c17 60 55 106 115 106c56 0 79 -48 112 -48c28 0 51 17 66 52h32z" />
    <glyph glyph-name="Nacute" unicode="&#x143;" horiz-adv-x="807" 
d="M581 173l97 388c11 39 4 61 -13 74c-14 11 -34 18 -59 21l9 37h256l-9 -37c-23 -3 -42 -8 -61 -17c-27 -12 -48 -35 -59 -78l-140 -565h-49l-279 562l-105 -426c-11 -39 -4 -61 13 -74c14 -11 34 -18 59 -21l-9 -37h-256l9 37c23 3 42 8 61 17c27 12 48 35 59 78l101 408
c17 69 1 108 -62 117l9 36h160zM685 832l-201 -99h-32l-1 10l130 100h102z" />
    <glyph glyph-name="Ncaron" unicode="&#x147;" horiz-adv-x="807" 
d="M581 173l97 388c11 39 4 61 -13 74c-14 11 -34 18 -59 21l9 37h256l-9 -37c-23 -3 -42 -8 -61 -17c-27 -12 -48 -35 -59 -78l-140 -565h-49l-279 562l-105 -426c-11 -39 -4 -61 13 -74c14 -11 34 -18 59 -21l-9 -37h-256l9 37c23 3 42 8 61 17c27 12 48 35 59 78l101 408
c17 69 1 108 -62 117l9 36h160zM525 729h-42l-89 100l7 10h32l84 -57l112 57h32l1 -10z" />
    <glyph glyph-name="Ncommaaccent" unicode="&#x145;" horiz-adv-x="807" 
d="M581 173l97 388c11 39 4 61 -13 74c-14 11 -34 18 -59 21l9 37h256l-9 -37c-23 -3 -42 -8 -61 -17c-27 -12 -48 -35 -59 -78l-140 -565h-49l-279 562l-105 -426c-11 -39 -4 -61 13 -74c14 -11 34 -18 59 -21l-9 -37h-256l9 37c23 3 42 8 61 17c27 12 48 35 59 78l101 408
c17 69 1 108 -62 117l9 36h160zM397 -102c0 -60 -73 -109 -131 -133l-12 20c44 23 65 40 80 71c-24 0 -40 12 -40 32c0 25 26 51 62 51c25 0 41 -13 41 -41z" />
    <glyph glyph-name="Eng" unicode="&#x14a;" horiz-adv-x="809" 
d="M583 170l97 391c11 39 4 61 -13 74c-14 11 -34 18 -59 21l9 37h256l-9 -37c-23 -3 -42 -8 -61 -17c-27 -12 -48 -35 -59 -78l-135 -542c-29 -120 -84 -245 -230 -245c-53 0 -85 25 -77 60c7 29 29 49 57 49c48 0 24 -59 68 -59c51 0 83 68 116 191l-269 543l-105 -426
c-11 -39 -4 -61 13 -74c14 -11 34 -18 59 -21l-9 -37h-256l9 37c23 3 42 8 61 17c27 12 48 35 59 78l101 408c8 33 8 58 1 76c-9 23 -30 36 -63 41l9 36h160z" />
    <glyph glyph-name="Ograve" unicode="&#xd2;" 
d="M753 449c0 -224 -192 -464 -445 -464c-164 0 -250 99 -250 256c0 224 189 468 442 468c168 0 253 -105 253 -260zM318 37c220 0 332 253 332 433c0 115 -46 189 -162 189c-221 0 -327 -263 -327 -440c0 -117 45 -182 157 -182zM296 843h102l130 -100l-1 -10h-32l-201 99z
" />
    <glyph glyph-name="Odieresis" unicode="&#xd6;" 
d="M753 449c0 -224 -192 -464 -445 -464c-164 0 -250 99 -250 256c0 224 189 468 442 468c168 0 253 -105 253 -260zM318 37c220 0 332 253 332 433c0 115 -46 189 -162 189c-221 0 -327 -263 -327 -440c0 -117 45 -182 157 -182zM528 779c0 35 30 65 69 65
c23 0 40 -11 40 -39c0 -41 -37 -65 -68 -65c-23 0 -41 12 -41 39zM360 778c0 35 29 66 68 66c23 0 41 -11 41 -39c0 -40 -37 -65 -69 -65c-23 0 -40 11 -40 38z" />
    <glyph glyph-name="Otilde" unicode="&#xd5;" 
d="M753 449c0 -224 -192 -464 -445 -464c-164 0 -250 99 -250 256c0 224 189 468 442 468c168 0 253 -105 253 -260zM318 37c220 0 332 253 332 433c0 115 -46 189 -162 189c-221 0 -327 -263 -327 -440c0 -117 45 -182 157 -182zM674 847c-16 -56 -50 -106 -119 -106
c-64 0 -89 48 -121 48c-24 0 -39 -21 -54 -52h-31c17 60 55 106 115 106c56 0 79 -48 112 -48c28 0 51 17 66 52h32z" />
    <glyph glyph-name="Obreve" unicode="&#x14e;" 
d="M753 449c0 -224 -192 -464 -445 -464c-164 0 -250 99 -250 256c0 224 189 468 442 468c168 0 253 -105 253 -260zM318 37c220 0 332 253 332 433c0 115 -46 189 -162 189c-221 0 -327 -263 -327 -440c0 -117 45 -182 157 -182zM644 836c-35 -71 -84 -110 -144 -110
c-54 0 -96 36 -88 110h30c9 -44 35 -51 75 -51s67 8 96 51h31z" />
    <glyph glyph-name="Oacute" unicode="&#xd3;" 
d="M753 449c0 -224 -192 -464 -445 -464c-164 0 -250 99 -250 256c0 224 189 468 442 468c168 0 253 -105 253 -260zM318 37c220 0 332 253 332 433c0 115 -46 189 -162 189c-221 0 -327 -263 -327 -440c0 -117 45 -182 157 -182zM685 832l-201 -99h-32l-1 10l130 100h102z
" />
    <glyph glyph-name="Ocircumflex" unicode="&#xd4;" 
d="M753 449c0 -224 -192 -464 -445 -464c-164 0 -250 99 -250 256c0 224 189 468 442 468c168 0 253 -105 253 -260zM318 37c220 0 332 253 332 433c0 115 -46 189 -162 189c-221 0 -327 -263 -327 -440c0 -117 45 -182 157 -182zM517 839h42l88 -100l-6 -10h-32l-84 57
l-112 -57h-32l-2 10z" />
    <glyph glyph-name="Ohungarumlaut" unicode="&#x150;" 
d="M753 449c0 -224 -192 -464 -445 -464c-164 0 -250 99 -250 256c0 224 189 468 442 468c168 0 253 -105 253 -260zM318 37c220 0 332 253 332 433c0 115 -46 189 -162 189c-221 0 -327 -263 -327 -440c0 -117 45 -182 157 -182zM736 832l-195 -99h-32l-1 10l130 100h96z
M579 832l-160 -99h-32l-1 10l109 100h82z" />
    <glyph glyph-name="Omacron" unicode="&#x14c;" 
d="M753 449c0 -224 -192 -464 -445 -464c-164 0 -250 99 -250 256c0 224 189 468 442 468c168 0 253 -105 253 -260zM318 37c220 0 332 253 332 433c0 115 -46 189 -162 189c-221 0 -327 -263 -327 -440c0 -117 45 -182 157 -182zM414 844h232l-15 -60h-232z" />
    <glyph glyph-name="Oslash" unicode="&#xd8;" 
d="M826 709l-778 -724h-61l775 724h64zM753 449c0 -224 -192 -464 -445 -464c-164 0 -250 99 -250 256c0 224 189 468 442 468c168 0 253 -105 253 -260zM318 37c220 0 332 253 332 433c0 115 -46 189 -162 189c-221 0 -327 -263 -327 -440c0 -117 45 -182 157 -182z" />
    <glyph glyph-name="Racute" unicode="&#x154;" horiz-adv-x="666" 
d="M216 596c7 31 4 43 -15 50c-12 4 -30 3 -57 6l10 41h303c104 0 167 -40 167 -132c0 -114 -101 -210 -222 -232l106 -212c25 -53 55 -70 108 -77l-13 -40h-150l-149 325h-62l-56 -228c-7 -29 -3 -45 14 -50c15 -4 40 -3 68 -6l-11 -41h-276l11 41c17 1 45 2 60 6
c19 5 33 21 40 50zM321 643l-66 -268h75c104 0 181 76 181 174c0 65 -33 94 -98 94h-92zM603 832l-201 -99h-32l-1 10l130 100h102z" />
    <glyph glyph-name="Rcaron" unicode="&#x158;" horiz-adv-x="666" 
d="M216 596c7 31 4 43 -15 50c-12 4 -30 3 -57 6l10 41h303c104 0 167 -40 167 -132c0 -114 -101 -210 -222 -232l106 -212c25 -53 55 -70 108 -77l-13 -40h-150l-149 325h-62l-56 -228c-7 -29 -3 -45 14 -50c15 -4 40 -3 68 -6l-11 -41h-276l11 41c17 1 45 2 60 6
c19 5 33 21 40 50zM321 643l-66 -268h75c104 0 181 76 181 174c0 65 -33 94 -98 94h-92zM430 729h-42l-89 100l7 10h32l84 -57l112 57h32l1 -10z" />
    <glyph glyph-name="Rcommaaccent" unicode="&#x156;" horiz-adv-x="666" 
d="M216 596c7 31 4 43 -15 50c-12 4 -30 3 -57 6l10 41h303c104 0 167 -40 167 -132c0 -114 -101 -210 -222 -232l106 -212c25 -53 55 -70 108 -77l-13 -40h-150l-149 325h-62l-56 -228c-7 -29 -3 -45 14 -50c15 -4 40 -3 68 -6l-11 -41h-276l11 41c17 1 45 2 60 6
c19 5 33 21 40 50zM321 643l-66 -268h75c104 0 181 76 181 174c0 65 -33 94 -98 94h-92zM352 -102c0 -60 -73 -109 -131 -133l-12 20c44 23 65 40 80 71c-24 0 -40 12 -40 32c0 25 26 51 62 51c25 0 41 -13 41 -41z" />
    <glyph glyph-name="Sacute" unicode="&#x15a;" horiz-adv-x="591" 
d="M204 -15c-68 0 -140 16 -199 55l44 177h26c9 -125 65 -177 153 -177c91 0 177 56 177 141c0 59 -29 86 -93 114l-76 33c-69 31 -105 76 -105 151c0 141 133 229 283 229c67 0 131 -16 187 -55l-44 -179h-35c-1 128 -39 184 -127 184c-83 0 -171 -51 -171 -135
c0 -55 20 -83 83 -110l71 -31c71 -32 130 -73 130 -164c0 -146 -151 -233 -304 -233zM593 832l-201 -99h-32l-1 10l130 100h102z" />
    <glyph glyph-name="Scedilla" unicode="&#x15e;" horiz-adv-x="592" 
d="M204 -15c-68 0 -140 16 -199 55l44 177h26c9 -125 65 -177 153 -177c91 0 177 56 177 141c0 59 -29 86 -93 114l-76 33c-69 31 -105 76 -105 151c0 141 133 229 283 229c67 0 131 -16 187 -55l-44 -179h-35c-1 128 -39 184 -127 184c-83 0 -171 -51 -171 -135
c0 -55 20 -83 83 -110l71 -31c71 -32 130 -73 130 -164c0 -146 -151 -233 -304 -233zM314 -126c0 -69 -79 -100 -146 -100c-23 0 -48 3 -71 10l14 54c24 -9 49 -15 72 -15c31 0 56 12 56 35c0 28 -38 29 -72 29l30 121h48l-16 -66c45 -4 85 -29 85 -68z" />
    <glyph glyph-name="Scaron" unicode="&#x160;" horiz-adv-x="591" 
d="M204 -15c-68 0 -140 16 -199 55l44 177h26c9 -125 65 -177 153 -177c91 0 177 56 177 141c0 59 -29 86 -93 114l-76 33c-69 31 -105 76 -105 151c0 141 133 229 283 229c67 0 131 -16 187 -55l-44 -179h-35c-1 128 -39 184 -127 184c-83 0 -171 -51 -171 -135
c0 -55 20 -83 83 -110l71 -31c71 -32 130 -73 130 -164c0 -146 -151 -233 -304 -233zM438 729h-42l-89 100l7 10h32l84 -57l112 57h32l1 -10z" />
    <glyph glyph-name="Scircumflex" unicode="&#x15c;" horiz-adv-x="591" 
d="M204 -15c-68 0 -140 16 -199 55l44 177h26c9 -125 65 -177 153 -177c91 0 177 56 177 141c0 59 -29 86 -93 114l-76 33c-69 31 -105 76 -105 151c0 141 133 229 283 229c67 0 131 -16 187 -55l-44 -179h-35c-1 128 -39 184 -127 184c-83 0 -171 -51 -171 -135
c0 -55 20 -83 83 -110l71 -31c71 -32 130 -73 130 -164c0 -146 -151 -233 -304 -233zM415 839h42l88 -100l-6 -10h-32l-84 57l-112 -57h-32l-2 10z" />
    <glyph glyph-name="Scommaaccent" unicode="&#x218;" horiz-adv-x="591" 
d="M204 -15c-68 0 -140 16 -199 55l44 177h26c9 -125 65 -177 153 -177c91 0 177 56 177 141c0 59 -29 86 -93 114l-76 33c-69 31 -105 76 -105 151c0 141 133 229 283 229c67 0 131 -16 187 -55l-44 -179h-35c-1 128 -39 184 -127 184c-83 0 -171 -51 -171 -135
c0 -55 20 -83 83 -110l71 -31c71 -32 130 -73 130 -164c0 -146 -151 -233 -304 -233zM269 -102c0 -60 -73 -109 -131 -133l-12 20c44 23 65 40 80 71c-24 0 -40 12 -40 32c0 25 26 51 62 51c25 0 41 -13 41 -41z" />
    <glyph glyph-name="Tbar" unicode="&#x166;" horiz-adv-x="642" 
d="M455 643l-67 -269h169l-13 -50h-169l-56 -227c-7 -29 -3 -45 14 -50c13 -4 29 -3 58 -6l-11 -41h-266l11 41c19 1 45 2 60 6c19 5 33 21 40 50l56 227h-144l13 50h144l67 269h-55c-87 0 -127 -21 -175 -117h-36l41 167h568l-41 -167h-36c-3 96 -29 117 -117 117h-55z" />
    <glyph glyph-name="Tcaron" unicode="&#x164;" horiz-adv-x="632" 
d="M452 643l-136 -546c-7 -29 -3 -45 14 -50c13 -4 29 -3 58 -6l-11 -41h-266l11 41c19 1 45 2 60 6c19 5 33 21 40 50l136 546h-55c-87 0 -127 -21 -175 -117h-36l41 167h568l-41 -167h-36c-3 96 -29 117 -117 117h-55zM441 729h-42l-89 100l7 10h32l84 -57l112 57h32
l1 -10z" />
    <glyph glyph-name="Tcommaaccent" unicode="&#x162;" horiz-adv-x="632" 
d="M452 643l-136 -546c-7 -29 -3 -45 14 -50c13 -4 29 -3 58 -6l-11 -41h-266l11 41c19 1 45 2 60 6c19 5 33 21 40 50l136 546h-55c-87 0 -127 -21 -175 -117h-36l41 167h568l-41 -167h-36c-3 96 -29 117 -117 117h-55zM284 -102c0 -60 -73 -109 -131 -133l-12 20
c44 23 65 40 80 71c-24 0 -40 12 -40 32c0 25 26 51 62 51c25 0 41 -13 41 -41z" />
    <glyph glyph-name="uni021A" unicode="&#x21a;" horiz-adv-x="632" 
d="M452 643l-136 -546c-7 -29 -3 -45 14 -50c13 -4 29 -3 58 -6l-11 -41h-266l11 41c19 1 45 2 60 6c19 5 33 21 40 50l136 546h-55c-87 0 -127 -21 -175 -117h-36l41 167h568l-41 -167h-36c-3 96 -29 117 -117 117h-55zM284 -102c0 -60 -73 -109 -131 -133l-12 20
c44 23 65 40 80 71c-24 0 -40 12 -40 32c0 25 26 51 62 51c25 0 41 -13 41 -41z" />
    <glyph glyph-name="Uacute" unicode="&#xda;" horiz-adv-x="758" 
d="M304 -14c-153 0 -236 73 -193 242l92 368c7 29 2 45 -15 50c-13 4 -41 5 -57 6l10 41h266l-10 -41c-31 -3 -46 -2 -61 -6c-17 -5 -30 -19 -37 -42l-92 -368c-32 -129 2 -198 123 -198c133 0 199 85 228 202l82 329c7 35 0 54 -15 66c-14 11 -34 18 -59 21l9 37h256
l-9 -37c-21 -3 -42 -8 -61 -17c-25 -12 -46 -33 -57 -72l-82 -328c-37 -152 -137 -253 -318 -253zM695 832l-201 -99h-32l-1 10l130 100h102z" />
    <glyph glyph-name="Ucircumflex" unicode="&#xdb;" horiz-adv-x="758" 
d="M304 -14c-153 0 -236 73 -193 242l92 368c7 29 2 45 -15 50c-13 4 -41 5 -57 6l10 41h266l-10 -41c-31 -3 -46 -2 -61 -6c-17 -5 -30 -19 -37 -42l-92 -368c-32 -129 2 -198 123 -198c133 0 199 85 228 202l82 329c7 35 0 54 -15 66c-14 11 -34 18 -59 21l9 37h256
l-9 -37c-21 -3 -42 -8 -61 -17c-25 -12 -46 -33 -57 -72l-82 -328c-37 -152 -137 -253 -318 -253zM504 839h42l88 -100l-6 -10h-32l-84 57l-112 -57h-32l-2 10z" />
    <glyph glyph-name="Ugrave" unicode="&#xd9;" horiz-adv-x="758" 
d="M304 -14c-153 0 -236 73 -193 242l92 368c7 29 2 45 -15 50c-13 4 -41 5 -57 6l10 41h266l-10 -41c-31 -3 -46 -2 -61 -6c-17 -5 -30 -19 -37 -42l-92 -368c-32 -129 2 -198 123 -198c133 0 199 85 228 202l82 329c7 35 0 54 -15 66c-14 11 -34 18 -59 21l9 37h256
l-9 -37c-21 -3 -42 -8 -61 -17c-25 -12 -46 -33 -57 -72l-82 -328c-37 -152 -137 -253 -318 -253zM298 843h102l130 -100l-1 -10h-32l-201 99z" />
    <glyph glyph-name="Udieresis" unicode="&#xdc;" horiz-adv-x="758" 
d="M304 -14c-153 0 -236 73 -193 242l92 368c7 29 2 45 -15 50c-13 4 -41 5 -57 6l10 41h266l-10 -41c-31 -3 -46 -2 -61 -6c-17 -5 -30 -19 -37 -42l-92 -368c-32 -129 2 -198 123 -198c133 0 199 85 228 202l82 329c7 35 0 54 -15 66c-14 11 -34 18 -59 21l9 37h256
l-9 -37c-21 -3 -42 -8 -61 -17c-25 -12 -46 -33 -57 -72l-82 -328c-37 -152 -137 -253 -318 -253zM542 779c0 35 30 65 69 65c23 0 40 -11 40 -39c0 -41 -37 -65 -68 -65c-23 0 -41 12 -41 39zM374 778c0 35 29 66 68 66c23 0 41 -11 41 -39c0 -40 -37 -65 -69 -65
c-23 0 -40 11 -40 38z" />
    <glyph glyph-name="Ubreve" unicode="&#x16c;" horiz-adv-x="758" 
d="M304 -14c-153 0 -236 73 -193 242l92 368c7 29 2 45 -15 50c-13 4 -41 5 -57 6l10 41h266l-10 -41c-31 -3 -46 -2 -61 -6c-17 -5 -30 -19 -37 -42l-92 -368c-32 -129 2 -198 123 -198c133 0 199 85 228 202l82 329c7 35 0 54 -15 66c-14 11 -34 18 -59 21l9 37h256
l-9 -37c-21 -3 -42 -8 -61 -17c-25 -12 -46 -33 -57 -72l-82 -328c-37 -152 -137 -253 -318 -253zM640 836c-35 -71 -84 -110 -144 -110c-54 0 -96 36 -88 110h30c9 -44 35 -51 75 -51s67 8 96 51h31z" />
    <glyph glyph-name="Uhungarumlaut" unicode="&#x170;" horiz-adv-x="758" 
d="M304 -14c-153 0 -236 73 -193 242l92 368c7 29 2 45 -15 50c-13 4 -41 5 -57 6l10 41h266l-10 -41c-31 -3 -46 -2 -61 -6c-17 -5 -30 -19 -37 -42l-92 -368c-32 -129 2 -198 123 -198c133 0 199 85 228 202l82 329c7 35 0 54 -15 66c-14 11 -34 18 -59 21l9 37h256
l-9 -37c-21 -3 -42 -8 -61 -17c-25 -12 -46 -33 -57 -72l-82 -328c-37 -152 -137 -253 -318 -253zM732 832l-195 -99h-32l-1 10l130 100h96zM575 832l-160 -99h-32l-1 10l109 100h82z" />
    <glyph glyph-name="Umacron" unicode="&#x16a;" horiz-adv-x="758" 
d="M304 -14c-153 0 -236 73 -193 242l92 368c7 29 2 45 -15 50c-13 4 -41 5 -57 6l10 41h266l-10 -41c-31 -3 -46 -2 -61 -6c-17 -5 -30 -19 -37 -42l-92 -368c-32 -129 2 -198 123 -198c133 0 199 85 228 202l82 329c7 35 0 54 -15 66c-14 11 -34 18 -59 21l9 37h256
l-9 -37c-21 -3 -42 -8 -61 -17c-25 -12 -46 -33 -57 -72l-82 -328c-37 -152 -137 -253 -318 -253zM402 844h232l-15 -60h-232z" />
    <glyph glyph-name="Uogonek" unicode="&#x172;" horiz-adv-x="758" 
d="M304 -14c-153 0 -236 73 -193 242l92 368c7 29 2 45 -15 50c-13 4 -41 5 -57 6l10 41h266l-10 -41c-31 -3 -46 -2 -61 -6c-17 -5 -30 -19 -37 -42l-92 -368c-32 -129 2 -198 123 -198c133 0 199 85 228 202l82 329c7 35 0 54 -15 66c-14 11 -34 18 -59 21l9 37h256
l-9 -37c-21 -3 -42 -8 -61 -17c-25 -12 -46 -33 -57 -72l-82 -328c-37 -152 -137 -253 -318 -253zM401 -217c-27 -5 -51 -8 -72 -8c-56 0 -96 19 -96 68c0 55 49 125 172 176l30 -5c-56 -32 -119 -81 -119 -142c0 -39 25 -51 62 -51c11 0 23 1 34 4z" />
    <glyph glyph-name="Uring" unicode="&#x16e;" horiz-adv-x="758" 
d="M304 -14c-153 0 -236 73 -193 242l92 368c7 29 2 45 -15 50c-13 4 -41 5 -57 6l10 41h266l-10 -41c-31 -3 -46 -2 -61 -6c-17 -5 -30 -19 -37 -42l-92 -368c-32 -129 2 -198 123 -198c133 0 199 85 228 202l82 329c7 35 0 54 -15 66c-14 11 -34 18 -59 21l9 37h256
l-9 -37c-21 -3 -42 -8 -61 -17c-25 -12 -46 -33 -57 -72l-82 -328c-37 -152 -137 -253 -318 -253zM619 839c0 -64 -66 -115 -138 -115c-53 0 -85 28 -85 73c0 64 66 114 137 114c51 0 86 -25 86 -72zM493 760c40 0 72 35 72 75c0 27 -14 40 -42 40c-43 0 -73 -32 -73 -73
c0 -28 14 -42 43 -42z" />
    <glyph glyph-name="Ydieresis" unicode="&#x178;" horiz-adv-x="644" 
d="M281 604c0 -9 1 -19 5 -32l65 -227l191 237c12 15 18 27 18 37c0 27 -41 30 -76 33l10 41h241l-9 -35c-40 -4 -76 -27 -109 -62l-254 -305l-47 -194c-8 -31 -3 -43 14 -50c8 -3 35 -3 58 -6l-11 -41h-266l11 41c13 0 49 2 60 6c23 7 32 21 40 50l49 202l-96 297
c-13 35 -31 49 -72 56l10 41h276l-10 -41c-63 -5 -98 -8 -98 -48zM494 779c0 35 30 65 69 65c23 0 40 -11 40 -39c0 -41 -37 -65 -68 -65c-23 0 -41 12 -41 39zM326 778c0 35 29 66 68 66c23 0 41 -11 41 -39c0 -40 -37 -65 -69 -65c-23 0 -40 11 -40 38z" />
    <glyph glyph-name="Ycircumflex" unicode="&#x176;" horiz-adv-x="644" 
d="M281 604c0 -9 1 -19 5 -32l65 -227l191 237c12 15 18 27 18 37c0 27 -41 30 -76 33l10 41h241l-9 -35c-40 -4 -76 -27 -109 -62l-254 -305l-47 -194c-8 -31 -3 -43 14 -50c8 -3 35 -3 58 -6l-11 -41h-266l11 41c13 0 49 2 60 6c23 7 32 21 40 50l49 202l-96 297
c-13 35 -31 49 -72 56l10 41h276l-10 -41c-63 -5 -98 -8 -98 -48zM447 839h42l88 -100l-6 -10h-32l-84 57l-112 -57h-32l-2 10z" />
    <glyph glyph-name="Ygrave" unicode="&#x1ef2;" horiz-adv-x="644" 
d="M281 604c0 -9 1 -19 5 -32l65 -227l191 237c12 15 18 27 18 37c0 27 -41 30 -76 33l10 41h241l-9 -35c-40 -4 -76 -27 -109 -62l-254 -305l-47 -194c-8 -31 -3 -43 14 -50c8 -3 35 -3 58 -6l-11 -41h-266l11 41c13 0 49 2 60 6c23 7 32 21 40 50l49 202l-96 297
c-13 35 -31 49 -72 56l10 41h276l-10 -41c-63 -5 -98 -8 -98 -48zM256 843h102l130 -100l-1 -10h-32l-201 99z" />
    <glyph glyph-name="Yacute" unicode="&#xdd;" horiz-adv-x="644" 
d="M281 604c0 -9 1 -19 5 -32l65 -227l191 237c12 15 18 27 18 37c0 27 -41 30 -76 33l10 41h241l-9 -35c-40 -4 -76 -27 -109 -62l-254 -305l-47 -194c-8 -31 -3 -43 14 -50c8 -3 35 -3 58 -6l-11 -41h-266l11 41c13 0 49 2 60 6c23 7 32 21 40 50l49 202l-96 297
c-13 35 -31 49 -72 56l10 41h276l-10 -41c-63 -5 -98 -8 -98 -48zM632 832l-201 -99h-32l-1 10l130 100h102z" />
    <glyph glyph-name="uni0232" unicode="&#x232;" horiz-adv-x="644" 
d="M281 604c0 -9 1 -19 5 -32l65 -227l191 237c12 15 18 27 18 37c0 27 -41 30 -76 33l10 41h241l-9 -35c-40 -4 -76 -27 -109 -62l-254 -305l-47 -194c-8 -31 -3 -43 14 -50c8 -3 35 -3 58 -6l-11 -41h-266l11 41c13 0 49 2 60 6c23 7 32 21 40 50l49 202l-96 297
c-13 35 -31 49 -72 56l10 41h276l-10 -41c-63 -5 -98 -8 -98 -48zM349 844h232l-15 -60h-232z" />
    <glyph glyph-name="Zacute" unicode="&#x179;" horiz-adv-x="612" 
d="M537 212l-67 -212h-491v17l530 626h-154c-91 0 -145 -24 -204 -131l-32 2l56 179h472l3 -17l-532 -626h124c142 0 173 34 263 166zM595 832l-201 -99h-32l-1 10l130 100h102z" />
    <glyph glyph-name="Zcaron" unicode="&#x17d;" horiz-adv-x="612" 
d="M537 212l-67 -212h-491v17l530 626h-154c-91 0 -145 -24 -204 -131l-32 2l56 179h472l3 -17l-532 -626h124c142 0 173 34 263 166zM437 729h-42l-89 100l7 10h32l84 -57l112 57h32l1 -10z" />
    <glyph glyph-name="Zdotaccent" unicode="&#x17b;" horiz-adv-x="612" 
d="M537 212l-67 -212h-491v17l530 626h-154c-91 0 -145 -24 -204 -131l-32 2l56 179h472l3 -17l-532 -626h124c142 0 173 34 263 166zM373 778c0 35 31 69 71 69c24 0 43 -11 43 -42c0 -41 -36 -68 -71 -68c-24 0 -43 13 -43 41z" />
    <glyph glyph-name="uni018F" unicode="&#x18f;" horiz-adv-x="767" 
d="M150 594c71 58 197 115 327 115c173 0 263 -98 263 -255c0 -223 -185 -469 -446 -469c-173 0 -246 106 -246 239c0 32 3 63 22 140h552c4 27 7 51 7 74c0 115 -65 191 -202 191c-88 0 -202 -31 -285 -90zM310 37c161 0 260 142 300 277h-443c-7 -33 -12 -71 -12 -106
c0 -89 32 -171 155 -171z" />
    <glyph glyph-name="Thorn" unicode="&#xde;" horiz-adv-x="662" 
d="M300 558h175c104 0 173 -58 173 -155c0 -140 -146 -245 -287 -245h-160l-15 -61c-8 -31 -3 -43 14 -50c8 -3 35 -3 58 -6l-11 -41h-266l11 41c13 0 49 2 60 6c23 7 32 21 40 50l124 499c7 31 4 43 -15 50c-8 3 -34 3 -57 6l10 41h266l-10 -41c-13 0 -50 -3 -61 -6
c-19 -5 -32 -22 -39 -50zM288 508l-75 -300h127c107 0 196 77 196 186c0 68 -34 114 -95 114h-153z" />
    <glyph glyph-name="AE" unicode="&#xc6;" horiz-adv-x="945" 
d="M655 643l-65 -260h100c31 0 46 8 57 27c5 9 13 36 20 59h41l-55 -222h-41c3 14 9 48 9 59c-1 20 -15 27 -44 27h-100l-71 -283h135c98 0 141 44 208 158l24 -4l-64 -204h-495l11 41c13 0 49 2 60 6c23 7 32 21 40 50l46 186h-215l-145 -186c-17 -21 -9 -42 16 -49
c9 -3 33 -4 56 -7l-11 -41h-236l11 41c13 1 35 7 47 11c23 7 32 20 52 45l428 549l-77 6l10 41h543l-21 -167h-36c-3 96 -29 117 -117 117h-121zM538 643l-243 -310h189l77 310h-23z" />
    <glyph glyph-name="OE" unicode="&#x152;" horiz-adv-x="967" 
d="M973 693l-23 -167h-36c0 96 -34 117 -120 117h-122l-65 -260h106c27 0 39 4 50 17s16 34 27 69h41l-55 -222h-41c3 15 9 47 9 59c-1 20 -14 27 -43 27h-106l-71 -283h135c98 0 138 36 204 150l31 -4l-59 -196h-408c-35 -9 -72 -15 -109 -15c-161 0 -260 94 -260 262
c0 251 225 462 460 462c36 0 71 -5 98 -16h357zM492 659c-218 0 -331 -243 -331 -431c0 -125 49 -191 172 -191c39 0 70 6 99 18l146 586c-23 11 -51 18 -86 18z" />
    <glyph glyph-name="aacute" unicode="&#xe1;" horiz-adv-x="544" 
d="M389 97c-5 -18 -3 -27 6 -27c14 0 50 27 76 50l16 -30c-65 -76 -122 -105 -153 -105c-35 0 -50 39 -35 84l38 124h-3c-72 -117 -147 -204 -219 -204c-55 0 -98 42 -98 134c0 159 132 372 320 372c29 0 52 -7 75 -18l62 18h15zM150 63c51 0 137 121 204 225l30 122
c-23 17 -51 31 -82 31c-132 0 -189 -203 -189 -305c0 -49 12 -73 37 -73zM528 698l-193 -139h-32l-2 10l128 140h98z" />
    <glyph glyph-name="agrave" unicode="&#xe0;" horiz-adv-x="544" 
d="M389 97c-5 -18 -3 -27 6 -27c14 0 50 27 76 50l16 -30c-65 -76 -122 -105 -153 -105c-35 0 -50 39 -35 84l38 124h-3c-72 -117 -147 -204 -219 -204c-55 0 -98 42 -98 134c0 159 132 372 320 372c29 0 52 -7 75 -18l62 18h15zM150 63c51 0 137 121 204 225l30 122
c-23 17 -51 31 -82 31c-132 0 -189 -203 -189 -305c0 -49 12 -73 37 -73zM193 709h98l128 -140l-2 -10h-32l-193 139z" />
    <glyph glyph-name="acircumflex" unicode="&#xe2;" horiz-adv-x="544" 
d="M389 97c-5 -18 -3 -27 6 -27c14 0 50 27 76 50l16 -30c-65 -76 -122 -105 -153 -105c-35 0 -50 39 -35 84l38 124h-3c-72 -117 -147 -204 -219 -204c-55 0 -98 42 -98 134c0 159 132 372 320 372c29 0 52 -7 75 -18l62 18h15zM150 63c51 0 137 121 204 225l30 122
c-23 17 -51 31 -82 31c-132 0 -189 -203 -189 -305c0 -49 12 -73 37 -73zM368 709h42l78 -140l-6 -10h-32l-79 77l-117 -77h-32l-2 10z" />
    <glyph glyph-name="adieresis" unicode="&#xe4;" horiz-adv-x="544" 
d="M389 97c-5 -18 -3 -27 6 -27c14 0 50 27 76 50l16 -30c-65 -76 -122 -105 -153 -105c-35 0 -50 39 -35 84l38 124h-3c-72 -117 -147 -204 -219 -204c-55 0 -98 42 -98 134c0 159 132 372 320 372c29 0 52 -7 75 -18l62 18h15zM150 63c51 0 137 121 204 225l30 122
c-23 17 -51 31 -82 31c-132 0 -189 -203 -189 -305c0 -49 12 -73 37 -73zM406 640c0 35 31 69 71 69c24 0 43 -11 43 -42c0 -43 -38 -68 -71 -68c-24 0 -43 13 -43 41zM229 639c0 36 31 70 71 70c24 0 43 -11 43 -42c0 -43 -39 -68 -72 -68c-24 0 -42 13 -42 40z" />
    <glyph glyph-name="atilde" unicode="&#xe3;" horiz-adv-x="544" 
d="M389 97c-5 -18 -3 -27 6 -27c14 0 50 27 76 50l16 -30c-65 -76 -122 -105 -153 -105c-35 0 -50 39 -35 84l38 124h-3c-72 -117 -147 -204 -219 -204c-55 0 -98 42 -98 134c0 159 132 372 320 372c29 0 52 -7 75 -18l62 18h15zM150 63c51 0 137 121 204 225l30 122
c-23 17 -51 31 -82 31c-132 0 -189 -203 -189 -305c0 -49 12 -73 37 -73zM526 700c-16 -56 -50 -106 -119 -106c-64 0 -89 48 -121 48c-24 0 -39 -21 -54 -52h-31c17 60 55 106 115 106c56 0 79 -48 112 -48c28 0 51 17 66 52h32z" />
    <glyph glyph-name="aring" unicode="&#xe5;" horiz-adv-x="544" 
d="M389 97c-5 -18 -3 -27 6 -27c14 0 50 27 76 50l16 -30c-65 -76 -122 -105 -153 -105c-35 0 -50 39 -35 84l38 124h-3c-72 -117 -147 -204 -219 -204c-55 0 -98 42 -98 134c0 159 132 372 320 372c29 0 52 -7 75 -18l62 18h15zM150 63c51 0 137 121 204 225l30 122
c-23 17 -51 31 -82 31c-132 0 -189 -203 -189 -305c0 -49 12 -73 37 -73zM498 687c0 -64 -66 -115 -138 -115c-53 0 -85 28 -85 73c0 64 66 114 137 114c51 0 86 -25 86 -72zM372 608c40 0 72 35 72 75c0 27 -14 40 -42 40c-43 0 -73 -32 -73 -73c0 -28 14 -42 43 -42z" />
    <glyph glyph-name="abreve" unicode="&#x103;" horiz-adv-x="544" 
d="M389 97c-5 -18 -3 -27 6 -27c14 0 50 27 76 50l16 -30c-65 -76 -122 -105 -153 -105c-35 0 -50 39 -35 84l38 124h-3c-72 -117 -147 -204 -219 -204c-55 0 -98 42 -98 134c0 159 132 372 320 372c29 0 52 -7 75 -18l62 18h15zM150 63c51 0 137 121 204 225l30 122
c-23 17 -51 31 -82 31c-132 0 -189 -203 -189 -305c0 -49 12 -73 37 -73zM519 709c-43 -88 -104 -146 -179 -146c-65 0 -118 55 -107 146h37c11 -56 41 -72 90 -72c51 0 83 20 122 72h37z" />
    <glyph glyph-name="amacron" unicode="&#x101;" horiz-adv-x="544" 
d="M389 97c-5 -18 -3 -27 6 -27c14 0 50 27 76 50l16 -30c-65 -76 -122 -105 -153 -105c-35 0 -50 39 -35 84l38 124h-3c-72 -117 -147 -204 -219 -204c-55 0 -98 42 -98 134c0 159 132 372 320 372c29 0 52 -7 75 -18l62 18h15zM150 63c51 0 137 121 204 225l30 122
c-23 17 -51 31 -82 31c-132 0 -189 -203 -189 -305c0 -49 12 -73 37 -73zM263 674h232l-15 -60h-232z" />
    <glyph glyph-name="aogonek" unicode="&#x105;" horiz-adv-x="543" 
d="M389 97c-5 -18 -3 -27 6 -27c14 0 50 27 76 50l16 -30c-65 -76 -122 -105 -153 -105c-35 0 -50 39 -35 84l38 124h-3c-72 -117 -147 -204 -219 -204c-55 0 -98 42 -98 134c0 159 132 372 320 372c29 0 52 -7 75 -18l62 18h15zM150 63c51 0 137 121 204 225l30 122
c-23 17 -51 31 -82 31c-132 0 -189 -203 -189 -305c0 -49 12 -73 37 -73zM360 -217c-27 -5 -51 -8 -72 -8c-56 0 -96 19 -96 68c0 55 49 125 172 176l30 -5c-56 -32 -119 -81 -119 -142c0 -39 25 -51 62 -51c11 0 23 1 34 4z" />
    <glyph glyph-name="ccedilla" unicode="&#xe7;" horiz-adv-x="436" 
d="M379 370c-29 0 -38 19 -47 38c-11 19 -21 38 -57 38c-110 0 -158 -175 -158 -286c0 -62 11 -114 83 -114c48 0 85 21 141 77l14 -33c-52 -63 -111 -106 -194 -106c-107 0 -138 72 -138 159c0 155 111 351 282 351c67 0 121 -27 121 -72c0 -24 -10 -52 -47 -52zM270 -126
c0 -69 -79 -100 -146 -100c-23 0 -48 3 -71 10l14 54c24 -9 49 -15 72 -15c31 0 56 12 56 35c0 28 -38 29 -72 29l30 121h48l-16 -66c45 -4 85 -29 85 -68z" />
    <glyph glyph-name="cacute" unicode="&#x107;" horiz-adv-x="436" 
d="M379 370c-29 0 -38 19 -47 38c-11 19 -21 38 -57 38c-110 0 -158 -175 -158 -286c0 -62 11 -114 83 -114c48 0 85 21 141 77l14 -33c-52 -63 -111 -106 -194 -106c-107 0 -138 72 -138 159c0 155 111 351 282 351c67 0 121 -27 121 -72c0 -24 -10 -52 -47 -52zM490 698
l-193 -139h-32l-2 10l128 140h98z" />
    <glyph glyph-name="ccaron" unicode="&#x10d;" horiz-adv-x="436" 
d="M379 370c-29 0 -38 19 -47 38c-11 19 -21 38 -57 38c-110 0 -158 -175 -158 -286c0 -62 11 -114 83 -114c48 0 85 21 141 77l14 -33c-52 -63 -111 -106 -194 -106c-107 0 -138 72 -138 159c0 155 111 351 282 351c67 0 121 -27 121 -72c0 -24 -10 -52 -47 -52zM329 569
h-42l-78 140l6 10h32l79 -77l117 77h32l2 -10z" />
    <glyph glyph-name="ccircumflex" unicode="&#x109;" horiz-adv-x="436" 
d="M379 370c-29 0 -38 19 -47 38c-11 19 -21 38 -57 38c-110 0 -158 -175 -158 -286c0 -62 11 -114 83 -114c48 0 85 21 141 77l14 -33c-52 -63 -111 -106 -194 -106c-107 0 -138 72 -138 159c0 155 111 351 282 351c67 0 121 -27 121 -72c0 -24 -10 -52 -47 -52zM333 709
h42l78 -140l-6 -10h-32l-79 77l-117 -77h-32l-2 10z" />
    <glyph glyph-name="cdotaccent" unicode="&#x10b;" horiz-adv-x="436" 
d="M379 370c-29 0 -38 19 -47 38c-11 19 -21 38 -57 38c-110 0 -158 -175 -158 -286c0 -62 11 -114 83 -114c48 0 85 21 141 77l14 -33c-52 -63 -111 -106 -194 -106c-107 0 -138 72 -138 159c0 155 111 351 282 351c67 0 121 -27 121 -72c0 -24 -10 -52 -47 -52zM275 667
c0 31 25 57 56 57s57 -26 57 -57s-26 -56 -57 -56s-56 25 -56 56z" />
    <glyph glyph-name="dcaron" unicode="&#x10f;" horiz-adv-x="531" 
d="M378 97c-7 -23 0 -29 11 -26c17 4 46 28 71 49l11 -31c-65 -76 -114 -104 -145 -104c-35 0 -48 39 -35 84l35 118h-4c-71 -114 -144 -198 -215 -198c-48 0 -88 39 -88 131c0 160 122 375 310 375c24 0 46 -3 66 -10l44 178c7 25 1 34 -14 34c-17 0 -44 -15 -71 -28v35
c53 39 98 55 133 55c41 0 51 -26 40 -66zM142 63c52 0 136 119 203 223l32 130c-23 13 -51 25 -83 25c-132 0 -189 -203 -189 -305c0 -49 12 -73 37 -73zM689 733c-21 -66 -92 -166 -133 -210h-25l-2 10c27 47 61 128 81 211h78z" />
    <glyph glyph-name="dcroat" unicode="&#x111;" horiz-adv-x="531" 
d="M273 611h153l13 52c7 25 1 34 -14 34c-17 0 -44 -15 -71 -28v35c53 39 98 55 133 55c41 0 51 -26 40 -66l-21 -82h69l-10 -45h-70l-117 -469c-7 -23 0 -29 11 -26c17 4 46 28 71 49l11 -31c-65 -76 -114 -104 -145 -104c-35 0 -48 39 -35 84l35 118h-4
c-71 -114 -144 -198 -215 -198c-48 0 -88 39 -88 131c0 160 122 375 310 375c24 0 46 -3 66 -10l20 81h-152zM142 63c52 0 136 119 203 223l32 130c-23 13 -51 25 -83 25c-132 0 -189 -203 -189 -305c0 -49 12 -73 37 -73z" />
    <glyph glyph-name="eacute" unicode="&#xe9;" horiz-adv-x="460" 
d="M368 91c-52 -63 -120 -106 -203 -106c-106 0 -143 72 -143 158c0 149 113 352 291 352c61 0 125 -21 125 -92c0 -73 -67 -168 -318 -179c-3 -23 -4 -44 -4 -63c0 -62 16 -114 88 -114c48 0 94 21 150 77zM284 447c-86 0 -135 -92 -157 -184c204 21 215 99 215 126
c0 41 -21 58 -58 58zM496 698l-193 -139h-32l-2 10l128 140h98z" />
    <glyph glyph-name="egrave" unicode="&#xe8;" horiz-adv-x="460" 
d="M368 91c-52 -63 -120 -106 -203 -106c-106 0 -143 72 -143 158c0 149 113 352 291 352c61 0 125 -21 125 -92c0 -73 -67 -168 -318 -179c-3 -23 -4 -44 -4 -63c0 -62 16 -114 88 -114c48 0 94 21 150 77zM284 447c-86 0 -135 -92 -157 -184c204 21 215 99 215 126
c0 41 -21 58 -58 58zM130 709h98l128 -140l-2 -10h-32l-193 139z" />
    <glyph glyph-name="ecircumflex" unicode="&#xea;" horiz-adv-x="460" 
d="M368 91c-52 -63 -120 -106 -203 -106c-106 0 -143 72 -143 158c0 149 113 352 291 352c61 0 125 -21 125 -92c0 -73 -67 -168 -318 -179c-3 -23 -4 -44 -4 -63c0 -62 16 -114 88 -114c48 0 94 21 150 77zM284 447c-86 0 -135 -92 -157 -184c204 21 215 99 215 126
c0 41 -21 58 -58 58zM341 709h42l78 -140l-6 -10h-32l-79 77l-117 -77h-32l-2 10z" />
    <glyph glyph-name="edieresis" unicode="&#xeb;" horiz-adv-x="460" 
d="M368 91c-52 -63 -120 -106 -203 -106c-106 0 -143 72 -143 158c0 149 113 352 291 352c61 0 125 -21 125 -92c0 -73 -67 -168 -318 -179c-3 -23 -4 -44 -4 -63c0 -62 16 -114 88 -114c48 0 94 21 150 77zM284 447c-86 0 -135 -92 -157 -184c204 21 215 99 215 126
c0 41 -21 58 -58 58zM375 640c0 35 31 69 71 69c24 0 43 -11 43 -42c0 -43 -38 -68 -71 -68c-24 0 -43 13 -43 41zM198 639c0 36 31 70 71 70c24 0 43 -11 43 -42c0 -43 -39 -68 -72 -68c-24 0 -42 13 -42 40z" />
    <glyph glyph-name="ebreve" unicode="&#x115;" horiz-adv-x="460" 
d="M368 91c-52 -63 -120 -106 -203 -106c-106 0 -143 72 -143 158c0 149 113 352 291 352c61 0 125 -21 125 -92c0 -73 -67 -168 -318 -179c-3 -23 -4 -44 -4 -63c0 -62 16 -114 88 -114c48 0 94 21 150 77zM284 447c-86 0 -135 -92 -157 -184c204 21 215 99 215 126
c0 41 -21 58 -58 58zM492 709c-43 -88 -104 -146 -179 -146c-65 0 -118 55 -107 146h37c11 -56 41 -72 90 -72c51 0 83 20 122 72h37z" />
    <glyph glyph-name="ecaron" unicode="&#x11b;" horiz-adv-x="460" 
d="M368 91c-52 -63 -120 -106 -203 -106c-106 0 -143 72 -143 158c0 149 113 352 291 352c61 0 125 -21 125 -92c0 -73 -67 -168 -318 -179c-3 -23 -4 -44 -4 -63c0 -62 16 -114 88 -114c48 0 94 21 150 77zM284 447c-86 0 -135 -92 -157 -184c204 21 215 99 215 126
c0 41 -21 58 -58 58zM338 569h-42l-78 140l6 10h32l79 -77l117 77h32l2 -10z" />
    <glyph glyph-name="edotaccent" unicode="&#x117;" horiz-adv-x="460" 
d="M368 91c-52 -63 -120 -106 -203 -106c-106 0 -143 72 -143 158c0 149 113 352 291 352c61 0 125 -21 125 -92c0 -73 -67 -168 -318 -179c-3 -23 -4 -44 -4 -63c0 -62 16 -114 88 -114c48 0 94 21 150 77zM284 447c-86 0 -135 -92 -157 -184c204 21 215 99 215 126
c0 41 -21 58 -58 58zM268 654c0 31 25 57 56 57s57 -26 57 -57s-26 -56 -57 -56s-56 25 -56 56z" />
    <glyph glyph-name="emacron" unicode="&#x113;" horiz-adv-x="460" 
d="M368 91c-52 -63 -120 -106 -203 -106c-106 0 -143 72 -143 158c0 149 113 352 291 352c61 0 125 -21 125 -92c0 -73 -67 -168 -318 -179c-3 -23 -4 -44 -4 -63c0 -62 16 -114 88 -114c48 0 94 21 150 77zM284 447c-86 0 -135 -92 -157 -184c204 21 215 99 215 126
c0 41 -21 58 -58 58zM219 674h232l-15 -60h-232z" />
    <glyph glyph-name="uni1EBD" unicode="&#x1ebd;" horiz-adv-x="460" 
d="M368 91c-52 -63 -120 -106 -203 -106c-106 0 -143 72 -143 158c0 149 113 352 291 352c61 0 125 -21 125 -92c0 -73 -67 -168 -318 -179c-3 -23 -4 -44 -4 -63c0 -62 16 -114 88 -114c48 0 94 21 150 77zM284 447c-86 0 -135 -92 -157 -184c204 21 215 99 215 126
c0 41 -21 58 -58 58zM484 700c-16 -56 -50 -106 -119 -106c-64 0 -89 48 -121 48c-24 0 -39 -21 -54 -52h-31c17 60 55 106 115 106c56 0 79 -48 112 -48c28 0 51 17 66 52h32z" />
    <glyph glyph-name="eogonek" unicode="&#x119;" horiz-adv-x="460" 
d="M368 91c-52 -63 -120 -106 -203 -106c-106 0 -143 72 -143 158c0 149 113 352 291 352c61 0 125 -21 125 -92c0 -73 -67 -168 -318 -179c-3 -23 -4 -44 -4 -63c0 -62 16 -114 88 -114c48 0 94 21 150 77zM284 447c-86 0 -135 -92 -157 -184c204 21 215 99 215 126
c0 41 -21 58 -58 58zM225 -217c-27 -5 -51 -8 -72 -8c-56 0 -96 19 -96 68c0 55 49 125 172 176l30 -5c-56 -32 -119 -81 -119 -142c0 -39 25 -51 62 -51c11 0 23 1 34 4z" />
    <glyph glyph-name="uni0229" unicode="&#x229;" horiz-adv-x="460" 
d="M368 91c-52 -63 -120 -106 -203 -106c-106 0 -143 72 -143 158c0 149 113 352 291 352c61 0 125 -21 125 -92c0 -73 -67 -168 -318 -179c-3 -23 -4 -44 -4 -63c0 -62 16 -114 88 -114c48 0 94 21 150 77zM284 447c-86 0 -135 -92 -157 -184c204 21 215 99 215 126
c0 41 -21 58 -58 58zM272 -126c0 -69 -79 -100 -146 -100c-23 0 -48 3 -71 10l14 54c24 -9 49 -15 72 -15c31 0 56 12 56 35c0 28 -38 29 -72 29l30 121h48l-16 -66c45 -4 85 -29 85 -68z" />
    <glyph glyph-name="gbreve" unicode="&#x11f;" horiz-adv-x="478" 
d="M201 185c-21 0 -42 3 -61 8c-22 -21 -33 -39 -33 -56c0 -19 17 -32 50 -37l80 -12c93 -15 149 -40 149 -105c0 -108 -151 -209 -304 -209c-103 0 -155 49 -155 116c0 77 72 121 145 153c-31 15 -42 34 -42 58c0 44 44 79 85 103c-35 19 -52 51 -52 96
c0 109 110 195 228 195c46 0 81 -13 106 -39c13 15 19 31 24 47c8 27 23 45 50 45c20 0 34 -10 34 -29c0 -42 -50 -64 -95 -80c11 -19 17 -41 17 -67c0 -109 -106 -187 -226 -187zM127 28c-11 1 -19 2 -28 5c-49 -29 -89 -66 -89 -122c0 -55 38 -82 106 -82
c97 0 184 47 184 124c0 35 -26 54 -90 63zM218 228c72 0 120 73 120 140c0 55 -27 84 -67 84c-70 0 -122 -77 -122 -144c0 -48 20 -80 69 -80zM469 709c-43 -88 -104 -146 -179 -146c-65 0 -118 55 -107 146h37c11 -56 41 -72 90 -72c51 0 83 20 122 72h37z" />
    <glyph glyph-name="gcircumflex" unicode="&#x11d;" horiz-adv-x="478" 
d="M201 185c-21 0 -42 3 -61 8c-22 -21 -33 -39 -33 -56c0 -19 17 -32 50 -37l80 -12c93 -15 149 -40 149 -105c0 -108 -151 -209 -304 -209c-103 0 -155 49 -155 116c0 77 72 121 145 153c-31 15 -42 34 -42 58c0 44 44 79 85 103c-35 19 -52 51 -52 96
c0 109 110 195 228 195c46 0 81 -13 106 -39c13 15 19 31 24 47c8 27 23 45 50 45c20 0 34 -10 34 -29c0 -42 -50 -64 -95 -80c11 -19 17 -41 17 -67c0 -109 -106 -187 -226 -187zM127 28c-11 1 -19 2 -28 5c-49 -29 -89 -66 -89 -122c0 -55 38 -82 106 -82
c97 0 184 47 184 124c0 35 -26 54 -90 63zM218 228c72 0 120 73 120 140c0 55 -27 84 -67 84c-70 0 -122 -77 -122 -144c0 -48 20 -80 69 -80zM304 709h42l78 -140l-6 -10h-32l-79 77l-117 -77h-32l-2 10z" />
    <glyph glyph-name="gcommaaccent" unicode="&#x123;" horiz-adv-x="478" 
d="M201 185c-21 0 -42 3 -61 8c-22 -21 -33 -39 -33 -56c0 -19 17 -32 50 -37l80 -12c93 -15 149 -40 149 -105c0 -108 -151 -209 -304 -209c-103 0 -155 49 -155 116c0 77 72 121 145 153c-31 15 -42 34 -42 58c0 44 44 79 85 103c-35 19 -52 51 -52 96
c0 109 110 195 228 195c46 0 81 -13 106 -39c13 15 19 31 24 47c8 27 23 45 50 45c20 0 34 -10 34 -29c0 -42 -50 -64 -95 -80c11 -19 17 -41 17 -67c0 -109 -106 -187 -226 -187zM127 28c-11 1 -19 2 -28 5c-49 -29 -89 -66 -89 -122c0 -55 38 -82 106 -82
c97 0 184 47 184 124c0 35 -26 54 -90 63zM218 228c72 0 120 73 120 140c0 55 -27 84 -67 84c-70 0 -122 -77 -122 -144c0 -48 20 -80 69 -80zM232 602c0 60 73 109 131 133l12 -20c-44 -23 -65 -40 -80 -71c24 0 40 -12 40 -32c0 -25 -26 -51 -62 -51c-25 0 -41 13 -41 41z
" />
    <glyph glyph-name="gdotaccent" unicode="&#x121;" horiz-adv-x="478" 
d="M201 185c-21 0 -42 3 -61 8c-22 -21 -33 -39 -33 -56c0 -19 17 -32 50 -37l80 -12c93 -15 149 -40 149 -105c0 -108 -151 -209 -304 -209c-103 0 -155 49 -155 116c0 77 72 121 145 153c-31 15 -42 34 -42 58c0 44 44 79 85 103c-35 19 -52 51 -52 96
c0 109 110 195 228 195c46 0 81 -13 106 -39c13 15 19 31 24 47c8 27 23 45 50 45c20 0 34 -10 34 -29c0 -42 -50 -64 -95 -80c11 -19 17 -41 17 -67c0 -109 -106 -187 -226 -187zM127 28c-11 1 -19 2 -28 5c-49 -29 -89 -66 -89 -122c0 -55 38 -82 106 -82
c97 0 184 47 184 124c0 35 -26 54 -90 63zM218 228c72 0 120 73 120 140c0 55 -27 84 -67 84c-70 0 -122 -77 -122 -144c0 -48 20 -80 69 -80zM253 653c0 31 25 57 56 57s57 -26 57 -57s-26 -56 -57 -56s-56 25 -56 56z" />
    <glyph glyph-name="gcaron" unicode="&#x1e7;" horiz-adv-x="478" 
d="M313 569h-42l-78 140l6 10h32l79 -77l117 77h32l2 -10zM201 185c-21 0 -42 3 -61 8c-22 -21 -33 -39 -33 -56c0 -19 17 -32 50 -37l80 -12c93 -15 149 -40 149 -105c0 -108 -151 -209 -304 -209c-103 0 -155 49 -155 116c0 77 72 121 145 153c-31 15 -42 34 -42 58
c0 44 44 79 85 103c-35 19 -52 51 -52 96c0 109 110 195 228 195c46 0 81 -13 106 -39c13 15 19 31 24 47c8 27 23 45 50 45c20 0 34 -10 34 -29c0 -42 -50 -64 -95 -80c11 -19 17 -41 17 -67c0 -109 -106 -187 -226 -187zM127 28c-11 1 -19 2 -28 5
c-49 -29 -89 -66 -89 -122c0 -55 38 -82 106 -82c97 0 184 47 184 124c0 35 -26 54 -90 63zM218 228c72 0 120 73 120 140c0 55 -27 84 -67 84c-70 0 -122 -77 -122 -144c0 -48 20 -80 69 -80z" />
    <glyph glyph-name="uni01F5" unicode="&#x1f5;" horiz-adv-x="478" 
d="M482 698l-193 -139h-32l-2 10l128 140h98zM201 185c-21 0 -42 3 -61 8c-22 -21 -33 -39 -33 -56c0 -19 17 -32 50 -37l80 -12c93 -15 149 -40 149 -105c0 -108 -151 -209 -304 -209c-103 0 -155 49 -155 116c0 77 72 121 145 153c-31 15 -42 34 -42 58c0 44 44 79 85 103
c-35 19 -52 51 -52 96c0 109 110 195 228 195c46 0 81 -13 106 -39c13 15 19 31 24 47c8 27 23 45 50 45c20 0 34 -10 34 -29c0 -42 -50 -64 -95 -80c11 -19 17 -41 17 -67c0 -109 -106 -187 -226 -187zM127 28c-11 1 -19 2 -28 5c-49 -29 -89 -66 -89 -122
c0 -55 38 -82 106 -82c97 0 184 47 184 124c0 35 -26 54 -90 63zM218 228c72 0 120 73 120 140c0 55 -27 84 -67 84c-70 0 -122 -77 -122 -144c0 -48 20 -80 69 -80z" />
    <glyph glyph-name="hbar" unicode="&#x127;" horiz-adv-x="533" 
d="M74 601h85l15 61c7 24 2 33 -11 33c-16 0 -45 -12 -73 -28v35c64 43 107 56 136 56c43 0 47 -31 36 -72l-22 -85h136l-10 -45h-137l-68 -275h2c89 156 154 214 218 214c60 0 90 -43 61 -163l-56 -222c-7 -27 -7 -40 4 -40s34 15 75 50l11 -31
c-65 -76 -114 -105 -145 -104c-35 1 -47 37 -35 84l60 239c19 71 20 96 -17 96c-39 0 -113 -77 -201 -228l-46 -176h-81l137 556h-84z" />
    <glyph glyph-name="iacute" unicode="&#xed;" horiz-adv-x="291" 
d="M138 90c-2 -13 1 -20 8 -20c11 0 34 15 75 50l11 -31c-65 -76 -114 -105 -145 -104c-35 1 -47 37 -35 84l81 330c7 24 2 33 -11 33c-16 0 -45 -12 -73 -28v35c64 43 107 56 136 56c43 0 47 -31 36 -72zM349 698l-193 -139h-32l-2 10l128 140h98z" />
    <glyph glyph-name="igrave" unicode="&#xec;" horiz-adv-x="291" 
d="M138 90c-2 -13 1 -20 8 -20c11 0 34 15 75 50l11 -31c-65 -76 -114 -105 -145 -104c-35 1 -47 37 -35 84l81 330c7 24 2 33 -11 33c-16 0 -45 -12 -73 -28v35c64 43 107 56 136 56c43 0 47 -31 36 -72zM-4 709h98l128 -140l-2 -10h-32l-193 139z" />
    <glyph glyph-name="icircumflex" unicode="&#xee;" horiz-adv-x="291" 
d="M138 90c-2 -13 1 -20 8 -20c11 0 34 15 75 50l11 -31c-65 -76 -114 -105 -145 -104c-35 1 -47 37 -35 84l81 330c7 24 2 33 -11 33c-16 0 -45 -12 -73 -28v35c64 43 107 56 136 56c43 0 47 -31 36 -72zM185 709h42l78 -140l-6 -10h-32l-79 77l-117 -77h-32l-2 10z" />
    <glyph glyph-name="idieresis" unicode="&#xef;" horiz-adv-x="291" 
d="M138 90c-2 -13 1 -20 8 -20c11 0 34 15 75 50l11 -31c-65 -76 -114 -105 -145 -104c-35 1 -47 37 -35 84l81 330c7 24 2 33 -11 33c-16 0 -45 -12 -73 -28v35c64 43 107 56 136 56c43 0 47 -31 36 -72zM237 640c0 35 31 69 71 69c24 0 43 -11 43 -42
c0 -43 -38 -68 -71 -68c-24 0 -43 13 -43 41zM60 639c0 36 31 70 71 70c24 0 43 -11 43 -42c0 -43 -39 -68 -72 -68c-24 0 -42 13 -42 40z" />
    <glyph glyph-name="ibreve" unicode="&#x12d;" horiz-adv-x="291" 
d="M138 90c-2 -13 1 -20 8 -20c11 0 34 15 75 50l11 -31c-65 -76 -114 -105 -145 -104c-35 1 -47 37 -35 84l81 330c7 24 2 33 -11 33c-16 0 -45 -12 -73 -28v35c64 43 107 56 136 56c43 0 47 -31 36 -72zM357 709c-43 -88 -104 -146 -179 -146c-65 0 -118 55 -107 146h37
c11 -56 41 -72 90 -72c51 0 83 20 122 72h37z" />
    <glyph glyph-name="dotlessi" unicode="&#x131;" horiz-adv-x="291" 
d="M138 90c-2 -13 1 -20 8 -20c11 0 34 15 75 50l11 -31c-65 -76 -114 -105 -145 -104c-35 1 -47 37 -35 84l81 330c7 24 2 33 -11 33c-16 0 -45 -12 -73 -28v35c64 43 107 56 136 56c43 0 47 -31 36 -72z" />
    <glyph glyph-name="imacron" unicode="&#x12b;" horiz-adv-x="291" 
d="M138 90c-2 -13 1 -20 8 -20c11 0 34 15 75 50l11 -31c-65 -76 -114 -105 -145 -104c-35 1 -47 37 -35 84l81 330c7 24 2 33 -11 33c-16 0 -45 -12 -73 -28v35c64 43 107 56 136 56c43 0 47 -31 36 -72zM106 674h232l-15 -60h-232z" />
    <glyph glyph-name="iogonek" unicode="&#x12f;" horiz-adv-x="291" 
d="M127 696c0 31 25 57 56 57s57 -26 57 -57s-26 -56 -57 -56s-56 25 -56 56zM138 90c-2 -13 1 -20 8 -20c11 0 34 15 75 50l11 -31c-65 -76 -114 -105 -145 -104c-35 1 -47 37 -35 84l81 330c7 24 2 33 -11 33c-16 0 -45 -12 -73 -28v35c64 43 107 56 136 56
c43 0 47 -31 36 -72zM112 -217c-27 -5 -51 -8 -72 -8c-56 0 -96 19 -96 68c0 55 49 125 172 176l30 -5c-56 -32 -119 -81 -119 -142c0 -39 25 -51 62 -51c11 0 23 1 34 4z" />
    <glyph glyph-name="itilde" unicode="&#x129;" horiz-adv-x="291" 
d="M138 90c-2 -13 1 -20 8 -20c11 0 34 15 75 50l11 -31c-65 -76 -114 -105 -145 -104c-35 1 -47 37 -35 84l81 330c7 24 2 33 -11 33c-16 0 -45 -12 -73 -28v35c64 43 107 56 136 56c43 0 47 -31 36 -72zM365 700c-16 -56 -50 -106 -119 -106c-64 0 -89 48 -121 48
c-24 0 -39 -21 -54 -52h-31c17 60 55 106 115 106c56 0 79 -48 112 -48c28 0 51 17 66 52h32z" />
    <glyph glyph-name="kcommaaccent" unicode="&#x137;" horiz-adv-x="507" 
d="M10 0l166 663c7 25 1 34 -14 34c-17 0 -44 -15 -71 -28v35c53 39 98 55 133 55c41 0 51 -26 40 -66l-102 -404h3c86 150 150 206 213 206c44 0 82 -22 82 -83c0 -64 -45 -119 -148 -194l117 -203l-10 -30h-70l-115 209v10c92 76 132 142 132 182c0 19 -10 29 -30 29
c-39 0 -110 -82 -198 -233l-48 -182h-80zM233 -102c0 -60 -73 -109 -131 -133l-12 20c44 23 65 40 80 71c-24 0 -40 12 -40 32c0 25 26 51 62 51c25 0 41 -13 41 -41z" />
    <glyph glyph-name="lacute" unicode="&#x13a;" horiz-adv-x="267" 
d="M117 97c-5 -23 -1 -29 10 -26c17 3 47 28 72 49l11 -31c-65 -76 -114 -104 -145 -104c-35 0 -46 39 -35 84l148 594c7 25 1 34 -14 34c-17 0 -44 -15 -71 -28v35c53 39 98 55 133 55c41 0 51 -26 40 -66zM366 892l-201 -99h-32l-1 10l130 100h102z" />
    <glyph glyph-name="lcaron" unicode="&#x13e;" horiz-adv-x="267" 
d="M117 97c-5 -23 -1 -29 10 -26c17 3 47 28 72 49l11 -31c-65 -76 -114 -104 -145 -104c-35 0 -46 39 -35 84l148 594c7 25 1 34 -14 34c-17 0 -44 -15 -71 -28v35c53 39 98 55 133 55c41 0 51 -26 40 -66zM398 733c-21 -66 -92 -166 -133 -210h-25l-2 10
c27 47 61 128 81 211h78z" />
    <glyph glyph-name="lcommaaccent" unicode="&#x13c;" horiz-adv-x="267" 
d="M117 97c-5 -23 -1 -29 10 -26c17 3 47 28 72 49l11 -31c-65 -76 -114 -104 -145 -104c-35 0 -46 39 -35 84l148 594c7 25 1 34 -14 34c-17 0 -44 -15 -71 -28v35c53 39 98 55 133 55c41 0 51 -26 40 -66zM95 -102c0 -60 -73 -109 -131 -133l-12 20c44 23 65 40 80 71
c-24 0 -40 12 -40 32c0 25 26 51 62 51c25 0 41 -13 41 -41z" />
    <glyph glyph-name="ldot" unicode="&#x140;" horiz-adv-x="269" 
d="M117 97c-5 -23 -1 -29 10 -26c17 3 47 28 72 49l11 -31c-65 -76 -114 -104 -145 -104c-35 0 -46 39 -35 84l148 594c7 25 1 34 -14 34c-17 0 -44 -15 -71 -28v35c53 39 98 55 133 55c41 0 51 -26 40 -66zM204 356c0 39 34 76 75 76c24 0 45 -13 45 -49
c0 -49 -42 -73 -74 -73c-27 0 -46 15 -46 46z" />
    <glyph glyph-name="lslash" unicode="&#x142;" horiz-adv-x="290" 
d="M140 97c-5 -23 -1 -29 10 -26c17 3 47 28 72 49l11 -31c-65 -76 -114 -104 -145 -104c-35 0 -46 39 -35 84l68 272l-109 -55l16 62l108 55l65 260c7 25 1 34 -14 34c-17 0 -44 -15 -71 -28v35c53 39 98 55 133 55c41 0 51 -26 40 -66l-61 -244l62 32l-16 -62l-62 -32z
" />
    <glyph glyph-name="ntilde" unicode="&#xf1;" horiz-adv-x="557" 
d="M134 399c7 24 2 33 -11 33c-16 0 -45 -12 -73 -28v35c64 43 107 56 136 56c43 0 47 -31 36 -72l-46 -158h3c93 168 160 230 227 230c60 0 90 -43 61 -163l-56 -222c-7 -27 -7 -40 4 -40s34 15 75 50l11 -31c-65 -76 -114 -105 -145 -104c-35 1 -47 37 -35 84l60 239
c19 71 20 96 -17 96c-39 0 -116 -81 -208 -240l-39 -164h-81zM516 700c-16 -56 -50 -106 -119 -106c-64 0 -89 48 -121 48c-24 0 -39 -21 -54 -52h-31c17 60 55 106 115 106c56 0 79 -48 112 -48c28 0 51 17 66 52h32z" />
    <glyph glyph-name="nacute" unicode="&#x144;" horiz-adv-x="557" 
d="M134 399c7 24 2 33 -11 33c-16 0 -45 -12 -73 -28v35c64 43 107 56 136 56c43 0 47 -31 36 -72l-46 -158h3c93 168 160 230 227 230c60 0 90 -43 61 -163l-56 -222c-7 -27 -7 -40 4 -40s34 15 75 50l11 -31c-65 -76 -114 -105 -145 -104c-35 1 -47 37 -35 84l60 239
c19 71 20 96 -17 96c-39 0 -116 -81 -208 -240l-39 -164h-81zM503 698l-193 -139h-32l-2 10l128 140h98z" />
    <glyph glyph-name="ncaron" unicode="&#x148;" horiz-adv-x="557" 
d="M134 399c7 24 2 33 -11 33c-16 0 -45 -12 -73 -28v35c64 43 107 56 136 56c43 0 47 -31 36 -72l-46 -158h3c93 168 160 230 227 230c60 0 90 -43 61 -163l-56 -222c-7 -27 -7 -40 4 -40s34 15 75 50l11 -31c-65 -76 -114 -105 -145 -104c-35 1 -47 37 -35 84l60 239
c19 71 20 96 -17 96c-39 0 -116 -81 -208 -240l-39 -164h-81zM363 569h-42l-78 140l6 10h32l79 -77l117 77h32l2 -10z" />
    <glyph glyph-name="ncommaaccent" unicode="&#x146;" horiz-adv-x="557" 
d="M134 399c7 24 2 33 -11 33c-16 0 -45 -12 -73 -28v35c64 43 107 56 136 56c43 0 47 -31 36 -72l-46 -158h3c93 168 160 230 227 230c60 0 90 -43 61 -163l-56 -222c-7 -27 -7 -40 4 -40s34 15 75 50l11 -31c-65 -76 -114 -105 -145 -104c-35 1 -47 37 -35 84l60 239
c19 71 20 96 -17 96c-39 0 -116 -81 -208 -240l-39 -164h-81zM256 -102c0 -60 -73 -109 -131 -133l-12 20c44 23 65 40 80 71c-24 0 -40 12 -40 32c0 25 26 51 62 51c25 0 41 -13 41 -41z" />
    <glyph glyph-name="oacute" unicode="&#xf3;" horiz-adv-x="510" 
d="M463 325c0 -151 -114 -340 -284 -340c-104 0 -153 69 -153 174c0 160 113 336 281 336c100 0 156 -65 156 -170zM196 34c101 0 171 174 171 300c0 60 -16 111 -77 111c-108 0 -167 -161 -167 -290c0 -64 14 -121 73 -121zM492 698l-193 -139h-32l-2 10l128 140h98z" />
    <glyph glyph-name="ograve" unicode="&#xf2;" horiz-adv-x="510" 
d="M463 325c0 -151 -114 -340 -284 -340c-104 0 -153 69 -153 174c0 160 113 336 281 336c100 0 156 -65 156 -170zM196 34c101 0 171 174 171 300c0 60 -16 111 -77 111c-108 0 -167 -161 -167 -290c0 -64 14 -121 73 -121zM120 709h98l128 -140l-2 -10h-32l-193 139z" />
    <glyph glyph-name="ocircumflex" unicode="&#xf4;" horiz-adv-x="510" 
d="M463 325c0 -151 -114 -340 -284 -340c-104 0 -153 69 -153 174c0 160 113 336 281 336c100 0 156 -65 156 -170zM196 34c101 0 171 174 171 300c0 60 -16 111 -77 111c-108 0 -167 -161 -167 -290c0 -64 14 -121 73 -121zM331 709h42l78 -140l-6 -10h-32l-79 77l-117 -77
h-32l-2 10z" />
    <glyph glyph-name="odieresis" unicode="&#xf6;" horiz-adv-x="510" 
d="M463 325c0 -151 -114 -340 -284 -340c-104 0 -153 69 -153 174c0 160 113 336 281 336c100 0 156 -65 156 -170zM196 34c101 0 171 174 171 300c0 60 -16 111 -77 111c-108 0 -167 -161 -167 -290c0 -64 14 -121 73 -121zM363 640c0 35 31 69 71 69c24 0 43 -11 43 -42
c0 -43 -38 -68 -71 -68c-24 0 -43 13 -43 41zM186 639c0 36 31 70 71 70c24 0 43 -11 43 -42c0 -43 -39 -68 -72 -68c-24 0 -42 13 -42 40z" />
    <glyph glyph-name="otilde" unicode="&#xf5;" horiz-adv-x="510" 
d="M463 325c0 -151 -114 -340 -284 -340c-104 0 -153 69 -153 174c0 160 113 336 281 336c100 0 156 -65 156 -170zM196 34c101 0 171 174 171 300c0 60 -16 111 -77 111c-108 0 -167 -161 -167 -290c0 -64 14 -121 73 -121zM484 700c-16 -56 -50 -106 -119 -106
c-64 0 -89 48 -121 48c-24 0 -39 -21 -54 -52h-31c17 60 55 106 115 106c56 0 79 -48 112 -48c28 0 51 17 66 52h32z" />
    <glyph glyph-name="obreve" unicode="&#x14f;" horiz-adv-x="510" 
d="M463 325c0 -151 -114 -340 -284 -340c-104 0 -153 69 -153 174c0 160 113 336 281 336c100 0 156 -65 156 -170zM196 34c101 0 171 174 171 300c0 60 -16 111 -77 111c-108 0 -167 -161 -167 -290c0 -64 14 -121 73 -121zM492 709c-43 -88 -104 -146 -179 -146
c-65 0 -118 55 -107 146h37c11 -56 41 -72 90 -72c51 0 83 20 122 72h37z" />
    <glyph glyph-name="ohungarumlaut" unicode="&#x151;" horiz-adv-x="510" 
d="M463 325c0 -151 -114 -340 -284 -340c-104 0 -153 69 -153 174c0 160 113 336 281 336c100 0 156 -65 156 -170zM196 34c101 0 171 174 171 300c0 60 -16 111 -77 111c-108 0 -167 -161 -167 -290c0 -64 14 -121 73 -121zM406 698l-173 -139h-32l-2 10l108 140h98z
M567 698l-193 -139h-32l-2 10l128 140h98z" />
    <glyph glyph-name="oslash" unicode="&#xf8;" horiz-adv-x="508" 
d="M462 325c0 -151 -114 -340 -284 -340c-45 0 -81 13 -107 39l-55 -59h-57l87 93c-14 27 -21 60 -21 101c0 160 113 336 281 336c47 0 83 -14 110 -41l57 61h60l-91 -97c13 -25 20 -56 20 -93zM122 139l237 254c-11 31 -31 52 -70 52c-108 0 -167 -161 -167 -290v-16z
M195 34c101 0 171 174 171 300v3l-236 -250c9 -32 29 -53 65 -53z" />
    <glyph glyph-name="racute" unicode="&#x155;" horiz-adv-x="407" 
d="M134 400c7 24 2 33 -11 33c-16 0 -45 -12 -73 -28v35c64 43 107 56 136 56c43 0 48 -31 36 -72l-31 -114h3c96 154 136 185 187 185c31 0 48 -10 48 -42c0 -27 -17 -51 -57 -54c-83 -5 -109 -41 -198 -175l-57 -224h-81zM462 698l-193 -139h-32l-2 10l128 140h98z" />
    <glyph glyph-name="rcaron" unicode="&#x159;" horiz-adv-x="407" 
d="M134 400c7 24 2 33 -11 33c-16 0 -45 -12 -73 -28v35c64 43 107 56 136 56c43 0 48 -31 36 -72l-31 -114h3c96 154 136 185 187 185c31 0 48 -10 48 -42c0 -27 -17 -51 -57 -54c-83 -5 -109 -41 -198 -175l-57 -224h-81zM306 569h-42l-78 140l6 10h32l79 -77l117 77h32
l2 -10z" />
    <glyph glyph-name="rcommaaccent" unicode="&#x157;" horiz-adv-x="407" 
d="M134 400c7 24 2 33 -11 33c-16 0 -45 -12 -73 -28v35c64 43 107 56 136 56c43 0 48 -31 36 -72l-31 -114h3c96 154 136 185 187 185c31 0 48 -10 48 -42c0 -27 -17 -51 -57 -54c-83 -5 -109 -41 -198 -175l-57 -224h-81zM115 -102c0 -60 -73 -109 -131 -133l-12 20
c44 23 65 40 80 71c-24 0 -40 12 -40 32c0 25 26 51 62 51c25 0 41 -13 41 -41z" />
    <glyph glyph-name="sacute" unicode="&#x15b;" horiz-adv-x="371" 
d="M99 -12c-64 0 -114 17 -114 58c0 27 16 43 44 43c39 0 57 -45 124 -45c25 0 49 9 49 46c0 32 -17 55 -34 79l-70 100c-20 31 -27 59 -27 80c0 72 86 146 186 146c60 0 105 -23 105 -62c0 -25 -18 -41 -45 -41c-35 0 -60 46 -119 46c-39 0 -55 -24 -55 -55
c0 -13 3 -29 20 -54l73 -102c10 -13 43 -54 43 -97c0 -59 -63 -142 -180 -142zM428 698l-193 -139h-32l-2 10l128 140h98z" />
    <glyph glyph-name="scedilla" unicode="&#x15f;" horiz-adv-x="371" 
d="M99 -12c-64 0 -114 17 -114 58c0 27 16 43 44 43c39 0 57 -45 124 -45c25 0 49 9 49 46c0 32 -17 55 -34 79l-70 100c-20 31 -27 59 -27 80c0 72 86 146 186 146c60 0 105 -23 105 -62c0 -25 -18 -41 -45 -41c-35 0 -60 46 -119 46c-39 0 -55 -24 -55 -55
c0 -13 3 -29 20 -54l73 -102c10 -13 43 -54 43 -97c0 -59 -63 -142 -180 -142zM204 -126c0 -69 -79 -100 -146 -100c-23 0 -48 3 -71 10l14 54c24 -9 49 -15 72 -15c31 0 56 12 56 35c0 28 -38 29 -72 29l30 121h48l-16 -66c45 -4 85 -29 85 -68z" />
    <glyph glyph-name="scaron" unicode="&#x161;" horiz-adv-x="371" 
d="M99 -12c-64 0 -114 17 -114 58c0 27 16 43 44 43c39 0 57 -45 124 -45c25 0 49 9 49 46c0 32 -17 55 -34 79l-70 100c-20 31 -27 59 -27 80c0 72 86 146 186 146c60 0 105 -23 105 -62c0 -25 -18 -41 -45 -41c-35 0 -60 46 -119 46c-39 0 -55 -24 -55 -55
c0 -13 3 -29 20 -54l73 -102c10 -13 43 -54 43 -97c0 -59 -63 -142 -180 -142zM270 569h-42l-78 140l6 10h32l79 -77l117 77h32l2 -10z" />
    <glyph glyph-name="scircumflex" unicode="&#x15d;" horiz-adv-x="371" 
d="M99 -12c-64 0 -114 17 -114 58c0 27 16 43 44 43c39 0 57 -45 124 -45c25 0 49 9 49 46c0 32 -17 55 -34 79l-70 100c-20 31 -27 59 -27 80c0 72 86 146 186 146c60 0 105 -23 105 -62c0 -25 -18 -41 -45 -41c-35 0 -60 46 -119 46c-39 0 -55 -24 -55 -55
c0 -13 3 -29 20 -54l73 -102c10 -13 43 -54 43 -97c0 -59 -63 -142 -180 -142zM277 709h42l78 -140l-6 -10h-32l-79 77l-117 -77h-32l-2 10z" />
    <glyph glyph-name="germandbls" unicode="&#xdf;" horiz-adv-x="579" 
d="M67 481h85l1 5c40 155 147 273 291 273c96 0 132 -44 132 -112c0 -144 -198 -178 -198 -268c0 -13 3 -27 19 -50l73 -102c24 -33 43 -58 43 -97c0 -60 -68 -145 -180 -145c-68 0 -114 20 -114 64c0 23 16 40 44 40c53 0 50 -45 124 -45c25 0 49 11 49 46
c0 27 -7 43 -34 79l-70 100c-11 15 -27 44 -27 80c0 128 181 156 181 265c0 43 -18 81 -91 81c-92 0 -121 -55 -148 -159l-121 -488c-24 -100 -105 -273 -234 -273c-43 0 -79 21 -79 48c0 23 17 43 44 43s42 -33 83 -33c39 0 65 61 92 165l107 433h-84z" />
    <glyph glyph-name="tbar" unicode="&#x167;" horiz-adv-x="374" 
d="M66 481h96l25 96l79 52h15l-37 -148h138l-13 -50h-138l-31 -126h117l-12 -50h-118l-23 -95c-6 -25 -9 -45 -9 -60c0 -25 10 -38 31 -38c23 0 58 14 110 41l18 -29c-61 -52 -115 -85 -168 -85c-55 0 -82 27 -82 80c0 15 3 33 8 54l33 132h-72l12 50h73l32 126h-97z" />
    <glyph glyph-name="tcaron" unicode="&#x165;" horiz-adv-x="373" 
d="M65 481h96l25 96l79 52h15l-37 -148h138l-13 -50h-138l-67 -271c-6 -25 -9 -45 -9 -60c0 -25 10 -38 31 -38c23 0 58 14 110 41l18 -29c-61 -52 -115 -85 -168 -85c-55 0 -82 27 -82 80c0 15 3 33 8 54l78 308h-97zM491 776c-21 -66 -92 -166 -133 -210h-25l-2 10
c27 47 61 128 81 211h78z" />
    <glyph glyph-name="uni021B" unicode="&#x21b;" horiz-adv-x="373" 
d="M65 481h96l25 96l79 52h15l-37 -148h138l-13 -50h-138l-67 -271c-6 -25 -9 -45 -9 -60c0 -25 10 -38 31 -38c23 0 58 14 110 41l18 -29c-61 -52 -115 -85 -168 -85c-55 0 -82 27 -82 80c0 15 3 33 8 54l78 308h-97zM202 -102c0 -60 -73 -109 -131 -133l-12 20
c44 23 65 40 80 71c-24 0 -40 12 -40 32c0 25 26 51 62 51c25 0 41 -13 41 -41z" />
    <glyph glyph-name="uacute" unicode="&#xfa;" horiz-adv-x="556" 
d="M403 96c-7 -23 3 -26 7 -26c16 0 46 26 75 50l11 -31c-65 -76 -115 -104 -144 -104c-44 0 -47 44 -36 84l37 137h-3c-91 -163 -159 -221 -220 -221c-60 0 -90 45 -61 164l63 250c7 27 -3 34 -14 34s-35 -7 -71 -28v35c51 39 102 56 133 55c35 -1 52 -19 40 -66l-65 -256
c-19 -71 -21 -98 16 -98c39 0 114 79 205 236l43 170h81zM515 698l-193 -139h-32l-2 10l128 140h98z" />
    <glyph glyph-name="ugrave" unicode="&#xf9;" horiz-adv-x="556" 
d="M403 96c-7 -23 3 -26 7 -26c16 0 46 26 75 50l11 -31c-65 -76 -115 -104 -144 -104c-44 0 -47 44 -36 84l37 137h-3c-91 -163 -159 -221 -220 -221c-60 0 -90 45 -61 164l63 250c7 27 -3 34 -14 34s-35 -7 -71 -28v35c51 39 102 56 133 55c35 -1 52 -19 40 -66l-65 -256
c-19 -71 -21 -98 16 -98c39 0 114 79 205 236l43 170h81zM151 709h98l128 -140l-2 -10h-32l-193 139z" />
    <glyph glyph-name="ucircumflex" unicode="&#xfb;" horiz-adv-x="556" 
d="M403 96c-7 -23 3 -26 7 -26c16 0 46 26 75 50l11 -31c-65 -76 -115 -104 -144 -104c-44 0 -47 44 -36 84l37 137h-3c-91 -163 -159 -221 -220 -221c-60 0 -90 45 -61 164l63 250c7 27 -3 34 -14 34s-35 -7 -71 -28v35c51 39 102 56 133 55c35 -1 52 -19 40 -66l-65 -256
c-19 -71 -21 -98 16 -98c39 0 114 79 205 236l43 170h81zM341 709h42l78 -140l-6 -10h-32l-79 77l-117 -77h-32l-2 10z" />
    <glyph glyph-name="udieresis" unicode="&#xfc;" horiz-adv-x="556" 
d="M403 96c-7 -23 3 -26 7 -26c16 0 46 26 75 50l11 -31c-65 -76 -115 -104 -144 -104c-44 0 -47 44 -36 84l37 137h-3c-91 -163 -159 -221 -220 -221c-60 0 -90 45 -61 164l63 250c7 27 -3 34 -14 34s-35 -7 -71 -28v35c51 39 102 56 133 55c35 -1 52 -19 40 -66l-65 -256
c-19 -71 -21 -98 16 -98c39 0 114 79 205 236l43 170h81zM381 640c0 35 31 69 71 69c24 0 43 -11 43 -42c0 -43 -38 -68 -71 -68c-24 0 -43 13 -43 41zM204 639c0 36 31 70 71 70c24 0 43 -11 43 -42c0 -43 -39 -68 -72 -68c-24 0 -42 13 -42 40z" />
    <glyph glyph-name="uhungarumlaut" unicode="&#x171;" horiz-adv-x="556" 
d="M403 96c-7 -23 3 -26 7 -26c16 0 46 26 75 50l11 -31c-65 -76 -115 -104 -144 -104c-44 0 -47 44 -36 84l37 137h-3c-91 -163 -159 -221 -220 -221c-60 0 -90 45 -61 164l63 250c7 27 -3 34 -14 34s-35 -7 -71 -28v35c51 39 102 56 133 55c35 -1 52 -19 40 -66l-65 -256
c-19 -71 -21 -98 16 -98c39 0 114 79 205 236l43 170h81zM415 698l-173 -139h-32l-2 10l108 140h98zM576 698l-193 -139h-32l-2 10l128 140h98z" />
    <glyph glyph-name="uogonek" unicode="&#x173;" horiz-adv-x="556" 
d="M403 96c-7 -23 3 -26 7 -26c16 0 46 26 75 50l11 -31c-65 -76 -115 -104 -144 -104c-44 0 -47 44 -36 84l37 137h-3c-91 -163 -159 -221 -220 -221c-60 0 -90 45 -61 164l63 250c7 27 -3 34 -14 34s-35 -7 -71 -28v35c51 39 102 56 133 55c35 -1 52 -19 40 -66l-65 -256
c-19 -71 -21 -98 16 -98c39 0 114 79 205 236l43 170h81zM378 -217c-27 -5 -51 -8 -72 -8c-56 0 -96 19 -96 68c0 55 49 125 172 176l30 -5c-56 -32 -119 -81 -119 -142c0 -39 25 -51 62 -51c11 0 23 1 34 4z" />
    <glyph glyph-name="uring" unicode="&#x16f;" horiz-adv-x="556" 
d="M403 96c-7 -23 3 -26 7 -26c16 0 46 26 75 50l11 -31c-65 -76 -115 -104 -144 -104c-44 0 -47 44 -36 84l37 137h-3c-91 -163 -159 -221 -220 -221c-60 0 -90 45 -61 164l63 250c7 27 -3 34 -14 34s-35 -7 -71 -28v35c51 39 102 56 133 55c35 -1 52 -19 40 -66l-65 -256
c-19 -71 -21 -98 16 -98c39 0 114 79 205 236l43 170h81zM457 687c0 -64 -66 -115 -138 -115c-53 0 -85 28 -85 73c0 64 66 114 137 114c51 0 86 -25 86 -72zM331 608c40 0 72 35 72 75c0 27 -14 40 -42 40c-43 0 -73 -32 -73 -73c0 -28 14 -42 43 -42z" />
    <glyph glyph-name="ydieresis" unicode="&#xff;" horiz-adv-x="536" 
d="M308 27c51 88 80 190 97 302c-64 -100 -147 -216 -251 -320h-37l4 403c-2 14 -8 21 -18 21c-15 0 -45 -14 -69 -26v33c13 10 27 19 42 27c25 15 56 28 87 28c39 0 52 -24 49 -77l-11 -290c80 88 176 224 213 284c3 23 4 45 5 69h88l6 -10c-16 -70 -49 -284 -158 -459
c-64 -104 -183 -234 -316 -234c-46 0 -69 16 -69 47c0 35 26 53 63 53c59 0 163 -48 275 149zM375 640c0 35 31 69 71 69c24 0 43 -11 43 -42c0 -43 -38 -68 -71 -68c-24 0 -43 13 -43 41zM198 639c0 36 31 70 71 70c24 0 43 -11 43 -42c0 -43 -39 -68 -72 -68
c-24 0 -42 13 -42 40z" />
    <glyph glyph-name="ygrave" unicode="&#x1ef3;" horiz-adv-x="536" 
d="M308 27c51 88 80 190 97 302c-64 -100 -147 -216 -251 -320h-37l4 403c-2 14 -8 21 -18 21c-15 0 -45 -14 -69 -26v33c13 10 27 19 42 27c25 15 56 28 87 28c39 0 52 -24 49 -77l-11 -290c80 88 176 224 213 284c3 23 4 45 5 69h88l6 -10c-16 -70 -49 -284 -158 -459
c-64 -104 -183 -234 -316 -234c-46 0 -69 16 -69 47c0 35 26 53 63 53c59 0 163 -48 275 149zM156 709h98l128 -140l-2 -10h-32l-193 139z" />
    <glyph glyph-name="yacute" unicode="&#xfd;" horiz-adv-x="536" 
d="M308 27c51 88 80 190 97 302c-64 -100 -147 -216 -251 -320h-37l4 403c-2 14 -8 21 -18 21c-15 0 -45 -14 -69 -26v33c13 10 27 19 42 27c25 15 56 28 87 28c39 0 52 -24 49 -77l-11 -290c80 88 176 224 213 284c3 23 4 45 5 69h88l6 -10c-16 -70 -49 -284 -158 -459
c-64 -104 -183 -234 -316 -234c-46 0 -69 16 -69 47c0 35 26 53 63 53c59 0 163 -48 275 149zM495 698l-193 -139h-32l-2 10l128 140h98z" />
    <glyph glyph-name="zacute" unicode="&#x17a;" horiz-adv-x="478" 
d="M435 481l10 -28l-321 -356c51 -8 148 -24 185 -24c60 0 68 10 97 68l27 -6c-37 -108 -62 -149 -131 -149c-72 0 -198 35 -235 48l-31 -34h-38l-9 26l320 356c-87 0 -134 26 -184 26c-20 0 -35 -6 -54 -53l-25 8c37 104 54 132 103 132c69 0 107 -42 216 -50l33 36h37z
M464 698l-193 -139h-32l-2 10l128 140h98z" />
    <glyph glyph-name="zcaron" unicode="&#x17e;" horiz-adv-x="478" 
d="M435 481l10 -28l-321 -356c51 -8 148 -24 185 -24c60 0 68 10 97 68l27 -6c-37 -108 -62 -149 -131 -149c-72 0 -198 35 -235 48l-31 -34h-38l-9 26l320 356c-87 0 -134 26 -184 26c-20 0 -35 -6 -54 -53l-25 8c37 104 54 132 103 132c69 0 107 -42 216 -50l33 36h37z
M300 569h-42l-78 140l6 10h32l79 -77l117 77h32l2 -10z" />
    <glyph glyph-name="zdotaccent" unicode="&#x17c;" horiz-adv-x="478" 
d="M435 481l10 -28l-321 -356c51 -8 148 -24 185 -24c60 0 68 10 97 68l27 -6c-37 -108 -62 -149 -131 -149c-72 0 -198 35 -235 48l-31 -34h-38l-9 26l320 356c-87 0 -134 26 -184 26c-20 0 -35 -6 -54 -53l-25 8c37 104 54 132 103 132c69 0 107 -42 216 -50l33 36h37z
M233 653c0 31 25 57 56 57s57 -26 57 -57s-26 -56 -57 -56s-56 25 -56 56z" />
    <glyph glyph-name="thorn" unicode="&#xfe;" horiz-adv-x="521" 
d="M-98 -167h66l48 191l161 638c7 25 1 34 -14 34c-16 0 -43 -13 -71 -28v35c65 45 101 55 133 55c39 0 51 -26 40 -66l-98 -376h2c82 133 144 179 205 179c69 0 101 -55 101 -147c0 -176 -111 -362 -314 -362c-20 0 -45 3 -72 10l-41 -163h136l-12 -50h-282zM330 411
c-40 0 -99 -58 -186 -198l-37 -147c25 -12 58 -22 93 -22c131 0 185 155 185 271c0 72 -15 96 -55 96z" />
    <glyph glyph-name="afii10846" unicode="&#x4d9;" horiz-adv-x="460" 
d="M70 389c52 63 120 106 203 106c106 0 143 -72 143 -158c0 -149 -113 -352 -291 -352c-61 0 -125 21 -125 92c0 73 65 168 317 179c3 23 5 43 5 63c0 62 -16 114 -88 114c-48 0 -94 -21 -150 -77zM154 33c85 0 135 91 156 184c-205 -21 -214 -99 -214 -126
c0 -41 21 -58 58 -58z" />
    <glyph glyph-name="eth" unicode="&#xf0;" horiz-adv-x="535" 
d="M237 598l100 64c-25 25 -60 47 -103 64l19 31c54 -15 98 -37 133 -64l104 67l23 -38l-94 -60c52 -59 74 -135 74 -234c0 -238 -129 -443 -312 -443c-109 0 -154 86 -154 182c0 152 115 327 269 327c40 0 76 -13 111 -44v6c0 60 -7 120 -42 171l-104 -67zM211 43
c111 0 181 188 194 361c-35 25 -67 34 -102 34c-143 0 -179 -165 -179 -261c0 -97 36 -134 87 -134z" />
    <glyph glyph-name="uni01DD" unicode="&#x1dd;" horiz-adv-x="460" 
d="M70 389c52 63 120 106 203 106c106 0 143 -72 143 -158c0 -149 -113 -352 -291 -352c-61 0 -125 21 -125 92c0 73 65 168 317 179c3 23 5 43 5 63c0 62 -16 114 -88 114c-48 0 -94 -21 -150 -77zM154 33c85 0 135 91 156 184c-205 -21 -214 -99 -214 -126
c0 -41 21 -58 58 -58z" />
    <glyph glyph-name="uni0259" unicode="&#x259;" horiz-adv-x="460" 
d="M70 389c52 63 120 106 203 106c106 0 143 -72 143 -158c0 -149 -113 -352 -291 -352c-61 0 -125 21 -125 92c0 73 65 168 317 179c3 23 5 43 5 63c0 62 -16 114 -88 114c-48 0 -94 -21 -150 -77zM154 33c85 0 135 91 156 184c-205 -21 -214 -99 -214 -126
c0 -41 21 -58 58 -58z" />
    <glyph glyph-name="ae" unicode="&#xe6;" horiz-adv-x="718" 
d="M626 91c-52 -63 -120 -106 -203 -106c-92 0 -133 54 -141 124c-51 -73 -115 -119 -183 -119c-57 0 -100 41 -100 97c0 107 98 153 295 169h4l12 45c5 23 9 42 9 61c0 35 -15 59 -72 59c-45 0 -113 -11 -161 -22l6 44c67 31 149 49 213 49c67 0 91 -27 94 -71
c47 45 104 74 172 74c61 0 125 -21 125 -92c0 -72 -67 -169 -318 -180c-3 -23 -4 -43 -4 -62c0 -62 16 -114 88 -114c48 0 94 21 150 77zM542 447c-86 0 -135 -92 -157 -184c204 21 215 99 215 126c0 41 -21 58 -58 58zM139 65c43 0 96 34 141 95c1 20 4 40 9 60
c-135 -15 -196 -52 -196 -103c0 -31 19 -52 46 -52z" />
    <glyph glyph-name="oe" unicode="&#x153;" horiz-adv-x="781" 
d="M689 91c-52 -63 -120 -106 -203 -106c-76 0 -115 35 -132 86c-44 -51 -103 -86 -175 -86c-104 0 -153 69 -153 174c0 160 113 336 281 336c76 0 114 -38 129 -102c51 60 117 102 198 102c61 0 125 -21 125 -92c0 -73 -67 -168 -318 -179c-3 -23 -4 -44 -4 -63
c0 -62 16 -114 88 -114c48 0 94 21 150 77zM196 34c101 0 171 174 171 300c0 60 -16 111 -77 111c-108 0 -167 -161 -167 -290c0 -64 14 -121 73 -121zM605 447c-86 0 -135 -92 -157 -184c204 21 215 99 215 126c0 41 -21 58 -58 58z" />
    <glyph glyph-name="comma" unicode="," horiz-adv-x="280" 
d="M-41 -173l-17 32c57 35 108 77 128 142c-36 0 -59 19 -59 48c0 45 40 82 80 82c43 0 70 -30 70 -67c0 -107 -119 -197 -202 -237z" />
    <glyph glyph-name="period" unicode="." horiz-adv-x="281" 
d="M74 -10c-27 0 -63 8 -63 51c0 55 43 82 87 82c28 0 65 -11 65 -50c0 -44 -33 -83 -89 -83z" />
    <glyph glyph-name="colon" unicode=":" horiz-adv-x="296" 
d="M79 -10c-27 0 -63 8 -63 51c0 55 43 82 87 82c28 0 65 -11 65 -50c0 -44 -33 -83 -89 -83zM171 361c-27 0 -63 8 -63 51c0 55 43 82 87 82c28 0 65 -11 65 -50c0 -44 -33 -83 -89 -83z" />
    <glyph glyph-name="semicolon" unicode=";" horiz-adv-x="315" 
d="M-23 -173l-17 32c57 35 108 77 128 142c-36 0 -59 19 -59 48c0 45 40 82 80 82c43 0 70 -30 70 -67c0 -107 -119 -197 -202 -237zM176 361c-27 0 -63 8 -63 51c0 55 43 82 87 82c28 0 65 -11 65 -50c0 -44 -33 -83 -89 -83z" />
    <glyph glyph-name="question" unicode="?" horiz-adv-x="467" 
d="M189 237c-7 24 -8 36 -8 55c0 114 208 160 208 254c0 36 -25 83 -94 83c-47 0 -123 -28 -166 -71l-18 23c85 93 159 119 235 119c88 0 141 -53 141 -121c0 -144 -224 -183 -252 -304c-4 -15 0 -31 1 -38h-47zM260 56c0 -52 -41 -66 -77 -66s-77 14 -77 66
c0 51 41 67 77 67s77 -16 77 -67z" />
    <glyph glyph-name="questiondown" unicode="&#xbf;" horiz-adv-x="452" 
d="M248 247c7 -24 8 -36 8 -55c0 -114 -208 -160 -208 -254c0 -36 25 -83 94 -83c47 0 123 28 166 71l18 -23c-85 -93 -159 -119 -235 -119c-88 0 -141 53 -141 121c0 144 224 183 252 304c4 15 0 31 -1 38h47zM177 428c0 52 41 66 77 66s77 -14 77 -66
c0 -51 -41 -67 -77 -67s-77 16 -77 67z" />
    <glyph glyph-name="exclam" unicode="!" horiz-adv-x="313" 
d="M304 693l-26 -104l-107 -353h-61l69 353l26 104h99zM186 56c0 -52 -41 -66 -77 -66s-77 14 -77 66c0 51 41 67 77 67s77 -16 77 -67z" />
    <glyph glyph-name="exclamdown" unicode="&#xa1;" horiz-adv-x="291" 
d="M-22 -209l26 104l107 353h61l-69 -353l-26 -104h-99zM96 428c0 52 41 66 77 66s77 -14 77 -66c0 -51 -41 -67 -77 -67s-77 16 -77 67z" />
    <glyph glyph-name="hyphen" unicode="-" horiz-adv-x="423" 
d="M334 224h-276l20 77h276z" />
    <glyph glyph-name="endash" unicode="&#x2013;" horiz-adv-x="661" 
d="M566 238h-497l15 61h497z" />
    <glyph glyph-name="emdash" unicode="&#x2014;" horiz-adv-x="864" 
d="M769 238h-700l15 61h700z" />
    <glyph glyph-name="underscore" unicode="_" horiz-adv-x="643" 
d="M444 -217h-496l16 61h496z" />
    <glyph glyph-name="at" unicode="@" horiz-adv-x="879" 
d="M571 71c-56 0 -80 22 -84 50c-47 -35 -86 -48 -123 -48c-72 0 -115 47 -115 128c0 140 111 280 266 280c31 0 59 -6 82 -19l44 11h12l-76 -306c-9 -35 5 -44 29 -44c126 0 200 178 200 319c0 133 -91 213 -229 213c-261 0 -486 -251 -486 -511c0 -147 90 -251 274 -251
c59 0 183 10 276 58l-12 -48c-75 -40 -204 -60 -290 -60c-208 0 -309 125 -309 293c0 280 259 571 566 571c166 0 269 -97 269 -250c0 -187 -108 -386 -294 -386zM415 137c27 0 43 5 76 20l63 251c-19 12 -41 23 -77 23c-63 0 -145 -57 -145 -224c0 -45 20 -70 83 -70z" />
    <glyph glyph-name="ampersand" unicode="&#x26;" horiz-adv-x="764" 
d="M674 12c-27 -16 -64 -25 -103 -25c-70 0 -83 30 -122 80l-1 1c-56 -44 -128 -83 -223 -83c-101 0 -178 51 -178 152c0 102 76 176 173 219c-32 47 -45 81 -45 120c0 120 115 233 249 233c71 0 146 -32 146 -120c0 -112 -120 -176 -223 -216l151 -198l9 12
c19 25 115 155 200 155c28 0 46 -13 38 -44s-33 -45 -62 -45c-59 0 -111 -57 -136 -85c-7 -8 -15 -17 -24 -26l18 -23c31 -43 57 -70 106 -70c9 0 20 1 32 3zM280 55c59 0 103 18 142 45l-169 212c-5 7 -10 10 -14 17c-48 -43 -84 -104 -84 -167c0 -64 36 -107 125 -107z
M276 521c0 -32 11 -62 36 -101l16 -21c68 38 147 96 147 184c0 43 -20 72 -68 72c-70 0 -131 -63 -131 -134z" />
    <glyph glyph-name="slash" unicode="/" horiz-adv-x="429" 
d="M504 744l-523 -961h-63l520 961h66z" />
    <glyph glyph-name="backslash" unicode="\" horiz-adv-x="413" 
d="M213 744l41 -961h-64l-43 961h66z" />
    <glyph glyph-name="bar" unicode="|" horiz-adv-x="267" 
d="M283 744l-240 -961h-69l240 961h69z" />
    <glyph glyph-name="parenleft" unicode="(" horiz-adv-x="360" 
d="M22 75c0 276 135 570 418 685l9 -38c-201 -68 -333 -415 -333 -656c0 -108 35 -181 112 -228l-27 -38c-128 44 -179 147 -179 275z" />
    <glyph glyph-name="parenright" unicode=")" horiz-adv-x="362" 
d="M334 470c0 -270 -135 -582 -416 -670l-9 38c202 69 332 415 332 657c0 107 -34 180 -111 227l27 38c132 -59 177 -164 177 -290z" />
    <glyph glyph-name="bracketleft" unicode="[" horiz-adv-x="349" 
d="M197 -194h-218l238 953h218l-14 -55h-132l-210 -843h132z" />
    <glyph glyph-name="bracketright" unicode="]" horiz-adv-x="350" 
d="M-73 -139h132l210 843h-132l14 55h218l-238 -953h-218z" />
    <glyph glyph-name="braceleft" unicode="{" horiz-adv-x="368" 
d="M216 -194c-128 0 -199 30 -164 171l37 149c24 99 -11 120 -68 125l16 63c67 8 106 31 130 125l37 150c34 143 135 170 250 170l-14 -55c-82 0 -128 -19 -146 -101l-31 -124c-29 -114 -63 -175 -148 -194l-2 -5c90 -27 79 -84 52 -194l-31 -124c-21 -84 25 -101 96 -101z
" />
    <glyph glyph-name="braceright" unicode="}" horiz-adv-x="368" 
d="M-73 -139c71 0 125 17 146 101l31 124c27 110 45 168 148 194l2 5c-76 20 -81 79 -52 194l31 124c18 82 -11 101 -96 101l14 55c117 0 198 -27 164 -170l-37 -150c-24 -94 7 -117 68 -125l-16 -63c-60 -5 -106 -26 -130 -125l-37 -149c-35 -142 -123 -171 -249 -171z" />
    <glyph glyph-name="asciicircum" unicode="^" horiz-adv-x="643" 
d="M105 313l297 380h60l106 -380h-75l-79 304l-230 -304h-79z" />
    <glyph glyph-name="section" unicode="&#xa7;" horiz-adv-x="537" 
d="M50 251c0 79 56 155 144 199c-23 23 -37 51 -37 90c0 111 127 219 260 219c76 0 145 -36 145 -79c0 -27 -24 -56 -59 -56c-56 0 -42 83 -122 83c-61 0 -130 -50 -130 -119c0 -35 18 -56 55 -75l90 -46c56 -28 94 -66 94 -129c0 -72 -53 -145 -141 -188
c27 -20 49 -50 49 -98c0 -117 -135 -220 -272 -220c-68 0 -148 25 -148 73c0 39 22 65 65 65c61 0 32 -85 114 -85c59 0 142 44 142 111c0 39 -27 61 -70 84l-80 40c-71 35 -99 75 -99 131zM304 178l5 -3c53 25 81 71 81 111c0 36 -22 63 -67 87l-79 42l-16 9
c-45 -24 -79 -67 -79 -118c0 -39 19 -59 63 -82z" />
    <glyph glyph-name="bullet" unicode="&#x2022;" horiz-adv-x="434" 
d="M348 301c0 -79 -75 -164 -163 -164c-61 0 -108 40 -108 100c0 85 81 161 164 161c61 0 107 -41 107 -97z" />
    <glyph glyph-name="numbersign" unicode="#" horiz-adv-x="673" 
d="M162 481h129l108 212h59l-108 -212h142l108 212h59l-108 -212h130l-30 -60h-130l-81 -160h129l-30 -60h-130l-101 -201h-60l102 201h-142l-101 -201h-60l102 201h-129l30 60h129l82 160h-129zM239 261h141l82 160h-142z" />
    <glyph glyph-name="percent" unicode="%" horiz-adv-x="792" 
d="M755 693l-642 -693h-68l640 693h70zM427 588c0 -104 -93 -209 -213 -209c-63 0 -114 33 -114 116c0 128 112 208 208 208c68 0 119 -38 119 -115zM227 420c85 0 121 111 121 177c0 47 -18 66 -53 66c-88 0 -117 -110 -117 -171c0 -31 6 -72 49 -72zM726 197
c0 -104 -93 -209 -213 -209c-63 0 -114 33 -114 116c0 128 112 208 208 208c68 0 119 -38 119 -115zM526 29c85 0 121 111 121 177c0 47 -18 66 -53 66c-88 0 -117 -110 -117 -171c0 -31 6 -72 49 -72z" />
    <glyph glyph-name="perthousand" unicode="&#x2030;" horiz-adv-x="1142" 
d="M756 693l-642 -693h-68l640 693h70zM428 588c0 -104 -93 -209 -213 -209c-63 0 -114 33 -114 116c0 128 112 208 208 208c68 0 119 -38 119 -115zM228 420c85 0 121 111 121 177c0 47 -18 66 -53 66c-88 0 -117 -110 -117 -171c0 -31 6 -72 49 -72zM727 197
c0 -104 -93 -209 -213 -209c-63 0 -114 33 -114 116c0 128 112 208 208 208c68 0 119 -38 119 -115zM527 29c85 0 121 111 121 177c0 47 -18 66 -53 66c-88 0 -117 -110 -117 -171c0 -31 6 -72 49 -72zM1077 197c0 -104 -93 -209 -213 -209c-63 0 -114 33 -114 116
c0 128 112 208 208 208c68 0 119 -38 119 -115zM877 29c85 0 121 111 121 177c0 47 -18 66 -53 66c-88 0 -117 -110 -117 -171c0 -31 6 -72 49 -72z" />
    <glyph glyph-name="dagger" unicode="&#x2020;" horiz-adv-x="438" 
d="M426 410h-139l-156 -627h-73l156 627h-139l18 71h138l66 263h73l-66 -263h140z" />
    <glyph glyph-name="quotesingle" unicode="'" horiz-adv-x="234" 
d="M289 744l-111 -283h-70l103 283h78z" />
    <glyph glyph-name="quotedbl" unicode="&#x22;" horiz-adv-x="404" 
d="M289 744l-111 -283h-70l103 283h78zM459 744l-111 -283h-70l103 283h78z" />
    <glyph glyph-name="quotedblleft" unicode="&#x201c;" horiz-adv-x="469" 
d="M117 535c0 100 106 179 191 224l17 -30c-55 -33 -102 -72 -121 -135c35 0 56 -24 56 -53c0 -43 -37 -70 -76 -70c-40 0 -67 28 -67 64zM317 535c0 100 106 179 191 224l17 -30c-55 -33 -102 -72 -121 -135c35 0 56 -24 56 -53c0 -43 -37 -70 -76 -70c-40 0 -67 28 -67 64
z" />
    <glyph glyph-name="quotedblright" unicode="&#x201d;" horiz-adv-x="467" 
d="M316 695c0 -100 -106 -179 -191 -224l-17 30c55 33 102 72 121 135c-35 0 -56 24 -56 53c0 43 37 70 76 70c40 0 67 -28 67 -64zM516 695c0 -100 -106 -179 -191 -224l-17 30c55 33 102 72 121 135c-35 0 -56 24 -56 53c0 43 37 70 76 70c40 0 67 -28 67 -64z" />
    <glyph glyph-name="quoteleft" unicode="&#x2018;" horiz-adv-x="269" 
d="M117 535c0 100 106 179 191 224l17 -30c-55 -33 -102 -72 -121 -135c35 0 56 -24 56 -53c0 -43 -37 -70 -76 -70c-40 0 -67 28 -67 64z" />
    <glyph glyph-name="quoteright" unicode="&#x2019;" horiz-adv-x="267" 
d="M316 695c0 -100 -106 -179 -191 -224l-17 30c55 33 102 72 121 135c-35 0 -56 24 -56 53c0 43 37 70 76 70c40 0 67 -28 67 -64z" />
    <glyph glyph-name="guilsinglleft" unicode="&#x2039;" horiz-adv-x="316" 
d="M165 67l-123 189l5 20l217 185l31 -28l-140 -163l56 -176z" />
    <glyph glyph-name="guilsinglright" unicode="&#x203a;" horiz-adv-x="317" 
d="M11 94l144 176l-60 163l45 28l125 -185l-5 -20l-217 -189z" />
    <glyph glyph-name="guillemotleft" unicode="&#xab;" horiz-adv-x="506" 
d="M165 67l-123 189l5 20l217 185l31 -28l-140 -163l56 -176zM355 67l-123 189l5 20l217 185l31 -28l-140 -163l56 -176z" />
    <glyph glyph-name="guillemotright" unicode="&#xbb;" horiz-adv-x="507" 
d="M201 94l144 176l-60 163l45 28l125 -185l-5 -20l-217 -189zM11 94l144 176l-60 163l45 28l125 -185l-5 -20l-217 -189z" />
    <glyph glyph-name="asterisk" unicode="*" horiz-adv-x="448" 
d="M421 458l-112 51l-54 -141h-23l16 141l-137 -51l-5 19l126 88l-82 88l14 17l113 -51l55 140h19l-15 -140l138 51l4 -17l-127 -89l83 -87z" />
    <glyph glyph-name="periodcentered" unicode="&#xb7;" horiz-adv-x="256" 
d="M86 356c0 39 34 76 75 76c24 0 45 -13 45 -49c0 -49 -42 -73 -74 -73c-27 0 -46 15 -46 46z" />
    <glyph glyph-name="fi" unicode="&#xfb01;" horiz-adv-x="549" 
d="M67 481h84l2 5c40 155 158 273 295 273c53 0 100 -17 100 -56c0 -23 -17 -44 -48 -44c-43 0 -42 42 -101 42c-68 0 -125 -56 -152 -165l-14 -55h150c23 9 43 14 60 14c43 0 47 -31 36 -72l-83 -333c-2 -13 1 -20 8 -20c11 0 34 15 75 50l11 -31
c-65 -76 -114 -105 -145 -104c-35 1 -47 37 -35 84l82 335c3 13 3 22 1 27h-173l-95 -383c-40 -160 -130 -273 -233 -273c-43 0 -80 19 -80 50c0 21 19 41 42 41c30 0 48 -33 81 -33c44 0 69 61 96 165l108 433h-84z" />
    <glyph glyph-name="fl" unicode="&#xfb02;" horiz-adv-x="547" 
d="M458 663l2 8c-23 13 -44 30 -81 30c-68 0 -105 -56 -132 -165l-14 -55h111l-12 -50h-112l-95 -383c-40 -160 -130 -273 -233 -273c-43 0 -80 19 -80 50c0 21 19 41 42 41c30 0 48 -33 81 -33c44 0 69 61 96 165l108 433h-84l12 50h84l2 5c40 155 138 273 275 273
c15 0 30 -1 46 -4c10 3 21 4 32 4c39 0 49 -23 42 -58c0 -5 -1 -10 -4 -17l-147 -587c-7 -23 0 -29 11 -26c17 4 46 28 71 49l11 -31c-65 -76 -114 -104 -145 -104c-35 0 -46 39 -35 84z" />
    <glyph glyph-name="plus" unicode="+" horiz-adv-x="554" 
d="M362 491l-49 -194h194l-17 -65h-193l-48 -195h-69l48 195h-192l17 65h191l49 194h69z" />
    <glyph glyph-name="less" unicode="&#x3c;" horiz-adv-x="478" 
d="M347 5l-323 232l15 60l438 231l-19 -75l-350 -189l258 -180z" />
    <glyph glyph-name="equal" unicode="=" horiz-adv-x="614" 
d="M498 142h-454l16 65h454zM543 322h-454l16 65h454z" />
    <glyph glyph-name="greater" unicode="&#x3e;" horiz-adv-x="477" 
d="M11 84l350 189l-258 180l19 75l322 -231l-15 -60l-437 -232z" />
    <glyph glyph-name="uni0400" unicode="&#x400;" horiz-adv-x="610" 
d="M-8 41c13 0 49 2 60 6c23 7 32 21 40 50l124 499c7 31 4 43 -15 50c-8 3 -34 3 -57 6l10 41h463l-21 -167h-36c-3 96 -29 117 -117 117h-122l-65 -260h101c31 0 46 8 57 27c5 9 13 36 20 59h41l-55 -222h-41c3 14 9 48 9 59c-1 20 -15 27 -44 27h-100l-71 -283h135
c98 0 131 33 198 148l31 -4l-64 -194h-492zM244 843h102l130 -100l-1 -10h-32l-201 99z" />
    <glyph glyph-name="afii10023" unicode="&#x401;" horiz-adv-x="610" 
d="M-8 41c13 0 49 2 60 6c23 7 32 21 40 50l124 499c7 31 4 43 -15 50c-8 3 -34 3 -57 6l10 41h463l-21 -167h-36c-3 96 -29 117 -117 117h-122l-65 -260h101c31 0 46 8 57 27c5 9 13 36 20 59h41l-55 -222h-41c3 14 9 48 9 59c-1 20 -15 27 -44 27h-100l-71 -283h135
c98 0 131 33 198 148l31 -4l-64 -194h-492zM472 779c0 35 30 65 69 65c23 0 40 -11 40 -39c0 -41 -37 -65 -68 -65c-23 0 -41 12 -41 39zM304 778c0 35 29 66 68 66c23 0 41 -11 41 -39c0 -40 -37 -65 -69 -65c-23 0 -40 11 -40 38z" />
    <glyph glyph-name="afii10051" unicode="&#x402;" horiz-adv-x="789" 
d="M452 643l-66 -264c65 24 118 33 178 33c116 0 174 -67 174 -165c0 -123 -85 -251 -241 -251l10 41c76 8 133 83 133 191c0 80 -37 126 -133 126c-57 0 -109 -12 -132 -19l-59 -238c-7 -29 -3 -45 14 -50c13 -4 29 -3 58 -6l-11 -41h-266l11 41c19 1 45 2 60 6
c19 5 33 21 40 50l136 546h-55c-87 0 -127 -21 -175 -117h-36l41 167h568l-41 -167h-36c-3 96 -29 117 -117 117h-55z" />
    <glyph glyph-name="afii10052" unicode="&#x403;" horiz-adv-x="558" 
d="M599 832l-201 -99h-32l-1 10l130 100h102zM216 596c7 31 4 43 -15 50c-8 3 -34 3 -57 6l10 41h473l-41 -167h-36c-3 96 -29 117 -117 117h-112l-135 -546c-7 -31 -3 -43 14 -50c8 -3 35 -3 58 -6l-11 -41h-266l11 41c13 0 49 2 60 6c23 7 32 21 40 50z" />
    <glyph glyph-name="afii10053" unicode="&#x404;" horiz-adv-x="673" 
d="M479 659c-148 0 -247 -133 -290 -272h289v-53h-304c-9 -41 -13 -80 -13 -116c0 -117 47 -183 156 -183c119 0 185 81 236 174h35l-38 -153c-67 -45 -156 -71 -240 -71c-169 0 -252 105 -252 255c0 227 188 469 445 469c72 0 144 -19 197 -54l-45 -179h-35
c-5 108 -28 183 -141 183z" />
    <glyph glyph-name="afii10054" unicode="&#x405;" horiz-adv-x="591" 
d="M204 -15c-68 0 -140 16 -199 55l44 177h26c9 -125 65 -177 153 -177c91 0 177 56 177 141c0 59 -29 86 -93 114l-76 33c-69 31 -105 76 -105 151c0 141 133 229 283 229c67 0 131 -16 187 -55l-44 -179h-35c-1 128 -39 184 -127 184c-83 0 -171 -51 -171 -135
c0 -55 20 -83 83 -110l71 -31c71 -32 130 -73 130 -164c0 -146 -151 -233 -304 -233z" />
    <glyph glyph-name="afii10055" unicode="&#x406;" horiz-adv-x="370" 
d="M186 97c-8 -31 -3 -43 14 -50c8 -3 35 -3 58 -6l-11 -41h-266l11 41c13 0 49 2 60 6c23 7 32 21 40 50l124 499c7 31 4 43 -15 50c-8 3 -34 3 -57 6l10 41h266l-10 -41c-13 0 -50 -3 -61 -6c-19 -5 -32 -22 -39 -50z" />
    <glyph glyph-name="afii10056" unicode="&#x407;" horiz-adv-x="370" 
d="M186 97c-8 -31 -3 -43 14 -50c8 -3 35 -3 58 -6l-11 -41h-266l11 41c13 0 49 2 60 6c23 7 32 21 40 50l124 499c7 31 4 43 -15 50c-8 3 -34 3 -57 6l10 41h266l-10 -41c-13 0 -50 -3 -61 -6c-19 -5 -32 -22 -39 -50zM344 779c0 35 30 65 69 65c23 0 40 -11 40 -39
c0 -41 -37 -65 -68 -65c-23 0 -41 12 -41 39zM176 778c0 35 29 66 68 66c23 0 41 -11 41 -39c0 -40 -37 -65 -69 -65c-23 0 -40 11 -40 38z" />
    <glyph glyph-name="afii10057" unicode="&#x408;" horiz-adv-x="354" 
d="M209 596c8 31 3 43 -14 50c-9 3 -35 3 -58 6l10 41h266l-10 -41c-13 0 -49 -3 -60 -6c-23 -7 -33 -21 -40 -50l-144 -577c-29 -120 -115 -245 -259 -245c-53 0 -78 22 -78 57c0 31 25 52 53 52c48 0 33 -59 72 -59c60 0 93 92 133 255z" />
    <glyph glyph-name="afii10058" unicode="&#x409;" horiz-adv-x="913" 
d="M566 400h127c117 0 176 -57 176 -148c0 -131 -119 -252 -297 -252h-286l11 41c13 0 49 2 60 6c23 7 32 21 40 50l134 543h-196c-114 -404 -196 -653 -325 -653c-40 0 -58 24 -58 55c0 33 24 60 64 65c108 13 151 133 255 492c7 25 3 40 -10 45c-12 7 -32 7 -63 8l10 41
h517l-10 -41c-13 0 -50 -3 -61 -6c-19 -5 -32 -22 -39 -50zM554 350l-75 -300h92c117 0 186 96 186 191c0 76 -33 109 -108 109h-95z" />
    <glyph glyph-name="afii10059" unicode="&#x40a;" horiz-adv-x="1019" 
d="M668 386h130c117 0 176 -51 176 -142c0 -132 -119 -244 -297 -244h-286l11 41c13 0 49 2 60 6c23 7 32 21 40 50l59 237h-316l-59 -237c-8 -31 -3 -43 14 -50c8 -3 35 -3 58 -6l-11 -41h-266l11 41c13 0 49 2 60 6c23 7 32 21 40 50l124 499c7 31 4 43 -15 50
c-8 3 -34 3 -57 6l10 41h266l-10 -41c-13 0 -50 -3 -61 -6c-19 -5 -32 -22 -39 -50l-52 -209h316l52 209c7 31 4 43 -15 50c-8 3 -34 3 -57 6l10 41h266l-10 -41c-13 0 -50 -3 -61 -6c-19 -5 -32 -22 -39 -50zM655 334l-71 -284h92c117 0 186 87 186 183
c0 76 -33 101 -108 101h-99z" />
    <glyph glyph-name="afii10060" unicode="&#x40b;" horiz-adv-x="841" 
d="M452 643l-66 -264c67 24 126 33 186 33c148 0 190 -69 154 -214l-25 -101c-8 -31 -3 -43 14 -50c8 -3 35 -3 58 -6l-10 -41h-261l10 41c15 1 43 2 55 6c23 7 32 21 40 50l25 103c25 97 2 154 -109 154c-69 0 -125 -12 -148 -19l-59 -238c-7 -29 -3 -45 14 -50
c13 -4 29 -3 58 -6l-11 -41h-266l11 41c19 1 45 2 60 6c19 5 33 21 40 50l136 546h-55c-87 0 -127 -21 -175 -117h-36l41 167h568l-41 -167h-36c-3 96 -29 117 -117 117h-55z" />
    <glyph glyph-name="afii10061" unicode="&#x40c;" horiz-adv-x="678" 
d="M650 832l-201 -99h-32l-1 10l130 100h102zM186 97c-8 -31 -3 -43 14 -50c8 -3 35 -3 58 -6l-11 -41h-266l11 41c13 0 49 2 60 6c23 7 32 21 40 50l124 499c7 31 4 43 -15 50c-8 3 -34 3 -57 6l10 41h266l-10 -41c-13 0 -50 -3 -61 -6c-19 -5 -32 -22 -39 -50zM279 345
c96 72 187 174 235 219c16 15 40 42 45 61c5 18 1 22 -55 27l10 41h254l-10 -41c-50 -4 -100 -29 -151 -75c-42 -37 -132 -128 -232 -220l114 -240c21 -44 49 -69 102 -77l-13 -40h-145l-155 338z" />
    <glyph glyph-name="uni040D" unicode="&#x40d;" horiz-adv-x="790" 
d="M331 843h102l130 -100l-1 -10h-32l-201 99zM191 119l480 574h169l-10 -41c-13 0 -50 -3 -61 -6c-19 -5 -32 -22 -39 -50l-124 -499c-8 -31 -3 -43 14 -50c8 -3 35 -3 58 -6l-11 -41h-266l11 41c13 0 49 2 60 6c23 7 33 21 40 50l118 474l-478 -571h-171l11 41
c13 0 49 2 60 6c23 7 32 21 40 50l124 499c7 31 4 43 -15 50c-8 3 -34 3 -57 6l10 41h266l-10 -41c-13 0 -50 -3 -61 -6c-19 -5 -32 -22 -39 -50z" />
    <glyph glyph-name="afii10062" unicode="&#x40e;" horiz-adv-x="677" 
d="M212 99c31 0 53 18 80 49l-123 448c-11 41 -35 52 -72 56l10 41h261l-10 -41c-89 -8 -105 -27 -86 -97l86 -320l226 330c43 60 20 86 -52 87l10 41h233l-9 -36c-40 -7 -67 -18 -94 -57l-298 -418c-91 -128 -141 -197 -234 -197c-47 0 -67 27 -67 58c0 44 34 67 74 67
c35 0 43 -11 65 -11zM605 836c-19 -65 -64 -100 -159 -100c-73 0 -124 28 -121 100h86c-4 -41 18 -57 49 -57c47 0 72 17 84 57h61z" />
    <glyph glyph-name="afii10145" unicode="&#x40f;" horiz-adv-x="770" 
d="M387 0c-27 0 -55 -37 -96 -142h-42c12 105 12 142 -15 142h-253l10 41c13 0 50 1 61 6c19 5 32 22 39 50l124 499c8 31 3 43 -14 50c-8 3 -35 3 -58 6l11 41h266l-11 -41c-13 0 -49 -3 -60 -6c-23 -7 -32 -21 -40 -50l-135 -543h305l136 543c8 31 3 43 -14 50
c-8 3 -35 3 -58 6l11 41h266l-11 -41c-13 0 -49 -3 -60 -6c-23 -7 -32 -21 -40 -50l-124 -499c-7 -31 -4 -43 15 -50c8 -3 34 -3 57 -6l-10 -41h-260z" />
    <glyph glyph-name="afii10017" unicode="&#x410;" horiz-adv-x="682" 
d="M431 240h-229l-90 -143c-15 -24 -9 -42 16 -49c9 -3 33 -4 56 -7l-11 -41h-232l11 41c15 1 35 7 47 11c23 7 36 20 52 45l386 609h43l57 -609c3 -27 9 -38 28 -45c11 -4 29 -10 44 -11l-11 -41h-266l11 41c23 3 47 4 58 7c21 4 43 20 42 49zM235 293h192l-21 271z" />
    <glyph glyph-name="afii10018" unicode="&#x411;" horiz-adv-x="635" 
d="M322 643l-62 -249h138c117 0 176 -57 176 -148c0 -131 -119 -246 -297 -246h-296l11 41c13 0 49 2 60 6c23 7 32 21 40 50l124 499c7 31 4 43 -15 50c-8 3 -34 3 -57 6l10 41h473l-41 -167h-36c-3 96 -29 117 -117 117h-111zM248 344l-74 -294h102c117 0 186 90 186 185
c0 76 -33 109 -108 109h-106z" />
    <glyph glyph-name="afii10019" unicode="&#x412;" horiz-adv-x="632" 
d="M-8 41c13 0 49 2 60 6c23 7 32 23 40 50l124 499c7 29 2 45 -15 50c-10 2 -42 6 -57 6l10 41h283c104 0 166 -34 166 -119c0 -104 -95 -185 -207 -206l-1 -3c120 -3 167 -52 167 -129c0 -137 -144 -236 -286 -236h-295zM459 222c0 68 -40 111 -141 111h-74l-71 -283h87
c103 0 199 67 199 172zM321 643l-65 -260h56c98 0 180 73 180 170c0 64 -35 90 -99 90h-72z" />
    <glyph glyph-name="afii10020" unicode="&#x413;" horiz-adv-x="558" 
d="M216 596c7 31 4 43 -15 50c-8 3 -34 3 -57 6l10 41h473l-41 -167h-36c-3 96 -29 117 -117 117h-112l-135 -546c-7 -31 -3 -43 14 -50c8 -3 35 -3 58 -6l-11 -41h-266l11 41c13 0 49 2 60 6c23 7 32 21 40 50z" />
    <glyph glyph-name="afii10021" unicode="&#x414;" horiz-adv-x="708" 
d="M503 53h114l-49 -195h-36c8 111 -10 142 -125 142h-282c-116 0 -138 -31 -186 -142h-35l48 195h36c124 48 172 188 275 546c7 25 3 40 -10 45c-12 7 -32 7 -63 8l10 41h547l-10 -41c-13 0 -50 -3 -61 -6c-19 -5 -32 -22 -39 -50zM327 640c-91 -323 -141 -507 -250 -587
h332l145 587h-227z" />
    <glyph glyph-name="afii10022" unicode="&#x415;" horiz-adv-x="610" 
d="M-8 41c13 0 49 2 60 6c23 7 32 21 40 50l124 499c7 31 4 43 -15 50c-8 3 -34 3 -57 6l10 41h463l-21 -167h-36c-3 96 -29 117 -117 117h-122l-65 -260h101c31 0 46 8 57 27c5 9 13 36 20 59h41l-55 -222h-41c3 14 9 48 9 59c-1 20 -15 27 -44 27h-100l-71 -283h135
c98 0 131 33 198 148l31 -4l-64 -194h-492z" />
    <glyph glyph-name="afii10024" unicode="&#x416;" horiz-adv-x="948" 
d="M471 97c-8 -31 -3 -43 14 -50c8 -3 35 -3 58 -6l-11 -41h-266l11 41c13 0 49 2 60 6c23 7 32 21 40 50l124 499c7 31 4 43 -15 50c-8 3 -34 3 -57 6l10 41h266l-10 -41c-13 0 -50 -3 -61 -6c-19 -5 -32 -22 -39 -50zM406 338l-309 -338h-151l9 40c57 8 85 32 125 77
l242 266l-100 194c-24 46 -60 71 -109 75l11 41h240l-11 -41c-30 -2 -49 -10 -58 -24c-8 -14 -6 -35 7 -64l106 -219zM564 345c-1 0 178 173 236 232c16 16 27 34 24 49s-17 26 -52 26l8 41h254l-8 -41c-56 -4 -97 -30 -153 -82c-51 -47 -113 -116 -212 -212l103 -241
c19 -44 48 -69 101 -77l-7 -40h-151l-144 338z" />
    <glyph glyph-name="afii10025" unicode="&#x417;" horiz-adv-x="587" 
d="M361 659c-97 0 -157 -71 -205 -164h-35l39 153c63 37 133 61 210 61c124 0 193 -55 193 -143c0 -107 -82 -184 -214 -200l-1 -4c100 -4 165 -48 165 -137c0 -156 -142 -240 -302 -240c-87 0 -158 18 -211 54l45 179h35c3 -104 34 -183 138 -183c108 0 191 73 191 183
c0 91 -58 117 -149 117h-66l12 50h65c101 0 187 61 187 172c0 64 -29 102 -97 102z" />
    <glyph glyph-name="afii10026" unicode="&#x418;" horiz-adv-x="790" 
d="M191 119l480 574h169l-10 -41c-13 0 -50 -3 -61 -6c-19 -5 -32 -22 -39 -50l-124 -499c-8 -31 -3 -43 14 -50c8 -3 35 -3 58 -6l-11 -41h-266l11 41c13 0 49 2 60 6c23 7 33 21 40 50l118 474l-478 -571h-171l11 41c13 0 49 2 60 6c23 7 32 21 40 50l124 499
c7 31 4 43 -15 50c-8 3 -34 3 -57 6l10 41h266l-10 -41c-13 0 -50 -3 -61 -6c-19 -5 -32 -22 -39 -50z" />
    <glyph glyph-name="afii10027" unicode="&#x419;" horiz-adv-x="790" 
d="M191 119l480 574h169l-10 -41c-13 0 -50 -3 -61 -6c-19 -5 -32 -22 -39 -50l-124 -499c-8 -31 -3 -43 14 -50c8 -3 35 -3 58 -6l-11 -41h-266l11 41c13 0 49 2 60 6c23 7 33 21 40 50l118 474l-478 -571h-171l11 41c13 0 49 2 60 6c23 7 32 21 40 50l124 499
c7 31 4 43 -15 50c-8 3 -34 3 -57 6l10 41h266l-10 -41c-13 0 -50 -3 -61 -6c-19 -5 -32 -22 -39 -50zM685 836c-19 -65 -64 -100 -159 -100c-73 0 -124 28 -121 100h86c-4 -41 18 -57 49 -57c47 0 72 17 84 57h61z" />
    <glyph glyph-name="afii10028" unicode="&#x41a;" horiz-adv-x="678" 
d="M186 97c-8 -31 -3 -43 14 -50c8 -3 35 -3 58 -6l-11 -41h-266l11 41c13 0 49 2 60 6c23 7 32 21 40 50l124 499c7 31 4 43 -15 50c-8 3 -34 3 -57 6l10 41h266l-10 -41c-13 0 -50 -3 -61 -6c-19 -5 -32 -22 -39 -50zM279 345c96 72 187 174 235 219c16 15 40 42 45 61
c5 18 1 22 -55 27l10 41h254l-10 -41c-50 -4 -100 -29 -151 -75c-42 -37 -132 -128 -232 -220l114 -240c21 -44 49 -69 102 -77l-13 -40h-145l-155 338z" />
    <glyph glyph-name="afii10029" unicode="&#x41b;" horiz-adv-x="705" 
d="M521 97c-8 -31 -3 -43 14 -50c8 -3 35 -3 58 -6l-11 -41h-266l11 41c13 0 49 2 60 6c23 7 32 21 40 50l135 543h-227c-114 -404 -196 -653 -325 -653c-40 0 -58 24 -58 55c0 33 24 60 64 65c108 13 151 133 255 492c7 25 3 40 -10 45c-12 7 -32 7 -63 8l10 41h547
l-10 -41c-13 0 -50 -3 -61 -6c-19 -5 -32 -22 -39 -50z" />
    <glyph glyph-name="afii10030" unicode="&#x41c;" horiz-adv-x="922" 
d="M972 693l-10 -41c-13 0 -50 -3 -61 -6c-19 -5 -32 -22 -39 -50l-124 -499c-8 -31 -3 -43 14 -50c8 -3 35 -3 58 -6l-11 -41h-266l11 41c13 0 49 2 60 6c23 7 32 21 40 50l119 480l-333 -430h-34l-118 429l-111 -444c-9 -39 -3 -61 14 -74c14 -11 34 -18 59 -21l-10 -37
h-256l10 37c21 3 42 8 61 17c27 12 47 35 58 78l116 464c7 31 4 43 -15 50c-8 3 -34 3 -57 6l10 41h184l117 -423l334 423h180z" />
    <glyph glyph-name="afii10031" unicode="&#x41d;" 
d="M596 97c-8 -31 -3 -43 14 -50c8 -3 35 -3 58 -6l-11 -41h-266l11 41c13 0 49 2 60 6c23 7 32 21 40 50l59 237h-316l-59 -237c-8 -31 -3 -43 14 -50c8 -3 35 -3 58 -6l-11 -41h-266l11 41c13 0 49 2 60 6c23 7 32 21 40 50l124 499c7 31 4 43 -15 50c-8 3 -34 3 -57 6
l10 41h266l-10 -41c-13 0 -50 -3 -61 -6c-19 -5 -32 -22 -39 -50l-52 -209h316l52 209c7 31 4 43 -15 50c-8 3 -34 3 -57 6l10 41h266l-10 -41c-13 0 -50 -3 -61 -6c-19 -5 -32 -22 -39 -50z" />
    <glyph glyph-name="afii10032" unicode="&#x41e;" 
d="M753 449c0 -224 -192 -464 -445 -464c-164 0 -250 99 -250 256c0 224 189 468 442 468c168 0 253 -105 253 -260zM318 37c220 0 332 253 332 433c0 115 -46 189 -162 189c-221 0 -327 -263 -327 -440c0 -117 45 -182 157 -182z" />
    <glyph glyph-name="afii10033" unicode="&#x41f;" horiz-adv-x="770" 
d="M586 97c-8 -31 -3 -43 14 -50c8 -3 35 -3 58 -6l-11 -41h-266l11 41c13 0 49 2 60 6c23 7 32 21 40 50l135 543h-306l-135 -543c-8 -31 -3 -43 14 -50c8 -3 35 -3 58 -6l-11 -41h-266l11 41c13 0 49 2 60 6c23 7 32 21 40 50l124 499c7 31 4 43 -15 50c-8 3 -34 3 -57 6
l10 41h666l-10 -41c-13 0 -50 -3 -61 -6c-19 -5 -32 -22 -39 -50z" />
    <glyph glyph-name="afii10034" unicode="&#x420;" horiz-adv-x="594" 
d="M216 596c7 29 2 45 -15 50c-13 4 -29 3 -57 6l10 41h303c104 0 163 -49 163 -138c0 -141 -130 -262 -277 -262h-109l-48 -196c-7 -29 -3 -45 14 -50c15 -4 40 -3 68 -6l-11 -41h-276l11 41c19 1 45 2 60 6c19 5 33 21 40 50zM321 643l-74 -300h75c107 0 186 95 186 203
c0 60 -34 97 -95 97h-92z" />
    <glyph glyph-name="afii10035" unicode="&#x421;" horiz-adv-x="673" 
d="M479 659c-209 0 -318 -266 -318 -441c0 -117 47 -183 156 -183c119 0 185 81 236 174h35l-38 -153c-67 -45 -156 -71 -240 -71c-169 0 -252 105 -252 255c0 227 188 469 445 469c72 0 144 -19 197 -54l-45 -179h-35c-5 108 -28 183 -141 183z" />
    <glyph glyph-name="afii10036" unicode="&#x422;" horiz-adv-x="632" 
d="M452 643l-136 -546c-7 -29 -3 -45 14 -50c13 -4 29 -3 58 -6l-11 -41h-266l11 41c19 1 45 2 60 6c19 5 33 21 40 50l136 546h-55c-87 0 -127 -21 -175 -117h-36l41 167h568l-41 -167h-36c-3 96 -29 117 -117 117h-55z" />
    <glyph glyph-name="afii10037" unicode="&#x423;" horiz-adv-x="677" 
d="M212 99c31 0 53 18 80 49l-123 448c-11 41 -35 52 -72 56l10 41h261l-10 -41c-89 -8 -105 -27 -86 -97l86 -320l226 330c43 60 20 86 -52 87l10 41h233l-9 -36c-40 -7 -67 -18 -94 -57l-298 -418c-91 -128 -141 -197 -234 -197c-47 0 -67 27 -67 58c0 44 34 67 74 67
c35 0 43 -11 65 -11z" />
    <glyph glyph-name="afii10038" unicode="&#x424;" horiz-adv-x="859" 
d="M554 595l1 2c185 0 287 -72 287 -203c0 -175 -146 -297 -412 -297l-2 -10c-8 -31 -3 -43 14 -50c8 -3 35 -3 58 -6l-11 -41h-266l11 41c13 0 49 2 60 6c23 7 32 21 40 50l2 10c-184 0 -286 72 -286 203c0 173 146 297 410 297l3 9c7 31 4 43 -15 50c-8 3 -34 3 -57 6
l10 41h266l-10 -41c-13 0 -50 -3 -61 -6c-19 -5 -32 -22 -39 -50zM732 393c0 116 -83 158 -188 161l-105 -420l3 8c177 0 290 107 290 251zM160 301c0 -115 82 -161 187 -161l102 412c-176 0 -289 -107 -289 -251z" />
    <glyph glyph-name="afii10039" unicode="&#x425;" horiz-adv-x="663" 
d="M125 693h272l-10 -41c-55 -3 -77 -8 -77 -35c0 -9 4 -23 11 -42l60 -155l156 163c16 17 24 30 24 40c0 15 -21 25 -63 29l10 41h238l-10 -41c-40 -5 -92 -26 -133 -69l-203 -212l108 -274c15 -37 31 -49 72 -56l-11 -41h-275l11 41c76 7 101 18 101 45c0 7 -3 15 -6 23
l-72 187l-172 -180c-19 -19 -28 -35 -28 -46c0 -19 25 -26 62 -29l-11 -41h-237l11 41c45 5 105 43 137 75l219 229l-96 251c-16 37 -66 53 -98 56z" />
    <glyph glyph-name="afii10040" unicode="&#x426;" horiz-adv-x="776" 
d="M215 596c8 31 3 43 -14 50c-8 3 -35 3 -58 6l11 41h266l-11 -41c-13 0 -49 -3 -60 -6c-23 -7 -32 -21 -40 -50l-135 -543h305l136 543c8 31 3 43 -14 50c-8 3 -35 3 -58 6l11 41h266l-11 -41c-13 0 -49 -3 -60 -6c-23 -7 -32 -21 -40 -50l-136 -543h104l-49 -195h-36
c11 112 -3 142 -103 142h-508l10 41c13 0 50 1 61 6c19 5 32 22 39 50z" />
    <glyph glyph-name="afii10041" unicode="&#x427;" horiz-adv-x="730" 
d="M546 97c-8 -31 -3 -43 14 -50c8 -3 35 -3 58 -6l-11 -41h-266l11 41c13 0 49 2 60 6c23 7 32 21 40 50l58 236c-70 -27 -125 -37 -197 -37c-123 0 -195 78 -160 214l22 86c7 31 4 43 -15 50c-8 3 -34 3 -57 6l10 41h266l-10 -41c-13 0 -50 -3 -61 -6
c-19 -5 -32 -22 -39 -50l-23 -88c-24 -97 5 -154 116 -154c83 0 149 19 159 22l55 220c7 31 4 43 -15 50c-8 3 -34 3 -57 6l10 41h266l-10 -41c-13 0 -50 -3 -61 -6c-19 -5 -32 -22 -39 -50z" />
    <glyph glyph-name="afii10042" unicode="&#x428;" horiz-adv-x="1110" 
d="M215 596c8 31 3 43 -14 50c-8 3 -35 3 -58 6l11 41h266l-11 -41c-13 0 -49 -3 -60 -6c-23 -7 -32 -21 -40 -50l-135 -543h275l136 543c8 31 3 43 -14 50c-8 3 -35 3 -58 6l11 41h266l-11 -41c-13 0 -49 -3 -60 -6c-23 -7 -32 -21 -40 -50l-136 -543h276l136 543
c8 31 3 43 -14 50c-8 3 -35 3 -58 6l11 41h266l-11 -41c-13 0 -49 -3 -60 -6c-23 -7 -32 -21 -40 -50l-124 -499c-7 -31 -4 -43 15 -50c8 -3 34 -3 57 -6l-10 -41h-1006l10 41c13 0 50 1 61 6c19 5 32 22 39 50z" />
    <glyph glyph-name="afii10043" unicode="&#x429;" horiz-adv-x="1116" 
d="M215 596c8 31 3 43 -14 50c-8 3 -35 3 -58 6l11 41h266l-11 -41c-13 0 -49 -3 -60 -6c-23 -7 -32 -21 -40 -50l-135 -543h275l136 543c8 31 3 43 -14 50c-8 3 -35 3 -58 6l11 41h266l-11 -41c-13 0 -49 -3 -60 -6c-23 -7 -32 -21 -40 -50l-136 -543h276l136 543
c8 31 3 43 -14 50c-8 3 -35 3 -58 6l11 41h266l-11 -41c-13 0 -49 -3 -60 -6c-23 -7 -32 -21 -40 -50l-136 -543h104l-49 -195h-36c11 107 -1 139 -89 142h-862l10 41c13 0 50 1 61 6c19 5 32 22 39 50z" />
    <glyph glyph-name="afii10044" unicode="&#x42a;" horiz-adv-x="725" 
d="M378 400h127c117 0 176 -57 176 -148c0 -131 -119 -252 -297 -252h-286l11 41c13 0 49 2 60 6c23 7 32 21 40 50l136 546h-43c-87 0 -127 -21 -175 -117h-36l41 167h405l-10 -41c-13 0 -50 -3 -61 -6c-19 -5 -32 -22 -39 -50zM366 350l-75 -300h92c117 0 186 96 186 191
c0 76 -33 109 -108 109h-95z" />
    <glyph glyph-name="afii10045" unicode="&#x42b;" horiz-adv-x="920" 
d="M736 97c-8 -31 -3 -43 14 -50c8 -3 35 -3 58 -6l-11 -41h-266l11 41c13 0 49 2 60 6c23 7 33 21 40 50l124 499c7 31 4 43 -15 50c-8 3 -34 3 -57 6l10 41h266l-10 -41c-13 0 -50 -3 -61 -6c-19 -5 -32 -22 -39 -50zM261 400h127c117 0 176 -57 176 -148
c0 -131 -119 -252 -297 -252h-286l11 41c13 0 49 2 60 6c23 7 32 21 40 50l124 499c7 31 4 43 -15 50c-8 3 -34 3 -57 6l10 41h266l-10 -41c-13 0 -50 -3 -61 -6c-19 -5 -32 -22 -39 -50zM249 350l-75 -300h92c117 0 186 96 186 191c0 76 -33 109 -108 109h-95z" />
    <glyph glyph-name="afii10046" unicode="&#x42c;" horiz-adv-x="608" 
d="M261 400h127c117 0 176 -57 176 -148c0 -131 -119 -252 -297 -252h-286l11 41c13 0 49 2 60 6c23 7 32 21 40 50l124 499c7 31 4 43 -15 50c-8 3 -34 3 -57 6l10 41h266l-10 -41c-13 0 -50 -3 -61 -6c-19 -5 -32 -22 -39 -50zM249 350l-75 -300h92c117 0 186 96 186 191
c0 76 -33 109 -108 109h-95z" />
    <glyph glyph-name="afii10047" unicode="&#x42d;" horiz-adv-x="672" 
d="M224 35c155 0 252 142 295 289h-294v53h307c7 35 10 68 10 99c0 117 -47 183 -156 183c-119 0 -185 -81 -236 -174h-35l38 153c67 45 156 71 240 71c169 0 252 -106 252 -255c0 -227 -188 -469 -445 -469c-72 0 -144 19 -197 54l45 179h35c3 -108 30 -183 141 -183z" />
    <glyph glyph-name="afii10048" unicode="&#x42e;" horiz-adv-x="1079" 
d="M1052 449c0 -224 -192 -464 -435 -464c-153 0 -240 99 -240 256c0 33 3 64 10 93h-142l-59 -237c-8 -31 -3 -43 14 -50c8 -3 35 -3 58 -6l-11 -41h-266l11 41c13 0 49 2 60 6c23 7 32 21 40 50l124 499c7 31 4 43 -15 50c-8 3 -34 3 -57 6l10 41h266l-10 -41
c-13 0 -50 -3 -61 -6c-19 -5 -32 -22 -39 -50l-52 -209h144c59 172 216 322 407 322c157 0 243 -105 243 -260zM627 37c210 0 322 253 322 433c0 115 -47 189 -152 189c-211 0 -317 -263 -317 -440c0 -117 46 -182 147 -182z" />
    <glyph glyph-name="afii10049" unicode="&#x42f;" horiz-adv-x="665" 
d="M436 298h-83l-261 -298h-135l9 40c53 11 76 35 116 77l175 196c-77 15 -125 60 -125 140c0 100 90 240 297 240h286l-11 -41c-13 0 -49 -3 -60 -6c-23 -7 -32 -21 -40 -50l-124 -499c-7 -31 -4 -43 15 -50c8 -3 34 -3 57 -6l-10 -41h-266l10 41c13 0 50 1 61 6
c19 5 32 22 39 50zM241 457c0 -76 36 -109 111 -109h96l73 295h-91c-117 0 -189 -90 -189 -186z" />
    <glyph glyph-name="afii10146" unicode="&#x462;" horiz-adv-x="734" 
d="M427 581h223l-38 -153h-36c-3 89 -27 104 -115 104h-46l-35 -142h130c117 0 176 -57 176 -148c0 -131 -119 -242 -297 -242h-286l11 41c13 0 49 2 60 6c23 7 32 21 40 50l108 435h-45c-87 0 -122 -16 -167 -104h-36l38 153h222l6 25c7 31 4 43 -15 50c-8 3 -34 3 -57 6
l10 41h266l-10 -41c-13 0 -50 -3 -61 -6c-19 -5 -32 -22 -39 -50zM368 340l-72 -290h92c117 0 186 86 186 181c0 76 -33 109 -108 109h-98z" />
    <glyph glyph-name="afii10147" unicode="&#x472;" 
d="M753 449c0 -224 -192 -464 -445 -464c-164 0 -250 99 -250 256c0 224 189 468 442 468c168 0 253 -105 253 -260zM318 37c167 0 273 147 313 297h-457c-9 -40 -13 -79 -13 -115c0 -117 45 -182 157 -182zM488 659c-157 0 -257 -132 -300 -272h455c5 28 7 56 7 83
c0 115 -46 189 -162 189z" />
    <glyph glyph-name="afii10065" unicode="&#x430;" horiz-adv-x="529" 
d="M377 97c-5 -18 -3 -27 6 -27c14 0 50 27 76 50l11 -31c-65 -76 -114 -104 -145 -104c-35 0 -50 39 -35 84l38 124h-3c-72 -117 -147 -204 -219 -204c-48 0 -88 39 -88 131c0 160 122 375 310 375c29 0 52 -7 75 -18l59 18h15zM141 63c51 0 137 121 204 225l30 122
c-23 17 -51 31 -82 31c-132 0 -189 -203 -189 -305c0 -49 12 -73 37 -73z" />
    <glyph glyph-name="afii10066" unicode="&#x431;" horiz-adv-x="524" 
d="M584 755c-27 -62 -58 -94 -130 -107l-25 -3c-112 -11 -162 0 -201 -58c-31 -45 -58 -107 -82 -195c24 32 86 103 173 103c109 0 159 -71 159 -167c0 -164 -125 -343 -282 -343c-110 0 -154 73 -154 182c0 47 9 99 28 175c56 225 152 371 365 384l9 1c76 5 98 9 120 34z
M208 34c101 0 174 174 174 300c0 60 -19 111 -80 111c-109 0 -171 -161 -171 -290c0 -64 19 -121 77 -121z" />
    <glyph glyph-name="afii10067" unicode="&#x432;" horiz-adv-x="480" 
d="M313 495c91 0 129 -44 129 -98c0 -72 -65 -123 -146 -145c57 -3 104 -32 104 -89c0 -99 -107 -178 -225 -178c-116 0 -153 72 -153 158c0 149 113 352 291 352zM119 214c-2 -18 -3 -36 -3 -53c0 -61 16 -125 88 -125c63 0 101 44 101 113c0 53 -44 83 -133 72zM284 447
c-87 0 -137 -96 -158 -189l70 10c76 11 147 52 147 130c0 27 -18 49 -59 49z" />
    <glyph glyph-name="afii10068" unicode="&#x433;" horiz-adv-x="438" 
d="M9 94c0 183 294 128 294 293c0 43 -31 59 -72 59c-56 0 -93 -37 -136 -114l-31 3l33 122c51 25 95 38 154 38c81 0 138 -32 138 -108c0 -194 -293 -145 -293 -293c0 -37 30 -60 81 -60c75 0 115 38 154 114l32 -3l-35 -122c-49 -25 -105 -38 -166 -38
c-85 0 -153 34 -153 109z" />
    <glyph glyph-name="afii10069" unicode="&#x434;" horiz-adv-x="517" 
d="M296 494c36 0 66 -8 91 -29c0 105 -14 205 -153 261l19 31c173 -48 220 -165 220 -329c0 -238 -119 -443 -302 -443c-108 0 -144 86 -144 182c0 152 115 327 269 327zM201 43c112 0 177 197 185 364c-27 23 -50 31 -89 31c-124 0 -173 -165 -173 -261
c0 -97 28 -134 77 -134z" />
    <glyph glyph-name="afii10070" unicode="&#x435;" horiz-adv-x="460" 
d="M368 91c-52 -63 -120 -106 -203 -106c-106 0 -143 72 -143 158c0 149 113 352 291 352c61 0 125 -21 125 -92c0 -73 -67 -168 -318 -179c-3 -23 -4 -44 -4 -63c0 -62 16 -114 88 -114c48 0 94 21 150 77zM284 447c-86 0 -135 -92 -157 -184c204 21 215 99 215 126
c0 41 -21 58 -58 58z" />
    <glyph glyph-name="afii10072" unicode="&#x436;" horiz-adv-x="866" 
d="M66 390c36 59 78 104 141 104c76 0 100 -72 100 -159c0 -24 -2 -47 -6 -70h87l54 216h79l-55 -216h87c34 119 115 229 220 229c49 0 83 -15 83 -62c0 -24 -10 -52 -47 -52c-29 0 -42 17 -49 48c-2 12 -9 18 -22 18c-72 0 -113 -175 -113 -286c0 -62 8 -114 52 -114
c36 0 61 31 92 74l8 -32c-36 -59 -78 -104 -141 -104c-76 0 -100 72 -100 159c0 24 2 49 7 76h-88l-55 -219h-77l54 219h-86c-32 -123 -114 -235 -221 -235c-49 0 -83 15 -83 62c0 24 10 52 47 52c29 0 42 -17 49 -48c2 -12 9 -18 22 -18c72 0 113 175 113 286
c0 62 -8 114 -52 114c-36 0 -61 -31 -92 -74z" />
    <glyph glyph-name="afii10073" unicode="&#x437;" horiz-adv-x="443" 
d="M153 -15c-72 0 -115 11 -158 38l20 126l30 2c13 -76 37 -121 110 -121c69 0 116 40 116 112c0 49 -22 80 -90 80h-59l9 45h55c72 0 111 40 111 105c0 49 -25 77 -70 77c-60 0 -92 -35 -127 -107l-31 3l29 112c48 25 87 38 146 38c85 0 145 -40 145 -116
c0 -71 -55 -116 -127 -132c57 -11 99 -49 99 -105c0 -99 -87 -157 -208 -157z" />
    <glyph glyph-name="afii10074" unicode="&#x438;" horiz-adv-x="556" 
d="M403 96c-7 -23 3 -26 7 -26c16 0 46 26 75 50l11 -31c-65 -76 -115 -104 -144 -104c-44 0 -47 44 -36 84l37 137h-3c-91 -163 -159 -221 -220 -221c-60 0 -90 45 -61 164l63 250c7 27 -3 34 -14 34s-35 -7 -71 -28v35c51 39 102 56 133 55c35 -1 52 -19 40 -66l-65 -256
c-19 -71 -21 -98 16 -98c39 0 114 79 205 236l43 170h81z" />
    <glyph glyph-name="afii10075" unicode="&#x439;" horiz-adv-x="556" 
d="M403 96c-7 -23 3 -26 7 -26c16 0 46 26 75 50l11 -31c-65 -76 -115 -104 -144 -104c-44 0 -47 44 -36 84l37 137h-3c-91 -163 -159 -221 -220 -221c-60 0 -90 45 -61 164l63 250c7 27 -3 34 -14 34s-35 -7 -71 -28v35c51 39 102 56 133 55c35 -1 52 -19 40 -66l-65 -256
c-19 -71 -21 -98 16 -98c39 0 114 79 205 236l43 170h81zM493 695c-19 -65 -64 -110 -159 -110c-73 0 -124 37 -121 110h86c-4 -41 18 -67 49 -67c47 0 72 27 84 67h61z" />
    <glyph glyph-name="afii10076" unicode="&#x43a;" horiz-adv-x="498" 
d="M134 399c7 24 2 33 -11 33c-16 0 -45 -12 -73 -28v35c64 43 107 56 136 56c43 0 48 -31 37 -72l-106 -423h-81zM206 241l139 130c33 31 40 71 11 84v26h114c7 -39 -18 -76 -49 -103l-143 -125l140 -237l-10 -31h-72l-134 238z" />
    <glyph glyph-name="afii10077" unicode="&#x43b;" horiz-adv-x="510" 
d="M362 110c-7 -27 -9 -40 2 -40s34 15 75 50l11 -31c-65 -76 -114 -105 -145 -104c-35 1 -47 37 -35 84l92 370h-126c-77 -319 -133 -449 -232 -449c-31 0 -46 17 -46 41c0 23 17 46 58 50c84 8 111 114 165 307c11 48 -8 52 -57 55l9 38h321z" />
    <glyph glyph-name="afii10078" unicode="&#x43c;" horiz-adv-x="698" 
d="M270 481l42 -360l239 360h91l-92 -371c-7 -27 -9 -40 2 -40s34 15 75 50l11 -31c-65 -76 -114 -105 -145 -104c-35 1 -47 37 -35 84l75 301l-244 -362h-34l-46 358c-72 -275 -124 -376 -203 -376c-31 0 -46 17 -46 41c0 23 17 44 48 49c79 11 117 119 165 308
c11 48 -7 52 -57 55l9 38h145z" />
    <glyph glyph-name="afii10079" unicode="&#x43d;" horiz-adv-x="551" 
d="M403 110c-7 -27 -9 -40 2 -40s34 15 75 50l11 -31c-65 -76 -114 -105 -145 -104c-35 1 -47 37 -35 84l37 149h-177l-54 -218h-81l98 399c7 24 2 33 -11 33c-16 0 -45 -12 -73 -28v35c64 43 107 56 136 56c43 0 48 -31 37 -72l-40 -157h177l54 215h81z" />
    <glyph glyph-name="afii10080" unicode="&#x43e;" horiz-adv-x="510" 
d="M463 325c0 -151 -114 -340 -284 -340c-104 0 -153 69 -153 174c0 160 113 336 281 336c100 0 156 -65 156 -170zM196 34c101 0 171 174 171 300c0 60 -16 111 -77 111c-108 0 -167 -161 -167 -290c0 -64 14 -121 73 -121z" />
    <glyph glyph-name="afii10081" unicode="&#x43f;" horiz-adv-x="557" 
d="M134 399c7 24 2 33 -11 33c-16 0 -45 -12 -73 -28v35c64 43 107 56 136 56c43 0 47 -31 36 -72l-46 -158h3c93 168 160 230 227 230c60 0 90 -43 61 -163l-56 -222c-7 -27 -7 -40 4 -40s34 15 75 50l11 -31c-65 -76 -114 -105 -145 -104c-35 1 -47 37 -35 84l60 239
c19 71 20 96 -17 96c-39 0 -116 -81 -208 -240l-39 -164h-81z" />
    <glyph glyph-name="afii10082" unicode="&#x440;" horiz-adv-x="545" 
d="M-73 -167h66l142 566c7 25 1 34 -14 34c-16 0 -43 -13 -71 -28v35c65 45 101 55 133 55c39 0 51 -26 40 -66l-31 -113h2c82 133 144 179 205 179c69 0 101 -55 101 -147c0 -176 -111 -362 -314 -362c-20 0 -45 3 -72 10l-41 -163h136l-12 -50h-282zM355 411
c-40 0 -99 -58 -186 -198l-37 -147c25 -12 58 -22 93 -22c131 0 185 155 185 271c0 72 -15 96 -55 96z" />
    <glyph glyph-name="afii10083" unicode="&#x441;" horiz-adv-x="436" 
d="M379 370c-29 0 -38 19 -47 38c-11 19 -21 38 -57 38c-110 0 -158 -175 -158 -286c0 -62 11 -114 83 -114c48 0 85 21 141 77l14 -33c-52 -63 -111 -106 -194 -106c-107 0 -138 72 -138 159c0 155 111 351 282 351c67 0 121 -27 121 -72c0 -24 -10 -52 -47 -52z" />
    <glyph glyph-name="afii10084" unicode="&#x442;" horiz-adv-x="815" 
d="M134 399c7 24 2 33 -11 33c-16 0 -45 -12 -73 -28v35c64 43 107 56 136 56c43 0 47 -31 36 -72l-40 -144h2c88 157 156 216 219 216c59 0 88 -43 59 -163l-10 -40c85 148 149 203 212 203c60 0 90 -43 61 -163l-56 -222c-7 -27 -7 -40 4 -40s34 15 75 50l11 -31
c-65 -76 -114 -105 -145 -104c-35 1 -47 37 -35 84l60 239c19 71 20 96 -17 96s-108 -72 -192 -213l-48 -191h-80l76 308c19 71 20 96 -17 96c-39 0 -113 -76 -201 -228l-43 -176h-81z" />
    <glyph glyph-name="afii10085" unicode="&#x443;" horiz-adv-x="536" 
d="M308 27c51 88 80 190 97 302c-64 -100 -147 -216 -251 -320h-37l4 403c-2 14 -8 21 -18 21c-15 0 -45 -14 -69 -26v33c13 10 27 19 42 27c25 15 56 28 87 28c39 0 52 -24 49 -77l-11 -290c80 88 176 224 213 284c3 23 4 45 5 69h88l6 -10c-16 -70 -49 -284 -158 -459
c-64 -104 -183 -234 -316 -234c-46 0 -69 16 -69 47c0 35 26 53 63 53c59 0 163 -48 275 149z" />
    <glyph glyph-name="afii10086" unicode="&#x444;" horiz-adv-x="718" 
d="M414 663c7 25 1 34 -14 34c-17 0 -44 -15 -71 -28v35c53 39 98 55 133 55c41 0 51 -26 40 -66l-88 -349c51 96 106 151 167 151s92 -56 92 -147c0 -176 -123 -362 -296 -362c-17 0 -29 2 -38 5c-5 2 -9 4 -12 6l-41 -164h80l-12 -50h-240l12 50h80l76 303
c-51 -96 -107 -151 -167 -151c-61 0 -92 56 -92 147c0 176 123 362 296 362c17 0 30 -3 38 -6c5 -2 9 -4 12 -5zM538 413c-40 0 -86 -44 -150 -171l-44 -176c2 0 25 -24 62 -24c115 0 177 157 177 273c0 69 -10 98 -45 98zM158 67c39 0 86 44 149 171l44 175
c0 3 -25 25 -61 25c-115 0 -177 -157 -177 -273c0 -69 10 -98 45 -98z" />
    <glyph glyph-name="afii10087" unicode="&#x445;" horiz-adv-x="516" 
d="M271 317l90 110c41 51 63 66 90 66c23 0 37 -23 48 -52c4 -12 7 -24 9 -37l-27 -17c-13 10 -27 15 -41 15c-25 0 -47 -15 -72 -46l-80 -95l46 -150c8 -27 22 -38 37 -38c20 0 43 17 63 36l20 -20c-34 -53 -74 -104 -121 -104c-39 0 -57 34 -68 67l-42 131l-108 -128
c-37 -45 -62 -70 -90 -70c-31 0 -45 18 -53 38c-4 8 -6 16 -9 24l22 28c9 -5 21 -6 33 -5c31 3 68 21 95 54l92 113l-55 174c-5 12 -12 21 -23 21c-15 0 -45 -14 -69 -26l-6 33c31 25 69 55 114 55c39 0 59 -24 75 -77z" />
    <glyph glyph-name="afii10088" unicode="&#x446;" horiz-adv-x="552" 
d="M313 -178c63 16 38 60 59 124c7 23 19 42 40 62c-20 -9 -41 -17 -60 -17c-43 0 -47 37 -36 78l37 137h-3c-91 -163 -159 -221 -220 -221c-60 0 -90 45 -61 164l63 250c7 27 -3 34 -14 34s-35 -7 -71 -28v35c51 39 102 56 133 55c35 -1 52 -19 40 -66l-65 -256
c-19 -71 -21 -98 16 -98c39 0 114 79 205 236l43 170h81l-110 -438h73v-21c-42 -42 -17 -97 -36 -148c-12 -31 -42 -65 -109 -70z" />
    <glyph glyph-name="afii10089" unicode="&#x447;" horiz-adv-x="553" 
d="M400 96c-7 -23 3 -26 7 -26c16 0 46 26 75 50l11 -31c-65 -76 -115 -104 -144 -104c-44 0 -47 44 -36 84l52 207c-51 -59 -115 -98 -171 -98c-64 0 -94 52 -71 144l19 77c7 27 -3 34 -14 34s-35 -7 -71 -28v35c51 39 102 56 133 55c35 -1 52 -19 40 -66l-27 -107
c-11 -39 -7 -70 40 -70s92 33 135 76l38 153h81z" />
    <glyph glyph-name="afii10090" unicode="&#x448;" horiz-adv-x="802" 
d="M338 199c-87 -156 -148 -214 -208 -214s-90 45 -61 164l63 250c7 27 -3 34 -14 34s-35 -7 -71 -28v35c51 39 102 56 133 55c35 -1 52 -19 40 -66l-65 -256c-19 -71 -21 -98 16 -98c39 0 107 79 195 234l44 172h80l-79 -308c-19 -71 -21 -98 16 -98c39 0 107 78 195 233
l43 173h81l-97 -385c-7 -23 3 -26 7 -26c16 0 46 26 75 50l11 -31c-65 -76 -115 -104 -144 -104c-44 0 -47 44 -36 84l37 137h-2c-88 -163 -152 -221 -211 -221c-60 0 -90 45 -61 164z" />
    <glyph glyph-name="afii10091" unicode="&#x449;" horiz-adv-x="798" 
d="M338 199c-87 -156 -148 -214 -208 -214s-90 45 -61 164l63 250c7 27 -3 34 -14 34s-35 -7 -71 -28v35c51 39 102 56 133 55c35 -1 52 -19 40 -66l-65 -256c-19 -71 -21 -98 16 -98c39 0 107 79 195 234l44 172h80l-79 -308c-19 -71 -21 -98 16 -98c39 0 107 78 195 233
l43 173h81l-110 -438h73v-21c-42 -42 -17 -97 -36 -148c-12 -31 -42 -65 -109 -70l-5 18c63 16 38 60 59 124c7 23 19 42 40 62c-20 -9 -41 -17 -60 -17c-43 0 -47 37 -36 78l37 137h-2c-88 -163 -152 -221 -211 -221c-60 0 -90 45 -61 164z" />
    <glyph glyph-name="afii10092" unicode="&#x44a;" horiz-adv-x="513" 
d="M387 446c-88 -51 -153 -126 -188 -207c37 37 95 65 148 65c69 0 105 -37 105 -104c0 -123 -127 -215 -228 -215c-87 0 -128 51 -128 126c0 115 77 223 174 304c-68 -16 -108 -5 -156 -5c-20 0 -36 -8 -55 -55l-25 8c37 104 54 132 103 132c68 0 107 -43 191 -38
c12 9 25 16 38 24h21v-35zM243 32c57 0 118 54 118 147c0 49 -26 69 -58 69c-51 0 -104 -47 -125 -82c-3 -15 -4 -31 -4 -46c0 -63 28 -88 69 -88z" />
    <glyph glyph-name="afii10093" unicode="&#x44b;" horiz-adv-x="688" 
d="M176 256c35 33 75 58 136 58c69 0 105 -37 105 -104c0 -128 -129 -225 -230 -225c-105 0 -139 73 -115 172l61 242c7 27 -3 34 -14 34s-35 -7 -71 -28v35c51 39 102 56 133 55c35 -1 52 -19 40 -66zM540 110c-7 -27 -9 -40 2 -40s34 15 75 50l11 -31
c-65 -76 -114 -105 -145 -104c-35 1 -47 37 -35 84l103 412h81zM206 32c57 0 120 54 120 157c0 49 -26 69 -58 69c-41 0 -81 -33 -108 -65l-12 -48c-19 -72 5 -113 58 -113z" />
    <glyph glyph-name="afii10094" unicode="&#x44c;" horiz-adv-x="471" 
d="M176 256c35 33 75 58 136 58c69 0 105 -37 105 -104c0 -128 -129 -225 -230 -225c-105 0 -139 73 -115 172l61 242c7 27 -3 34 -14 34s-35 -7 -71 -28v35c51 39 102 56 133 55c35 -1 52 -19 40 -66zM206 32c57 0 120 54 120 157c0 49 -26 69 -58 69
c-41 0 -81 -33 -108 -65l-12 -48c-19 -72 5 -113 58 -113z" />
    <glyph glyph-name="afii10095" unicode="&#x44d;" horiz-adv-x="453" 
d="M125 -15c-56 0 -101 17 -130 38l20 126l30 2c7 -80 36 -118 83 -118c85 0 142 86 166 186h-178l8 47h180c3 23 5 45 5 68c0 61 -16 112 -77 112c-64 0 -99 -33 -132 -104l-31 3l29 112c48 25 92 38 151 38c100 0 156 -65 156 -170c0 -171 -121 -340 -280 -340z" />
    <glyph glyph-name="afii10096" unicode="&#x44e;" horiz-adv-x="739" 
d="M692 325c0 -151 -114 -340 -284 -340c-104 0 -153 69 -153 174c0 19 1 39 5 59h-90l-54 -218h-81l98 399c7 24 2 33 -11 33c-16 0 -45 -12 -73 -28v35c64 43 107 56 136 56c43 0 48 -31 37 -72l-40 -157h89c37 123 133 229 265 229c100 0 156 -65 156 -170zM425 34
c101 0 171 174 171 300c0 60 -16 111 -77 111c-108 0 -167 -161 -167 -290c0 -64 14 -121 73 -121z" />
    <glyph glyph-name="afii10097" unicode="&#x44f;" horiz-adv-x="515" 
d="M367 110c-7 -27 -9 -40 2 -40s34 15 75 50l11 -31c-65 -76 -114 -105 -145 -104c-35 1 -46 37 -35 84l36 147h-68c-134 -182 -170 -222 -225 -227c-17 -3 -30 1 -39 4c-5 2 -10 4 -13 7v26c17 0 27 11 59 48l82 91c35 40 56 54 83 66v3c-67 5 -116 35 -116 104
c0 96 93 157 212 157c40 0 72 -9 97 -20l63 20h17zM166 330c0 -56 49 -77 102 -77h52l42 169c-19 15 -43 27 -78 27c-79 0 -118 -55 -118 -119z" />
    <glyph glyph-name="uni0450" unicode="&#x450;" horiz-adv-x="460" 
d="M368 91c-52 -63 -120 -106 -203 -106c-106 0 -143 72 -143 158c0 149 113 352 291 352c61 0 125 -21 125 -92c0 -73 -67 -168 -318 -179c-3 -23 -4 -44 -4 -63c0 -62 16 -114 88 -114c48 0 94 21 150 77zM284 447c-86 0 -135 -92 -157 -184c204 21 215 99 215 126
c0 41 -21 58 -58 58zM130 709h98l128 -140l-2 -10h-32l-193 139z" />
    <glyph glyph-name="afii10071" unicode="&#x451;" horiz-adv-x="460" 
d="M368 91c-52 -63 -120 -106 -203 -106c-106 0 -143 72 -143 158c0 149 113 352 291 352c61 0 125 -21 125 -92c0 -73 -67 -168 -318 -179c-3 -23 -4 -44 -4 -63c0 -62 16 -114 88 -114c48 0 94 21 150 77zM284 447c-86 0 -135 -92 -157 -184c204 21 215 99 215 126
c0 41 -21 58 -58 58zM375 640c0 35 31 69 71 69c24 0 43 -11 43 -42c0 -43 -38 -68 -71 -68c-24 0 -43 13 -43 41zM198 639c0 36 31 70 71 70c24 0 43 -11 43 -42c0 -43 -39 -68 -72 -68c-24 0 -42 13 -42 40z" />
    <glyph glyph-name="afii10099" unicode="&#x452;" horiz-adv-x="506" 
d="M174 662c7 24 2 33 -11 33c-16 0 -45 -12 -73 -28v35c64 43 107 56 136 56c43 0 47 -31 36 -72l-22 -86h164l-12 -50h-164l-67 -269h2c89 156 154 214 218 214c60 0 90 -43 61 -163l-65 -256c-29 -116 -74 -232 -220 -232l9 38c60 0 99 55 127 170l63 256
c17 71 20 96 -17 96c-39 0 -113 -77 -201 -228l-46 -176h-81l135 550h-109l12 50h110z" />
    <glyph glyph-name="afii10100" unicode="&#x453;" horiz-adv-x="438" 
d="M467 698l-193 -139h-32l-2 10l128 140h98zM9 94c0 183 294 128 294 293c0 43 -31 59 -72 59c-56 0 -93 -37 -136 -114l-31 3l33 122c51 25 95 38 154 38c81 0 138 -32 138 -108c0 -194 -293 -145 -293 -293c0 -37 30 -60 81 -60c75 0 115 38 154 114l32 -3l-35 -122
c-49 -25 -105 -38 -166 -38c-85 0 -153 34 -153 109z" />
    <glyph glyph-name="afii10101" unicode="&#x454;" horiz-adv-x="438" 
d="M379 370c-29 0 -38 19 -47 38c-11 19 -21 38 -57 38c-78 0 -123 -85 -145 -174h185l-12 -48h-182c-3 -23 -4 -45 -4 -64c0 -62 11 -114 83 -114c48 0 85 21 141 77l14 -33c-52 -63 -111 -106 -194 -106c-107 0 -138 72 -138 159c0 155 111 351 282 351
c67 0 121 -27 121 -72c0 -24 -10 -52 -47 -52z" />
    <glyph glyph-name="afii10102" unicode="&#x455;" horiz-adv-x="371" 
d="M99 -12c-64 0 -114 17 -114 58c0 27 16 43 44 43c39 0 57 -45 124 -45c25 0 49 9 49 46c0 32 -17 55 -34 79l-70 100c-20 31 -27 59 -27 80c0 72 86 146 186 146c60 0 105 -23 105 -62c0 -25 -18 -41 -45 -41c-35 0 -60 46 -119 46c-39 0 -55 -24 -55 -55
c0 -13 3 -29 20 -54l73 -102c10 -13 43 -54 43 -97c0 -59 -63 -142 -180 -142z" />
    <glyph glyph-name="afii10103" unicode="&#x456;" horiz-adv-x="292" 
d="M138 90c-2 -13 1 -20 8 -20c11 0 34 15 75 50l11 -31c-65 -76 -114 -105 -145 -104c-35 1 -47 37 -35 84l81 330c7 24 2 33 -11 33c-16 0 -45 -12 -73 -28v35c64 43 107 56 136 56c43 0 47 -31 36 -72zM184 696c0 31 25 57 56 57s57 -26 57 -57s-26 -56 -57 -56
s-56 25 -56 56z" />
    <glyph glyph-name="afii10104" unicode="&#x457;" horiz-adv-x="292" 
d="M138 90c-2 -13 1 -20 8 -20c11 0 34 15 75 50l11 -31c-65 -76 -114 -105 -145 -104c-35 1 -47 37 -35 84l81 330c7 24 2 33 -11 33c-16 0 -45 -12 -73 -28v35c64 43 107 56 136 56c43 0 47 -31 36 -72zM257 640c0 35 31 69 71 69c24 0 43 -11 43 -42
c0 -43 -38 -68 -71 -68c-24 0 -43 13 -43 41zM80 639c0 36 31 70 71 70c24 0 43 -11 43 -42c0 -43 -39 -68 -72 -68c-24 0 -42 13 -42 40z" />
    <glyph glyph-name="afii10105" unicode="&#x458;" horiz-adv-x="262" 
d="M123 48c-40 -156 -127 -273 -234 -273c-43 0 -79 24 -79 55c0 23 19 43 46 43c26 0 41 -40 81 -40c39 0 65 61 92 165l100 401c7 24 2 33 -11 33c-16 0 -45 -12 -73 -28v35c64 43 107 56 136 56c43 0 47 -31 36 -72zM183 696c0 31 25 57 56 57s57 -26 57 -57
s-26 -56 -57 -56s-56 25 -56 56z" />
    <glyph glyph-name="afii10106" unicode="&#x459;" horiz-adv-x="692" 
d="M454 481l-57 -224c35 33 75 57 135 57c69 0 105 -37 105 -104c0 -128 -129 -225 -230 -225c-105 0 -139 73 -115 172l70 282h-126c-77 -319 -133 -449 -232 -449c-31 0 -46 17 -46 41c0 23 17 46 58 50c84 8 111 114 165 307c11 48 -8 52 -57 55l9 38h321zM426 32
c57 0 120 54 120 157c0 49 -26 69 -58 69c-40 0 -81 -32 -106 -63l-11 -44c-20 -77 2 -119 55 -119z" />
    <glyph glyph-name="afii10107" unicode="&#x45a;" horiz-adv-x="732" 
d="M134 399c7 24 2 33 -11 33c-16 0 -45 -12 -73 -28v35c64 43 107 56 136 56c43 0 48 -31 37 -72l-40 -157h177l54 215h81l-57 -224c35 33 75 57 135 57c69 0 105 -37 105 -104c0 -128 -129 -225 -230 -225c-105 0 -139 73 -115 172l15 61h-177l-54 -218h-81zM467 32
c57 0 120 54 120 157c0 49 -26 69 -58 69c-40 0 -81 -32 -106 -63l-11 -44c-20 -77 2 -119 55 -119z" />
    <glyph glyph-name="afii10108" unicode="&#x45b;" horiz-adv-x="539" 
d="M174 662c7 24 2 33 -11 33c-16 0 -45 -12 -73 -28v35c64 43 107 56 136 56c43 0 47 -31 36 -72l-22 -86h164l-12 -50h-164l-67 -269h2c89 156 154 214 218 214c60 0 90 -43 61 -163l-56 -222c-7 -27 -7 -40 4 -40s34 15 75 50l11 -31c-65 -76 -114 -105 -145 -104
c-35 1 -47 37 -35 84l60 239c19 71 20 96 -17 96c-39 0 -113 -77 -201 -228l-46 -176h-81l135 550h-109l12 50h110z" />
    <glyph glyph-name="afii10195" unicode="&#x473;" horiz-adv-x="510" 
d="M463 325c0 -151 -114 -340 -284 -340c-104 0 -153 69 -153 174c0 160 113 336 281 336c100 0 156 -65 156 -170zM196 34c73 0 128 89 155 185h-224c-3 -23 -4 -43 -4 -64c0 -64 14 -121 73 -121zM290 445c-80 0 -130 -84 -154 -178h225c4 23 6 45 6 67
c0 60 -16 111 -77 111z" />
    <glyph glyph-name="uni04E9" unicode="&#x4e9;" horiz-adv-x="510" 
d="M463 325c0 -151 -114 -340 -284 -340c-104 0 -153 69 -153 174c0 160 113 336 281 336c100 0 156 -65 156 -170zM196 34c73 0 128 89 155 185h-224c-3 -23 -4 -43 -4 -64c0 -64 14 -121 73 -121zM290 445c-80 0 -130 -84 -154 -178h225c4 23 6 45 6 67
c0 60 -16 111 -77 111z" />
    <glyph glyph-name="NULL" horiz-adv-x="511" 
d="M521 639c0 -91 -77 -182 -161 -225c63 -23 93 -73 93 -137c0 -160 -122 -291 -245 -291c-92 0 -155 66 -155 211c0 192 112 563 350 563c64 0 118 -37 118 -121zM261 377c-47 0 -76 -9 -93 -17c-13 -61 -20 -116 -20 -166c0 -111 30 -152 77 -152c76 0 133 115 133 211
c0 80 -33 124 -97 124zM288 426c7 0 12 0 17 -1c67 35 120 115 120 207c0 50 -17 75 -50 75c-40 0 -85 -36 -130 -123c-27 -51 -48 -111 -65 -172c20 7 55 14 108 14z" />
    <glyph glyph-name="Alpha" unicode="&#x391;" horiz-adv-x="682" 
d="M431 240h-229l-90 -143c-15 -24 -9 -42 16 -49c9 -3 33 -4 56 -7l-11 -41h-232l11 41c15 1 35 7 47 11c23 7 36 20 52 45l386 609h43l57 -609c3 -27 9 -38 28 -45c11 -4 29 -10 44 -11l-11 -41h-266l11 41c23 3 47 4 58 7c21 4 43 20 42 49zM235 293h192l-21 271z" />
    <glyph glyph-name="Alphatonos" unicode="&#x386;" horiz-adv-x="682" 
d="M431 240h-229l-90 -143c-15 -24 -9 -42 16 -49c9 -3 33 -4 56 -7l-11 -41h-232l11 41c15 1 35 7 47 11c23 7 36 20 52 45l386 609h43l57 -609c3 -27 9 -38 28 -45c11 -4 29 -10 44 -11l-11 -41h-266l11 41c23 3 47 4 58 7c21 4 43 20 42 49zM235 293h192l-21 271z
M286 683c-21 -66 -92 -166 -133 -210h-25l-2 10c27 47 61 128 81 211h78z" />
    <glyph glyph-name="Beta" unicode="&#x392;" horiz-adv-x="632" 
d="M-8 41c13 0 49 2 60 6c23 7 32 23 40 50l124 499c7 29 2 45 -15 50c-10 2 -42 6 -57 6l10 41h283c104 0 166 -34 166 -119c0 -104 -95 -185 -207 -206l-1 -3c120 -3 167 -52 167 -129c0 -137 -144 -236 -286 -236h-295zM459 222c0 68 -40 111 -141 111h-74l-71 -283h87
c103 0 199 67 199 172zM321 643l-65 -260h56c98 0 180 73 180 170c0 64 -35 90 -99 90h-72z" />
    <glyph glyph-name="Gamma" unicode="&#x393;" horiz-adv-x="558" 
d="M216 596c7 31 4 43 -15 50c-8 3 -34 3 -57 6l10 41h473l-41 -167h-36c-3 96 -29 117 -117 117h-112l-135 -546c-7 -31 -3 -43 14 -50c8 -3 35 -3 58 -6l-11 -41h-266l11 41c13 0 49 2 60 6c23 7 32 21 40 50z" />
    <glyph glyph-name="Delta" unicode="&#x2206;" horiz-adv-x="645" 
d="M538 0h-566l9 53l440 652h46l92 -644zM65 69h390l-73 495z" />
    <glyph glyph-name="CR" unicode="&#x394;" horiz-adv-x="633" 
d="M532 0h-566l9 53l440 652h46l92 -644zM59 69h390l-73 495z" />
    <glyph glyph-name="Epsilon" unicode="&#x395;" horiz-adv-x="610" 
d="M-8 41c13 0 49 2 60 6c23 7 32 21 40 50l124 499c7 31 4 43 -15 50c-8 3 -34 3 -57 6l10 41h463l-21 -167h-36c-3 96 -29 117 -117 117h-122l-65 -260h101c31 0 46 8 57 27c5 9 13 36 20 59h41l-55 -222h-41c3 14 9 48 9 59c-1 20 -15 27 -44 27h-100l-71 -283h135
c98 0 131 33 198 148l31 -4l-64 -194h-492z" />
    <glyph glyph-name="Epsilontonos" unicode="&#x388;" horiz-adv-x="610" 
d="M-8 41c13 0 49 2 60 6c23 7 32 21 40 50l124 499c7 31 4 43 -15 50c-8 3 -34 3 -57 6l10 41h463l-21 -167h-36c-3 96 -29 117 -117 117h-122l-65 -260h101c31 0 46 8 57 27c5 9 13 36 20 59h41l-55 -222h-41c3 14 9 48 9 59c-1 20 -15 27 -44 27h-100l-71 -283h135
c98 0 131 33 198 148l31 -4l-64 -194h-492zM116 683c-21 -66 -92 -166 -133 -210h-25l-2 10c27 47 61 128 81 211h78z" />
    <glyph glyph-name="Zeta" unicode="&#x396;" horiz-adv-x="612" 
d="M537 212l-67 -212h-491v17l530 626h-154c-91 0 -145 -24 -204 -131l-32 2l56 179h472l3 -17l-532 -626h124c142 0 173 34 263 166z" />
    <glyph glyph-name="Eta" unicode="&#x397;" 
d="M596 97c-8 -31 -3 -43 14 -50c8 -3 35 -3 58 -6l-11 -41h-266l11 41c13 0 49 2 60 6c23 7 32 21 40 50l59 237h-316l-59 -237c-8 -31 -3 -43 14 -50c8 -3 35 -3 58 -6l-11 -41h-266l11 41c13 0 49 2 60 6c23 7 32 21 40 50l124 499c7 31 4 43 -15 50c-8 3 -34 3 -57 6
l10 41h266l-10 -41c-13 0 -50 -3 -61 -6c-19 -5 -32 -22 -39 -50l-52 -209h316l52 209c7 31 4 43 -15 50c-8 3 -34 3 -57 6l10 41h266l-10 -41c-13 0 -50 -3 -61 -6c-19 -5 -32 -22 -39 -50z" />
    <glyph glyph-name="Etatonos" unicode="&#x389;" 
d="M596 97c-8 -31 -3 -43 14 -50c8 -3 35 -3 58 -6l-11 -41h-266l11 41c13 0 49 2 60 6c23 7 32 21 40 50l59 237h-316l-59 -237c-8 -31 -3 -43 14 -50c8 -3 35 -3 58 -6l-11 -41h-266l11 41c13 0 49 2 60 6c23 7 32 21 40 50l124 499c7 31 4 43 -15 50c-8 3 -34 3 -57 6
l10 41h266l-10 -41c-13 0 -50 -3 -61 -6c-19 -5 -32 -22 -39 -50l-52 -209h316l52 209c7 31 4 43 -15 50c-8 3 -34 3 -57 6l10 41h266l-10 -41c-13 0 -50 -3 -61 -6c-19 -5 -32 -22 -39 -50zM116 683c-21 -66 -92 -166 -133 -210h-25l-2 10c27 47 61 128 81 211h78z" />
    <glyph glyph-name="Theta" unicode="&#x398;" 
d="M453 379c31 0 46 8 57 27c5 9 10 26 18 49h41l-55 -219h-41c3 15 9 38 6 49c-1 20 -14 27 -43 27h-76c-29 0 -46 -7 -57 -27c-7 -11 -13 -34 -18 -49h-41l55 219h41c-4 -23 -7 -40 -6 -49c1 -19 12 -27 43 -27h76zM753 449c0 -224 -192 -464 -445 -464
c-164 0 -250 99 -250 256c0 224 189 468 442 468c168 0 253 -105 253 -260zM318 37c220 0 332 253 332 433c0 115 -46 189 -162 189c-221 0 -327 -263 -327 -440c0 -117 45 -182 157 -182z" />
    <glyph glyph-name="Iota" unicode="&#x399;" horiz-adv-x="370" 
d="M186 97c-8 -31 -3 -43 14 -50c8 -3 35 -3 58 -6l-11 -41h-266l11 41c13 0 49 2 60 6c23 7 32 21 40 50l124 499c7 31 4 43 -15 50c-8 3 -34 3 -57 6l10 41h266l-10 -41c-13 0 -50 -3 -61 -6c-19 -5 -32 -22 -39 -50z" />
    <glyph glyph-name="Iotatonos" unicode="&#x38a;" horiz-adv-x="370" 
d="M186 97c-8 -31 -3 -43 14 -50c8 -3 35 -3 58 -6l-11 -41h-266l11 41c13 0 49 2 60 6c23 7 32 21 40 50l124 499c7 31 4 43 -15 50c-8 3 -34 3 -57 6l10 41h266l-10 -41c-13 0 -50 -3 -61 -6c-19 -5 -32 -22 -39 -50zM116 683c-21 -66 -92 -166 -133 -210h-25l-2 10
c27 47 61 128 81 211h78z" />
    <glyph glyph-name="Iotadieresis" unicode="&#x3aa;" horiz-adv-x="370" 
d="M186 97c-8 -31 -3 -43 14 -50c8 -3 35 -3 58 -6l-11 -41h-266l11 41c13 0 49 2 60 6c23 7 32 21 40 50l124 499c7 31 4 43 -15 50c-8 3 -34 3 -57 6l10 41h266l-10 -41c-13 0 -50 -3 -61 -6c-19 -5 -32 -22 -39 -50zM335 779c0 35 30 65 69 65c23 0 40 -11 40 -39
c0 -41 -37 -65 -68 -65c-23 0 -41 12 -41 39zM167 778c0 35 29 66 68 66c23 0 41 -11 41 -39c0 -40 -37 -65 -69 -65c-23 0 -40 11 -40 38z" />
    <glyph glyph-name="Kappa" unicode="&#x39a;" horiz-adv-x="678" 
d="M186 97c-8 -31 -3 -43 14 -50c8 -3 35 -3 58 -6l-11 -41h-266l11 41c13 0 49 2 60 6c23 7 32 21 40 50l124 499c7 31 4 43 -15 50c-8 3 -34 3 -57 6l10 41h266l-10 -41c-13 0 -50 -3 -61 -6c-19 -5 -32 -22 -39 -50zM279 345c96 72 187 174 235 219c16 15 40 42 45 61
c5 18 1 22 -55 27l10 41h254l-10 -41c-50 -4 -100 -29 -151 -75c-42 -37 -132 -128 -232 -220l114 -240c21 -44 49 -69 102 -77l-13 -40h-145l-155 338z" />
    <glyph glyph-name="Lambda" unicode="&#x39b;" horiz-adv-x="682" 
d="M406 564l-294 -467c-15 -24 -9 -42 16 -49c9 -3 33 -4 56 -7l-11 -41h-232l11 41c15 1 35 7 47 11c23 7 36 20 52 45l386 609h43l57 -609c3 -27 9 -38 28 -45c11 -4 29 -10 44 -11l-11 -41h-266l11 41c23 3 47 4 58 7c21 4 43 20 42 49z" />
    <glyph glyph-name="Mu" unicode="&#x39c;" horiz-adv-x="922" 
d="M972 693l-10 -41c-13 0 -50 -3 -61 -6c-19 -5 -32 -22 -39 -50l-124 -499c-8 -31 -3 -43 14 -50c8 -3 35 -3 58 -6l-11 -41h-266l11 41c13 0 49 2 60 6c23 7 32 21 40 50l119 480l-333 -430h-34l-118 429l-111 -444c-9 -39 -3 -61 14 -74c14 -11 34 -18 59 -21l-10 -37
h-256l10 37c21 3 42 8 61 17c27 12 47 35 58 78l116 464c7 31 4 43 -15 50c-8 3 -34 3 -57 6l10 41h184l117 -423l334 423h180z" />
    <glyph glyph-name="Nu" unicode="&#x39d;" horiz-adv-x="807" 
d="M581 173l97 388c11 39 4 61 -13 74c-14 11 -34 18 -59 21l9 37h256l-9 -37c-23 -3 -42 -8 -61 -17c-27 -12 -48 -35 -59 -78l-140 -565h-49l-279 562l-105 -426c-11 -39 -4 -61 13 -74c14 -11 34 -18 59 -21l-9 -37h-256l9 37c23 3 42 8 61 17c27 12 48 35 59 78l101 408
c17 69 1 108 -62 117l9 36h160z" />
    <glyph glyph-name="Xi" unicode="&#x39e;" horiz-adv-x="635" 
d="M491 0h-489l37 202l33 4c11 -115 38 -129 137 -129h114c98 0 134 14 201 129l31 -4zM347 623c-86 0 -123 -5 -171 -101h-36l43 171h472l-43 -171h-36c0 96 -35 101 -121 101h-108zM396 388c31 0 46 8 57 27c5 8 11 24 18 49h41l-55 -220h-41c3 15 7 38 6 49
c-1 20 -14 27 -43 27h-106c-29 0 -46 -7 -57 -27c-7 -11 -14 -34 -18 -49h-41l55 220h41c-3 -23 -7 -40 -6 -49c1 -19 12 -27 43 -27h106z" />
    <glyph glyph-name="Omicron" unicode="&#x39f;" 
d="M753 449c0 -224 -192 -464 -445 -464c-164 0 -250 99 -250 256c0 224 189 468 442 468c168 0 253 -105 253 -260zM318 37c220 0 332 253 332 433c0 115 -46 189 -162 189c-221 0 -327 -263 -327 -440c0 -117 45 -182 157 -182z" />
    <glyph glyph-name="Omicrontonos" unicode="&#x38c;" horiz-adv-x="776" 
d="M750 449c0 -224 -192 -464 -445 -464c-164 0 -250 99 -250 256c0 224 189 468 442 468c168 0 253 -105 253 -260zM315 37c220 0 332 253 332 433c0 115 -46 189 -162 189c-221 0 -327 -263 -327 -440c0 -117 45 -182 157 -182zM173 683c-21 -66 -92 -166 -133 -210h-25
l-2 10c27 47 61 128 81 211h78z" />
    <glyph glyph-name="Rho" unicode="&#x3a1;" horiz-adv-x="594" 
d="M216 596c7 29 2 45 -15 50c-13 4 -29 3 -57 6l10 41h303c104 0 163 -49 163 -138c0 -141 -130 -262 -277 -262h-109l-48 -196c-7 -29 -3 -45 14 -50c15 -4 40 -3 68 -6l-11 -41h-276l11 41c19 1 45 2 60 6c19 5 33 21 40 50zM321 643l-74 -300h75c107 0 186 95 186 203
c0 60 -34 97 -95 97h-92z" />
    <glyph glyph-name="Pi" unicode="&#x3a0;" horiz-adv-x="770" 
d="M586 97c-8 -31 -3 -43 14 -50c8 -3 35 -3 58 -6l-11 -41h-266l11 41c13 0 49 2 60 6c23 7 32 21 40 50l135 543h-306l-135 -543c-8 -31 -3 -43 14 -50c8 -3 35 -3 58 -6l-11 -41h-266l11 41c13 0 49 2 60 6c23 7 32 21 40 50l124 499c7 31 4 43 -15 50c-8 3 -34 3 -57 6
l10 41h666l-10 -41c-13 0 -50 -3 -61 -6c-19 -5 -32 -22 -39 -50z" />
    <glyph glyph-name="Sigma" unicode="&#x3a3;" horiz-adv-x="600" 
d="M251 333l-118 327l15 33h466l-42 -167h-36c0 96 -31 117 -117 117h-175l102 -283l-257 -279h210c98 0 135 14 201 128l31 -4l-65 -205h-491l1 35z" />
    <glyph glyph-name="Tau" unicode="&#x3a4;" horiz-adv-x="632" 
d="M452 643l-136 -546c-7 -29 -3 -45 14 -50c13 -4 29 -3 58 -6l-11 -41h-266l11 41c19 1 45 2 60 6c19 5 33 21 40 50l136 546h-55c-87 0 -127 -21 -175 -117h-36l41 167h568l-41 -167h-36c-3 96 -29 117 -117 117h-55z" />
    <glyph glyph-name="Upsilon" unicode="&#x3a5;" horiz-adv-x="644" 
d="M281 604c0 -9 1 -19 5 -32l65 -227l191 237c12 15 18 27 18 37c0 27 -41 30 -76 33l10 41h241l-9 -35c-40 -4 -76 -27 -109 -62l-254 -305l-47 -194c-8 -31 -3 -43 14 -50c8 -3 35 -3 58 -6l-11 -41h-266l11 41c13 0 49 2 60 6c23 7 32 21 40 50l49 202l-96 297
c-13 35 -31 49 -72 56l10 41h276l-10 -41c-63 -5 -98 -8 -98 -48z" />
    <glyph glyph-name="Upsilondieresis" unicode="&#x3ab;" horiz-adv-x="644" 
d="M281 604c0 -9 1 -19 5 -32l65 -227l191 237c12 15 18 27 18 37c0 27 -41 30 -76 33l10 41h241l-9 -35c-40 -4 -76 -27 -109 -62l-254 -305l-47 -194c-8 -31 -3 -43 14 -50c8 -3 35 -3 58 -6l-11 -41h-266l11 41c13 0 49 2 60 6c23 7 32 21 40 50l49 202l-96 297
c-13 35 -31 49 -72 56l10 41h276l-10 -41c-63 -5 -98 -8 -98 -48zM506 779c0 35 30 65 69 65c23 0 40 -11 40 -39c0 -41 -37 -65 -68 -65c-23 0 -41 12 -41 39zM338 778c0 35 29 66 68 66c23 0 41 -11 41 -39c0 -40 -37 -65 -69 -65c-23 0 -40 11 -40 38z" />
    <glyph glyph-name="Upsilontonos" unicode="&#x38e;" horiz-adv-x="644" 
d="M281 604c0 -9 1 -19 5 -32l65 -227l191 237c12 15 18 27 18 37c0 27 -41 30 -76 33l10 41h241l-9 -35c-40 -4 -76 -27 -109 -62l-254 -305l-47 -194c-8 -31 -3 -43 14 -50c8 -3 35 -3 58 -6l-11 -41h-266l11 41c13 0 49 2 60 6c23 7 32 21 40 50l49 202l-96 297
c-13 35 -31 49 -72 56l10 41h276l-10 -41c-63 -5 -98 -8 -98 -48zM78 683c-21 -66 -92 -166 -133 -210h-25l-2 10c27 47 61 128 81 211h78z" />
    <glyph glyph-name="Phi" unicode="&#x3a6;" horiz-adv-x="859" 
d="M554 595l1 2c185 0 287 -72 287 -203c0 -175 -146 -297 -412 -297l-2 -10c-8 -31 -3 -43 14 -50c8 -3 35 -3 58 -6l-11 -41h-266l11 41c13 0 49 2 60 6c23 7 32 21 40 50l2 10c-184 0 -286 72 -286 203c0 173 146 297 410 297l3 9c7 31 4 43 -15 50c-8 3 -34 3 -57 6
l10 41h266l-10 -41c-13 0 -50 -3 -61 -6c-19 -5 -32 -22 -39 -50zM732 393c0 116 -83 158 -188 161l-105 -420l3 8c177 0 290 107 290 251zM160 301c0 -115 82 -161 187 -161l102 412c-176 0 -289 -107 -289 -251z" />
    <glyph glyph-name="Chi" unicode="&#x3a7;" horiz-adv-x="663" 
d="M125 693h272l-10 -41c-55 -3 -77 -8 -77 -35c0 -9 4 -23 11 -42l60 -155l156 163c16 17 24 30 24 40c0 15 -21 25 -63 29l10 41h238l-10 -41c-40 -5 -92 -26 -133 -69l-203 -212l108 -274c15 -37 31 -49 72 -56l-11 -41h-275l11 41c76 7 101 18 101 45c0 7 -3 15 -6 23
l-72 187l-172 -180c-19 -19 -28 -35 -28 -46c0 -19 25 -26 62 -29l-11 -41h-237l11 41c45 5 105 43 137 75l219 229l-96 251c-16 37 -66 53 -98 56z" />
    <glyph glyph-name="Psi" unicode="&#x3a8;" horiz-adv-x="803" 
d="M447 294c124 12 203 81 231 196l51 203h160l-10 -41c-44 -3 -69 -16 -80 -56l-29 -114c-40 -160 -191 -234 -337 -242l-35 -143c-8 -31 -3 -43 14 -50c8 -3 35 -3 58 -6l-11 -41h-266l11 41c13 0 49 2 60 6c23 7 32 21 40 50l36 144c-137 11 -250 87 -210 241l29 114
c9 37 -4 53 -52 56l10 41h165l-51 -203c-27 -109 21 -177 122 -194l75 300c7 31 4 43 -15 50c-8 3 -34 3 -57 6l10 41h266l-10 -41c-13 0 -50 -3 -61 -6c-19 -5 -32 -22 -39 -50z" />
    <glyph glyph-name="Omega" unicode="&#x2126;" horiz-adv-x="879" 
d="M822 479c0 -183 -171 -330 -334 -399l-3 -10h97c79 3 117 25 163 117h36l-47 -187h-297l24 97c137 94 245 222 245 401c0 96 -49 161 -175 161c-198 0 -303 -184 -303 -363c0 -76 31 -132 96 -199l-24 -97h-296l46 187h36c0 -96 31 -117 117 -117h80l3 10
c-85 40 -172 117 -172 242c0 213 215 387 435 387c172 0 273 -99 273 -230z" />
    <glyph glyph-name="_3" unicode="&#x3a9;" horiz-adv-x="862" 
d="M816 479c0 -183 -171 -330 -334 -399l-3 -10h97c79 3 117 25 163 117h36l-47 -187h-297l24 97c137 94 245 222 245 401c0 96 -49 161 -175 161c-198 0 -303 -184 -303 -363c0 -76 31 -132 96 -199l-24 -97h-296l46 187h36c0 -96 31 -117 117 -117h80l3 10
c-85 40 -172 117 -172 242c0 213 215 387 435 387c172 0 273 -99 273 -230z" />
    <glyph glyph-name="Omegatonos" unicode="&#x38f;" horiz-adv-x="865" 
d="M819 479c0 -183 -171 -330 -334 -399l-3 -10h97c79 3 117 25 163 117h36l-47 -187h-297l24 97c137 94 245 222 245 401c0 96 -49 161 -175 161c-198 0 -303 -184 -303 -363c0 -76 31 -132 96 -199l-24 -97h-296l46 187h36c0 -96 31 -117 117 -117h80l3 10
c-85 40 -172 117 -172 242c0 213 215 387 435 387c172 0 273 -99 273 -230zM187 683c-21 -66 -92 -166 -133 -210h-25l-2 10c27 47 61 128 81 211h78z" />
    <glyph glyph-name="alpha" unicode="&#x3b1;" horiz-adv-x="551" 
d="M389 97c-5 -18 -3 -27 6 -27c14 0 50 27 76 50l16 -30c-65 -76 -122 -105 -153 -105c-35 0 -50 39 -35 84l38 124h-3c-72 -117 -147 -204 -219 -204c-55 0 -98 42 -98 134c0 159 132 372 320 372c29 0 52 -7 75 -18l62 18h15zM150 63c51 0 137 121 204 225l30 122
c-23 17 -51 31 -82 31c-132 0 -189 -203 -189 -305c0 -49 12 -73 37 -73z" />
    <glyph glyph-name="alphatonos" unicode="&#x3ac;" horiz-adv-x="551" 
d="M466 698l-114 -139h-27l-2 10l53 140h88zM389 97c-5 -18 -3 -27 6 -27c14 0 50 27 76 50l16 -30c-65 -76 -122 -105 -153 -105c-35 0 -50 39 -35 84l38 124h-3c-72 -117 -147 -204 -219 -204c-55 0 -98 42 -98 134c0 159 132 372 320 372c29 0 52 -7 75 -18l62 18h15z
M150 63c51 0 137 121 204 225l30 122c-23 17 -51 31 -82 31c-132 0 -189 -203 -189 -305c0 -49 12 -73 37 -73z" />
    <glyph glyph-name="beta" unicode="&#x3b2;" horiz-adv-x="511" 
d="M521 639c0 -91 -77 -182 -161 -225c63 -23 93 -73 93 -137c0 -160 -122 -291 -245 -291c-92 0 -155 66 -155 211c0 192 112 563 350 563c64 0 118 -37 118 -121zM261 377c-47 0 -76 -9 -93 -17c-13 -61 -20 -116 -20 -166c0 -111 30 -152 77 -152c76 0 133 115 133 211
c0 80 -33 124 -97 124zM288 426c7 0 12 0 17 -1c67 35 120 115 120 207c0 50 -17 75 -50 75c-40 0 -85 -36 -130 -123c-27 -51 -48 -111 -65 -172c20 7 55 14 108 14z" />
    <glyph glyph-name="gamma" unicode="&#x3b3;" horiz-adv-x="490" 
d="M412 493c28 0 47 -17 47 -58c0 -88 -51 -195 -218 -397c3 -85 -18 -171 -38 -255h-89c16 112 39 177 63 243c-27 188 -56 312 -72 373c-5 21 -18 28 -34 28c-12 0 -25 -4 -38 -9l-6 32c29 27 55 43 90 43c68 0 73 -68 79 -96c13 -69 23 -151 39 -294
c80 99 125 182 125 262c0 28 -4 52 -4 75c0 25 15 53 56 53z" />
    <glyph glyph-name="delta" unicode="&#x3b4;" horiz-adv-x="517" 
d="M153 552c0 107 91 207 239 207c100 0 160 -35 160 -91c0 -25 -23 -47 -55 -47c-62 0 -35 84 -134 84c-76 0 -127 -44 -127 -101c0 -128 224 -153 224 -329c0 -151 -111 -290 -275 -290c-103 0 -164 60 -164 165c0 131 79 226 190 287c-33 29 -58 63 -58 115zM363 240
c0 92 -65 132 -124 175c-75 -55 -121 -150 -121 -247c0 -68 27 -125 98 -125c99 0 147 101 147 197z" />
    <glyph glyph-name="epsilon" unicode="&#x3b5;" horiz-adv-x="447" 
d="M164 -15c-79 0 -151 40 -151 112c0 77 53 128 124 163c-47 20 -67 46 -67 89c0 88 109 147 208 147c39 0 143 -3 143 -71c0 -24 -19 -46 -51 -46c-45 0 -45 72 -111 72c-52 0 -98 -36 -98 -97c0 -39 28 -57 63 -61c18 3 66 8 83 8c7 -24 -2 -49 -18 -69
c-16 0 -85 7 -98 10c-44 -15 -81 -56 -81 -113c0 -51 32 -81 80 -81c52 0 113 21 169 73l17 -30c-52 -63 -135 -106 -212 -106z" />
    <glyph glyph-name="epsilontonos" unicode="&#x3ad;" horiz-adv-x="447" 
d="M164 -15c-79 0 -151 40 -151 112c0 77 53 128 124 163c-47 20 -67 46 -67 89c0 88 109 147 208 147c39 0 143 -3 143 -71c0 -24 -19 -46 -51 -46c-45 0 -45 72 -111 72c-52 0 -98 -36 -98 -97c0 -39 28 -57 63 -61c18 3 66 8 83 8c7 -24 -2 -49 -18 -69
c-16 0 -85 7 -98 10c-44 -15 -81 -56 -81 -113c0 -51 32 -81 80 -81c52 0 113 21 169 73l17 -30c-52 -63 -135 -106 -212 -106zM393 698l-114 -139h-27l-2 10l53 140h88z" />
    <glyph glyph-name="zeta" unicode="&#x3b6;" horiz-adv-x="419" 
d="M166 744h293l-5 -75c-129 -109 -325 -335 -325 -473c0 -75 25 -88 97 -107c52 -13 139 -37 139 -110c0 -60 -62 -145 -115 -196h-65c48 50 98 120 98 158c0 13 -5 36 -36 47c-93 32 -215 16 -215 176c0 158 190 369 358 505h-266v17z" />
    <glyph glyph-name="eta" unicode="&#x3b7;" horiz-adv-x="536" 
d="M138 399c7 24 2 33 -11 33c-16 0 -45 -12 -73 -28v35c64 43 107 56 136 56c43 0 47 -31 36 -72l-46 -158h3c93 168 160 230 227 230c60 0 90 -43 61 -163l-138 -549h-80l132 525c19 71 20 96 -17 96c-39 0 -116 -81 -208 -240l-39 -164h-81z" />
    <glyph glyph-name="etatonos" unicode="&#x3ae;" horiz-adv-x="536" 
d="M138 399c7 24 2 33 -11 33c-16 0 -45 -12 -73 -28v35c64 43 107 56 136 56c43 0 47 -31 36 -72l-46 -158h3c93 168 160 230 227 230c60 0 90 -43 61 -163l-138 -549h-80l132 525c19 71 20 96 -17 96c-39 0 -116 -81 -208 -240l-39 -164h-81zM461 698l-114 -139h-27l-2 10
l53 140h88z" />
    <glyph glyph-name="theta" unicode="&#x3b8;" horiz-adv-x="527" 
d="M518 553c0 -243 -145 -568 -328 -568c-96 0 -137 67 -137 194c0 248 150 580 321 580c104 0 144 -77 144 -206zM358 710c-85 0 -147 -158 -182 -315h228c13 69 21 136 21 185c0 79 -22 130 -67 130zM205 34c84 0 149 151 187 307h-227c-13 -76 -20 -147 -20 -198
c0 -73 20 -109 60 -109z" />
    <glyph glyph-name="iota" unicode="&#x3b9;" horiz-adv-x="270" 
d="M212 481l-97 -391c-2 -13 1 -20 8 -20c11 0 34 15 75 50l11 -31c-65 -76 -114 -105 -145 -104c-35 1 -51 37 -39 84l103 412h84z" />
    <glyph glyph-name="iotadieresis" unicode="&#x3ca;" horiz-adv-x="270" 
d="M212 481l-97 -391c-2 -13 1 -20 8 -20c11 0 34 15 75 50l11 -31c-65 -76 -114 -105 -145 -104c-35 1 -51 37 -39 84l103 412h84zM219 640c0 35 31 69 71 69c24 0 43 -11 43 -42c0 -43 -38 -68 -71 -68c-24 0 -43 13 -43 41zM42 639c0 36 31 70 71 70c24 0 43 -11 43 -42
c0 -43 -39 -68 -72 -68c-24 0 -42 13 -42 40z" />
    <glyph glyph-name="iotadieresistonos" unicode="&#x390;" horiz-adv-x="270" 
d="M212 481l-97 -391c-2 -13 1 -20 8 -20c11 0 34 15 75 50l11 -31c-65 -76 -114 -105 -145 -104c-35 1 -51 37 -39 84l103 412h84zM317 755l-94 -139h-22l-2 10l38 140h78zM70 622c0 33 25 63 61 63c23 0 42 -12 42 -39c0 -43 -33 -63 -60 -63c-24 0 -43 12 -43 39z
M264 623c0 32 25 62 60 62c23 0 42 -12 42 -39c0 -43 -32 -63 -60 -63c-23 0 -42 12 -42 40z" />
    <glyph glyph-name="iotatonos" unicode="&#x3af;" horiz-adv-x="270" 
d="M212 481l-97 -391c-2 -13 1 -20 8 -20c11 0 34 15 75 50l11 -31c-65 -76 -114 -105 -145 -104c-35 1 -51 37 -39 84l103 412h84zM315 698l-114 -139h-27l-2 10l53 140h88z" />
    <glyph glyph-name="kappa" unicode="&#x3ba;" horiz-adv-x="536" 
d="M194 253l96 103c65 67 127 141 193 141c39 0 58 -16 58 -47c0 -23 -21 -43 -48 -46c-29 -3 -69 17 -109 -23l-111 -116l70 -139c29 -59 45 -88 112 -88v-30c-7 -5 -14 -9 -23 -12c-15 -7 -37 -11 -65 -11c-47 0 -71 31 -100 91l-77 159zM138 399c7 24 2 33 -11 33
c-16 0 -45 -12 -73 -28v35c64 43 107 56 136 56c43 0 47 -31 36 -72l-105 -423h-81z" />
    <glyph glyph-name="lambda" unicode="&#x3bb;" horiz-adv-x="509" 
d="M358 135c8 -59 31 -75 70 -75c5 0 8 0 15 1l-2 -45c-19 -12 -56 -27 -83 -27c-56 0 -65 52 -73 136l-25 252l-192 -377h-105l286 493v3c-24 150 -41 174 -160 174c-23 0 -31 15 -31 34c0 31 22 55 54 55c147 0 185 -159 198 -226z" />
    <glyph glyph-name="mu" unicode="&#xb5;" horiz-adv-x="539" 
d="M380 96c-7 -23 3 -26 7 -26c16 0 46 26 75 50l11 -31c-65 -76 -115 -104 -144 -104c-44 0 -47 44 -36 84l37 137h-3c-91 -163 -159 -221 -220 -221c-16 0 -29 3 -40 9c3 -35 4 -77 -7 -124l-21 -87h-83l174 698h80l-78 -308c-19 -71 -21 -98 16 -98c39 0 113 78 204 234
l44 172h81z" />
    <glyph glyph-name="_4" unicode="&#x3bc;" horiz-adv-x="560" 
d="M402 96c-7 -23 3 -26 7 -26c16 0 46 26 75 50l11 -31c-65 -76 -115 -104 -144 -104c-44 0 -47 44 -36 84l37 137h-3c-91 -163 -159 -221 -220 -221c-16 0 -29 3 -40 9c3 -35 4 -77 -7 -124l-21 -87h-83l174 698h80l-78 -308c-19 -71 -21 -98 16 -98c39 0 113 78 204 234
l44 172h81z" />
    <glyph glyph-name="nu" unicode="&#x3bd;" horiz-adv-x="490" 
d="M428 493c28 0 47 -17 47 -58c0 -114 -79 -242 -253 -443h-22c-27 187 -63 346 -79 407c-5 21 -18 28 -34 28c-12 0 -25 -4 -38 -9l-6 32c29 27 55 43 90 43c68 0 73 -68 79 -96c8 -56 22 -138 41 -291c102 115 123 205 123 259c0 28 -4 52 -4 75c0 25 15 53 56 53z" />
    <glyph glyph-name="xi" unicode="&#x3be;" horiz-adv-x="405" 
d="M235 324c-21 -7 -41 -17 -58 -29c-29 -21 -57 -53 -57 -102c0 -75 27 -91 83 -104c64 -16 148 -44 148 -109s-62 -146 -115 -197h-65c46 48 98 122 98 156c0 15 -5 30 -36 43c-72 29 -211 28 -211 168c0 85 67 155 148 195c-33 19 -56 47 -56 83c0 93 78 176 251 241
h-232l3 17l42 58h273l-5 -75c-169 -78 -245 -141 -245 -235c0 -26 11 -46 34 -59c26 5 85 12 102 12c1 -27 -4 -50 -17 -69c-16 0 -71 3 -85 6z" />
    <glyph glyph-name="omicron" unicode="&#x3bf;" horiz-adv-x="510" 
d="M463 325c0 -151 -114 -340 -284 -340c-104 0 -153 69 -153 174c0 160 113 336 281 336c100 0 156 -65 156 -170zM196 34c101 0 171 174 171 300c0 60 -16 111 -77 111c-108 0 -167 -161 -167 -290c0 -64 14 -121 73 -121z" />
    <glyph glyph-name="omicrontonos" unicode="&#x3cc;" horiz-adv-x="510" 
d="M463 325c0 -151 -114 -340 -284 -340c-104 0 -153 69 -153 174c0 160 113 336 281 336c100 0 156 -65 156 -170zM196 34c101 0 171 174 171 300c0 60 -16 111 -77 111c-108 0 -167 -161 -167 -290c0 -64 14 -121 73 -121zM436 698l-114 -139h-27l-2 10l53 140h88z" />
    <glyph glyph-name="pi" unicode="&#x3c0;" horiz-adv-x="586" 
d="M54 0l101 406h-94l2 15l41 60h470l-13 -75h-82l-78 -316c-2 -13 1 -20 8 -20c11 0 34 15 75 50l11 -31c-65 -76 -114 -105 -145 -104c-35 1 -45 37 -33 84l82 337h-164l-102 -406h-79z" />
    <glyph glyph-name="rho" unicode="&#x3c1;" horiz-adv-x="508" 
d="M-59 -217l101 403c42 170 143 309 266 309c92 0 153 -60 153 -175c0 -160 -127 -335 -287 -335c-31 0 -62 3 -93 14l-54 -216h-86zM98 67c27 -15 65 -27 104 -27c100 0 164 185 164 296c0 65 -14 108 -78 108c-76 0 -136 -140 -155 -239z" />
    <glyph glyph-name="sigma" unicode="&#x3c3;" horiz-adv-x="534" 
d="M535 400c-35 11 -66 20 -97 28c9 -31 14 -68 14 -103c0 -151 -103 -340 -273 -340c-104 0 -153 69 -153 174c0 159 113 341 281 341c105 0 170 -7 251 -20l4 -13zM367 334c0 36 -6 80 -10 109c-23 3 -44 4 -67 4c-108 0 -167 -163 -167 -292c0 -64 14 -121 73 -121
c101 0 171 174 171 300z" />
    <glyph glyph-name="sigma1" unicode="&#x3c2;" horiz-adv-x="439" 
d="M26 164c0 167 136 330 289 330c64 0 113 -30 113 -77c0 -31 -21 -47 -46 -47c-27 0 -37 19 -48 38c-12 19 -24 38 -57 38c-88 0 -156 -127 -156 -250c0 -43 7 -83 76 -107c44 -16 148 -33 148 -109c0 -56 -55 -140 -115 -197h-65c45 48 98 120 98 159c0 29 -28 35 -42 41
c-112 35 -195 52 -195 181z" />
    <glyph glyph-name="tau" unicode="&#x3c4;" horiz-adv-x="429" 
d="M83 481h353l-13 -75h-146c-56 -180 -70 -253 -70 -310c0 -22 9 -33 28 -33c21 0 54 13 94 33l7 -35c-56 -45 -107 -76 -147 -76c-54 0 -71 36 -71 74c0 59 30 176 102 347h-180l2 15z" />
    <glyph glyph-name="upsilon" unicode="&#x3c5;" horiz-adv-x="516" 
d="M231 43c88 0 153 131 153 228c0 86 -31 118 -31 166c0 37 19 61 54 61c47 0 66 -42 66 -130c0 -156 -97 -383 -271 -383c-135 0 -155 113 -123 238l46 172c7 29 -3 37 -19 37c-15 0 -34 -6 -53 -13v34c43 25 87 42 119 42c39 0 54 -32 43 -73l-41 -163
c-20 -69 -62 -216 57 -216z" />
    <glyph glyph-name="upsilondieresis" unicode="&#x3cb;" horiz-adv-x="516" 
d="M231 43c88 0 153 131 153 228c0 86 -31 118 -31 166c0 37 19 61 54 61c47 0 66 -42 66 -130c0 -156 -97 -383 -271 -383c-135 0 -155 113 -123 238l46 172c7 29 -3 37 -19 37c-15 0 -34 -6 -53 -13v34c43 25 87 42 119 42c39 0 54 -32 43 -73l-41 -163
c-20 -69 -62 -216 57 -216zM386 640c0 35 31 69 71 69c24 0 43 -11 43 -42c0 -43 -38 -68 -71 -68c-24 0 -43 13 -43 41zM209 639c0 36 31 70 71 70c24 0 43 -11 43 -42c0 -43 -39 -68 -72 -68c-24 0 -42 13 -42 40z" />
    <glyph glyph-name="upsilontonos" unicode="&#x3cd;" horiz-adv-x="516" 
d="M231 43c88 0 153 131 153 228c0 86 -31 118 -31 166c0 37 19 61 54 61c47 0 66 -42 66 -130c0 -156 -97 -383 -271 -383c-135 0 -155 113 -123 238l46 172c7 29 -3 37 -19 37c-15 0 -34 -6 -53 -13v34c43 25 87 42 119 42c39 0 54 -32 43 -73l-41 -163
c-20 -69 -62 -216 57 -216zM372 698l-114 -139h-27l-2 10l53 140h88z" />
    <glyph glyph-name="upsilondieresistonos" unicode="&#x3b0;" horiz-adv-x="516" 
d="M231 43c88 0 153 131 153 228c0 86 -31 118 -31 166c0 37 19 61 54 61c47 0 66 -42 66 -130c0 -156 -97 -383 -271 -383c-135 0 -155 113 -123 238l46 172c7 29 -3 37 -19 37c-15 0 -34 -6 -53 -13v34c43 25 87 42 119 42c39 0 54 -32 43 -73l-41 -163
c-20 -69 -62 -216 57 -216zM363 755l-94 -139h-22l-2 10l38 140h78zM116 622c0 33 25 63 61 63c23 0 42 -12 42 -39c0 -43 -33 -63 -60 -63c-24 0 -43 12 -43 39zM310 623c0 32 25 62 60 62c23 0 42 -12 42 -39c0 -43 -32 -63 -60 -63c-23 0 -42 12 -42 40z" />
    <glyph glyph-name="phi" unicode="&#x3c6;" horiz-adv-x="650" 
d="M428 744l-41 -250c153 -7 215 -73 215 -192c0 -146 -134 -281 -297 -310l-34 -209h-84l36 202c-135 4 -194 79 -194 199c0 139 117 287 286 308l46 252h67zM506 288c0 84 -32 135 -128 150l-65 -398c125 21 193 136 193 248zM126 206c0 -85 24 -150 107 -166l73 401
c-136 -11 -180 -148 -180 -235z" />
    <glyph glyph-name="chi" unicode="&#x3c7;" horiz-adv-x="474" 
d="M238 232l157 249h100l-238 -333l50 -228c15 -56 38 -72 73 -72c7 0 13 1 20 2l-5 -49c-15 -12 -51 -27 -82 -27c-55 0 -54 48 -70 136l-36 164l-176 -291h-99l257 373l-26 122c-22 121 -36 148 -84 148c-11 0 -25 -1 -41 -4l7 46c27 19 46 31 77 31c51 0 67 -32 79 -96z
" />
    <glyph glyph-name="psi" unicode="&#x3c8;" horiz-adv-x="728" 
d="M598 235c21 117 -35 156 -27 209c7 36 36 54 67 54c74 0 49 -159 41 -211c-29 -156 -136 -273 -298 -297l-34 -207h-84l36 202c-172 5 -225 97 -201 238l31 176c7 31 2 41 -27 41c-13 0 -35 -2 -46 -3l6 35c31 10 92 23 124 23c39 0 48 -20 41 -60l-31 -176
c-21 -111 -4 -201 114 -214l127 699h67l-114 -698c118 16 192 101 208 189z" />
    <glyph glyph-name="omega" unicode="&#x3c9;" horiz-adv-x="687" 
d="M591 481c29 -35 44 -84 44 -147c0 -126 -67 -343 -228 -343c-68 0 -92 39 -105 98c-30 -49 -73 -98 -138 -98c-88 0 -134 66 -134 169c0 121 51 234 147 321h69c-79 -79 -119 -207 -119 -321c0 -57 16 -103 64 -103c50 0 84 54 100 89c-1 11 -2 22 -2 33
c-3 59 4 120 15 181c15 7 31 11 49 11c17 0 36 -4 45 -11c-8 -48 -42 -166 -66 -216c13 -59 40 -87 75 -87c112 0 137 197 137 287c0 53 -7 104 -32 137h79z" />
    <glyph glyph-name="omegatonos" unicode="&#x3ce;" horiz-adv-x="688" 
d="M592 481c29 -35 44 -84 44 -147c0 -126 -67 -343 -228 -343c-68 0 -92 39 -105 98c-30 -49 -73 -98 -138 -98c-88 0 -134 66 -134 169c0 121 51 234 147 321h69c-79 -79 -119 -207 -119 -321c0 -57 16 -103 64 -103c50 0 84 54 100 89c-1 11 -2 22 -2 33
c-3 59 4 120 15 181c15 7 31 11 49 11c17 0 36 -4 45 -11c-8 -48 -42 -166 -66 -216c13 -59 40 -87 75 -87c112 0 137 197 137 287c0 53 -7 104 -32 137h79zM424 698l-114 -139h-27l-2 10l53 140h88z" />
    <glyph glyph-name="acute" unicode="&#xb4;" horiz-adv-x="427" 
d="M424 698l-193 -139h-32l-2 10l128 140h98z" />
    <glyph glyph-name="grave" unicode="`" horiz-adv-x="427" 
d="M198 709h98l128 -140l-2 -10h-32l-193 139z" />
    <glyph glyph-name="circumflex" unicode="&#x2c6;" horiz-adv-x="502" 
d="M335 709h42l78 -140l-6 -10h-32l-79 77l-117 -77h-32l-2 10z" />
    <glyph glyph-name="dieresis" unicode="&#xa8;" horiz-adv-x="477" 
d="M351 640c0 35 31 69 71 69c24 0 43 -11 43 -42c0 -43 -38 -68 -71 -68c-24 0 -43 13 -43 41zM174 639c0 36 31 70 71 70c24 0 43 -11 43 -42c0 -43 -39 -68 -72 -68c-24 0 -42 13 -42 40z" />
    <glyph glyph-name="tilde" unicode="&#x2dc;" horiz-adv-x="467" 
d="M464 700c-16 -56 -50 -106 -119 -106c-64 0 -89 48 -121 48c-24 0 -39 -21 -54 -52h-31c17 60 55 106 115 106c56 0 79 -48 112 -48c28 0 51 17 66 52h32z" />
    <glyph glyph-name="macron" unicode="&#xaf;" horiz-adv-x="316" 
d="M128 674h232l-15 -60h-232z" />
    <glyph glyph-name="breve" unicode="&#x2d8;" horiz-adv-x="495" 
d="M490 709c-43 -88 -104 -146 -179 -146c-65 0 -118 55 -107 146h37c11 -56 41 -72 90 -72c51 0 83 20 122 72h37z" />
    <glyph glyph-name="dotaccent" unicode="&#x2d9;" horiz-adv-x="292" 
d="M180 696c0 31 25 57 56 57s57 -26 57 -57s-26 -56 -57 -56s-56 25 -56 56z" />
    <glyph glyph-name="ring" unicode="&#x2da;" horiz-adv-x="408" 
d="M404 687c0 -64 -66 -115 -138 -115c-53 0 -85 28 -85 73c0 64 66 114 137 114c51 0 86 -25 86 -72zM278 608c40 0 72 35 72 75c0 27 -14 40 -42 40c-43 0 -73 -32 -73 -73c0 -28 14 -42 43 -42z" />
    <glyph glyph-name="cedilla" unicode="&#xb8;" horiz-adv-x="504" 
d="M326 -126c0 -69 -79 -100 -146 -100c-23 0 -48 3 -71 10l14 54c24 -9 49 -15 72 -15c31 0 56 12 56 35c0 28 -38 29 -72 29l30 121h48l-16 -66c45 -4 85 -29 85 -68z" />
    <glyph glyph-name="hungarumlaut" unicode="&#x2dd;" horiz-adv-x="456" 
d="M351 698l-173 -139h-32l-2 10l108 140h98zM512 698l-193 -139h-32l-2 10l128 140h98z" />
    <glyph glyph-name="ogonek" unicode="&#x2db;" horiz-adv-x="585" 
d="M438 -217c-27 -5 -51 -8 -72 -8c-56 0 -96 19 -96 68c0 55 49 125 172 176l30 -5c-56 -32 -119 -81 -119 -142c0 -39 25 -51 62 -51c11 0 23 1 34 4z" />
    <glyph glyph-name="caron" unicode="&#x2c7;" horiz-adv-x="502" 
d="M341 569h-42l-78 140l6 10h32l79 -77l117 77h32l2 -10z" />
    <glyph glyph-name="_5" horiz-adv-x="315" 
d="M328 733c-21 -66 -92 -166 -133 -210h-25l-2 10c27 47 61 128 81 211h78z" />
    <glyph glyph-name="_6" horiz-adv-x="372" 
d="M401 832l-201 -99h-32l-1 10l130 100h102z" />
    <glyph glyph-name="_7" horiz-adv-x="392" 
d="M425 836c-35 -71 -84 -110 -144 -110c-54 0 -96 36 -88 110h30c9 -44 35 -51 75 -51s67 8 96 51h31z" />
    <glyph glyph-name="_8" horiz-adv-x="428" 
d="M319 729h-42l-89 100l7 10h32l84 -57l112 57h32l1 -10z" />
    <glyph glyph-name="_9" horiz-adv-x="428" 
d="M304 839h42l88 -100l-6 -10h-32l-84 57l-112 -57h-32l-2 10z" />
    <glyph glyph-name="_10" horiz-adv-x="433" 
d="M344 779c0 35 30 65 69 65c23 0 40 -11 40 -39c0 -41 -37 -65 -68 -65c-23 0 -41 12 -41 39zM176 778c0 35 29 66 68 66c23 0 41 -11 41 -39c0 -40 -37 -65 -69 -65c-23 0 -40 11 -40 38z" />
    <glyph glyph-name="_11" horiz-adv-x="270" 
d="M176 778c0 35 31 69 71 69c24 0 43 -11 43 -42c0 -41 -36 -68 -71 -68c-24 0 -43 13 -43 41z" />
    <glyph glyph-name="_12" horiz-adv-x="485" 
d="M508 832l-195 -99h-32l-1 10l130 100h96zM351 832l-160 -99h-32l-1 10l109 100h82z" />
    <glyph glyph-name="_13" horiz-adv-x="372" 
d="M169 843h102l130 -100l-1 -10h-32l-201 99z" />
    <glyph glyph-name="_14" horiz-adv-x="392" 
d="M167 844h232l-15 -60h-232z" />
    <glyph glyph-name="_15" horiz-adv-x="470" 
d="M459 847c-16 -56 -50 -106 -119 -106c-64 0 -89 48 -121 48c-24 0 -39 -21 -54 -52h-31c17 60 55 106 115 106c56 0 79 -48 112 -48c28 0 51 17 66 52h32z" />
    <glyph glyph-name="_16" horiz-adv-x="427" 
d="M311 -102c0 -60 -73 -109 -131 -133l-12 20c44 23 65 40 80 71c-24 0 -40 12 -40 32c0 25 26 51 62 51c25 0 41 -13 41 -41z" />
    <glyph glyph-name="_17" horiz-adv-x="408" 
d="M404 687c0 -64 -66 -115 -138 -115c-53 0 -85 28 -85 73c0 64 66 114 137 114c51 0 86 -25 86 -72zM278 608c40 0 72 35 72 75c0 27 -14 40 -42 40c-43 0 -73 -32 -73 -73c0 -28 14 -42 43 -42z" />
    <glyph glyph-name="_18" horiz-adv-x="556" 
d="M520 836c-19 -65 -64 -100 -159 -100c-73 0 -124 28 -121 100h86c-4 -41 18 -57 49 -57c47 0 72 17 84 57h61z" />
    <glyph glyph-name="_19" horiz-adv-x="556" 
d="M483 695c-19 -65 -64 -110 -159 -110c-73 0 -124 37 -121 110h86c-4 -41 18 -67 49 -67c47 0 72 27 84 67h61z" />
    <glyph glyph-name="tonos" unicode="&#x384;" horiz-adv-x="427" 
d="M291 698l-114 -139h-27l-2 10l53 140h88z" />
    <glyph glyph-name="dieresistonos" unicode="&#x385;" horiz-adv-x="477" 
d="M328 755l-94 -139h-22l-2 10l38 140h78zM81 622c0 33 25 63 61 63c23 0 42 -12 42 -39c0 -43 -33 -63 -60 -63c-24 0 -43 12 -43 39zM275 623c0 32 25 62 60 62c23 0 42 -12 42 -39c0 -43 -32 -63 -60 -63c-23 0 -42 12 -42 40z" />
    <glyph glyph-name="dotbelowcomb" unicode="&#x323;" horiz-adv-x="277" 
d="M31 -175c0 52 44 80 80 80c27 0 47 -16 47 -48c0 -52 -42 -80 -79 -80c-27 0 -48 16 -48 48z" />
    <glyph glyph-name="trademark" unicode="&#x2122;" horiz-adv-x="1106" 
d="M1079 758v-36c-9 -1 -31 -1 -38 -4c-12 -4 -18 -15 -18 -33v-205c0 -20 6 -29 18 -33c7 -3 23 -3 38 -4v-36h-179v36c9 1 31 1 39 4c11 4 17 15 17 33v195l-124 -205h-21l-123 208v-176c0 -23 7 -39 20 -48c11 -7 26 -10 42 -13v-34h-173v34c15 3 26 3 37 10
c15 8 25 24 25 51v183c0 20 -5 29 -18 33c-5 3 -23 3 -38 4v36h133l116 -202l124 202h123zM391 716v-236c0 -19 6 -30 17 -33c9 -3 19 -3 38 -4v-36h-178v36c12 1 28 1 37 4c11 3 17 14 17 33v236h-22c-55 0 -78 -13 -94 -76h-33v118h367v-118h-33c-16 63 -38 76 -94 76h-22
z" />
    <glyph glyph-name="registered" unicode="&#xae;" horiz-adv-x="629" 
d="M366 242c-138 0 -254 91 -254 258s116 258 254 258s254 -91 254 -258s-116 -258 -254 -258zM366 283c117 0 207 80 207 217s-90 217 -207 217c-118 0 -207 -80 -207 -217s89 -217 207 -217zM282 597c0 10 -4 16 -11 18c-5 1 -10 1 -21 2v21h134c45 0 78 -24 78 -68
c0 -37 -25 -65 -60 -73l48 -64c15 -19 27 -25 47 -28v-20h-71l-76 109h-21v-68c0 -10 3 -16 9 -18l27 -2v-21h-115v21c7 0 14 1 21 2c7 2 11 8 11 18v171zM329 610v-87h27c35 0 52 9 52 45c0 31 -17 42 -46 42h-33z" />
    <glyph glyph-name="copyright" unicode="&#xa9;" horiz-adv-x="673" 
d="M249 -9c-118 0 -206 69 -206 205c0 176 150 369 355 369c118 0 206 -63 206 -212c0 -215 -186 -362 -355 -362zM261 28c172 0 299 162 299 322c0 117 -65 178 -172 178c-173 0 -301 -163 -301 -323c0 -123 74 -177 174 -177zM392 149c-39 -27 -83 -35 -118 -35
c-67 0 -100 35 -100 105c0 125 108 227 206 227c40 0 83 -17 83 -49c0 -25 -26 -42 -43 -42c-28 0 -24 43 -73 43c-63 0 -108 -70 -108 -157c0 -44 11 -75 71 -75c25 0 54 5 89 16z" />
    <glyph glyph-name="Euro" unicode="&#x20ac;" horiz-adv-x="646" 
d="M92 461h77c75 147 218 248 353 248c72 0 146 -28 146 -86c0 -37 -30 -57 -59 -57c-62 0 -34 93 -133 93c-96 0 -171 -91 -214 -198h203l-12 -50h-209c-12 -36 -21 -72 -27 -109h209l-13 -50h-202c-3 -15 -2 -30 -2 -43c0 -113 44 -174 120 -174c91 0 108 90 173 90
c20 0 38 -8 38 -35c0 -68 -115 -105 -207 -105c-145 0 -221 92 -221 248v19h-72l13 50h64c5 39 14 74 29 109h-66z" />
    <glyph glyph-name="dollar" unicode="$" horiz-adv-x="546" 
d="M428 827l-30 -119c87 -3 167 -34 167 -83c0 -28 -24 -64 -64 -64c-61 0 -42 79 -116 95l-65 -260l33 -14c71 -32 130 -73 130 -164c0 -133 -126 -218 -265 -231l-36 -146h-53l36 145c-83 3 -168 39 -168 91c0 35 34 61 65 61c49 0 48 -75 117 -96l67 270l-35 16
c-69 31 -105 76 -105 151c0 128 107 210 238 226l31 122h53zM380 184c0 53 -26 81 -86 108l-63 -256c81 5 149 63 149 148zM199 518c0 -45 18 -74 73 -101l61 241c-70 -8 -134 -57 -134 -140z" />
    <glyph glyph-name="cent" unicode="&#xa2;" horiz-adv-x="456" 
d="M386 370c-29 0 -38 19 -47 38c-7 12 -14 25 -29 32l-98 -394c45 1 81 24 136 77l14 -33c-47 -56 -97 -95 -165 -104l-36 -145h-52l36 144c-88 11 -115 76 -115 158c0 142 93 318 241 347l31 125h52l-30 -121c60 -3 109 -29 109 -72c0 -24 -10 -52 -47 -52zM124 160
c0 -47 6 -86 38 -105l97 388c-93 -24 -135 -179 -135 -283z" />
    <glyph glyph-name="sterling" unicode="&#xa3;" horiz-adv-x="600" 
d="M78 361h87l12 49c47 187 150 299 302 299c87 0 143 -32 143 -84c0 -39 -30 -62 -65 -59c-69 4 -16 98 -111 98c-81 0 -127 -64 -186 -297l-2 -6h192l-12 -50h-194c-19 -52 -52 -123 -135 -215h385l1 -10l-52 -86h-455l2 35c113 102 143 190 164 276h-88z" />
    <glyph glyph-name="yen" unicode="&#xa5;" horiz-adv-x="697" 
d="M109 349h206l-13 -50h-206zM74 210h494l-13 -50h-494zM393 349h210l-13 -50h-210zM307 604c0 -9 1 -19 5 -32l65 -227l191 237c12 15 18 27 18 37c0 27 -41 30 -76 33l10 41h241l-9 -35c-40 -4 -76 -27 -109 -62l-254 -305l-47 -194c-8 -31 -3 -43 14 -50
c8 -3 35 -3 58 -6l-11 -41h-266l11 41c13 0 49 2 60 6c23 7 32 21 40 50l49 202l-96 297c-13 35 -31 49 -72 56l10 41h276l-10 -41c-63 -5 -98 -8 -98 -48z" />
    <glyph glyph-name="currency" unicode="&#xa4;" horiz-adv-x="517" 
d="M410 111l-50 -42l-65 90c-23 -13 -49 -21 -73 -21s-45 7 -62 21l-111 -91l-28 44l108 91c-3 12 -5 24 -5 37c0 40 16 74 40 103l-62 93l52 42l63 -91c19 12 51 21 74 21c21 0 47 -9 60 -20l109 90l31 -42l-109 -93c4 -12 6 -27 6 -39c0 -39 -20 -77 -41 -101zM333 289
c0 44 -32 65 -63 65c-48 0 -92 -49 -92 -102c0 -35 25 -60 60 -60c50 0 95 50 95 97z" />
    <glyph glyph-name="uni00A0" unicode="&#xa0;" horiz-adv-x="268" 
 />
    <glyph glyph-name="B" unicode="B" horiz-adv-x="632" 
d="M-8 41c13 0 49 2 60 6c23 7 32 23 40 50l124 499c7 29 2 45 -15 50c-10 2 -42 6 -57 6l10 41h283c104 0 166 -34 166 -119c0 -104 -95 -185 -207 -206l-1 -3c120 -3 167 -52 167 -129c0 -137 -144 -236 -286 -236h-295zM459 222c0 68 -40 111 -141 111h-74l-71 -283h87
c103 0 199 67 199 172zM321 643l-65 -260h56c98 0 180 73 180 170c0 64 -35 90 -99 90h-72z" />
    <glyph glyph-name="A" unicode="A" horiz-adv-x="682" 
d="M431 240h-229l-90 -143c-15 -24 -9 -42 16 -49c9 -3 33 -4 56 -7l-11 -41h-232l11 41c15 1 35 7 47 11c23 7 36 20 52 45l386 609h43l57 -609c3 -27 9 -38 28 -45c11 -4 29 -10 44 -11l-11 -41h-266l11 41c23 3 47 4 58 7c21 4 43 20 42 49zM235 293h192l-21 271z" />
    <glyph glyph-name="_20" horiz-adv-x="682" 
 />
  </font>
</defs>
</svg>
