<svg xmlns="http://www.w3.org/2000/svg" width="120.856" height="17.254" viewBox="0 0 120.856 17.254"><path d="M694.647,6.943,700.135,0h-3.5l-5.092,6.516V0H688.4V14.961h3.147V7.8l5.092,7.164h3.748Z" transform="translate(-579.531)" fill="#fff"/><path d="M453.916,3.5h-3.163V9.383h-6.69V3.5H440.9V18.445h3.163V11.977h6.69v6.468H453.9Z" transform="translate(-371.173 -2.946)" fill="#fff"/><path d="M377.713,18.361h.822V12.747l5-9.347h-.9l-4.476,8.445h-.047L373.665,3.4H372.7l5.013,9.347Z" transform="translate(-313.758 -2.862)" fill="#fff"/><path d="M307.433,18.361h.838V4.143h4.349V3.4H303.1v.743h4.333Z" transform="translate(-255.165 -2.862)" fill="#fff"/><path d="M228.228,18.171A4.278,4.278,0,0,0,229.9,17a4.91,4.91,0,0,0,.965-1.85,8.91,8.91,0,0,0,.316-2.435V3.4h-.838v9.315a7.8,7.8,0,0,1-.269,2.1,4.324,4.324,0,0,1-.822,1.613,3.64,3.64,0,0,1-1.392,1.028,5.285,5.285,0,0,1-2.04.364,4.24,4.24,0,0,1-3.5-1.36,5.961,5.961,0,0,1-1.091-3.827V3.4H220.4v9.315a8.735,8.735,0,0,0,.3,2.42,4.739,4.739,0,0,0,.965,1.835,4.481,4.481,0,0,0,1.676,1.186,7.6,7.6,0,0,0,4.887.016" transform="translate(-185.544 -2.862)" fill="#fff"/><path d="M138.995,3.4h-.917L132.4,18.361h.854l1.613-4.317h7.291l1.645,4.317h.87Zm-3.859,9.9,3.384-8.92,3.369,8.92Z" transform="translate(-111.461 -2.862)" fill="#fff"/><path d="M74.6,18.361h7.227v-.743h-6.4V10.706h5.5V9.963h-5.5V4.143h6.247V3.4H74.6Z" transform="translate(-62.802 -2.862)" fill="#fff"/><path d="M8.255,12.762a3.4,3.4,0,0,0-.743-1.123A3.976,3.976,0,0,0,6.4,10.865a5.587,5.587,0,0,0-1.344-.443v-.047A3.67,3.67,0,0,0,7.069,9.267,3.092,3.092,0,0,0,7.86,7.053,3.138,3.138,0,0,0,6.611,4.222,6.566,6.566,0,0,0,2.989,3.4H0V18.361H3.084a7.092,7.092,0,0,0,4-.981A3.532,3.532,0,0,0,8.54,14.233a3.642,3.642,0,0,0-.285-1.471M.838,4.143H2.957a5.441,5.441,0,0,1,3.1.7,2.566,2.566,0,0,1,.965,2.246c0,1.993-1.36,2.989-4.064,2.989H.838ZM6.547,16.811a6.135,6.135,0,0,1-3.5.807H.838V10.785H3.084a5.714,5.714,0,0,1,3.448.886,3.018,3.018,0,0,1,1.186,2.578,2.941,2.941,0,0,1-1.17,2.562" transform="translate(0 -2.862)" fill="#fff"/><path d="M532.452,12.9h-4.191l1.281-3.574c.206-.617.38-1.154.506-1.613s.221-.791.285-.965h.047a5.249,5.249,0,0,1,.285.933,14.512,14.512,0,0,0,.522,1.645Zm1.9,5.345h3.463L531.961,3.3h-3.052L523.2,18.261h3.195l.981-2.8h5.978Z" transform="translate(-440.457 -2.778)" fill="#fff"/><path d="M617.251,2.989l1.3-2.467A10.323,10.323,0,0,0,616.318.3a8.21,8.21,0,0,0-3.337.633,7.118,7.118,0,0,0-2.42,1.708,7.3,7.3,0,0,0-1.471,2.451,8.611,8.611,0,0,0-.49,2.926,8.676,8.676,0,0,0,.49,2.926,7.143,7.143,0,0,0,1.455,2.483,5.517,5.517,0,0,0,.775.712l1.534-2.878a4.98,4.98,0,0,1-.6-1.313,7.546,7.546,0,0,1-.269-2.024,6.425,6.425,0,0,1,.285-1.945,4.935,4.935,0,0,1,.822-1.6A3.719,3.719,0,0,1,614.436,3.3a4.1,4.1,0,0,1,1.866-.4,8.521,8.521,0,0,1,.949.079" transform="translate(-512.351 -0.253)" fill="#fff"/><path d="M628.3,25.289a4.265,4.265,0,0,1-1.914-.411,3.765,3.765,0,0,1-1.36-1.123c-.063-.095-.126-.206-.19-.3L623.3,26.332a7.716,7.716,0,0,0,1.6.981,8.974,8.974,0,0,0,4.9.49,7.508,7.508,0,0,0,1.344-.38,8.593,8.593,0,0,0,1.075-.506,3.933,3.933,0,0,0,.759-.538l-1.3-2.23a6.4,6.4,0,0,1-1.376.791,4.921,4.921,0,0,1-2.008.348m4.27-11.766a6.8,6.8,0,0,0-1.724-.759,1.84,1.84,0,0,0-.285-.063l-1.313,2.451a5.152,5.152,0,0,1,.775.158,5.276,5.276,0,0,1,1.281.6Z" transform="translate(-524.727 -10.692)" fill="#fff"/></svg>