<svg xmlns="http://www.w3.org/2000/svg" width="10.886" height="10.886" viewBox="0 0 10.886 10.886"><path d="M7.009,5.617a.24.24,0,0,1,0-.348l3.728-3.728a.537.537,0,0,0,.149-.348.537.537,0,0,0-.149-.348l-.7-.7A.537.537,0,0,0,9.693,0a.451.451,0,0,0-.348.149L5.617,3.877a.24.24,0,0,1-.348,0L1.541.149A.537.537,0,0,0,1.193,0,.537.537,0,0,0,.845.149l-.7.7A.537.537,0,0,0,0,1.193a.537.537,0,0,0,.149.348L3.877,5.269a.24.24,0,0,1,0,.348L.149,9.345a.48.48,0,0,0,0,.7l.7.7a.537.537,0,0,0,.348.149.537.537,0,0,0,.348-.149L5.269,7.009a.24.24,0,0,1,.348,0l3.728,3.728a.481.481,0,0,0,.7,0l.7-.7a.481.481,0,0,0,0-.7Z"/></svg>