<svg xmlns="http://www.w3.org/2000/svg" width="118" height="17.254" viewBox="0 0 118 17.254"><path d="M117.76,2.477h-3.792V17.119h-1.643V2.476h-3.808v-1.4h9.243V2.493m7.158.6-6.194,14.027h-1.817l7.11-16.042h1.849l7.11,16.042h-1.8L124.918,3.091l-3.16,7.179h6.383l.632,1.448H121.11m15.327,5.4V1.076h-1.659V17.117h8.533V15.685h-6.873m12.454-5.4-2.152,2.562V1.076h-1.612V17.117h1.612V10.49l7.9-9.414h1.991L149.89,9.1l6.725,8.017h-1.991l-5.732-6.828Z" transform="translate(-38.646 -0.383)" fill="#fff"/><path d="M6.32.693c3.382,0,5.957,1.4,5.957,5.494S9.7,11.681,6.32,11.681H3.982v5.038H0V.693Zm0,7.352a1.831,1.831,0,0,0,2.054-1.9A1.864,1.864,0,0,0,6.289,4.235H3.982v3.81H6.32ZM44.621.693H38.3V16.719h3.982V11.681h2.339c3.381,0,5.956-1.4,5.956-5.494S48,.693,44.621.693ZM21.391,6.833l0-.016,4.535,3.306a1.056,1.056,0,0,1,.395,1.133l-1.438,4.408a8.619,8.619,0,0,1-3.494-5.258H16.117v2.739H21.41v3.59H12.135V.693h9.276V4.282H16.164v2.55h5.226Zm38.154,9.9H68.7v-3.59H63.456V10.406h5.277V6.833H63.487V4.282h5.246V.693H59.474V13.145H54.355V.693h-4V16.734h9.189ZM44.621,8.075H42.283V4.251h2.306a1.864,1.864,0,0,1,2.086,1.9,1.835,1.835,0,0,1-2.054,1.921Zm-17.587-1.4-5.593.016a8.666,8.666,0,0,1,16.875,0l-5.593-.016a1.109,1.109,0,0,1-1.027-.74L29.879.425l-1.817,5.51a1.127,1.127,0,0,1-1.028.74ZM30.5,13.429l3.7,2.66a8.626,8.626,0,0,1-8.659,0l3.7-2.66a1.115,1.115,0,0,1,1.265,0Zm7.853-6.6-4.566,3.337a1.114,1.114,0,0,0-.332,1.149l1.406,4.376a8.6,8.6,0,0,0,3.682-7.053A9.476,9.476,0,0,0,38.348,6.832Z" fill="#fff"/></svg>