<svg id="ok-black-087d6a68d6f3e5ea32919dc61fd90358c388608e40bd33a0b721f5f36d49afe0" xmlns="http://www.w3.org/2000/svg" width="9.191" height="17.98" viewBox="0 0 9.191 17.98">
  <g id="Group_41" data-name="Group 41" transform="translate(0)">
    <path id="Path_106" data-name="Path 106" d="M487.892,208.37a1.718,1.718,0,1,0,1.711-1.87A1.8,1.8,0,0,0,487.892,208.37Zm-2.425,0a4.72,4.72,0,0,1,1.212-3.189,3.946,3.946,0,0,1,2.923-1.311,4.505,4.505,0,1,1-4.136,4.5Zm5.792,8.3,2.306,2.74a1.608,1.608,0,0,1,0,2.02,1.072,1.072,0,0,1-1.7,0l-2.251-2.68-2.251,2.68a1.079,1.079,0,0,1-.851.42,1.128,1.128,0,0,1-.851-.42,1.616,1.616,0,0,1,0-2.02l2.287-2.73a7.031,7.031,0,0,1-2.379-1.18,1.591,1.591,0,0,1-.375-1.97,1.086,1.086,0,0,1,1.647-.45,4.5,4.5,0,0,0,5.517,0,1.094,1.094,0,0,1,1.656.45,1.6,1.6,0,0,1-.375,1.97,7.069,7.069,0,0,1-2.379,1.18Z" transform="translate(-485.004 -203.87)" fill="#1a1a1a"/>
  </g>
</svg>
