<svg xmlns="http://www.w3.org/2000/svg" width="47.838" height="18.297" viewBox="0 0 47.838 18.297"><g transform="translate(0 -1.2)"><path d="M8.178,19.962c4.243,0,7.054-2.122,7.054-5.694,0-3.319-2.5-4.624-6.51-5.495-2.412-.544-3.01-.907-3.01-1.7,0-.671.58-1.179,1.741-1.179a8.778,8.778,0,0,1,4.9,1.723L14.761,4.2A11.036,11.036,0,0,0,7.58,1.9C3.391,1.9.816,4.239.816,7.485c0,3.645,2.865,4.7,6.583,5.531,2.376.544,2.938.943,2.938,1.668,0,.8-.707,1.251-1.995,1.251a8.975,8.975,0,0,1-5.658-2.1L0,17.06a12.2,12.2,0,0,0,8.178,2.9Z" transform="translate(0 -0.573)" fill="#fff"/><path d="M90.579,1.472l-2.031,8.2L85.138,1.254h-8.8l-.091.308H78.9L74.657,18.591h-2.5l-.054.218h4.425l.091-.218H74.947L78.991,2.342,86.353,19.5l4.5-18.025h2.376L93.3,1.2H88.276l-.073.272Z" transform="translate(-59.025)" fill="#fff"/><path d="M180.513,19.752a8.782,8.782,0,0,0,7.725-3.935l-3.645-2.593a4.782,4.782,0,0,1-3.935,2.122c-2.448,0-4.171-2.049-4.171-4.66,0-2.593,1.723-4.66,4.171-4.66A4.735,4.735,0,0,1,184.5,8.038L188.038,5.3a8.37,8.37,0,0,0-7.326-3.7,8.973,8.973,0,0,0-9.212,9.085,8.889,8.889,0,0,0,9.013,9.067Z" transform="translate(-140.4 -0.327)" fill="#fff"/></g></svg>