<svg id="tw-black-e713cb4e81c58e69df9d062cc79fa9c2b250dd11956017c10df44945c53b845d" xmlns="http://www.w3.org/2000/svg" width="16.552" height="13.98" viewBox="0 0 16.552 13.98">
  <g id="Group_42" data-name="Group 42" transform="translate(0)">
    <path id="Path_107" data-name="Path 107" d="M496.532,181.6a7.067,7.067,0,0,1-1.931.6,3.207,3.207,0,0,0,1.464-1.99,5.458,5.458,0,0,1-2.1.8,3.416,3.416,0,0,0-2.489-1.1,3.492,3.492,0,0,0-3.312,4.3,9.078,9.078,0,0,1-6.981-3.7,3.585,3.585,0,0,0,1.006,4.69,4.011,4.011,0,0,1-1.555-.4,3.537,3.537,0,0,0,2.745,3.5,2.707,2.707,0,0,1-1.555.1,3.531,3.531,0,0,0,3.129,2.49,6.7,6.7,0,0,1-4.968,1.4,9.367,9.367,0,0,0,5.243,1.6c6.341,0,9.836-5.5,9.653-10.49a7.4,7.4,0,0,0,1.647-1.8Z" transform="translate(-479.98 -179.91)" fill="#1a1a1a"/>
  </g>
</svg>
