<svg id="vk-black-4f384589da2f6a153ae7b628b0b0abc51c9add998de20bb000ed8d1567adc716" xmlns="http://www.w3.org/2000/svg" width="14.625" height="10.343" viewBox="0 0 14.625 10.343">
  <g id="Group_43" data-name="Group 43" transform="translate(0)">
    <path id="Path_108" data-name="Path 108" d="M490.172,168.02c.366,0,.549-.3.549-.7,0-1.5.274-2,1.107-1,1.006,1.2,1.189,1.6,2.3,1.6h1.748c1.656,0,.274-1.6-.823-2.9s-1.189-1.29-.274-2.68c1.281-1.9,2.663-4.3,1.281-4.3h-2.1c-.457,0-.558.3-.741.8-.641,1.9-1.839,4.6-2.3,4.2s-.275-1.7-.275-4c0-.6,0-1-.732-1.2-2.031-.5-3.6.6-2.763.8,1.006.3,1.006,2.8.732,4-.457,1.99-2.205-2.1-2.754-3.9-.183-.4-.274-.8-.732-.8h-1.848c-.457,0-.641.3-.457.7s1.748,4.8,3.678,7.29c1.839,2.5,3.221,2.1,4.41,2.1Z" transform="translate(-482.013 -157.711)" fill="#1a1a1a"/>
  </g>
</svg>
